<svg width="128" height="40" viewBox="0 0 128 40" fill="none" xmlns="http://www.w3.org/2000/svg">
<path fill-rule="evenodd" clip-rule="evenodd" d="M16.2171 7.07798C16.8524 6.90776 17.5054 7.28477 17.6756 7.92007L19.5239 14.8179L24.5735 9.7682C25.0386 9.30313 25.7926 9.30313 26.2577 9.7682L28.3648 11.8753C28.8299 12.3403 28.8299 13.0944 28.3648 13.5594L23.3153 18.6089L30.2125 20.457C30.8478 20.6273 31.2248 21.2803 31.0546 21.9156L30.2833 24.7939C30.1131 25.4292 29.4601 25.8062 28.8248 25.636L21.9274 23.7878L23.7755 30.6853C23.9458 31.3206 23.5687 31.9736 22.9334 32.1438L20.0551 32.9151C19.4198 33.0853 18.7668 32.7083 18.5966 32.073L15.9472 22.1854L6.0596 19.536C5.4243 19.3658 5.04728 18.7128 5.21751 18.0775L5.98875 15.1992C6.15898 14.5639 6.81199 14.1869 7.44729 14.3571L14.3449 16.2053L12.4967 9.30777C12.3265 8.67246 12.7035 8.01945 13.3388 7.84922L16.2171 7.07798Z" fill="#D1F6EC"/>
<path d="M5.99867 15.1912C6.16899 14.5561 6.82149 14.1793 7.45668 14.3494L19.651 17.617C19.9007 17.6839 20.1118 17.8262 20.2643 18.0125C20.3907 18.15 20.4865 18.3193 20.5377 18.5106L23.8014 30.6893C23.9716 31.3246 23.5939 31.978 22.9586 32.1483L20.0807 32.9198C19.4454 33.0899 18.7929 32.7122 18.6227 32.077L15.9704 22.1815L6.06898 19.5282C5.43391 19.3579 5.05723 18.7053 5.22719 18.0702L5.99867 15.1912Z" fill="#00FCB4"/>
<path d="M10.0021 24.3388C10.4671 23.874 11.2206 23.8741 11.6857 24.3388L13.7931 26.4463C14.2581 26.9113 14.2581 27.6648 13.7931 28.1299L11.6857 30.2373C11.2206 30.7021 10.4671 30.7022 10.0021 30.2373L7.89468 28.1299C7.42998 27.6648 7.42995 26.9113 7.89468 26.4463L10.0021 24.3388Z" fill="#00FCB4"/>
<path d="M114.42 30.6027C112.861 30.6027 111.496 30.2538 110.326 29.5559C109.156 28.8376 108.243 27.8729 107.586 26.662C106.949 25.4511 106.631 24.117 106.631 22.6597C106.631 21.182 106.939 19.8479 107.555 18.6575C108.171 17.4465 109.053 16.4922 110.203 15.7943C111.352 15.076 112.707 14.7168 114.266 14.7168C115.847 14.7168 117.201 15.076 118.33 15.7943C119.48 16.4922 120.362 17.4465 120.978 18.6575C121.594 19.8479 121.901 21.182 121.901 22.6597V23.5833H109.002C109.125 24.4864 109.412 25.3176 109.864 26.077C110.336 26.8159 110.962 27.4111 111.742 27.8627C112.522 28.2937 113.425 28.5092 114.451 28.5092C115.539 28.5092 116.452 28.2732 117.191 27.8011C117.93 27.3085 118.505 26.6825 118.915 25.9231H121.44C120.906 27.2982 120.054 28.4271 118.884 29.3096C117.735 30.1717 116.247 30.6027 114.42 30.6027ZM109.033 21.4283H119.5C119.295 20.1147 118.741 19.0167 117.838 18.1341C116.935 17.2516 115.744 16.8103 114.266 16.8103C112.789 16.8103 111.598 17.2516 110.695 18.1341C109.813 19.0167 109.258 20.1147 109.033 21.4283Z" fill="#2E3837"/>
<path d="M102.504 30.3553V8.80469H104.813V30.3553H102.504Z" fill="#2E3837"/>
<path d="M93.2452 30.6016C91.9727 30.6016 90.8746 30.3553 89.951 29.8627C89.048 29.3701 88.3091 28.7134 87.7344 27.8924V30.3553H85.4254V8.80469H87.7344V17.4557C88.3091 16.6142 89.048 15.9472 89.951 15.4546C90.8746 14.962 91.9727 14.7157 93.2452 14.7157C94.7435 14.7157 96.0468 15.0749 97.1551 15.7932C98.2839 16.4911 99.1562 17.4455 99.772 18.6564C100.388 19.8468 100.696 21.1809 100.696 22.6587C100.696 24.1159 100.388 25.45 99.772 26.6609C99.1562 27.8718 98.2839 28.8365 97.1551 29.5548C96.0468 30.2527 94.7435 30.6016 93.2452 30.6016ZM92.9373 28.5081C94.0867 28.5081 95.0616 28.2413 95.8621 27.7077C96.683 27.174 97.309 26.4659 97.7401 25.5834C98.1711 24.6803 98.3866 23.7054 98.3866 22.6587C98.3866 21.5914 98.1711 20.6165 97.7401 19.7339C97.309 18.8514 96.683 18.1433 95.8621 17.6097C95.0616 17.076 94.0867 16.8092 92.9373 16.8092C91.8085 16.8092 90.8439 17.076 90.0434 17.6097C89.243 18.1433 88.6375 18.8514 88.227 19.7339C87.8165 20.6165 87.6113 21.5914 87.6113 22.6587C87.6113 23.7054 87.8165 24.6803 88.227 25.5834C88.6375 26.4659 89.243 27.174 90.0434 27.7077C90.8439 28.2413 91.8085 28.5081 92.9373 28.5081Z" fill="#2E3837"/>
<path d="M75.9599 30.6027C74.4 30.6027 73.0454 30.2538 71.8961 29.5559C70.7467 28.8376 69.8642 27.8729 69.2484 26.662C68.6327 25.4511 68.3248 24.117 68.3248 22.6597C68.3248 21.182 68.6327 19.8479 69.2484 18.6575C69.8642 17.4465 70.7467 16.4922 71.8961 15.7943C73.0454 15.076 74.4 14.7168 75.9599 14.7168C77.5403 14.7168 78.8949 15.076 80.0237 15.7943C81.1731 16.4922 82.0557 17.4465 82.6714 18.6575C83.2871 19.8479 83.595 21.182 83.595 22.6597C83.595 24.117 83.2871 25.4511 82.6714 26.662C82.0557 27.8729 81.1731 28.8376 80.0237 29.5559C78.8949 30.2538 77.5403 30.6027 75.9599 30.6027ZM75.9599 28.5092C77.1093 28.5092 78.0739 28.2424 78.8538 27.7087C79.6543 27.1751 80.2598 26.467 80.6703 25.5845C81.0807 24.6814 81.286 23.7065 81.286 22.6597C81.286 21.5925 81.0807 20.6176 80.6703 19.735C80.2598 18.8525 79.6543 18.1444 78.8538 17.6107C78.0739 17.0771 77.1093 16.8103 75.9599 16.8103C74.8311 16.8103 73.8664 17.0771 73.066 17.6107C72.2655 18.1444 71.66 18.8525 71.2496 19.735C70.8391 20.6176 70.6338 21.5925 70.6338 22.6597C70.6338 23.7065 70.8391 24.6814 71.2496 25.5845C71.66 26.467 72.2655 27.1751 73.066 27.7087C73.8664 28.2424 74.8311 28.5092 75.9599 28.5092Z" fill="#2E3837"/>
<path d="M60.2883 30.3564V14.9631H62.5973V18.7498C62.6794 18.483 62.8334 18.1341 63.0591 17.7031C63.3054 17.2516 63.6543 16.8 64.1059 16.3485C64.5574 15.8969 65.1218 15.5172 65.7991 15.2094C66.497 14.881 67.3179 14.7168 68.2621 14.7168H68.416V17.0258H68.1389C66.9895 17.0258 65.9941 17.3439 65.1526 17.9802C64.3316 18.5959 63.6954 19.4066 63.2438 20.4123C62.8128 21.3975 62.5973 22.4545 62.5973 23.5833V30.3564H60.2883Z" fill="#2E3837"/>
<path d="M48.4463 30.6018C46.3733 30.6018 44.5877 30.14 43.0894 29.2164C41.6117 28.2723 40.4726 27.0101 39.6721 25.4297C38.8717 23.8493 38.4714 22.0945 38.4714 20.1652C38.4714 18.2359 38.8819 16.481 39.7029 14.9007C40.5239 13.3203 41.6835 12.0683 43.1818 11.1447C44.7006 10.2006 46.4759 9.72852 48.5079 9.72852C50.704 9.72852 52.6025 10.2724 54.2034 11.3602C55.8248 12.4275 57.0152 13.8129 57.7746 15.5164H55.2501C54.6344 14.4286 53.7724 13.5666 52.6641 12.9303C51.5763 12.2941 50.2524 11.9759 48.6926 11.9759C47.0506 11.9759 45.6344 12.3454 44.444 13.0843C43.2536 13.8026 42.3403 14.7775 41.704 16.009C41.0883 17.2404 40.7804 18.6258 40.7804 20.1652C40.7804 21.684 41.0883 23.0694 41.704 24.3214C42.3198 25.5528 43.2126 26.538 44.3825 27.2769C45.5729 27.9952 46.9891 28.3544 48.631 28.3544C49.8625 28.3544 51.0221 28.0876 52.1099 27.554C53.2182 27.0203 54.111 26.2507 54.7883 25.245C55.4862 24.2393 55.8351 23.0283 55.8351 21.6121H48.3847V19.5187H57.9593V30.3555H55.8351V26.7535C55.4041 27.4103 54.8499 28.0363 54.1726 28.6315C53.4953 29.2062 52.6743 29.6782 51.7097 30.0477C50.7655 30.4171 49.6778 30.6018 48.4463 30.6018Z" fill="#2E3837"/>
</svg>
