<svg width="21" height="20" viewBox="0 0 21 20" fill="none" xmlns="http://www.w3.org/2000/svg">
<path fill-rule="evenodd" clip-rule="evenodd" d="M4.25 7.91667H8.41667V3.75H4.25V7.91667ZM16.75 3.75V7.91667H12.5833V3.75H16.75ZM8.41667 12.0833V16.25H4.25V12.0833H8.41667ZM3.83333 9.16667H8.83333C9.05435 9.16667 9.26631 9.07887 9.42259 8.92259C9.57887 8.76631 9.66667 8.55435 9.66667 8.33333V3.33333C9.66667 3.11232 9.57887 2.90036 9.42259 2.74408C9.26631 2.5878 9.05435 2.5 8.83333 2.5H3.83333C3.61232 2.5 3.40036 2.5878 3.24408 2.74408C3.0878 2.90036 3 3.11232 3 3.33333V8.33333C3 8.55435 3.0878 8.76631 3.24408 8.92259C3.40036 9.07887 3.61232 9.16667 3.83333 9.16667ZM12.1667 9.16667H17.1667C17.3877 9.16667 17.5996 9.07887 17.7559 8.92259C17.9122 8.76631 18 8.55435 18 8.33333V3.33333C18 3.11232 17.9122 2.90036 17.7559 2.74408C17.5996 2.5878 17.3877 2.5 17.1667 2.5H12.1667C11.9457 2.5 11.7337 2.5878 11.5774 2.74408C11.4211 2.90036 11.3333 3.11232 11.3333 3.33333V8.33333C11.3333 8.55435 11.4211 8.76631 11.5774 8.92259C11.7337 9.07887 11.9457 9.16667 12.1667 9.16667ZM3.83333 17.5H8.83333C9.05435 17.5 9.26631 17.4122 9.42259 17.2559C9.57887 17.0996 9.66667 16.8877 9.66667 16.6667V11.6667C9.66667 11.4457 9.57887 11.2337 9.42259 11.0774C9.26631 10.9211 9.05435 10.8333 8.83333 10.8333H3.83333C3.61232 10.8333 3.40036 10.9211 3.24408 11.0774C3.0878 11.2337 3 11.4457 3 11.6667V16.6667C3 16.8877 3.0878 17.0996 3.24408 17.2559C3.40036 17.4122 3.61232 17.5 3.83333 17.5ZM16.75 12.0833V16.25H12.5833V12.0833H16.75ZM12.1667 17.5H17.1667C17.3877 17.5 17.5996 17.4122 17.7559 17.2559C17.9122 17.0996 18 16.8877 18 16.6667V11.6667C18 11.4457 17.9122 11.2337 17.7559 11.0774C17.5996 10.9211 17.3877 10.8333 17.1667 10.8333H12.1667C11.9457 10.8333 11.7337 10.9211 11.5774 11.0774C11.4211 11.2337 11.3333 11.4457 11.3333 11.6667V16.6667C11.3333 16.8877 11.4211 17.0996 11.5774 17.2559C11.7337 17.4122 11.9457 17.5 12.1667 17.5Z" fill="#008660"/>
</svg>
