<svg width="21" height="20" viewBox="0 0 21 20" fill="none" xmlns="http://www.w3.org/2000/svg">
<path fill-rule="evenodd" clip-rule="evenodd" d="M11.7705 2.18475C10.8814 1.82904 9.88946 1.82904 9.0003 2.18475L3.00343 4.58579C2.6983 4.70781 2.43669 4.91839 2.25229 5.1904C2.06789 5.46241 1.96913 5.7834 1.96875 6.11202L1.96875 14.0767L1.96875 14.0767C1.9687 14.4057 2.06725 14.7272 2.25167 14.9996C2.43611 15.272 2.69796 15.483 3.00343 15.6051L9.0003 18.0041C9.88946 18.3598 10.8814 18.3598 11.7705 18.0041L17.7674 15.6051C18.0729 15.483 18.3347 15.272 18.5192 14.9996C18.7036 14.7271 18.8021 14.4057 18.8021 14.0767V6.11208C18.8019 5.78327 18.7033 5.46204 18.5189 5.18982C18.3344 4.91759 18.0727 4.70685 17.7674 4.58475L17.7674 4.58474L11.7705 2.18475L11.7705 2.18475ZM9.4497 3.30824C10.0507 3.06783 10.7212 3.06783 11.3222 3.30824L16.5713 5.40788L14.4219 6.26613L8.23597 3.79337L9.44968 3.30825L9.4497 3.30824ZM4.19933 5.4069L6.60939 4.4425L12.7955 6.91635L10.3854 7.88173L4.19933 5.4069ZM10.9896 16.988V8.94041L17.5938 6.29875V14.0758C17.5939 14.1633 17.5678 14.2489 17.5188 14.3214C17.4698 14.3939 17.4002 14.4501 17.319 14.4827L11.3225 16.8815L11.3224 16.8815C11.2132 16.9247 11.1023 16.9602 10.9896 16.988ZM3.17708 14.0767V6.29977L9.78125 8.94042V16.9882C9.66845 16.9603 9.55766 16.9248 9.4497 16.8816L9.44967 16.8816L3.45183 14.4827C3.37073 14.4502 3.30122 14.3941 3.25225 14.3218C3.20329 14.2494 3.17711 14.1641 3.17708 14.0767V14.0767Z" fill="#008660"/>
</svg>
