<svg width="21" height="20" viewBox="0 0 21 20" fill="none" xmlns="http://www.w3.org/2000/svg">
<path fill-rule="evenodd" clip-rule="evenodd" d="M7.64556 18.5222C7.14655 18.957 6.86369 19.1667 6.44773 19.1667C5.87384 19.1667 5.54093 18.7639 5.54093 18.1435V16.0493H5.14166C2.67111 16.0493 1.33203 14.7281 1.33203 12.3597V6.18927C1.33203 3.82118 2.67147 2.5 5.14166 2.5H15.8557C18.3344 2.5 19.6654 3.82909 19.6654 6.18927V12.3597C19.6654 14.7202 18.3344 16.0493 15.8557 16.0493H10.5239L7.64556 18.5222ZM6.78845 15.3564V17.6925L9.45029 15.1309C9.76687 14.8168 10.0079 14.7522 10.4653 14.7522H15.8557C17.5359 14.7522 18.3259 13.9225 18.3259 12.3518V6.18927C18.3259 4.61856 17.5359 3.79712 15.8557 3.79712H5.15017C3.4615 3.79712 2.67111 4.61856 2.67111 6.18927V12.3518C2.67111 13.9225 3.4615 14.7522 5.14982 14.7522H6.16487C6.62235 14.7522 6.78845 14.9216 6.78845 15.3564ZM9.23276 7.50037C9.23276 7.96152 8.85578 8.33408 8.38917 8.33408C7.92255 8.33408 7.54557 7.96152 7.54557 7.50037C7.54557 7.03923 7.92255 6.66667 8.38917 6.66667C8.85578 6.66667 9.23276 7.03923 9.23276 7.50037ZM13.4507 7.50037C13.4507 7.96152 13.0738 8.33408 12.6071 8.33408C12.1405 8.33408 11.7635 7.96152 11.7635 7.50037C11.7635 7.03923 12.1405 6.66667 12.6071 6.66667C13.0738 6.66667 13.4507 7.03923 13.4507 7.50037ZM10.4982 11.252C11.3549 11.252 12.1643 10.8769 12.7126 10.2255C12.9367 9.9598 13.3374 9.92593 13.6036 10.1448C13.8725 10.3662 13.9094 10.7596 13.6854 11.0254C12.8945 11.9633 11.7319 12.5 10.4982 12.5C9.2644 12.5 8.10182 11.9633 7.31095 11.0254C7.0895 10.7596 7.12378 10.3662 7.39267 10.1448C7.65893 9.92593 8.05964 9.9598 8.28372 10.2255C8.83205 10.8795 9.64138 11.252 10.4982 11.252Z" fill="#008660"/>
</svg>
