<svg width="20" height="20" viewBox="0 0 20 20" fill="none" xmlns="http://www.w3.org/2000/svg">
<path fill-rule="evenodd" clip-rule="evenodd" d="M2.52267 2.49609C2.05063 2.49609 1.66797 2.87876 1.66797 3.35079V6.55592C1.66797 7.50517 2.08063 8.35805 2.73634 8.94493V10.2395V15.795C2.73634 16.7391 3.50167 17.5044 4.44575 17.5044H15.5569C16.5009 17.5044 17.2663 16.7391 17.2663 15.795V10.2395V8.94493C17.922 8.35805 18.3346 7.50518 18.3346 6.55592V3.35079C18.3346 2.87876 17.952 2.49609 17.4799 2.49609H13.2064H11.9244H8.07823H6.79618H2.52267ZM15.9842 9.64583C15.7121 9.72093 15.4255 9.76105 15.1295 9.76105C14.081 9.76105 13.1502 9.25763 12.5654 8.47931C11.9806 9.25763 11.0498 9.76105 10.0013 9.76105C8.95284 9.76105 8.02196 9.25763 7.4372 8.47931C6.85244 9.25763 5.92156 9.76105 4.8731 9.76105C4.57711 9.76105 4.2905 9.72093 4.0184 9.64583V10.2395V15.795C4.0184 16.031 4.20973 16.2224 4.44575 16.2224H6.5825V13.1799C6.5825 12.2358 7.34782 11.4705 8.2919 11.4705H11.7107C12.6548 11.4705 13.4201 12.2358 13.4201 13.1799V16.2224H15.5569C15.7929 16.2224 15.9842 16.031 15.9842 15.795V10.2395V9.64583ZM2.95002 3.77814L2.95002 6.55592C2.95002 7.61801 3.81101 8.479 4.8731 8.479C5.93518 8.479 6.79617 7.61801 6.79617 6.55592L6.79617 3.77815L2.95002 3.77814ZM11.9244 3.77815L8.07823 3.77814L8.07823 6.55592C8.07823 7.61801 8.93922 8.479 10.0013 8.479C11.0634 8.479 11.9244 7.61801 11.9244 6.55592L11.9244 3.77815ZM13.2064 3.77814L13.2064 6.55592C13.2064 7.61801 14.0674 8.479 15.1295 8.479C16.1916 8.479 17.0526 7.61801 17.0526 6.55592V3.77815L13.2064 3.77814ZM12.1381 13.1799C12.1381 12.9439 11.9467 12.7525 11.7107 12.7525H8.2919C8.05588 12.7525 7.86455 12.9439 7.86455 13.1799V16.1713H12.1381V13.1799Z" fill="#008660"/>
</svg>
