<svg width="20" height="20" viewBox="0 0 20 20" fill="none" xmlns="http://www.w3.org/2000/svg">
<path fill-rule="evenodd" clip-rule="evenodd" d="M13.7826 2.42337C13.4382 2.35452 13.0826 2.36575 12.7432 2.45619L3.57648 4.90037C3.08845 5.03045 2.65706 5.3181 2.34936 5.71862C2.04168 6.11913 1.87492 6.6102 1.875 7.11525V7.50094C1.875 7.50093 1.875 7.50095 1.875 7.50094V15.001C1.875 15.6088 2.11644 16.1917 2.54621 16.6214C2.97598 17.0512 3.55888 17.2926 4.16667 17.2926H15.8333C16.4411 17.2926 17.024 17.0512 17.4538 16.6214C17.8836 16.1917 18.125 15.6088 18.125 15.001V7.50098C18.125 6.89319 17.8836 6.31029 17.4538 5.88052C17.024 5.45075 16.4411 5.20931 15.8333 5.20931H15.625V4.66994C15.6249 4.31874 15.5441 3.97227 15.3888 3.65727C15.2335 3.34227 15.0079 3.06718 14.7294 2.85323C14.4509 2.63928 14.1269 2.49221 13.7826 2.42337ZM14.375 5.20931V4.67028C14.3749 4.51071 14.3382 4.35311 14.2676 4.20998C14.1971 4.0668 14.0945 3.94176 13.9679 3.84451C13.8413 3.74726 13.6941 3.68041 13.5375 3.64912C13.381 3.61783 13.2194 3.62293 13.0652 3.66401L7.26966 5.20931H14.375ZM3.125 7.50094C3.125 7.50093 3.125 7.50095 3.125 7.50094V15.001C3.125 15.2772 3.23475 15.5422 3.4301 15.7375C3.62545 15.9329 3.8904 16.0426 4.16667 16.0426H15.8333C16.1096 16.0426 16.3746 15.9329 16.5699 15.7375C16.7653 15.5422 16.875 15.2772 16.875 15.001V7.50098C16.875 7.22471 16.7653 6.95976 16.5699 6.76441C16.3746 6.56906 16.1096 6.45931 15.8333 6.45931H4.16667C3.8904 6.45931 3.62545 6.56906 3.4301 6.76441C3.23475 6.95975 3.12501 7.22469 3.125 7.50094ZM13.0134 10.5144C13.2088 10.3191 13.4737 10.2093 13.75 10.2093C14.0263 10.2093 14.2912 10.3191 14.4866 10.5144C14.6819 10.7098 14.7917 10.9747 14.7917 11.251C14.7917 11.5272 14.6819 11.7922 14.4866 11.9875C14.2912 12.1829 14.0263 12.2926 13.75 12.2926C13.4737 12.2926 13.2088 12.1829 13.0134 11.9875C12.8181 11.7922 12.7083 11.5272 12.7083 11.251C12.7083 10.9747 12.8181 10.7098 13.0134 10.5144Z" fill="#008660"/>
</svg>
