<svg width="463" height="338" viewBox="0 0 463 338" fill="none" xmlns="http://www.w3.org/2000/svg">
<g filter="url(#filter0_dd_3245_45499)">
<g clip-path="url(#clip0_3245_45499)">
<path d="M15.5 18.1016C15.5 13.6833 19.0817 10.1016 23.5 10.1016H439.219C443.637 10.1016 447.219 13.6833 447.219 18.1016V309.102C447.219 313.52 443.637 317.102 439.219 317.102H23.5C19.0817 317.102 15.5 313.52 15.5 309.102V18.1016Z" fill="#F7F7F8"/>
<rect x="15.6499" y="10.2515" width="431.419" height="19.4873" fill="white"/>
<rect x="15.6499" y="10.2515" width="431.419" height="19.4873" stroke="#F4F4F5" stroke-width="0.299805"/>
<path fill-rule="evenodd" clip-rule="evenodd" d="M26.3583 16.1197C26.5488 16.0686 26.7446 16.1817 26.7956 16.3721L27.3497 18.4401L28.8636 16.9262C29.0031 16.7868 29.2291 16.7868 29.3685 16.9262L30.0003 17.5579C30.1397 17.6974 30.1397 17.9234 30.0003 18.0628L28.4864 19.5767L30.5542 20.1308C30.7447 20.1818 30.8577 20.3776 30.8067 20.5681L30.5754 21.431C30.5244 21.6214 30.3286 21.7345 30.1382 21.6834L28.0703 21.1294L28.6244 23.1973C28.6754 23.3877 28.5624 23.5835 28.3719 23.6345L27.509 23.8658C27.3185 23.9168 27.1227 23.8038 27.0717 23.6133L26.2774 20.649L23.3131 19.8547C23.1226 19.8036 23.0096 19.6078 23.0606 19.4174L23.2918 18.5545C23.3429 18.364 23.5386 18.251 23.7291 18.302L25.797 18.8561L25.2429 16.7882C25.1919 16.5977 25.3049 16.4019 25.4954 16.3509L26.3583 16.1197Z" fill="#D1F6EC"/>
<path d="M23.732 18.2992L27.3882 19.2787C27.4631 19.2988 27.5261 19.342 27.5718 19.3979C27.6097 19.4391 27.6385 19.4899 27.6539 19.5473L28.6324 23.1986C28.6833 23.389 28.5707 23.585 28.3804 23.6361L27.5171 23.8666C27.3267 23.9176 27.1307 23.8051 27.0796 23.6147L26.2847 20.6479L23.316 19.852C23.1257 19.8008 23.013 19.6048 23.064 19.4145L23.2955 18.5522C23.3465 18.3618 23.5416 18.2485 23.732 18.2992Z" fill="#00FCB4"/>
<path d="M24.4941 21.2943C24.6334 21.155 24.8595 21.1553 24.999 21.2943L25.6308 21.9261C25.7702 22.0656 25.7702 22.2916 25.6308 22.431L24.999 23.0629C24.8595 23.2021 24.6335 23.2022 24.4941 23.0629L23.8632 22.431C23.7238 22.2916 23.7238 22.0656 23.8632 21.9261L24.4941 21.2943Z" fill="#00FCB4"/>
<path d="M55.7998 23.1728C55.3321 23.1728 54.9229 23.0682 54.5722 22.859C54.2215 22.6436 53.9476 22.3544 53.7507 21.9914C53.56 21.6283 53.4646 21.2284 53.4646 20.7915C53.4646 20.3484 53.5569 19.9485 53.7415 19.5916C53.9261 19.2285 54.1907 18.9424 54.5353 18.7332C54.8799 18.5178 55.286 18.4102 55.7536 18.4102C56.2274 18.4102 56.6336 18.5178 56.972 18.7332C57.3166 18.9424 57.5812 19.2285 57.7658 19.5916C57.9504 19.9485 58.0427 20.3484 58.0427 20.7915V21.0684H54.1753C54.2122 21.3391 54.2984 21.5883 54.4337 21.816C54.5753 22.0375 54.7629 22.216 54.9968 22.3514C55.2306 22.4806 55.5013 22.5452 55.809 22.5452C56.1351 22.5452 56.409 22.4744 56.6305 22.3329C56.852 22.1852 57.0243 21.9975 57.1474 21.7699H57.9042C57.7442 22.1821 57.4889 22.5206 57.1381 22.7852C56.7935 23.0436 56.3474 23.1728 55.7998 23.1728ZM54.1845 20.4223H57.3227C57.2612 20.0285 57.0951 19.6993 56.8243 19.4347C56.5536 19.1701 56.1967 19.0378 55.7536 19.0378C55.3106 19.0378 54.9537 19.1701 54.683 19.4347C54.4184 19.6993 54.2522 20.0285 54.1845 20.4223Z" fill="#2E3837"/>
<path d="M52.2271 23.0987V16.6377H52.9193V23.0987H52.2271Z" fill="#2E3837"/>
<path d="M49.4513 23.1725C49.0698 23.1725 48.7406 23.0987 48.4637 22.951C48.193 22.8033 47.9715 22.6064 47.7992 22.3603V23.0987H47.1069V16.6377H47.7992V19.2313C47.9715 18.979 48.193 18.779 48.4637 18.6314C48.7406 18.4837 49.0698 18.4098 49.4513 18.4098C49.9005 18.4098 50.2913 18.5175 50.6235 18.7329C50.962 18.9421 51.2235 19.2282 51.4081 19.5913C51.5927 19.9482 51.685 20.3481 51.685 20.7912C51.685 21.2281 51.5927 21.628 51.4081 21.9911C51.2235 22.3541 50.962 22.6433 50.6235 22.8587C50.2913 23.0679 49.9005 23.1725 49.4513 23.1725ZM49.359 22.5449C49.7036 22.5449 49.9959 22.4649 50.2359 22.3049C50.482 22.1449 50.6697 21.9326 50.7989 21.668C50.9281 21.3973 50.9927 21.105 50.9927 20.7912C50.9927 20.4712 50.9281 20.1789 50.7989 19.9143C50.6697 19.6497 50.482 19.4375 50.2359 19.2775C49.9959 19.1175 49.7036 19.0375 49.359 19.0375C49.0206 19.0375 48.7314 19.1175 48.4914 19.2775C48.2514 19.4375 48.0699 19.6497 47.9469 19.9143C47.8238 20.1789 47.7623 20.4712 47.7623 20.7912C47.7623 21.105 47.8238 21.3973 47.9469 21.668C48.0699 21.9326 48.2514 22.1449 48.4914 22.3049C48.7314 22.4649 49.0206 22.5449 49.359 22.5449Z" fill="#2E3837"/>
<path d="M44.2691 23.1728C43.8015 23.1728 43.3954 23.0682 43.0508 22.859C42.7062 22.6436 42.4416 22.3544 42.257 21.9914C42.0724 21.6283 41.9801 21.2284 41.9801 20.7915C41.9801 20.3484 42.0724 19.9485 42.257 19.5916C42.4416 19.2285 42.7062 18.9424 43.0508 18.7332C43.3954 18.5178 43.8015 18.4102 44.2691 18.4102C44.7429 18.4102 45.1491 18.5178 45.4875 18.7332C45.8321 18.9424 46.0967 19.2285 46.2813 19.5916C46.4659 19.9485 46.5582 20.3484 46.5582 20.7915C46.5582 21.2284 46.4659 21.6283 46.2813 21.9914C46.0967 22.3544 45.8321 22.6436 45.4875 22.859C45.1491 23.0682 44.7429 23.1728 44.2691 23.1728ZM44.2691 22.5452C44.6137 22.5452 44.9029 22.4652 45.1368 22.3052C45.3767 22.1452 45.5583 21.9329 45.6813 21.6683C45.8044 21.3976 45.8659 21.1053 45.8659 20.7915C45.8659 20.4715 45.8044 20.1792 45.6813 19.9146C45.5583 19.65 45.3767 19.4378 45.1368 19.2778C44.9029 19.1178 44.6137 19.0378 44.2691 19.0378C43.9307 19.0378 43.6415 19.1178 43.4015 19.2778C43.1615 19.4378 42.98 19.65 42.8569 19.9146C42.7339 20.1792 42.6723 20.4715 42.6723 20.7915C42.6723 21.1053 42.7339 21.3976 42.8569 21.6683C42.98 21.9329 43.1615 22.1452 43.4015 22.3052C43.6415 22.4652 43.9307 22.5452 44.2691 22.5452Z" fill="#2E3837"/>
<path d="M39.5706 23.099V18.484H40.2628V19.6193C40.2874 19.5393 40.3336 19.4347 40.4013 19.3055C40.4751 19.1701 40.5797 19.0347 40.7151 18.8993C40.8504 18.764 41.0197 18.6501 41.2227 18.5578C41.4319 18.4594 41.6781 18.4102 41.9611 18.4102H42.0073V19.1024H41.9242C41.5796 19.1024 41.2812 19.1978 41.0289 19.3885C40.7828 19.5731 40.592 19.8162 40.4566 20.1177C40.3274 20.4131 40.2628 20.73 40.2628 21.0684V23.099H39.5706Z" fill="#2E3837"/>
<path d="M36.0203 23.1725C35.3988 23.1725 34.8635 23.034 34.4143 22.7571C33.9712 22.4741 33.6297 22.0956 33.3898 21.6218C33.1498 21.148 33.0298 20.6219 33.0298 20.0435C33.0298 19.4651 33.1529 18.939 33.399 18.4652C33.6451 17.9914 33.9928 17.616 34.442 17.3391C34.8973 17.0561 35.4296 16.9146 36.0388 16.9146C36.6972 16.9146 37.2663 17.0776 37.7463 17.4037C38.2324 17.7237 38.5893 18.1391 38.817 18.6498H38.0601C37.8755 18.3237 37.6171 18.0652 37.2848 17.8745C36.9587 17.6837 36.5618 17.5883 36.0941 17.5883C35.6019 17.5883 35.1773 17.6991 34.8204 17.9206C34.4635 18.136 34.1897 18.4283 33.9989 18.7975C33.8143 19.1667 33.722 19.582 33.722 20.0435C33.722 20.4989 33.8143 20.9142 33.9989 21.2896C34.1835 21.6588 34.4512 21.9541 34.8019 22.1756C35.1588 22.391 35.5834 22.4987 36.0757 22.4987C36.4449 22.4987 36.7925 22.4187 37.1187 22.2587C37.4509 22.0987 37.7186 21.868 37.9217 21.5665C38.1309 21.2649 38.2355 20.9019 38.2355 20.4773H36.0018V19.8497H38.8724V23.0986H38.2355V22.0187C38.1063 22.2156 37.9401 22.4033 37.7371 22.5817C37.534 22.754 37.2879 22.8956 36.9987 23.0063C36.7156 23.1171 36.3895 23.1725 36.0203 23.1725Z" fill="#2E3837"/>
<rect width="53.9648" height="287.213" transform="translate(15.5 29.8887)" fill="white"/>
<g clip-path="url(#clip1_3245_45499)">
<path fill-rule="evenodd" clip-rule="evenodd" d="M22.6952 45.6026V47.5771C22.6952 47.8156 22.79 48.0444 22.9586 48.2131C23.1273 48.3817 23.3561 48.4765 23.5946 48.4765H26.5927C26.8312 48.4765 27.06 48.3817 27.2287 48.2131C27.3973 48.0444 27.4921 47.8156 27.4921 47.5771V45.6026L27.5799 45.6904C27.6365 45.745 27.7122 45.7752 27.7908 45.7746C27.8694 45.7739 27.9446 45.7423 28.0002 45.6868C28.0558 45.6312 28.0873 45.556 28.088 45.4774C28.0887 45.3988 28.0585 45.323 28.0039 45.2665L27.4079 44.6706C27.4067 44.6693 27.4055 44.6681 27.4043 44.6668C27.403 44.6656 27.4018 44.6644 27.4006 44.6632L25.3056 42.5682C25.2494 42.512 25.1731 42.4805 25.0936 42.4805C25.0142 42.4805 24.9379 42.512 24.8817 42.5682L22.7867 44.6632C22.7855 44.6644 22.7843 44.6656 22.783 44.6668C22.7818 44.6681 22.7806 44.6693 22.7794 44.6706L22.1834 45.2665C22.1548 45.2941 22.132 45.3272 22.1163 45.3638C22.1005 45.4004 22.0923 45.4397 22.0919 45.4795C22.0916 45.5193 22.0992 45.5588 22.1142 45.5957C22.1293 45.6325 22.1516 45.666 22.1797 45.6941C22.2079 45.7223 22.2414 45.7445 22.2782 45.7596C22.315 45.7747 22.3545 45.7823 22.3943 45.7819C22.4341 45.7816 22.4735 45.7733 22.5101 45.7576C22.5466 45.7419 22.5797 45.719 22.6074 45.6904L22.6952 45.6026Z" fill="#008660"/>
</g>
<rect x="31.0898" y="41.8809" width="4.40633" height="7.34388" rx="1.46878" fill="#008660"/>
<path d="M34.4542 45.8136V47.0456H31.517V45.8136H34.4542ZM31.0627 45.5653V45.153H32.7303V44.9071C31.9949 44.872 31.5826 44.6705 31.5826 44.3098C31.5826 43.9117 32.0909 43.7102 32.988 43.7102C33.8944 43.7102 34.3956 43.9117 34.398 44.3098C34.3956 44.6705 33.9904 44.872 33.2503 44.9071V45.153H34.9226V45.5653H31.0627ZM31.2547 43.5791V43.1856H32.7303V42.8155H33.2503V43.1856H34.7118V43.5791H31.2547ZM32.0323 46.6521H33.9483V46.207H32.0323V46.6521ZM32.1401 44.3098C32.1401 44.4761 32.4282 44.5581 32.988 44.5581C33.5571 44.5581 33.8382 44.4761 33.8405 44.3098C33.8382 44.1389 33.5571 44.0639 32.988 44.0616C32.4282 44.0639 32.1401 44.1389 32.1401 44.3098Z" fill="#008660"/>
<g clip-path="url(#clip2_3245_45499)">
<path fill-rule="evenodd" clip-rule="evenodd" d="M25.0938 59.5679C24.3487 59.5679 23.7446 60.1719 23.7446 60.917C23.7446 61.6621 24.3487 62.2661 25.0938 62.2661C25.8388 62.2661 26.4429 61.6621 26.4429 60.917C26.4429 60.1719 25.8388 59.5679 25.0938 59.5679ZM24.7939 62.5659C23.3037 62.5659 22.0957 63.774 22.0957 65.2642V65.2941C22.0957 65.4597 22.2299 65.5939 22.3955 65.5939H27.792C27.9576 65.5939 28.0918 65.4597 28.0918 65.2941V65.2642C28.0918 63.774 26.8838 62.5659 25.3936 62.5659H24.7939Z" fill="#C2C4C8"/>
</g>
<rect x="31.0898" y="58.8184" width="13.219" height="7.34388" rx="1.46878" fill="#C2C4C8"/>
<path d="M32.7436 61.0166C32.7389 61.7731 33.1183 62.5367 33.7742 62.8529L33.4556 63.2698C32.9965 63.0379 32.6663 62.5905 32.4859 62.0518C32.3009 62.628 31.9542 63.1058 31.4694 63.3494L31.1509 62.9325C31.8325 62.6093 32.2213 61.7989 32.2236 61.0166V60.342H32.7436V61.0166ZM34.0271 64.2348V60H34.5471V61.6583H35.1982V62.1034H34.5471V64.2348H34.0271ZM39.2636 62.0378V62.4547H35.4036V62.0378H36.303V61.5014C35.9821 61.3656 35.8018 61.1524 35.8018 60.876C35.8018 60.3678 36.3943 60.0703 37.3289 60.0703C38.2611 60.0703 38.8537 60.3678 38.856 60.876C38.8537 61.1548 38.671 61.3679 38.3501 61.5014V62.0378H39.2636ZM35.8533 63.4665C35.8533 62.9794 36.4037 62.7077 37.3289 62.7123C38.24 62.7077 38.7928 62.9794 38.7951 63.4665C38.7928 63.9584 38.24 64.2254 37.3289 64.2254C36.4037 64.2254 35.8533 63.9584 35.8533 63.4665ZM36.3452 60.876C36.3405 61.1337 36.7035 61.2719 37.3289 61.2695C37.9519 61.2719 38.3173 61.1337 38.3173 60.876C38.3173 60.6161 37.9519 60.4708 37.3289 60.4732C36.7035 60.4708 36.3405 60.6161 36.3452 60.876ZM36.3826 63.4665C36.3803 63.7054 36.7129 63.8343 37.3289 63.8319C37.9355 63.8343 38.2705 63.7054 38.2751 63.4665C38.2705 63.23 37.9355 63.1082 37.3289 63.1058C36.7129 63.1082 36.3803 63.23 36.3826 63.4665ZM36.8277 62.0378H37.8301V61.6349C37.6779 61.656 37.5092 61.6677 37.3289 61.6677C37.1485 61.6677 36.9799 61.656 36.8277 61.6349V62.0378ZM41.0944 61.2039C41.0921 61.8574 41.4856 62.6023 42.1531 62.9138L41.8627 63.326C41.3849 63.1012 41.0312 62.6468 40.8415 62.1174C40.6494 62.6983 40.2793 63.1948 39.7921 63.4291L39.4877 63.0215C40.1622 62.7006 40.5721 61.909 40.5744 61.2039V60.8479H39.6516V60.417H41.9798V60.8479H41.0944V61.2039ZM42.3733 64.2348V60H42.8932V61.649H43.5444V62.0846H42.8932V64.2348H42.3733Z" fill="#C2C4C8"/>
<g clip-path="url(#clip3_3245_45499)">
<path d="M22.3955 81.7524C22.2299 81.7524 22.0957 81.6182 22.0957 81.4526V77.2554C22.0957 77.0898 22.2299 76.9556 22.3955 76.9556H24.3337C24.4339 76.9556 24.5275 77.0057 24.5831 77.0891L25.0047 77.7215C25.0604 77.8049 25.154 77.855 25.2542 77.855H27.792C27.9576 77.855 28.0918 77.9892 28.0918 78.1548V81.4526C28.0918 81.6182 27.9576 81.7524 27.792 81.7524H22.3955Z" fill="#C2C4C8"/>
</g>
<rect x="31.0898" y="75.7563" width="13.219" height="7.34388" rx="1.46878" fill="#C2C4C8"/>
<path d="M34.6361 77.117V77.5011C34.6338 77.911 34.6338 78.3326 34.5143 78.9018L33.999 78.8596C34.0435 78.6535 34.0716 78.4661 34.088 78.2905L31.6334 78.3959L31.5678 77.9649L34.1114 77.904C34.1161 77.7775 34.1161 77.6557 34.1161 77.5339H31.6802V77.117H34.6361ZM31.2399 79.5529V79.136H32.7202V78.5786H33.2401V79.136H35.0811V79.5529H31.2399ZM31.6989 81.1082V79.8481H32.2189V80.6866H34.7157V81.1082H31.6989ZM39.0247 76.9437V80.1057H38.5281V76.9437H39.0247ZM35.5816 79.478V77.2716H37.193V77.6932H36.0828V78.1663H37.0338V78.5645H36.0828V79.0517C36.5887 79.0517 36.9401 79.0353 37.3523 78.958L37.4085 79.3702C36.919 79.4592 36.5161 79.4756 35.8627 79.478H35.5816ZM36.214 81.0894V79.759H36.7386V80.6678H39.1418V81.0894H36.214ZM37.2165 78.527V78.1101H37.6943V77.0233H38.1908V80.0026H37.6943V78.527H37.2165ZM43.446 80.2369V80.6631H39.5767V80.2369H43.446ZM39.7453 79.211C40.6541 79.0751 41.2068 78.5528 41.242 77.9836H39.9186V77.562H41.249V77.0186H41.7643V77.562H43.0994V77.9836H41.776C41.8088 78.5528 42.3592 79.0751 43.2727 79.211L43.0713 79.6279C42.3428 79.5084 41.7854 79.1571 41.5066 78.6723C41.2279 79.1571 40.6681 79.5084 39.942 79.6279L39.7453 79.211Z" fill="#C2C4C8"/>
<g clip-path="url(#clip4_3245_45499)">
<path fill-rule="evenodd" clip-rule="evenodd" d="M23.1664 93.5337C22.7118 93.5337 22.3521 93.6554 22.106 93.8948C21.8597 94.1345 21.7358 94.4838 21.7358 94.9209V97.1408C21.7358 97.578 21.8596 97.9273 22.106 98.167C22.352 98.4065 22.7117 98.5282 23.1664 98.5282H23.2501V99.2216C23.2501 99.3434 23.2828 99.4509 23.3505 99.5287C23.4191 99.6077 23.5181 99.6497 23.6363 99.6497C23.8113 99.6497 23.9291 99.5577 24.1066 99.4031L25.1249 98.5282H27.0209C27.4771 98.5282 27.8368 98.4058 28.0825 98.1659C28.3284 97.9258 28.4515 97.5765 28.4515 97.1408V94.9209C28.4515 94.4853 28.3284 94.136 28.0825 93.896C27.8368 93.6561 27.4771 93.5337 27.0209 93.5337H23.1664ZM23.9713 95.3926C23.9713 95.1929 24.1344 95.0327 24.3347 95.0327C24.535 95.0327 24.6982 95.1929 24.6982 95.3926C24.6982 95.5923 24.535 95.7525 24.3347 95.7525C24.1344 95.7525 23.9713 95.5923 23.9713 95.3926ZM25.4887 95.3926C25.4887 95.1929 25.6519 95.0327 25.8522 95.0327C26.0525 95.0327 26.2157 95.1929 26.2157 95.3926C26.2157 95.5923 26.0525 95.7525 25.8522 95.7525C25.6519 95.7525 25.4887 95.5923 25.4887 95.3926ZM23.9381 96.2977C24.0591 96.1983 24.2407 96.2135 24.3426 96.3344L24.3427 96.3345C24.5284 96.556 24.8027 96.6824 25.0935 96.6824C25.3841 96.6824 25.6585 96.5551 25.8443 96.3344L25.8443 96.3344C25.9463 96.2135 26.1279 96.1983 26.2488 96.2977L26.2488 96.2977C26.3711 96.3984 26.3882 96.5781 26.2859 96.6994C25.9899 97.0505 25.5548 97.2513 25.0935 97.2513C24.6321 97.2513 24.197 97.0505 23.901 96.6994L23.9007 96.6992C23.8 96.5783 23.8154 96.3987 23.9381 96.2977L23.9381 96.2977Z" fill="#C2C4C8"/>
</g>
<rect x="31.0898" y="92.6938" width="8.81266" height="7.34388" rx="1.46878" fill="#C2C4C8"/>
<path d="M35.0905 96.2365V96.6581H33.4088V98.1056H32.8935V96.6581H31.2305V96.2365H35.0905ZM31.4319 95.5432C32.2634 95.4378 32.8209 94.9904 32.8583 94.5267H31.5865V94.1144H34.7345V94.5267H33.4626C33.4978 94.9904 34.0505 95.4378 34.8891 95.5432L34.7017 95.9507C33.9803 95.8477 33.4181 95.5174 33.1605 95.0607C32.9005 95.5174 32.3431 95.8477 31.6287 95.9507L31.4319 95.5432ZM39.2682 95.9929V96.4098H37.6334V97.1874H37.1181V96.4098H35.3989V95.9929H39.2682ZM35.8673 98.026V96.7986H36.3873V97.6044H38.842V98.026H35.8673ZM35.8908 95.5994V94.0676H38.7717V95.5994H35.8908ZM36.3967 95.1919H38.2564V94.4751H36.3967V95.1919Z" fill="#C2C4C8"/>
<g clip-path="url(#clip5_3245_45499)">
<path fill-rule="evenodd" clip-rule="evenodd" d="M26.7102 110.543C26.6202 110.525 26.5271 110.528 26.4384 110.551L24.1943 111.13H27.1924C27.1923 111.039 27.1711 110.948 27.1305 110.866C27.0898 110.783 27.0308 110.711 26.9579 110.655C26.8851 110.599 26.8003 110.561 26.7102 110.543ZM22.4121 111.747C22.5668 111.592 22.7765 111.505 22.9951 111.505H27.1924C27.411 111.505 27.6207 111.592 27.7754 111.747C27.93 111.901 28.0168 112.111 28.0168 112.33V115.028C28.0168 115.247 27.93 115.456 27.7754 115.611C27.6207 115.765 27.411 115.852 27.1924 115.852H22.9951C22.7765 115.852 22.5668 115.765 22.4121 115.611C22.2575 115.456 22.1707 115.247 22.1707 115.028V112.33C22.1707 112.111 22.2575 111.901 22.4121 111.747ZM26.1779 113.414C26.2482 113.343 26.3435 113.304 26.4429 113.304C26.5423 113.304 26.6376 113.343 26.7079 113.414C26.7781 113.484 26.8176 113.579 26.8176 113.679C26.8176 113.778 26.7781 113.873 26.7079 113.944C26.6376 114.014 26.5423 114.054 26.4429 114.054C26.3435 114.054 26.2482 114.014 26.1779 113.944C26.1076 113.873 26.0681 113.778 26.0681 113.679C26.0681 113.579 26.1076 113.484 26.1779 113.414Z" fill="#C2C4C8"/>
</g>
<rect x="31.0898" y="109.631" width="8.81266" height="7.34388" rx="1.46878" fill="#C2C4C8"/>
<path d="M34.7766 110.814V113.329H34.2567V112.294H33.5352V111.868H34.2567V110.814H34.7766ZM31.2164 112.907C31.898 112.673 32.2564 112.104 32.2564 111.544V111.512H31.3757V111.09H33.6617V111.512H32.7857V111.54C32.7857 112.055 33.1277 112.575 33.7835 112.795L33.5212 113.207C33.0504 113.048 32.7178 112.725 32.5304 112.327C32.3454 112.776 31.9917 113.142 31.4881 113.32L31.2164 112.907ZM31.9051 114.243C31.9004 113.734 32.4508 113.437 33.3432 113.437C34.2403 113.437 34.7883 113.734 34.7907 114.243C34.7883 114.751 34.2403 115.046 33.3432 115.048C32.4508 115.046 31.9004 114.751 31.9051 114.243ZM32.4203 114.243C32.418 114.505 32.7553 114.648 33.3432 114.645C33.9358 114.648 34.2707 114.505 34.2707 114.243C34.2707 113.978 33.9358 113.835 33.3432 113.835C32.7553 113.835 32.418 113.978 32.4203 114.243ZM36.9213 111.563C36.9167 112.118 37.268 112.65 37.9332 112.865L37.6615 113.278C37.193 113.118 36.8581 112.8 36.6731 112.392C36.4857 112.842 36.1367 113.193 35.6425 113.367L35.352 112.954C36.0477 112.727 36.3967 112.16 36.3967 111.558V111.076H36.9213V111.563ZM36.0313 114.964V113.62H36.5653V114.542H38.9122V114.964H36.0313ZM38.2236 113.924V110.814H38.7436V112.064H39.3338V112.505H38.7436V113.924H38.2236Z" fill="#C2C4C8"/>
<path d="M80.2576 45.4785C80.2576 42.8293 82.4052 40.6816 85.0544 40.6816H129.426C132.075 40.6816 134.222 42.8293 134.222 45.4785V83.8535C134.222 86.5028 132.075 88.6504 129.426 88.6504H85.0544C82.4052 88.6504 80.2576 86.5028 80.2576 83.8535V45.4785Z" fill="white"/>
<rect x="86.2537" y="55.5947" width="18.3597" height="7.34388" rx="2.93755" fill="#46474C"/>
<path d="M90.3386 58.9229V59.3445H86.4786V58.9229H88.1463V58.4732H88.6616V58.9229H90.3386ZM86.6613 58.2811C87.5373 58.2225 88.0362 57.9321 88.1041 57.5831H86.8581V57.1709H88.1463V56.7868H88.6616V57.1709H89.9592V57.5831H88.7014C88.767 57.9321 89.2682 58.2225 90.1466 58.2811L89.9873 58.6793C89.2307 58.6207 88.6663 58.3842 88.4039 58.0188C88.1369 58.3842 87.5748 58.6207 86.8206 58.6793L86.6613 58.2811ZM86.9283 60.2954C86.9283 59.8316 87.4764 59.581 88.4039 59.5787C89.3268 59.581 89.8678 59.8316 89.8702 60.2954C89.8678 60.7568 89.3268 61.0074 88.4039 61.0074C87.4764 61.0074 86.9283 60.7568 86.9283 60.2954ZM87.4577 60.2954C87.4553 60.5109 87.7809 60.6186 88.4039 60.6186C89.0153 60.6186 89.3455 60.5109 89.3502 60.2954C89.3455 60.0776 89.0153 59.9675 88.4039 59.9675C87.7809 59.9675 87.4553 60.0776 87.4577 60.2954ZM93.3305 57.7939C93.3258 58.5505 93.7052 59.314 94.361 59.6302L94.0425 60.0471C93.5834 59.8153 93.2532 59.3679 93.0728 58.8292C92.8878 59.4054 92.5411 59.8832 92.0563 60.1268L91.7377 59.7099C92.4193 59.3866 92.8081 58.5762 92.8105 57.7939V57.1194H93.3305V57.7939ZM94.614 61.0121V56.7774H95.134V58.4357H95.7851V58.8807H95.134V61.0121H94.614ZM99.8504 58.8151V59.232H95.9905V58.8151H96.8899V58.2788C96.569 58.1429 96.3886 57.9298 96.3886 57.6534C96.3886 57.1451 96.9812 56.8477 97.9158 56.8477C98.848 56.8477 99.4405 57.1451 99.4429 57.6534C99.4405 57.9321 99.2579 58.1452 98.937 58.2788V58.8151H99.8504ZM96.4402 60.2439C96.4402 59.7567 96.9906 59.485 97.9158 59.4897C98.8269 59.485 99.3797 59.7567 99.382 60.2439C99.3797 60.7357 98.8269 61.0028 97.9158 61.0028C96.9906 61.0028 96.4402 60.7357 96.4402 60.2439ZM96.932 57.6534C96.9273 57.911 97.2904 58.0492 97.9158 58.0469C98.5388 58.0492 98.9042 57.911 98.9042 57.6534C98.9042 57.3934 98.5388 57.2482 97.9158 57.2505C97.2904 57.2482 96.9273 57.3934 96.932 57.6534ZM96.9695 60.2439C96.9672 60.4828 97.2998 60.6116 97.9158 60.6093C98.5224 60.6116 98.8573 60.4828 98.862 60.2439C98.8573 60.0073 98.5224 59.8855 97.9158 59.8832C97.2998 59.8855 96.9672 60.0073 96.9695 60.2439ZM97.4145 58.8151H98.417V58.4123C98.2648 58.4333 98.0961 58.4451 97.9158 58.4451C97.7354 58.4451 97.5668 58.4333 97.4145 58.4123V58.8151ZM101.681 57.9813C101.679 58.6348 102.072 59.3796 102.74 59.6911L102.45 60.1033C101.972 59.8785 101.618 59.4241 101.428 58.8948C101.236 59.4756 100.866 59.9722 100.379 60.2064L100.075 59.7989C100.749 59.478 101.159 58.6863 101.161 57.9813V57.6253H100.238V57.1943H102.567V57.6253H101.681V57.9813ZM102.96 61.0121V56.7774H103.48V58.4263H104.131V58.862H103.48V61.0121H102.96Z" fill="#46474C"/>
<rect x="86.2537" y="64.7373" width="23" height="9" rx="2.93755" fill="#008660"/>
<path d="M88.9143 71.8017C87.7452 71.8017 87.0399 70.9322 87.0399 69.4056C87.0399 67.8823 87.7517 67.0095 88.9143 67.0095C90.0769 67.0095 90.7887 67.8823 90.7887 69.4056C90.7887 70.9386 90.0801 71.8017 88.9143 71.8017ZM88.0319 69.4056C88.0254 70.4813 88.3733 71.003 88.9143 71.003C89.4554 71.003 89.8 70.4813 89.7967 69.4056C89.8 68.3396 89.4521 67.805 88.9143 67.8018C88.3765 67.805 88.0319 68.3396 88.0319 69.4056ZM93.1405 71.8017C91.9715 71.8017 91.2662 70.9322 91.2662 69.4056C91.2662 67.8823 91.9779 67.0095 93.1405 67.0095C94.3032 67.0095 95.0149 67.8823 95.0149 69.4056C95.0149 70.9386 94.3064 71.8017 93.1405 71.8017ZM92.2581 69.4056C92.2517 70.4813 92.5995 71.003 93.1405 71.003C93.6816 71.003 94.0262 70.4813 94.023 69.4056C94.0262 68.3396 93.6784 67.805 93.1405 67.8018C92.6027 67.805 92.2581 68.3396 92.2581 69.4056ZM97.3668 71.8017C96.1977 71.8017 95.4924 70.9322 95.4924 69.4056C95.4924 67.8823 96.2042 67.0095 97.3668 67.0095C98.5294 67.0095 99.2411 67.8823 99.2411 69.4056C99.2411 70.9386 98.5326 71.8017 97.3668 71.8017ZM96.4843 69.4056C96.4779 70.4813 96.8257 71.003 97.3668 71.003C97.9078 71.003 98.2524 70.4813 98.2492 69.4056C98.2524 68.3396 97.9046 67.805 97.3668 67.8018C96.8289 67.805 96.4843 68.3396 96.4843 69.4056ZM101.593 71.8017C100.424 71.8017 99.7187 70.9322 99.7187 69.4056C99.7187 67.8823 100.43 67.0095 101.593 67.0095C102.756 67.0095 103.467 67.8823 103.467 69.4056C103.467 70.9386 102.759 71.8017 101.593 71.8017ZM100.711 69.4056C100.704 70.4813 101.052 71.003 101.593 71.003C102.134 71.003 102.479 70.4813 102.475 69.4056C102.479 68.3396 102.131 67.805 101.593 67.8018C101.055 67.805 100.711 68.3396 100.711 69.4056Z" fill="#008660"/>
<path d="M108.532 66.9633V69.7512H108.032V69.0503H107.004V69.435H104.812V67.3164H107.004V67.7064H108.032V66.9633H108.532ZM105.307 69.0344H106.514V67.7169H105.307V69.0344ZM105.354 70.7841C105.352 70.2123 105.958 69.8803 106.951 69.8829C107.939 69.8803 108.545 70.2123 108.548 70.7841C108.545 71.3532 107.939 71.6774 106.951 71.6747C105.958 71.6774 105.352 71.3532 105.354 70.7841ZM105.85 70.7841C105.847 71.1003 106.258 71.2874 106.951 71.29C107.639 71.2874 108.05 71.1003 108.053 70.7841C108.05 70.4521 107.639 70.2703 106.951 70.2676C106.258 70.2703 105.847 70.4521 105.85 70.7841ZM107.004 68.6445H108.032V68.1069H107.004V68.6445Z" fill="#008660"/>
<path d="M137.82 45.4785C137.82 42.8293 139.968 40.6816 142.617 40.6816H186.988C189.637 40.6816 191.785 42.8293 191.785 45.4785V83.8535C191.785 86.5028 189.637 88.6504 186.988 88.6504H142.617C139.968 88.6504 137.82 86.5028 137.82 83.8535V45.4785Z" fill="white"/>
<rect x="143.816" y="55.5947" width="18.3597" height="7.34388" rx="2.93755" fill="#46474C"/>
<path d="M147.901 58.9229V59.3445H144.041V58.9229H145.708V58.4732H146.224V58.9229H147.901ZM144.223 58.2811C145.099 58.2225 145.598 57.9321 145.666 57.5831H144.42V57.1709H145.708V56.7868H146.224V57.1709H147.521V57.5831H146.263C146.329 57.9321 146.83 58.2225 147.709 58.2811L147.549 58.6793C146.793 58.6207 146.228 58.3842 145.966 58.0188C145.699 58.3842 145.137 58.6207 144.383 58.6793L144.223 58.2811ZM144.49 60.2954C144.49 59.8316 145.038 59.581 145.966 59.5787C146.889 59.581 147.43 59.8316 147.432 60.2954C147.43 60.7568 146.889 61.0074 145.966 61.0074C145.038 61.0074 144.49 60.7568 144.49 60.2954ZM145.02 60.2954C145.017 60.5109 145.343 60.6186 145.966 60.6186C146.577 60.6186 146.908 60.5109 146.912 60.2954C146.908 60.0776 146.577 59.9675 145.966 59.9675C145.343 59.9675 145.017 60.0776 145.02 60.2954ZM152.926 56.7774V61.0121H152.406V58.8573H151.511V58.431H152.406V56.7774H152.926ZM149.351 59.841C150.447 59.3023 150.918 58.5879 151.005 57.6393H149.548V57.2271H151.53C151.525 58.4778 151.082 59.5295 149.623 60.2486L149.351 59.841ZM155.276 57.2084V58.787H154.18V59.6115C154.609 59.6068 155.019 59.5904 155.492 59.5131L155.529 59.9347C154.958 60.0307 154.494 60.0448 153.969 60.0471H153.679V58.3654H154.775V57.63H153.674V57.2084H155.276ZM155.745 60.7966V56.857H156.223V58.4029H156.7V56.7774H157.197V61.0121H156.7V58.8245H156.223V60.7966H155.745ZM158.723 57.0397C159.283 57.0374 159.698 57.459 159.698 58.0609C159.698 58.6652 159.283 59.0751 158.723 59.0775C158.159 59.0751 157.751 58.6652 157.754 58.0609C157.751 57.459 158.159 57.0374 158.723 57.0397ZM158.222 58.0609C158.217 58.4123 158.428 58.6418 158.723 58.6371C159.014 58.6418 159.225 58.4123 159.225 58.0609C159.225 57.7073 159.014 57.4824 158.723 57.4847C158.428 57.4824 158.217 57.7073 158.222 58.0609ZM158.447 59.9253V59.5084H161.347V61.0121H160.827V59.9253H158.447ZM159.951 59.2789V56.8617H160.433V57.8314H160.85V56.7821H161.347V59.307H160.85V58.2483H160.433V59.2789H159.951Z" fill="#46474C"/>
<rect x="143.816" y="64.7373" width="23" height="9" rx="2.93755" fill="#008660"/>
<path d="M146.477 71.8017C145.308 71.8017 144.602 70.9322 144.602 69.4056C144.602 67.8823 145.314 67.0095 146.477 67.0095C147.639 67.0095 148.351 67.8823 148.351 69.4056C148.351 70.9386 147.643 71.8017 146.477 71.8017ZM145.594 69.4056C145.588 70.4813 145.936 71.003 146.477 71.003C147.018 71.003 147.362 70.4813 147.359 69.4056C147.362 68.3396 147.015 67.805 146.477 67.8018C145.939 67.805 145.594 68.3396 145.594 69.4056ZM150.703 71.8017C149.534 71.8017 148.829 70.9322 148.829 69.4056C148.829 67.8823 149.54 67.0095 150.703 67.0095C151.866 67.0095 152.577 67.8823 152.577 69.4056C152.577 70.9386 151.869 71.8017 150.703 71.8017ZM149.821 69.4056C149.814 70.4813 150.162 71.003 150.703 71.003C151.244 71.003 151.589 70.4813 151.585 69.4056C151.589 68.3396 151.241 67.805 150.703 67.8018C150.165 67.805 149.821 68.3396 149.821 69.4056ZM154.929 71.8017C153.76 71.8017 153.055 70.9322 153.055 69.4056C153.055 67.8823 153.767 67.0095 154.929 67.0095C156.092 67.0095 156.804 67.8823 156.804 69.4056C156.804 70.9386 156.095 71.8017 154.929 71.8017ZM154.047 69.4056C154.04 70.4813 154.388 71.003 154.929 71.003C155.47 71.003 155.815 70.4813 155.812 69.4056C155.815 68.3396 155.467 67.805 154.929 67.8018C154.391 67.805 154.047 68.3396 154.047 69.4056ZM159.156 71.8017C157.986 71.8017 157.281 70.9322 157.281 69.4056C157.281 67.8823 157.993 67.0095 159.156 67.0095C160.318 67.0095 161.03 67.8823 161.03 69.4056C161.03 70.9386 160.321 71.8017 159.156 71.8017ZM158.273 69.4056C158.267 70.4813 158.614 71.003 159.156 71.003C159.697 71.003 160.041 70.4813 160.038 69.4056C160.041 68.3396 159.693 67.805 159.156 67.8018C158.618 67.805 158.273 68.3396 158.273 69.4056Z" fill="#008660"/>
<path d="M166.084 66.9686V70.5469H165.584V70.0937H164.635V69.7406H165.584V66.9686H166.084ZM162.137 69.124C163.009 69.1161 164.187 69.1082 165.194 68.9817L165.225 69.3401C164.822 69.4086 164.398 69.4508 163.982 69.4798V70.3994H163.481V69.5061C163.022 69.5246 162.582 69.5246 162.2 69.5246L162.137 69.124ZM162.506 67.9804C162.503 67.4798 162.98 67.1478 163.681 67.1478C164.371 67.1478 164.851 67.4798 164.851 67.9804C164.851 68.4837 164.371 68.8026 163.681 68.8026C162.983 68.8026 162.503 68.4837 162.506 67.9804ZM162.79 71.5851V70.1991H163.286V71.1793H166.2V71.5851H162.79ZM162.98 67.9804C162.978 68.2598 163.262 68.4337 163.681 68.4337C164.084 68.4337 164.374 68.2598 164.377 67.9804C164.374 67.6985 164.084 67.5167 163.681 67.522C163.262 67.5167 162.978 67.6985 162.98 67.9804Z" fill="#008660"/>
<path d="M195.383 45.4785C195.383 42.8293 197.53 40.6816 200.179 40.6816H244.551C247.2 40.6816 249.347 42.8293 249.347 45.4785V83.8535C249.347 86.5028 247.2 88.6504 244.551 88.6504H200.179C197.53 88.6504 195.383 86.5028 195.383 83.8535V45.4785Z" fill="white"/>
<rect x="201.379" y="55.5947" width="22.766" height="7.34388" rx="2.93755" fill="#46474C"/>
<path d="M204.761 57.2037V60.5952H204.217L202.611 58.2764H202.582V60.5952H201.973V57.2037H202.526L204.124 59.5225H204.156V57.2037H204.761ZM208.793 56.7821V59.2508H208.269V59.0775H207.477V58.7589H208.269V56.7821H208.793ZM205.238 58.3092C206.055 58.3092 207.079 58.3022 207.988 58.2108L208.016 58.5387C207.629 58.5903 207.231 58.6254 206.84 58.6441V59.2555H206.325V58.6652C205.962 58.6746 205.613 58.6769 205.294 58.6746L205.238 58.3092ZM205.538 57.4847C205.538 57.1006 205.962 56.85 206.606 56.8477C207.236 56.85 207.662 57.1006 207.664 57.4847C207.662 57.8782 207.236 58.1171 206.606 58.1171C205.962 58.1171 205.538 57.8782 205.538 57.4847ZM205.856 59.738V59.3819H208.793V60.3329H206.385V60.6046H208.906V60.9747H205.875V59.9909H208.278V59.738H205.856ZM206.034 57.4847C206.029 57.6628 206.25 57.7728 206.606 57.7705C206.955 57.7728 207.177 57.6628 207.177 57.4847C207.177 57.3067 206.955 57.192 206.606 57.1943C206.25 57.192 206.029 57.3067 206.034 57.4847ZM214.127 56.7774V61.0121H213.607V58.8573H212.713V58.431H213.607V56.7774H214.127ZM210.553 59.841C211.649 59.3023 212.12 58.5879 212.207 57.6393H210.75V57.2271H212.731C212.727 58.4778 212.284 59.5295 210.825 60.2486L210.553 59.841ZM216.478 57.2084V58.787H215.382V59.6115C215.811 59.6068 216.22 59.5904 216.694 59.5131L216.731 59.9347C216.16 60.0307 215.696 60.0448 215.171 60.0471H214.881V58.3654H215.977V57.63H214.876V57.2084H216.478ZM216.947 60.7966V56.857H217.424V58.4029H217.902V56.7774H218.399V61.0121H217.902V58.8245H217.424V60.7966H216.947ZM222.299 57.1287C222.297 57.6604 222.894 58.2015 223.798 58.3186L223.592 58.7402C222.873 58.6324 222.302 58.2788 222.025 57.8009C221.749 58.2788 221.18 58.6324 220.468 58.7402L220.262 58.3186C221.156 58.2015 221.751 57.6651 221.751 57.1287V56.9132H222.299V57.1287ZM220.093 59.5365V59.1056H223.953V59.5365H222.271V61.0121H221.756V59.5365H220.093Z" fill="#46474C"/>
<rect x="201.379" y="64.7373" width="23" height="9" rx="2.93755" fill="#008660"/>
<path d="M204.039 71.8017C202.87 71.8017 202.165 70.9322 202.165 69.4056C202.165 67.8823 202.877 67.0095 204.039 67.0095C205.202 67.0095 205.914 67.8823 205.914 69.4056C205.914 70.9386 205.205 71.8017 204.039 71.8017ZM203.157 69.4056C203.15 70.4813 203.498 71.003 204.039 71.003C204.58 71.003 204.925 70.4813 204.922 69.4056C204.925 68.3396 204.577 67.805 204.039 67.8018C203.501 67.805 203.157 68.3396 203.157 69.4056ZM208.266 71.8017C207.096 71.8017 206.391 70.9322 206.391 69.4056C206.391 67.8823 207.103 67.0095 208.266 67.0095C209.428 67.0095 210.14 67.8823 210.14 69.4056C210.14 70.9386 209.431 71.8017 208.266 71.8017ZM207.383 69.4056C207.377 70.4813 207.724 71.003 208.266 71.003C208.807 71.003 209.151 70.4813 209.148 69.4056C209.151 68.3396 208.803 67.805 208.266 67.8018C207.728 67.805 207.383 68.3396 207.383 69.4056ZM212.492 71.8017C211.323 71.8017 210.617 70.9322 210.617 69.4056C210.617 67.8823 211.329 67.0095 212.492 67.0095C213.654 67.0095 214.366 67.8823 214.366 69.4056C214.366 70.9386 213.658 71.8017 212.492 71.8017ZM211.609 69.4056C211.603 70.4813 211.951 71.003 212.492 71.003C213.033 71.003 213.377 70.4813 213.374 69.4056C213.377 68.3396 213.03 67.805 212.492 67.8018C211.954 67.805 211.609 68.3396 211.609 69.4056ZM216.718 71.8017C215.549 71.8017 214.844 70.9322 214.844 69.4056C214.844 67.8823 215.555 67.0095 216.718 67.0095C217.881 67.0095 218.592 67.8823 218.592 69.4056C218.592 70.9386 217.884 71.8017 216.718 71.8017ZM215.836 69.4056C215.829 70.4813 216.177 71.003 216.718 71.003C217.259 71.003 217.604 70.4813 217.6 69.4056C217.604 68.3396 217.256 67.805 216.718 67.8018C216.18 67.805 215.836 68.3396 215.836 69.4056Z" fill="#008660"/>
<path d="M223.657 66.9686V70.4468H223.157V68.8078H222.176V68.3915H223.157V66.9686H223.657ZM219.789 69.5193C220.84 69.1794 221.555 68.5391 221.657 67.738H220.032V67.3217H222.208C222.203 68.5549 221.357 69.4824 220 69.9198L219.789 69.5193ZM220.616 71.5851V70.0884H221.122V71.1793H223.778V71.5851H220.616Z" fill="#008660"/>
<path d="M252.945 45.4785C252.945 42.8293 255.093 40.6816 257.742 40.6816H302.113C304.762 40.6816 306.91 42.8293 306.91 45.4785V83.8535C306.91 86.5028 304.762 88.6504 302.113 88.6504H257.742C255.093 88.6504 252.945 86.5028 252.945 83.8535V45.4785Z" fill="white"/>
<rect x="258.941" y="55.5947" width="27.9067" height="7.34388" rx="2.93755" fill="#46474C"/>
<path d="M262.937 56.7821V59.8738H262.413V56.7821H262.937ZM259.415 58.876C260.101 58.6348 260.452 58.0375 260.45 57.4285V57.0163H260.989V57.4285C260.986 58.0188 261.333 58.5762 262.005 58.8011L261.738 59.2133C261.256 59.0447 260.911 58.7074 260.724 58.2741C260.537 58.7378 260.185 59.1079 259.686 59.2883L259.415 58.876ZM260.136 60.9278V59.5787H260.661V60.5062H263.054V60.9278H260.136ZM266.932 57.0257V57.3208C266.93 57.6862 266.93 58.171 266.813 58.8573H267.443V59.2789H266.487V61.0074H265.972V59.2789H265.026V61.0074H264.501V59.2789H263.583V58.8573H266.288C266.405 58.253 266.419 57.7986 266.422 57.452H264.056V57.0257H266.932ZM270.716 57.2365V58.3373H271.208V56.8523H271.704V60.806H271.208V58.7589H270.716V59.9207H269.053V57.2365H270.716ZM269.54 59.5084H270.229V57.6487H269.54V59.5084ZM272.074 61.0121V56.7774H272.576V61.0121H272.074ZM276.618 56.7774V61.0168H276.093V56.7774H276.618ZM273.231 58.5809C273.228 57.6674 273.694 57.0866 274.336 57.0866C274.971 57.0866 275.439 57.6674 275.442 58.5809C275.439 59.5014 274.971 60.0799 274.336 60.0799C273.694 60.0799 273.228 59.5014 273.231 58.5809ZM273.732 58.5809C273.732 59.232 273.978 59.6091 274.336 59.6115C274.692 59.6091 274.936 59.232 274.936 58.5809C274.936 57.9344 274.692 57.555 274.336 57.555C273.978 57.555 273.732 57.9344 273.732 58.5809ZM279.432 57.1943C279.43 58.4708 279.05 59.5717 277.535 60.3516L277.249 59.9534C277.952 59.5904 278.39 59.1688 278.641 58.6652L277.343 58.787L277.268 58.342L278.802 58.2483C278.861 58.0492 278.896 57.8384 278.912 57.6159H277.488V57.1943H279.432ZM279.423 58.8573V58.431H280.294V56.7774H280.814V61.0121H280.294V58.8573H279.423ZM284.813 57.1287C284.811 57.6604 285.408 58.2015 286.312 58.3186L286.106 58.7402C285.387 58.6324 284.815 58.2788 284.539 57.8009C284.263 58.2788 283.693 58.6324 282.981 58.7402L282.775 58.3186C283.67 58.2015 284.265 57.6651 284.265 57.1287V56.9132H284.813V57.1287ZM282.607 59.5365V59.1056H286.467V59.5365H284.785V61.0121H284.27V59.5365H282.607Z" fill="#46474C"/>
<rect x="258.941" y="64.7373" width="23" height="9" rx="2.93755" fill="#008660"/>
<path d="M261.602 71.8017C260.433 71.8017 259.727 70.9322 259.727 69.4056C259.727 67.8823 260.439 67.0095 261.602 67.0095C262.764 67.0095 263.476 67.8823 263.476 69.4056C263.476 70.9386 262.768 71.8017 261.602 71.8017ZM260.719 69.4056C260.713 70.4813 261.061 71.003 261.602 71.003C262.143 71.003 262.487 70.4813 262.484 69.4056C262.487 68.3396 262.14 67.805 261.602 67.8018C261.064 67.805 260.719 68.3396 260.719 69.4056ZM265.828 71.8017C264.659 71.8017 263.954 70.9322 263.954 69.4056C263.954 67.8823 264.665 67.0095 265.828 67.0095C266.991 67.0095 267.702 67.8823 267.702 69.4056C267.702 70.9386 266.994 71.8017 265.828 71.8017ZM264.946 69.4056C264.939 70.4813 265.287 71.003 265.828 71.003C266.369 71.003 266.714 70.4813 266.71 69.4056C266.714 68.3396 266.366 67.805 265.828 67.8018C265.29 67.805 264.946 68.3396 264.946 69.4056ZM270.054 71.8017C268.885 71.8017 268.18 70.9322 268.18 69.4056C268.18 67.8823 268.892 67.0095 270.054 67.0095C271.217 67.0095 271.929 67.8823 271.929 69.4056C271.929 70.9386 271.22 71.8017 270.054 71.8017ZM269.172 69.4056C269.165 70.4813 269.513 71.003 270.054 71.003C270.595 71.003 270.94 70.4813 270.937 69.4056C270.94 68.3396 270.592 67.805 270.054 67.8018C269.516 67.805 269.172 68.3396 269.172 69.4056ZM274.281 71.8017C273.111 71.8017 272.406 70.9322 272.406 69.4056C272.406 67.8823 273.118 67.0095 274.281 67.0095C275.443 67.0095 276.155 67.8823 276.155 69.4056C276.155 70.9386 275.446 71.8017 274.281 71.8017ZM273.398 69.4056C273.392 70.4813 273.739 71.003 274.281 71.003C274.822 71.003 275.166 70.4813 275.163 69.4056C275.166 68.3396 274.818 67.805 274.281 67.8018C273.743 67.805 273.398 68.3396 273.398 69.4056Z" fill="#008660"/>
<path d="M281.22 66.9633V69.7512H280.719V69.0503H279.691V69.435H277.499V67.3164H279.691V67.7064H280.719V66.9633H281.22ZM277.995 69.0344H279.201V67.7169H277.995V69.0344ZM278.042 70.7841C278.039 70.2123 278.645 69.8803 279.639 69.8829C280.627 69.8803 281.233 70.2123 281.236 70.7841C281.233 71.3532 280.627 71.6774 279.639 71.6747C278.645 71.6774 278.039 71.3532 278.042 70.7841ZM278.537 70.7841C278.535 71.1003 278.946 71.2874 279.639 71.29C280.327 71.2874 280.738 71.1003 280.74 70.7841C280.738 70.4521 280.327 70.2703 279.639 70.2676C278.946 70.2703 278.535 70.4521 278.537 70.7841ZM279.691 68.6445H280.719V68.1069H279.691V68.6445Z" fill="#008660"/>
<path d="M310.508 45.4785C310.508 42.8293 312.655 40.6816 315.304 40.6816H359.676C362.325 40.6816 364.472 42.8293 364.472 45.4785V83.8535C364.472 86.5028 362.325 88.6504 359.676 88.6504H315.304C312.655 88.6504 310.508 86.5028 310.508 83.8535V45.4785Z" fill="white"/>
<rect x="316.504" y="55.5947" width="27.9067" height="7.34388" rx="2.93755" fill="#46474C"/>
<path d="M320.501 56.7821V59.8738H319.976V56.7821H320.501ZM316.978 58.876C317.664 58.6348 318.016 58.0375 318.013 57.4285V57.0163H318.552V57.4285C318.55 58.0188 318.896 58.5762 319.569 58.8011L319.302 59.2133C318.819 59.0447 318.475 58.7074 318.287 58.2741C318.1 58.7378 317.749 59.1079 317.25 59.2883L316.978 58.876ZM317.7 60.9278V59.5787H318.224V60.5062H320.618V60.9278H317.7ZM324.496 57.0257V57.3208C324.494 57.6862 324.494 58.171 324.376 58.8573H325.007V59.2789H324.051V61.0074H323.536V59.2789H322.589V61.0074H322.065V59.2789H321.147V58.8573H323.852C323.969 58.253 323.983 57.7986 323.985 57.452H321.62V57.0257H324.496ZM329.872 57.035V57.4145C329.87 57.8103 329.87 58.2436 329.76 58.8432H330.345V59.2648H328.664V61.0168H328.139V59.2648H326.485V58.8432H329.23C329.347 58.267 329.352 57.8337 329.352 57.4566H326.94V57.035H329.872ZM334.312 56.7774V61.0121H333.811V58.8432H333.361V60.806H332.869V56.8523H333.361V58.4123H333.811V56.7774H334.312ZM330.79 59.9207V57.2365H332.452V59.9207H330.79ZM331.277 59.5084H331.965V57.6487H331.277V59.5084ZM336.349 57.9813C336.347 58.6348 336.74 59.3796 337.408 59.6911L337.117 60.1033C336.64 59.8785 336.286 59.4241 336.096 58.8948C335.904 59.4756 335.534 59.9722 335.047 60.2064L334.742 59.7989C335.417 59.478 335.827 58.6863 335.829 57.9813V57.6253H334.906V57.1943H337.235V57.6253H336.349V57.9813ZM337.628 61.0121V56.7774H338.148V58.4263H338.799V58.862H338.148V61.0121H337.628ZM342.377 57.1287C342.374 57.6604 342.971 58.2015 343.876 58.3186L343.669 58.7402C342.95 58.6324 342.379 58.2788 342.103 57.8009C341.826 58.2788 341.257 58.6324 340.545 58.7402L340.339 58.3186C341.234 58.2015 341.828 57.6651 341.828 57.1287V56.9132H342.377V57.1287ZM340.17 59.5365V59.1056H344.03V59.5365H342.348V61.0121H341.833V59.5365H340.17Z" fill="#46474C"/>
<rect x="316.504" y="64.7373" width="23" height="9" rx="2.93755" fill="#008660"/>
<path d="M319.164 71.8017C317.995 71.8017 317.29 70.9322 317.29 69.4056C317.29 67.8823 318.002 67.0095 319.164 67.0095C320.327 67.0095 321.039 67.8823 321.039 69.4056C321.039 70.9386 320.33 71.8017 319.164 71.8017ZM318.282 69.4056C318.275 70.4813 318.623 71.003 319.164 71.003C319.705 71.003 320.05 70.4813 320.047 69.4056C320.05 68.3396 319.702 67.805 319.164 67.8018C318.626 67.805 318.282 68.3396 318.282 69.4056ZM323.391 71.8017C322.221 71.8017 321.516 70.9322 321.516 69.4056C321.516 67.8823 322.228 67.0095 323.391 67.0095C324.553 67.0095 325.265 67.8823 325.265 69.4056C325.265 70.9386 324.556 71.8017 323.391 71.8017ZM322.508 69.4056C322.502 70.4813 322.849 71.003 323.391 71.003C323.932 71.003 324.276 70.4813 324.273 69.4056C324.276 68.3396 323.928 67.805 323.391 67.8018C322.853 67.805 322.508 68.3396 322.508 69.4056ZM327.617 71.8017C326.448 71.8017 325.742 70.9322 325.742 69.4056C325.742 67.8823 326.454 67.0095 327.617 67.0095C328.779 67.0095 329.491 67.8823 329.491 69.4056C329.491 70.9386 328.783 71.8017 327.617 71.8017ZM326.734 69.4056C326.728 70.4813 327.076 71.003 327.617 71.003C328.158 71.003 328.502 70.4813 328.499 69.4056C328.502 68.3396 328.155 67.805 327.617 67.8018C327.079 67.805 326.734 68.3396 326.734 69.4056ZM331.843 71.8017C330.674 71.8017 329.969 70.9322 329.969 69.4056C329.969 67.8823 330.68 67.0095 331.843 67.0095C333.006 67.0095 333.717 67.8823 333.717 69.4056C333.717 70.9386 333.009 71.8017 331.843 71.8017ZM330.961 69.4056C330.954 70.4813 331.302 71.003 331.843 71.003C332.384 71.003 332.729 70.4813 332.725 69.4056C332.729 68.3396 332.381 67.805 331.843 67.8018C331.305 67.805 330.961 68.3396 330.961 69.4056Z" fill="#008660"/>
<path d="M338.782 66.9633V69.7512H338.282V69.0503H337.254V69.435H335.062V67.3164H337.254V67.7064H338.282V66.9633H338.782ZM335.557 69.0344H336.764V67.7169H335.557V69.0344ZM335.604 70.7841C335.602 70.2123 336.208 69.8803 337.201 69.8829C338.189 69.8803 338.795 70.2123 338.798 70.7841C338.795 71.3532 338.189 71.6774 337.201 71.6747C336.208 71.6774 335.602 71.3532 335.604 70.7841ZM336.1 70.7841C336.097 71.1003 336.508 71.2874 337.201 71.29C337.889 71.2874 338.3 71.1003 338.303 70.7841C338.3 70.4521 337.889 70.2703 337.201 70.2676C336.508 70.2703 336.097 70.4521 336.1 70.7841ZM337.254 68.6445H338.282V68.1069H337.254V68.6445Z" fill="#008660"/>
<rect x="80.2576" y="98.2441" width="33" height="10" rx="2.93755" fill="#171717"/>
<path d="M85.7032 100.546V103.785H85.0427V100.546H85.7032ZM80.5105 103.223C81.4943 102.896 82.095 102.07 82.0986 101.199V100.714H82.7801V101.199C82.7766 102.042 83.3809 102.808 84.3471 103.11L84.0168 103.63C83.2826 103.391 82.731 102.896 82.4464 102.257C82.1618 102.945 81.5997 103.493 80.8478 103.75L80.5105 103.223ZM81.5716 104.614V104.087H85.7103V105.661H82.2391V106.244H85.9211V106.778H81.5926V105.155H85.0498V104.614H81.5716ZM88.8543 102.148C88.8473 103.296 89.543 104.456 90.5197 104.888L90.1191 105.415C89.3954 105.071 88.8227 104.365 88.5276 103.504C88.236 104.428 87.6563 105.187 86.9009 105.556L86.4934 104.993C87.4841 104.554 88.1798 103.349 88.1798 102.148V101.073H88.8543V102.148ZM91.0888 106.855V100.546H91.7564V106.855H91.0888ZM97.5425 100.546V102.408H98.4559V102.963H97.5425V105.12H96.8679V100.546H97.5425ZM92.5886 103.897C94.0642 103.455 94.9777 102.615 95.1077 101.578H92.8557V101.023H95.835C95.835 102.675 94.7107 103.873 92.8697 104.431L92.5886 103.897ZM93.5443 106.708V104.649H94.2188V106.167H97.8024V106.708H93.5443ZM105.187 100.546V101.859H106.1V102.415H105.187V103.729H104.519V100.546H105.187ZM100.338 102.169C100.331 101.336 101.037 100.767 101.99 100.763C102.945 100.767 103.641 101.336 103.641 102.169C103.641 102.994 102.945 103.574 101.99 103.574C101.037 103.574 100.331 102.994 100.338 102.169ZM100.985 102.169C100.981 102.682 101.41 103.04 101.99 103.04C102.569 103.04 102.994 102.682 102.994 102.169C102.994 101.656 102.569 101.308 101.99 101.311C101.41 101.308 100.981 101.656 100.985 102.169ZM101.118 104.537V104.017H105.187V105.612H101.786V106.23H105.405V106.764H101.132V105.113H104.526V104.537H101.118ZM111.514 100.553V104.284H110.846V100.553H111.514ZM106.609 101.459V100.925H109.504V102.696H107.277V103.455C108.38 103.455 109.185 103.423 110.144 103.265L110.228 103.813C109.199 103.971 108.341 104.006 107.15 104.003H106.623V102.176H108.844V101.459H106.609ZM107.375 106.764V104.6H111.514V106.764H107.375ZM108.036 106.223H110.86V105.134H108.036V106.223Z" fill="#171717"/>
<path d="M80.2576 117.838C80.2576 115.189 82.4052 113.041 85.0544 113.041H431.629C434.278 113.041 436.426 115.189 436.426 117.838V265.642C436.426 268.291 434.278 270.438 431.629 270.438H85.0544C82.4052 270.438 80.2576 268.291 80.2576 265.642V117.838Z" fill="white"/>
<rect x="87.4529" y="120.236" width="40.7734" height="7.34388" rx="1.46878" fill="#C2C4C8"/>
<path d="M87.7337 125.237V124.797L88.9329 123.64C89.2749 123.298 89.4529 123.097 89.4529 122.811C89.4529 122.495 89.2023 122.295 88.872 122.295C88.523 122.295 88.2982 122.513 88.3005 122.858H87.7197C87.7173 122.216 88.1998 121.799 88.8767 121.799C89.57 121.799 90.0361 122.213 90.0385 122.783C90.0361 123.164 89.8534 123.474 89.1859 124.104L88.5816 124.703V124.727H90.09V125.237H87.7337ZM91.9021 125.284C91.0847 125.284 90.5975 124.652 90.5998 123.542C90.5975 122.436 91.0893 121.799 91.9021 121.799C92.7148 121.799 93.2044 122.436 93.2044 123.542C93.2044 124.654 92.7172 125.284 91.9021 125.284ZM91.2135 123.542C91.2135 124.357 91.4758 124.771 91.9021 124.774C92.326 124.771 92.5907 124.357 92.5907 123.542C92.5884 122.733 92.326 122.307 91.9021 122.305C91.4782 122.307 91.2158 122.733 91.2135 123.542ZM93.7423 125.237V124.797L94.9415 123.64C95.2835 123.298 95.4615 123.097 95.4615 122.811C95.4615 122.495 95.2109 122.295 94.8806 122.295C94.5317 122.295 94.3068 122.513 94.3091 122.858H93.7283C93.7259 122.216 94.2084 121.799 94.8853 121.799C95.5786 121.799 96.0447 122.213 96.0471 122.783C96.0447 123.164 95.862 123.474 95.1945 124.104L94.5902 124.703V124.727H96.0986V125.237H93.7423ZM97.8639 125.284C97.187 125.284 96.6881 124.879 96.6693 124.319H97.2643C97.283 124.593 97.543 124.79 97.8639 124.792C98.2433 124.79 98.5174 124.516 98.515 124.141C98.5174 123.752 98.2363 123.478 97.8451 123.476C97.5805 123.474 97.3884 123.567 97.283 123.766H96.7162L96.9223 121.846H98.9272V122.356H97.4235L97.3205 123.256H97.3533C97.4844 123.108 97.7304 123 98.0091 122.998C98.6391 123 99.1076 123.469 99.1053 124.122C99.1076 124.799 98.597 125.284 97.8639 125.284ZM99.9102 125.275C99.7088 125.275 99.5425 125.111 99.5448 124.909C99.5425 124.713 99.7088 124.551 99.9102 124.549C100.105 124.551 100.271 124.713 100.271 124.909C100.271 125.111 100.105 125.275 99.9102 125.275ZM101.985 125.284C101.167 125.284 100.68 124.652 100.682 123.542C100.68 122.436 101.172 121.799 101.985 121.799C102.797 121.799 103.287 122.436 103.287 123.542C103.287 124.654 102.8 125.284 101.985 125.284ZM101.296 123.542C101.296 124.357 101.558 124.771 101.985 124.774C102.409 124.771 102.673 124.357 102.673 123.542C102.671 122.733 102.409 122.307 101.985 122.305C101.561 122.307 101.298 122.733 101.296 123.542ZM105.029 125.284C104.352 125.284 103.853 124.879 103.834 124.319H104.429C104.448 124.593 104.708 124.79 105.029 124.792C105.408 124.79 105.682 124.516 105.68 124.141C105.682 123.752 105.401 123.478 105.01 123.476C104.745 123.474 104.553 123.567 104.448 123.766H103.881L104.087 121.846H106.092V122.356H104.588L104.485 123.256H104.518C104.649 123.108 104.895 123 105.174 122.998C105.804 123 106.273 123.469 106.27 124.122C106.273 124.799 105.762 125.284 105.029 125.284ZM107.075 125.275C106.874 125.275 106.707 125.111 106.71 124.909C106.707 124.713 106.874 124.551 107.075 124.549C107.27 124.551 107.436 124.713 107.436 124.909C107.436 125.111 107.27 125.275 107.075 125.275ZM109.15 125.284C108.332 125.284 107.845 124.652 107.847 123.542C107.845 122.436 108.337 121.799 109.15 121.799C109.962 121.799 110.452 122.436 110.452 123.542C110.452 124.654 109.965 125.284 109.15 125.284ZM108.461 123.542C108.461 124.357 108.723 124.771 109.15 124.774C109.574 124.771 109.838 124.357 109.838 123.542C109.836 122.733 109.574 122.307 109.15 122.305C108.726 122.307 108.463 122.733 108.461 123.542ZM112.367 121.846V125.237H111.753V122.441H111.735L110.943 122.947V122.389L111.781 121.846H112.367ZM113.406 125.275C113.205 125.275 113.038 125.111 113.041 124.909C113.038 124.713 113.205 124.551 113.406 124.549C113.601 124.551 113.767 124.713 113.767 124.909C113.767 125.111 113.601 125.275 113.406 125.275ZM114.366 125.237V124.797L115.565 123.64C115.907 123.298 116.085 123.097 116.085 122.811C116.085 122.495 115.834 122.295 115.504 122.295C115.155 122.295 114.93 122.513 114.933 122.858H114.352C114.349 122.216 114.832 121.799 115.509 121.799C116.202 121.799 116.668 122.213 116.67 122.783C116.668 123.164 116.485 123.474 115.818 124.104L115.214 124.703V124.727H116.722V125.237H114.366ZM118.515 125.284C117.792 125.284 117.274 124.891 117.26 124.319H117.874C117.89 124.591 118.162 124.771 118.515 124.769C118.888 124.771 119.157 124.565 119.157 124.263C119.157 123.958 118.895 123.741 118.455 123.738H118.15V123.27H118.455C118.815 123.27 119.066 123.068 119.063 122.773C119.066 122.488 118.85 122.295 118.52 122.295C118.202 122.295 117.928 122.473 117.916 122.759H117.33C117.344 122.19 117.862 121.799 118.525 121.799C119.213 121.799 119.658 122.221 119.654 122.74C119.658 123.12 119.405 123.394 119.035 123.471V123.499C119.513 123.563 119.785 123.869 119.78 124.296C119.785 124.87 119.249 125.284 118.515 125.284ZM120.716 124.816C120.515 124.816 120.349 124.652 120.351 124.45C120.349 124.254 120.515 124.092 120.716 124.09C120.911 124.092 121.077 124.254 121.077 124.45C121.077 124.652 120.911 124.816 120.716 124.816ZM120.351 122.633C120.349 122.436 120.515 122.274 120.716 122.272C120.911 122.274 121.077 122.436 121.077 122.633C121.077 122.834 120.911 122.998 120.716 122.998C120.515 122.998 120.349 122.834 120.351 122.633ZM123.053 121.846V125.237H122.439V122.441H122.421L121.629 122.947V122.389L122.468 121.846H123.053ZM123.905 125.237V124.797L125.104 123.64C125.446 123.298 125.624 123.097 125.624 122.811C125.624 122.495 125.373 122.295 125.043 122.295C124.694 122.295 124.469 122.513 124.472 122.858H123.891C123.889 122.216 124.371 121.799 125.048 121.799C125.741 121.799 126.207 122.213 126.21 122.783C126.207 123.164 126.025 123.474 125.357 124.104L124.753 124.703V124.727H126.261V125.237H123.905Z" fill="#C2C4C8"/>
<rect x="87.4529" y="134.775" width="40.7734" height="7.34388" rx="1.46878" fill="#C2C4C8"/>
<path d="M87.7337 139.776V139.336L88.9329 138.178C89.2749 137.837 89.4529 137.635 89.4529 137.349C89.4529 137.033 89.2023 136.834 88.872 136.834C88.523 136.834 88.2982 137.052 88.3005 137.396H87.7197C87.7173 136.754 88.1998 136.337 88.8767 136.337C89.57 136.337 90.0361 136.752 90.0385 137.321C90.0361 137.703 89.8534 138.012 89.1859 138.642L88.5816 139.242V139.265H90.09V139.776H87.7337ZM91.9021 139.823C91.0847 139.823 90.5975 139.19 90.5998 138.08C90.5975 136.975 91.0893 136.337 91.9021 136.337C92.7148 136.337 93.2044 136.975 93.2044 138.08C93.2044 139.193 92.7172 139.823 91.9021 139.823ZM91.2135 138.08C91.2135 138.895 91.4758 139.31 91.9021 139.312C92.326 139.31 92.5907 138.895 92.5907 138.08C92.5884 137.272 92.326 136.846 91.9021 136.843C91.4782 136.846 91.2158 137.272 91.2135 138.08ZM93.7423 139.776V139.336L94.9415 138.178C95.2835 137.837 95.4615 137.635 95.4615 137.349C95.4615 137.033 95.2109 136.834 94.8806 136.834C94.5317 136.834 94.3068 137.052 94.3091 137.396H93.7283C93.7259 136.754 94.2084 136.337 94.8853 136.337C95.5786 136.337 96.0447 136.752 96.0471 137.321C96.0447 137.703 95.862 138.012 95.1945 138.642L94.5902 139.242V139.265H96.0986V139.776H93.7423ZM97.8639 139.823C97.187 139.823 96.6881 139.418 96.6693 138.858H97.2643C97.283 139.132 97.543 139.329 97.8639 139.331C98.2433 139.329 98.5174 139.054 98.515 138.68C98.5174 138.291 98.2363 138.017 97.8451 138.015C97.5805 138.012 97.3884 138.106 97.283 138.305H96.7162L96.9223 136.384H98.9272V136.895H97.4235L97.3205 137.794H97.3533C97.4844 137.647 97.7304 137.539 98.0091 137.537C98.6391 137.539 99.1076 138.007 99.1053 138.661C99.1076 139.338 98.597 139.823 97.8639 139.823ZM99.9102 139.813C99.7088 139.813 99.5425 139.649 99.5448 139.448C99.5425 139.251 99.7088 139.09 99.9102 139.087C100.105 139.09 100.271 139.251 100.271 139.448C100.271 139.649 100.105 139.813 99.9102 139.813ZM101.985 139.823C101.167 139.823 100.68 139.19 100.682 138.08C100.68 136.975 101.172 136.337 101.985 136.337C102.797 136.337 103.287 136.975 103.287 138.08C103.287 139.193 102.8 139.823 101.985 139.823ZM101.296 138.08C101.296 138.895 101.558 139.31 101.985 139.312C102.409 139.31 102.673 138.895 102.673 138.08C102.671 137.272 102.409 136.846 101.985 136.843C101.561 136.846 101.298 137.272 101.296 138.08ZM105.029 139.823C104.352 139.823 103.853 139.418 103.834 138.858H104.429C104.448 139.132 104.708 139.329 105.029 139.331C105.408 139.329 105.682 139.054 105.68 138.68C105.682 138.291 105.401 138.017 105.01 138.015C104.745 138.012 104.553 138.106 104.448 138.305H103.881L104.087 136.384H106.092V136.895H104.588L104.485 137.794H104.518C104.649 137.647 104.895 137.539 105.174 137.537C105.804 137.539 106.273 138.007 106.27 138.661C106.273 139.338 105.762 139.823 105.029 139.823ZM107.075 139.813C106.874 139.813 106.707 139.649 106.71 139.448C106.707 139.251 106.874 139.09 107.075 139.087C107.27 139.09 107.436 139.251 107.436 139.448C107.436 139.649 107.27 139.813 107.075 139.813ZM109.15 139.823C108.332 139.823 107.845 139.19 107.847 138.08C107.845 136.975 108.337 136.337 109.15 136.337C109.962 136.337 110.452 136.975 110.452 138.08C110.452 139.193 109.965 139.823 109.15 139.823ZM108.461 138.08C108.461 138.895 108.723 139.31 109.15 139.312C109.574 139.31 109.838 138.895 109.838 138.08C109.836 137.272 109.574 136.846 109.15 136.843C108.726 136.846 108.463 137.272 108.461 138.08ZM112.367 136.384V139.776H111.753V136.979H111.735L110.943 137.485V136.928L111.781 136.384H112.367ZM113.406 139.813C113.205 139.813 113.038 139.649 113.041 139.448C113.038 139.251 113.205 139.09 113.406 139.087C113.601 139.09 113.767 139.251 113.767 139.448C113.767 139.649 113.601 139.813 113.406 139.813ZM114.366 139.776V139.336L115.565 138.178C115.907 137.837 116.085 137.635 116.085 137.349C116.085 137.033 115.834 136.834 115.504 136.834C115.155 136.834 114.93 137.052 114.933 137.396H114.352C114.349 136.754 114.832 136.337 115.509 136.337C116.202 136.337 116.668 136.752 116.67 137.321C116.668 137.703 116.485 138.012 115.818 138.642L115.214 139.242V139.265H116.722V139.776H114.366ZM118.515 139.823C117.792 139.823 117.274 139.429 117.26 138.858H117.874C117.89 139.129 118.162 139.31 118.515 139.307C118.888 139.31 119.157 139.104 119.157 138.802C119.157 138.497 118.895 138.279 118.455 138.277H118.15V137.808H118.455C118.815 137.808 119.066 137.607 119.063 137.312C119.066 137.026 118.85 136.834 118.52 136.834C118.202 136.834 117.928 137.012 117.916 137.298H117.33C117.344 136.729 117.862 136.337 118.525 136.337C119.213 136.337 119.658 136.759 119.654 137.279C119.658 137.659 119.405 137.933 119.035 138.01V138.038C119.513 138.101 119.785 138.408 119.78 138.834C119.785 139.408 119.249 139.823 118.515 139.823ZM120.716 139.354C120.515 139.354 120.349 139.19 120.351 138.989C120.349 138.792 120.515 138.631 120.716 138.628C120.911 138.631 121.077 138.792 121.077 138.989C121.077 139.19 120.911 139.354 120.716 139.354ZM120.351 137.171C120.349 136.975 120.515 136.813 120.716 136.811C120.911 136.813 121.077 136.975 121.077 137.171C121.077 137.373 120.911 137.537 120.716 137.537C120.515 137.537 120.349 137.373 120.351 137.171ZM123.053 136.384V139.776H122.439V136.979H122.421L121.629 137.485V136.928L122.468 136.384H123.053ZM123.905 139.776V139.336L125.104 138.178C125.446 137.837 125.624 137.635 125.624 137.349C125.624 137.033 125.373 136.834 125.043 136.834C124.694 136.834 124.469 137.052 124.472 137.396H123.891C123.889 136.754 124.371 136.337 125.048 136.337C125.741 136.337 126.207 136.752 126.21 137.321C126.207 137.703 126.025 138.012 125.357 138.642L124.753 139.242V139.265H126.261V139.776H123.905Z" fill="#C2C4C8"/>
<rect x="87.4529" y="149.315" width="40.7734" height="7.34388" rx="1.46878" fill="#C2C4C8"/>
<path d="M87.7337 154.314V153.874L88.9329 152.717C89.2749 152.375 89.4529 152.174 89.4529 151.888C89.4529 151.572 89.2023 151.373 88.872 151.373C88.523 151.373 88.2982 151.59 88.3005 151.935H87.7197C87.7173 151.293 88.1998 150.876 88.8767 150.876C89.57 150.876 90.0361 151.291 90.0385 151.86C90.0361 152.242 89.8534 152.551 89.1859 153.181L88.5816 153.78V153.804H90.09V154.314H87.7337ZM91.9021 154.361C91.0847 154.361 90.5975 153.729 90.5998 152.619C90.5975 151.513 91.0893 150.876 91.9021 150.876C92.7148 150.876 93.2044 151.513 93.2044 152.619C93.2044 153.731 92.7172 154.361 91.9021 154.361ZM91.2135 152.619C91.2135 153.434 91.4758 153.848 91.9021 153.851C92.326 153.848 92.5907 153.434 92.5907 152.619C92.5884 151.811 92.326 151.384 91.9021 151.382C91.4782 151.384 91.2158 151.811 91.2135 152.619ZM93.7423 154.314V153.874L94.9415 152.717C95.2835 152.375 95.4615 152.174 95.4615 151.888C95.4615 151.572 95.2109 151.373 94.8806 151.373C94.5317 151.373 94.3068 151.59 94.3091 151.935H93.7283C93.7259 151.293 94.2084 150.876 94.8853 150.876C95.5786 150.876 96.0447 151.291 96.0471 151.86C96.0447 152.242 95.862 152.551 95.1945 153.181L94.5902 153.78V153.804H96.0986V154.314H93.7423ZM97.8639 154.361C97.187 154.361 96.6881 153.956 96.6693 153.396H97.2643C97.283 153.67 97.543 153.867 97.8639 153.869C98.2433 153.867 98.5174 153.593 98.515 153.218C98.5174 152.829 98.2363 152.555 97.8451 152.553C97.5805 152.551 97.3884 152.644 97.283 152.844H96.7162L96.9223 150.923H98.9272V151.434H97.4235L97.3205 152.333H97.3533C97.4844 152.185 97.7304 152.078 98.0091 152.075C98.6391 152.078 99.1076 152.546 99.1053 153.2C99.1076 153.876 98.597 154.361 97.8639 154.361ZM99.9102 154.352C99.7088 154.352 99.5425 154.188 99.5448 153.987C99.5425 153.79 99.7088 153.628 99.9102 153.626C100.105 153.628 100.271 153.79 100.271 153.987C100.271 154.188 100.105 154.352 99.9102 154.352ZM101.985 154.361C101.167 154.361 100.68 153.729 100.682 152.619C100.68 151.513 101.172 150.876 101.985 150.876C102.797 150.876 103.287 151.513 103.287 152.619C103.287 153.731 102.8 154.361 101.985 154.361ZM101.296 152.619C101.296 153.434 101.558 153.848 101.985 153.851C102.409 153.848 102.673 153.434 102.673 152.619C102.671 151.811 102.409 151.384 101.985 151.382C101.561 151.384 101.298 151.811 101.296 152.619ZM105.029 154.361C104.352 154.361 103.853 153.956 103.834 153.396H104.429C104.448 153.67 104.708 153.867 105.029 153.869C105.408 153.867 105.682 153.593 105.68 153.218C105.682 152.829 105.401 152.555 105.01 152.553C104.745 152.551 104.553 152.644 104.448 152.844H103.881L104.087 150.923H106.092V151.434H104.588L104.485 152.333H104.518C104.649 152.185 104.895 152.078 105.174 152.075C105.804 152.078 106.273 152.546 106.27 153.2C106.273 153.876 105.762 154.361 105.029 154.361ZM107.075 154.352C106.874 154.352 106.707 154.188 106.71 153.987C106.707 153.79 106.874 153.628 107.075 153.626C107.27 153.628 107.436 153.79 107.436 153.987C107.436 154.188 107.27 154.352 107.075 154.352ZM109.15 154.361C108.332 154.361 107.845 153.729 107.847 152.619C107.845 151.513 108.337 150.876 109.15 150.876C109.962 150.876 110.452 151.513 110.452 152.619C110.452 153.731 109.965 154.361 109.15 154.361ZM108.461 152.619C108.461 153.434 108.723 153.848 109.15 153.851C109.574 153.848 109.838 153.434 109.838 152.619C109.836 151.811 109.574 151.384 109.15 151.382C108.726 151.384 108.463 151.811 108.461 152.619ZM112.367 150.923V154.314H111.753V151.518H111.735L110.943 152.024V151.466L111.781 150.923H112.367ZM113.406 154.352C113.205 154.352 113.038 154.188 113.041 153.987C113.038 153.79 113.205 153.628 113.406 153.626C113.601 153.628 113.767 153.79 113.767 153.987C113.767 154.188 113.601 154.352 113.406 154.352ZM114.366 154.314V153.874L115.565 152.717C115.907 152.375 116.085 152.174 116.085 151.888C116.085 151.572 115.834 151.373 115.504 151.373C115.155 151.373 114.93 151.59 114.933 151.935H114.352C114.349 151.293 114.832 150.876 115.509 150.876C116.202 150.876 116.668 151.291 116.67 151.86C116.668 152.242 116.485 152.551 115.818 153.181L115.214 153.78V153.804H116.722V154.314H114.366ZM118.515 154.361C117.792 154.361 117.274 153.968 117.26 153.396H117.874C117.89 153.668 118.162 153.848 118.515 153.846C118.888 153.848 119.157 153.642 119.157 153.34C119.157 153.036 118.895 152.818 118.455 152.815H118.15V152.347H118.455C118.815 152.347 119.066 152.146 119.063 151.85C119.066 151.565 118.85 151.373 118.52 151.373C118.202 151.373 117.928 151.551 117.916 151.836H117.33C117.344 151.267 117.862 150.876 118.525 150.876C119.213 150.876 119.658 151.298 119.654 151.818C119.658 152.197 119.405 152.471 119.035 152.548V152.577C119.513 152.64 119.785 152.947 119.78 153.373C119.785 153.947 119.249 154.361 118.515 154.361ZM120.716 153.893C120.515 153.893 120.349 153.729 120.351 153.527C120.349 153.331 120.515 153.169 120.716 153.167C120.911 153.169 121.077 153.331 121.077 153.527C121.077 153.729 120.911 153.893 120.716 153.893ZM120.351 151.71C120.349 151.513 120.515 151.352 120.716 151.349C120.911 151.352 121.077 151.513 121.077 151.71C121.077 151.911 120.911 152.075 120.716 152.075C120.515 152.075 120.349 151.911 120.351 151.71ZM123.053 150.923V154.314H122.439V151.518H122.421L121.629 152.024V151.466L122.468 150.923H123.053ZM123.905 154.314V153.874L125.104 152.717C125.446 152.375 125.624 152.174 125.624 151.888C125.624 151.572 125.373 151.373 125.043 151.373C124.694 151.373 124.469 151.59 124.472 151.935H123.891C123.889 151.293 124.371 150.876 125.048 150.876C125.741 150.876 126.207 151.291 126.21 151.86C126.207 152.242 126.025 152.551 125.357 153.181L124.753 153.78V153.804H126.261V154.314H123.905Z" fill="#C2C4C8"/>
<rect x="87.4529" y="163.854" width="40.7734" height="7.34388" rx="1.46878" fill="#C2C4C8"/>
<path d="M87.7337 168.855V168.415L88.9329 167.258C89.2749 166.916 89.4529 166.714 89.4529 166.428C89.4529 166.112 89.2023 165.913 88.872 165.913C88.523 165.913 88.2982 166.131 88.3005 166.475H87.7197C87.7173 165.834 88.1998 165.417 88.8767 165.417C89.57 165.417 90.0361 165.831 90.0385 166.4C90.0361 166.782 89.8534 167.091 89.1859 167.721L88.5816 168.321V168.344H90.09V168.855H87.7337ZM91.9021 168.902C91.0847 168.902 90.5975 168.269 90.5998 167.159C90.5975 166.054 91.0893 165.417 91.9021 165.417C92.7148 165.417 93.2044 166.054 93.2044 167.159C93.2044 168.272 92.7172 168.902 91.9021 168.902ZM91.2135 167.159C91.2135 167.974 91.4758 168.389 91.9021 168.391C92.326 168.389 92.5907 167.974 92.5907 167.159C92.5884 166.351 92.326 165.925 91.9021 165.923C91.4782 165.925 91.2158 166.351 91.2135 167.159ZM93.7423 168.855V168.415L94.9415 167.258C95.2835 166.916 95.4615 166.714 95.4615 166.428C95.4615 166.112 95.2109 165.913 94.8806 165.913C94.5317 165.913 94.3068 166.131 94.3091 166.475H93.7283C93.7259 165.834 94.2084 165.417 94.8853 165.417C95.5786 165.417 96.0447 165.831 96.0471 166.4C96.0447 166.782 95.862 167.091 95.1945 167.721L94.5902 168.321V168.344H96.0986V168.855H93.7423ZM97.8639 168.902C97.187 168.902 96.6881 168.497 96.6693 167.937H97.2643C97.283 168.211 97.543 168.408 97.8639 168.41C98.2433 168.408 98.5174 168.134 98.515 167.759C98.5174 167.37 98.2363 167.096 97.8451 167.094C97.5805 167.091 97.3884 167.185 97.283 167.384H96.7162L96.9223 165.463H98.9272V165.974H97.4235L97.3205 166.873H97.3533C97.4844 166.726 97.7304 166.618 98.0091 166.616C98.6391 166.618 99.1076 167.087 99.1053 167.74C99.1076 168.417 98.597 168.902 97.8639 168.902ZM99.9102 168.892C99.7088 168.892 99.5425 168.729 99.5448 168.527C99.5425 168.33 99.7088 168.169 99.9102 168.166C100.105 168.169 100.271 168.33 100.271 168.527C100.271 168.729 100.105 168.892 99.9102 168.892ZM101.985 168.902C101.167 168.902 100.68 168.269 100.682 167.159C100.68 166.054 101.172 165.417 101.985 165.417C102.797 165.417 103.287 166.054 103.287 167.159C103.287 168.272 102.8 168.902 101.985 168.902ZM101.296 167.159C101.296 167.974 101.558 168.389 101.985 168.391C102.409 168.389 102.673 167.974 102.673 167.159C102.671 166.351 102.409 165.925 101.985 165.923C101.561 165.925 101.298 166.351 101.296 167.159ZM105.029 168.902C104.352 168.902 103.853 168.497 103.834 167.937H104.429C104.448 168.211 104.708 168.408 105.029 168.41C105.408 168.408 105.682 168.134 105.68 167.759C105.682 167.37 105.401 167.096 105.01 167.094C104.745 167.091 104.553 167.185 104.448 167.384H103.881L104.087 165.463H106.092V165.974H104.588L104.485 166.873H104.518C104.649 166.726 104.895 166.618 105.174 166.616C105.804 166.618 106.273 167.087 106.27 167.74C106.273 168.417 105.762 168.902 105.029 168.902ZM107.075 168.892C106.874 168.892 106.707 168.729 106.71 168.527C106.707 168.33 106.874 168.169 107.075 168.166C107.27 168.169 107.436 168.33 107.436 168.527C107.436 168.729 107.27 168.892 107.075 168.892ZM109.15 168.902C108.332 168.902 107.845 168.269 107.847 167.159C107.845 166.054 108.337 165.417 109.15 165.417C109.962 165.417 110.452 166.054 110.452 167.159C110.452 168.272 109.965 168.902 109.15 168.902ZM108.461 167.159C108.461 167.974 108.723 168.389 109.15 168.391C109.574 168.389 109.838 167.974 109.838 167.159C109.836 166.351 109.574 165.925 109.15 165.923C108.726 165.925 108.463 166.351 108.461 167.159ZM112.367 165.463V168.855H111.753V166.058H111.735L110.943 166.564V166.007L111.781 165.463H112.367ZM113.406 168.892C113.205 168.892 113.038 168.729 113.041 168.527C113.038 168.33 113.205 168.169 113.406 168.166C113.601 168.169 113.767 168.33 113.767 168.527C113.767 168.729 113.601 168.892 113.406 168.892ZM114.366 168.855V168.415L115.565 167.258C115.907 166.916 116.085 166.714 116.085 166.428C116.085 166.112 115.834 165.913 115.504 165.913C115.155 165.913 114.93 166.131 114.933 166.475H114.352C114.349 165.834 114.832 165.417 115.509 165.417C116.202 165.417 116.668 165.831 116.67 166.4C116.668 166.782 116.485 167.091 115.818 167.721L115.214 168.321V168.344H116.722V168.855H114.366ZM118.515 168.902C117.792 168.902 117.274 168.508 117.26 167.937H117.874C117.89 168.209 118.162 168.389 118.515 168.387C118.888 168.389 119.157 168.183 119.157 167.881C119.157 167.576 118.895 167.358 118.455 167.356H118.15V166.888H118.455C118.815 166.888 119.066 166.686 119.063 166.391C119.066 166.105 118.85 165.913 118.52 165.913C118.202 165.913 117.928 166.091 117.916 166.377H117.33C117.344 165.808 117.862 165.417 118.525 165.417C119.213 165.417 119.658 165.838 119.654 166.358C119.658 166.738 119.405 167.012 119.035 167.089V167.117C119.513 167.18 119.785 167.487 119.78 167.913C119.785 168.487 119.249 168.902 118.515 168.902ZM120.716 168.433C120.515 168.433 120.349 168.269 120.351 168.068C120.349 167.871 120.515 167.71 120.716 167.707C120.911 167.71 121.077 167.871 121.077 168.068C121.077 168.269 120.911 168.433 120.716 168.433ZM120.351 166.25C120.349 166.054 120.515 165.892 120.716 165.89C120.911 165.892 121.077 166.054 121.077 166.25C121.077 166.452 120.911 166.616 120.716 166.616C120.515 166.616 120.349 166.452 120.351 166.25ZM123.053 165.463V168.855H122.439V166.058H122.421L121.629 166.564V166.007L122.468 165.463H123.053ZM123.905 168.855V168.415L125.104 167.258C125.446 166.916 125.624 166.714 125.624 166.428C125.624 166.112 125.373 165.913 125.043 165.913C124.694 165.913 124.469 166.131 124.472 166.475H123.891C123.889 165.834 124.371 165.417 125.048 165.417C125.741 165.417 126.207 165.831 126.21 166.4C126.207 166.782 126.025 167.091 125.357 167.721L124.753 168.321V168.344H126.261V168.855H123.905Z" fill="#C2C4C8"/>
<rect x="87.4529" y="178.393" width="40.7734" height="7.34388" rx="1.46878" fill="#C2C4C8"/>
<path d="M87.7337 183.393V182.953L88.9329 181.796C89.2749 181.454 89.4529 181.252 89.4529 180.967C89.4529 180.65 89.2023 180.451 88.872 180.451C88.523 180.451 88.2982 180.669 88.3005 181.013H87.7197C87.7173 180.372 88.1998 179.955 88.8767 179.955C89.57 179.955 90.0361 180.369 90.0385 180.938C90.0361 181.32 89.8534 181.629 89.1859 182.259L88.5816 182.859V182.882H90.09V183.393H87.7337ZM91.9021 183.44C91.0847 183.44 90.5975 182.808 90.5998 181.697C90.5975 180.592 91.0893 179.955 91.9021 179.955C92.7148 179.955 93.2044 180.592 93.2044 181.697C93.2044 182.81 92.7172 183.44 91.9021 183.44ZM91.2135 181.697C91.2135 182.512 91.4758 182.927 91.9021 182.929C92.326 182.927 92.5907 182.512 92.5907 181.697C92.5884 180.889 92.326 180.463 91.9021 180.461C91.4782 180.463 91.2158 180.889 91.2135 181.697ZM93.7423 183.393V182.953L94.9415 181.796C95.2835 181.454 95.4615 181.252 95.4615 180.967C95.4615 180.65 95.2109 180.451 94.8806 180.451C94.5317 180.451 94.3068 180.669 94.3091 181.013H93.7283C93.7259 180.372 94.2084 179.955 94.8853 179.955C95.5786 179.955 96.0447 180.369 96.0471 180.938C96.0447 181.32 95.862 181.629 95.1945 182.259L94.5902 182.859V182.882H96.0986V183.393H93.7423ZM97.8639 183.44C97.187 183.44 96.6881 183.035 96.6693 182.475H97.2643C97.283 182.749 97.543 182.946 97.8639 182.948C98.2433 182.946 98.5174 182.672 98.515 182.297C98.5174 181.908 98.2363 181.634 97.8451 181.632C97.5805 181.629 97.3884 181.723 97.283 181.922H96.7162L96.9223 180.002H98.9272V180.512H97.4235L97.3205 181.412H97.3533C97.4844 181.264 97.7304 181.156 98.0091 181.154C98.6391 181.156 99.1076 181.625 99.1053 182.278C99.1076 182.955 98.597 183.44 97.8639 183.44ZM99.9102 183.431C99.7088 183.431 99.5425 183.267 99.5448 183.065C99.5425 182.868 99.7088 182.707 99.9102 182.704C100.105 182.707 100.271 182.868 100.271 183.065C100.271 183.267 100.105 183.431 99.9102 183.431ZM101.985 183.44C101.167 183.44 100.68 182.808 100.682 181.697C100.68 180.592 101.172 179.955 101.985 179.955C102.797 179.955 103.287 180.592 103.287 181.697C103.287 182.81 102.8 183.44 101.985 183.44ZM101.296 181.697C101.296 182.512 101.558 182.927 101.985 182.929C102.409 182.927 102.673 182.512 102.673 181.697C102.671 180.889 102.409 180.463 101.985 180.461C101.561 180.463 101.298 180.889 101.296 181.697ZM105.029 183.44C104.352 183.44 103.853 183.035 103.834 182.475H104.429C104.448 182.749 104.708 182.946 105.029 182.948C105.408 182.946 105.682 182.672 105.68 182.297C105.682 181.908 105.401 181.634 105.01 181.632C104.745 181.629 104.553 181.723 104.448 181.922H103.881L104.087 180.002H106.092V180.512H104.588L104.485 181.412H104.518C104.649 181.264 104.895 181.156 105.174 181.154C105.804 181.156 106.273 181.625 106.27 182.278C106.273 182.955 105.762 183.44 105.029 183.44ZM107.075 183.431C106.874 183.431 106.707 183.267 106.71 183.065C106.707 182.868 106.874 182.707 107.075 182.704C107.27 182.707 107.436 182.868 107.436 183.065C107.436 183.267 107.27 183.431 107.075 183.431ZM109.15 183.44C108.332 183.44 107.845 182.808 107.847 181.697C107.845 180.592 108.337 179.955 109.15 179.955C109.962 179.955 110.452 180.592 110.452 181.697C110.452 182.81 109.965 183.44 109.15 183.44ZM108.461 181.697C108.461 182.512 108.723 182.927 109.15 182.929C109.574 182.927 109.838 182.512 109.838 181.697C109.836 180.889 109.574 180.463 109.15 180.461C108.726 180.463 108.463 180.889 108.461 181.697ZM112.367 180.002V183.393H111.753V180.596H111.735L110.943 181.102V180.545L111.781 180.002H112.367ZM113.406 183.431C113.205 183.431 113.038 183.267 113.041 183.065C113.038 182.868 113.205 182.707 113.406 182.704C113.601 182.707 113.767 182.868 113.767 183.065C113.767 183.267 113.601 183.431 113.406 183.431ZM114.366 183.393V182.953L115.565 181.796C115.907 181.454 116.085 181.252 116.085 180.967C116.085 180.65 115.834 180.451 115.504 180.451C115.155 180.451 114.93 180.669 114.933 181.013H114.352C114.349 180.372 114.832 179.955 115.509 179.955C116.202 179.955 116.668 180.369 116.67 180.938C116.668 181.32 116.485 181.629 115.818 182.259L115.214 182.859V182.882H116.722V183.393H114.366ZM118.515 183.44C117.792 183.44 117.274 183.046 117.26 182.475H117.874C117.89 182.747 118.162 182.927 118.515 182.925C118.888 182.927 119.157 182.721 119.157 182.419C119.157 182.114 118.895 181.896 118.455 181.894H118.15V181.426H118.455C118.815 181.426 119.066 181.224 119.063 180.929C119.066 180.643 118.85 180.451 118.52 180.451C118.202 180.451 117.928 180.629 117.916 180.915H117.33C117.344 180.346 117.862 179.955 118.525 179.955C119.213 179.955 119.658 180.376 119.654 180.896C119.658 181.276 119.405 181.55 119.035 181.627V181.655C119.513 181.718 119.785 182.025 119.78 182.451C119.785 183.025 119.249 183.44 118.515 183.44ZM120.716 182.971C120.515 182.971 120.349 182.808 120.351 182.606C120.349 182.409 120.515 182.248 120.716 182.245C120.911 182.248 121.077 182.409 121.077 182.606C121.077 182.808 120.911 182.971 120.716 182.971ZM120.351 180.789C120.349 180.592 120.515 180.43 120.716 180.428C120.911 180.43 121.077 180.592 121.077 180.789C121.077 180.99 120.911 181.154 120.716 181.154C120.515 181.154 120.349 180.99 120.351 180.789ZM123.053 180.002V183.393H122.439V180.596H122.421L121.629 181.102V180.545L122.468 180.002H123.053ZM123.905 183.393V182.953L125.104 181.796C125.446 181.454 125.624 181.252 125.624 180.967C125.624 180.65 125.373 180.451 125.043 180.451C124.694 180.451 124.469 180.669 124.472 181.013H123.891C123.889 180.372 124.371 179.955 125.048 179.955C125.741 179.955 126.207 180.369 126.21 180.938C126.207 181.32 126.025 181.629 125.357 182.259L124.753 182.859V182.882H126.261V183.393H123.905Z" fill="#C2C4C8"/>
<rect x="87.4529" y="192.932" width="40.7734" height="7.34388" rx="1.46878" fill="#C2C4C8"/>
<path d="M87.7337 197.932V197.491L88.9329 196.334C89.2749 195.992 89.4529 195.791 89.4529 195.505C89.4529 195.189 89.2023 194.99 88.872 194.99C88.523 194.99 88.2982 195.208 88.3005 195.552H87.7197C87.7173 194.91 88.1998 194.493 88.8767 194.493C89.57 194.493 90.0361 194.908 90.0385 195.477C90.0361 195.859 89.8534 196.168 89.1859 196.798L88.5816 197.398V197.421H90.09V197.932H87.7337ZM91.9021 197.978C91.0847 197.978 90.5975 197.346 90.5998 196.236C90.5975 195.13 91.0893 194.493 91.9021 194.493C92.7148 194.493 93.2044 195.13 93.2044 196.236C93.2044 197.348 92.7172 197.978 91.9021 197.978ZM91.2135 196.236C91.2135 197.051 91.4758 197.466 91.9021 197.468C92.326 197.466 92.5907 197.051 92.5907 196.236C92.5884 195.428 92.326 195.002 91.9021 194.999C91.4782 195.002 91.2158 195.428 91.2135 196.236ZM93.7423 197.932V197.491L94.9415 196.334C95.2835 195.992 95.4615 195.791 95.4615 195.505C95.4615 195.189 95.2109 194.99 94.8806 194.99C94.5317 194.99 94.3068 195.208 94.3091 195.552H93.7283C93.7259 194.91 94.2084 194.493 94.8853 194.493C95.5786 194.493 96.0447 194.908 96.0471 195.477C96.0447 195.859 95.862 196.168 95.1945 196.798L94.5902 197.398V197.421H96.0986V197.932H93.7423ZM97.8639 197.978C97.187 197.978 96.6881 197.573 96.6693 197.013H97.2643C97.283 197.288 97.543 197.484 97.8639 197.487C98.2433 197.484 98.5174 197.21 98.515 196.835C98.5174 196.447 98.2363 196.173 97.8451 196.17C97.5805 196.168 97.3884 196.262 97.283 196.461H96.7162L96.9223 194.54H98.9272V195.051H97.4235L97.3205 195.95H97.3533C97.4844 195.803 97.7304 195.695 98.0091 195.692C98.6391 195.695 99.1076 196.163 99.1053 196.817C99.1076 197.494 98.597 197.978 97.8639 197.978ZM99.9102 197.969C99.7088 197.969 99.5425 197.805 99.5448 197.604C99.5425 197.407 99.7088 197.245 99.9102 197.243C100.105 197.245 100.271 197.407 100.271 197.604C100.271 197.805 100.105 197.969 99.9102 197.969ZM101.985 197.978C101.167 197.978 100.68 197.346 100.682 196.236C100.68 195.13 101.172 194.493 101.985 194.493C102.797 194.493 103.287 195.13 103.287 196.236C103.287 197.348 102.8 197.978 101.985 197.978ZM101.296 196.236C101.296 197.051 101.558 197.466 101.985 197.468C102.409 197.466 102.673 197.051 102.673 196.236C102.671 195.428 102.409 195.002 101.985 194.999C101.561 195.002 101.298 195.428 101.296 196.236ZM105.029 197.978C104.352 197.978 103.853 197.573 103.834 197.013H104.429C104.448 197.288 104.708 197.484 105.029 197.487C105.408 197.484 105.682 197.21 105.68 196.835C105.682 196.447 105.401 196.173 105.01 196.17C104.745 196.168 104.553 196.262 104.448 196.461H103.881L104.087 194.54H106.092V195.051H104.588L104.485 195.95H104.518C104.649 195.803 104.895 195.695 105.174 195.692C105.804 195.695 106.273 196.163 106.27 196.817C106.273 197.494 105.762 197.978 105.029 197.978ZM107.075 197.969C106.874 197.969 106.707 197.805 106.71 197.604C106.707 197.407 106.874 197.245 107.075 197.243C107.27 197.245 107.436 197.407 107.436 197.604C107.436 197.805 107.27 197.969 107.075 197.969ZM109.15 197.978C108.332 197.978 107.845 197.346 107.847 196.236C107.845 195.13 108.337 194.493 109.15 194.493C109.962 194.493 110.452 195.13 110.452 196.236C110.452 197.348 109.965 197.978 109.15 197.978ZM108.461 196.236C108.461 197.051 108.723 197.466 109.15 197.468C109.574 197.466 109.838 197.051 109.838 196.236C109.836 195.428 109.574 195.002 109.15 194.999C108.726 195.002 108.463 195.428 108.461 196.236ZM112.367 194.54V197.932H111.753V195.135H111.735L110.943 195.641V195.083L111.781 194.54H112.367ZM113.406 197.969C113.205 197.969 113.038 197.805 113.041 197.604C113.038 197.407 113.205 197.245 113.406 197.243C113.601 197.245 113.767 197.407 113.767 197.604C113.767 197.805 113.601 197.969 113.406 197.969ZM114.366 197.932V197.491L115.565 196.334C115.907 195.992 116.085 195.791 116.085 195.505C116.085 195.189 115.834 194.99 115.504 194.99C115.155 194.99 114.93 195.208 114.933 195.552H114.352C114.349 194.91 114.832 194.493 115.509 194.493C116.202 194.493 116.668 194.908 116.67 195.477C116.668 195.859 116.485 196.168 115.818 196.798L115.214 197.398V197.421H116.722V197.932H114.366ZM118.515 197.978C117.792 197.978 117.274 197.585 117.26 197.013H117.874C117.89 197.285 118.162 197.466 118.515 197.463C118.888 197.466 119.157 197.259 119.157 196.957C119.157 196.653 118.895 196.435 118.455 196.433H118.15V195.964H118.455C118.815 195.964 119.066 195.763 119.063 195.468C119.066 195.182 118.85 194.99 118.52 194.99C118.202 194.99 117.928 195.168 117.916 195.454H117.33C117.344 194.884 117.862 194.493 118.525 194.493C119.213 194.493 119.658 194.915 119.654 195.435C119.658 195.814 119.405 196.088 119.035 196.166V196.194C119.513 196.257 119.785 196.564 119.78 196.99C119.785 197.564 119.249 197.978 118.515 197.978ZM120.716 197.51C120.515 197.51 120.349 197.346 120.351 197.145C120.349 196.948 120.515 196.786 120.716 196.784C120.911 196.786 121.077 196.948 121.077 197.145C121.077 197.346 120.911 197.51 120.716 197.51ZM120.351 195.327C120.349 195.13 120.515 194.969 120.716 194.966C120.911 194.969 121.077 195.13 121.077 195.327C121.077 195.529 120.911 195.692 120.716 195.692C120.515 195.692 120.349 195.529 120.351 195.327ZM123.053 194.54V197.932H122.439V195.135H122.421L121.629 195.641V195.083L122.468 194.54H123.053ZM123.905 197.932V197.491L125.104 196.334C125.446 195.992 125.624 195.791 125.624 195.505C125.624 195.189 125.373 194.99 125.043 194.99C124.694 194.99 124.469 195.208 124.472 195.552H123.891C123.889 194.91 124.371 194.493 125.048 194.493C125.741 194.493 126.207 194.908 126.21 195.477C126.207 195.859 126.025 196.168 125.357 196.798L124.753 197.398V197.421H126.261V197.932H123.905Z" fill="#C2C4C8"/>
<rect x="87.4529" y="207.472" width="40.7734" height="7.34388" rx="1.46878" fill="#C2C4C8"/>
<path d="M87.7337 212.472V212.032L88.9329 210.875C89.2749 210.533 89.4529 210.331 89.4529 210.046C89.4529 209.729 89.2023 209.53 88.872 209.53C88.523 209.53 88.2982 209.748 88.3005 210.092H87.7197C87.7173 209.451 88.1998 209.034 88.8767 209.034C89.57 209.034 90.0361 209.448 90.0385 210.018C90.0361 210.399 89.8534 210.708 89.1859 211.339L88.5816 211.938V211.962H90.09V212.472H87.7337ZM91.9021 212.519C91.0847 212.519 90.5975 211.887 90.5998 210.776C90.5975 209.671 91.0893 209.034 91.9021 209.034C92.7148 209.034 93.2044 209.671 93.2044 210.776C93.2044 211.889 92.7172 212.519 91.9021 212.519ZM91.2135 210.776C91.2135 211.591 91.4758 212.006 91.9021 212.008C92.326 212.006 92.5907 211.591 92.5907 210.776C92.5884 209.968 92.326 209.542 91.9021 209.54C91.4782 209.542 91.2158 209.968 91.2135 210.776ZM93.7423 212.472V212.032L94.9415 210.875C95.2835 210.533 95.4615 210.331 95.4615 210.046C95.4615 209.729 95.2109 209.53 94.8806 209.53C94.5317 209.53 94.3068 209.748 94.3091 210.092H93.7283C93.7259 209.451 94.2084 209.034 94.8853 209.034C95.5786 209.034 96.0447 209.448 96.0471 210.018C96.0447 210.399 95.862 210.708 95.1945 211.339L94.5902 211.938V211.962H96.0986V212.472H93.7423ZM97.8639 212.519C97.187 212.519 96.6881 212.114 96.6693 211.554H97.2643C97.283 211.828 97.543 212.025 97.8639 212.027C98.2433 212.025 98.5174 211.751 98.515 211.376C98.5174 210.987 98.2363 210.713 97.8451 210.711C97.5805 210.708 97.3884 210.802 97.283 211.001H96.7162L96.9223 209.081H98.9272V209.591H97.4235L97.3205 210.491H97.3533C97.4844 210.343 97.7304 210.235 98.0091 210.233C98.6391 210.235 99.1076 210.704 99.1053 211.357C99.1076 212.034 98.597 212.519 97.8639 212.519ZM99.9102 212.51C99.7088 212.51 99.5425 212.346 99.5448 212.144C99.5425 211.948 99.7088 211.786 99.9102 211.784C100.105 211.786 100.271 211.948 100.271 212.144C100.271 212.346 100.105 212.51 99.9102 212.51ZM101.985 212.519C101.167 212.519 100.68 211.887 100.682 210.776C100.68 209.671 101.172 209.034 101.985 209.034C102.797 209.034 103.287 209.671 103.287 210.776C103.287 211.889 102.8 212.519 101.985 212.519ZM101.296 210.776C101.296 211.591 101.558 212.006 101.985 212.008C102.409 212.006 102.673 211.591 102.673 210.776C102.671 209.968 102.409 209.542 101.985 209.54C101.561 209.542 101.298 209.968 101.296 210.776ZM105.029 212.519C104.352 212.519 103.853 212.114 103.834 211.554H104.429C104.448 211.828 104.708 212.025 105.029 212.027C105.408 212.025 105.682 211.751 105.68 211.376C105.682 210.987 105.401 210.713 105.01 210.711C104.745 210.708 104.553 210.802 104.448 211.001H103.881L104.087 209.081H106.092V209.591H104.588L104.485 210.491H104.518C104.649 210.343 104.895 210.235 105.174 210.233C105.804 210.235 106.273 210.704 106.27 211.357C106.273 212.034 105.762 212.519 105.029 212.519ZM107.075 212.51C106.874 212.51 106.707 212.346 106.71 212.144C106.707 211.948 106.874 211.786 107.075 211.784C107.27 211.786 107.436 211.948 107.436 212.144C107.436 212.346 107.27 212.51 107.075 212.51ZM109.15 212.519C108.332 212.519 107.845 211.887 107.847 210.776C107.845 209.671 108.337 209.034 109.15 209.034C109.962 209.034 110.452 209.671 110.452 210.776C110.452 211.889 109.965 212.519 109.15 212.519ZM108.461 210.776C108.461 211.591 108.723 212.006 109.15 212.008C109.574 212.006 109.838 211.591 109.838 210.776C109.836 209.968 109.574 209.542 109.15 209.54C108.726 209.542 108.463 209.968 108.461 210.776ZM112.367 209.081V212.472H111.753V209.676H111.735L110.943 210.181V209.624L111.781 209.081H112.367ZM113.406 212.51C113.205 212.51 113.038 212.346 113.041 212.144C113.038 211.948 113.205 211.786 113.406 211.784C113.601 211.786 113.767 211.948 113.767 212.144C113.767 212.346 113.601 212.51 113.406 212.51ZM114.366 212.472V212.032L115.565 210.875C115.907 210.533 116.085 210.331 116.085 210.046C116.085 209.729 115.834 209.53 115.504 209.53C115.155 209.53 114.93 209.748 114.933 210.092H114.352C114.349 209.451 114.832 209.034 115.509 209.034C116.202 209.034 116.668 209.448 116.67 210.018C116.668 210.399 116.485 210.708 115.818 211.339L115.214 211.938V211.962H116.722V212.472H114.366ZM118.515 212.519C117.792 212.519 117.274 212.126 117.26 211.554H117.874C117.89 211.826 118.162 212.006 118.515 212.004C118.888 212.006 119.157 211.8 119.157 211.498C119.157 211.193 118.895 210.975 118.455 210.973H118.15V210.505H118.455C118.815 210.505 119.066 210.303 119.063 210.008C119.066 209.722 118.85 209.53 118.52 209.53C118.202 209.53 117.928 209.708 117.916 209.994H117.33C117.344 209.425 117.862 209.034 118.525 209.034C119.213 209.034 119.658 209.455 119.654 209.975C119.658 210.355 119.405 210.629 119.035 210.706V210.734C119.513 210.797 119.785 211.104 119.78 211.531C119.785 212.104 119.249 212.519 118.515 212.519ZM120.716 212.051C120.515 212.051 120.349 211.887 120.351 211.685C120.349 211.488 120.515 211.327 120.716 211.324C120.911 211.327 121.077 211.488 121.077 211.685C121.077 211.887 120.911 212.051 120.716 212.051ZM120.351 209.868C120.349 209.671 120.515 209.509 120.716 209.507C120.911 209.509 121.077 209.671 121.077 209.868C121.077 210.069 120.911 210.233 120.716 210.233C120.515 210.233 120.349 210.069 120.351 209.868ZM123.053 209.081V212.472H122.439V209.676H122.421L121.629 210.181V209.624L122.468 209.081H123.053ZM123.905 212.472V212.032L125.104 210.875C125.446 210.533 125.624 210.331 125.624 210.046C125.624 209.729 125.373 209.53 125.043 209.53C124.694 209.53 124.469 209.748 124.472 210.092H123.891C123.889 209.451 124.371 209.034 125.048 209.034C125.741 209.034 126.207 209.448 126.21 210.018C126.207 210.399 126.025 210.708 125.357 211.339L124.753 211.938V211.962H126.261V212.472H123.905Z" fill="#C2C4C8"/>
<rect x="139.019" y="120.236" width="285.414" height="7.34388" rx="1.46878" fill="#C2C4C8"/>
<path d="M143.015 123.242V123.673H139.169V123.242H143.015Z" fill="#C2C4C8"/>
<rect x="139.019" y="134.775" width="285.414" height="7.34388" rx="1.46878" fill="#C2C4C8"/>
<path d="M143.015 137.78V138.211H139.169V137.78H143.015Z" fill="#C2C4C8"/>
<rect x="139.019" y="149.315" width="285.414" height="7.34388" rx="1.46878" fill="#C2C4C8"/>
<path d="M143.015 152.319V152.75H139.169V152.319H143.015Z" fill="#C2C4C8"/>
<rect x="139.019" y="163.854" width="285.414" height="7.34388" rx="1.46878" fill="#C2C4C8"/>
<path d="M143.015 166.859V167.29H139.169V166.859H143.015Z" fill="#C2C4C8"/>
<rect x="139.019" y="178.393" width="285.414" height="7.34388" rx="1.46878" fill="#C2C4C8"/>
<path d="M143.015 181.397V181.828H139.169V181.397H143.015Z" fill="#C2C4C8"/>
<rect x="139.019" y="192.932" width="285.414" height="7.34388" rx="1.46878" fill="#C2C4C8"/>
<path d="M143.015 195.936V196.367H139.169V195.936H143.015Z" fill="#C2C4C8"/>
<rect x="139.019" y="207.472" width="285.414" height="7.34388" rx="1.46878" fill="#C2C4C8"/>
<path d="M143.015 210.477V210.908H139.169V210.477H143.015Z" fill="#C2C4C8"/>
</g>
</g>
<defs>
<filter id="filter0_dd_3245_45499" x="0.5" y="0.101562" width="461.719" height="337" filterUnits="userSpaceOnUse" color-interpolation-filters="sRGB">
<feFlood flood-opacity="0" result="BackgroundImageFix"/>
<feColorMatrix in="SourceAlpha" type="matrix" values="0 0 0 0 0 0 0 0 0 0 0 0 0 0 0 0 0 0 127 0" result="hardAlpha"/>
<feOffset dy="5"/>
<feGaussianBlur stdDeviation="7.5"/>
<feComposite in2="hardAlpha" operator="out"/>
<feColorMatrix type="matrix" values="0 0 0 0 0 0 0 0 0 0 0 0 0 0 0 0 0 0 0.03 0"/>
<feBlend mode="normal" in2="BackgroundImageFix" result="effect1_dropShadow_3245_45499"/>
<feColorMatrix in="SourceAlpha" type="matrix" values="0 0 0 0 0 0 0 0 0 0 0 0 0 0 0 0 0 0 127 0" result="hardAlpha"/>
<feOffset dy="1"/>
<feGaussianBlur stdDeviation="4"/>
<feComposite in2="hardAlpha" operator="out"/>
<feColorMatrix type="matrix" values="0 0 0 0 0 0 0 0 0 0 0 0 0 0 0 0 0 0 0.03 0"/>
<feBlend mode="normal" in2="effect1_dropShadow_3245_45499" result="effect2_dropShadow_3245_45499"/>
<feBlend mode="normal" in="SourceGraphic" in2="effect2_dropShadow_3245_45499" result="shape"/>
</filter>
<clipPath id="clip0_3245_45499">
<path d="M15.5 18.1016C15.5 13.6833 19.0817 10.1016 23.5 10.1016H439.219C443.637 10.1016 447.219 13.6833 447.219 18.1016V309.102C447.219 313.52 443.637 317.102 439.219 317.102H23.5C19.0817 317.102 15.5 313.52 15.5 309.102V18.1016Z" fill="white"/>
</clipPath>
<clipPath id="clip1_3245_45499">
<rect width="7.19531" height="7.19531" fill="white" transform="translate(21.4961 41.8809)"/>
</clipPath>
<clipPath id="clip2_3245_45499">
<rect width="7.19531" height="7.19531" fill="white" transform="translate(21.4961 58.8184)"/>
</clipPath>
<clipPath id="clip3_3245_45499">
<rect width="7.19531" height="7.19531" fill="white" transform="translate(21.4961 75.7563)"/>
</clipPath>
<clipPath id="clip4_3245_45499">
<rect width="7.19531" height="7.19531" fill="white" transform="translate(21.4961 92.6938)"/>
</clipPath>
<clipPath id="clip5_3245_45499">
<rect width="7.19531" height="7.19531" fill="white" transform="translate(21.4961 109.631)"/>
</clipPath>
</defs>
</svg>
