<svg width="322" height="309" viewBox="0 0 322 309" fill="none" xmlns="http://www.w3.org/2000/svg">
<g filter="url(#filter0_d_3245_45446)">
<rect x="13.3799" y="9.99316" width="295.42" height="282.217" rx="11.6225" fill="white" shape-rendering="crispEdges"/>
<path d="M252.279 92.4072C249.491 92.4072 247.051 91.7835 244.959 90.5359C242.868 89.2517 241.235 87.5272 240.061 85.3624C238.923 83.1976 238.355 80.8126 238.355 78.2075C238.355 75.5657 238.905 73.1807 240.006 71.0526C241.107 68.8878 242.684 67.1816 244.739 65.9341C246.794 64.6499 249.215 64.0078 252.004 64.0078C254.829 64.0078 257.251 64.6499 259.269 65.9341C261.324 67.1816 262.902 68.8878 264.002 71.0526C265.103 73.1807 265.653 75.5657 265.653 78.2075V79.8586H242.593C242.813 81.4731 243.326 82.9591 244.134 84.3167C244.978 85.6376 246.097 86.7016 247.491 87.5089C248.885 88.2794 250.5 88.6647 252.334 88.6647C254.279 88.6647 255.912 88.2427 257.233 87.3988C258.554 86.5182 259.581 85.3991 260.315 84.0415H264.828C263.874 86.4998 262.351 88.5179 260.26 90.0956C258.205 91.6367 255.545 92.4072 252.279 92.4072ZM242.648 76.006H261.36C260.994 73.6577 260.003 71.6947 258.388 70.117C256.774 68.5392 254.646 67.7504 252.004 67.7504C249.362 67.7504 247.234 68.5392 245.62 70.117C244.042 71.6947 243.051 73.6577 242.648 76.006Z" fill="#171717"/>
<path d="M230.986 91.9687V53.4424H235.114V91.9687H230.986Z" fill="#171717"/>
<path d="M214.438 92.409C212.163 92.409 210.2 91.9687 208.549 91.0881C206.935 90.2075 205.614 89.0334 204.586 87.5657V91.9687H200.458V53.4424H204.586V68.9079C205.614 67.4036 206.935 66.2111 208.549 65.3305C210.2 64.4499 212.163 64.0096 214.438 64.0096C217.117 64.0096 219.446 64.6517 221.428 65.9359C223.446 67.1834 225.005 68.8896 226.106 71.0544C227.207 73.1825 227.757 75.5675 227.757 78.2093C227.757 80.8144 227.207 83.1994 226.106 85.3642C225.005 87.529 223.446 89.2535 221.428 90.5377C219.446 91.7852 217.117 92.409 214.438 92.409ZM213.888 88.6664C215.942 88.6664 217.685 88.1895 219.116 87.2355C220.584 86.2815 221.703 85.0156 222.474 83.4379C223.244 81.8234 223.629 80.0806 223.629 78.2093C223.629 76.3013 223.244 74.5585 222.474 72.9807C221.703 71.403 220.584 70.1371 219.116 69.1831C217.685 68.2292 215.942 67.7522 213.888 67.7522C211.87 67.7522 210.145 68.2292 208.714 69.1831C207.283 70.1371 206.201 71.403 205.467 72.9807C204.733 74.5585 204.366 76.3013 204.366 78.2093C204.366 80.0806 204.733 81.8234 205.467 83.4379C206.201 85.0156 207.283 86.2815 208.714 87.2355C210.145 88.1895 211.87 88.6664 213.888 88.6664Z" fill="#171717"/>
<path d="M183.527 92.4072C180.738 92.4072 178.317 91.7835 176.262 90.5359C174.207 89.2517 172.629 87.5272 171.529 85.3624C170.428 83.1976 169.877 80.8126 169.877 78.2075C169.877 75.5657 170.428 73.1807 171.529 71.0526C172.629 68.8878 174.207 67.1816 176.262 65.9341C178.317 64.6499 180.738 64.0078 183.527 64.0078C186.352 64.0078 188.774 64.6499 190.792 65.9341C192.846 67.1816 194.424 68.8878 195.525 71.0526C196.626 73.1807 197.176 75.5657 197.176 78.2075C197.176 80.8126 196.626 83.1976 195.525 85.3624C194.424 87.5272 192.846 89.2517 190.792 90.5359C188.774 91.7835 186.352 92.4072 183.527 92.4072ZM183.527 88.6647C185.582 88.6647 187.306 88.1877 188.7 87.2337C190.131 86.2797 191.214 85.0138 191.948 83.4361C192.681 81.8216 193.048 80.0788 193.048 78.2075C193.048 76.2995 192.681 74.5567 191.948 72.9789C191.214 71.4012 190.131 70.1353 188.7 69.1813C187.306 68.2274 185.582 67.7504 183.527 67.7504C181.509 67.7504 179.784 68.2274 178.353 69.1813C176.922 70.1353 175.84 71.4012 175.106 72.9789C174.372 74.5567 174.005 76.2995 174.005 78.2075C174.005 80.0788 174.372 81.8216 175.106 83.4361C175.84 85.0138 176.922 86.2797 178.353 87.2337C179.784 88.1877 181.509 88.6647 183.527 88.6647Z" fill="#171717"/>
<path d="M155.515 91.9669V64.4481H159.643V71.2177C159.789 70.7407 160.065 70.117 160.468 69.3465C160.909 68.5392 161.532 67.732 162.34 66.9248C163.147 66.1176 164.156 65.4388 165.367 64.8884C166.614 64.3013 168.082 64.0078 169.77 64.0078H170.045V68.1356H169.549C167.495 68.1356 165.715 68.7044 164.211 69.8418C162.743 70.9425 161.606 72.3919 160.799 74.1898C160.028 75.951 159.643 77.8406 159.643 79.8586V91.9669H155.515Z" fill="#171717"/>
<path d="M134.338 92.4078C130.632 92.4078 127.44 91.5822 124.761 89.9311C122.119 88.2433 120.083 85.9867 118.652 83.1615C117.221 80.3362 116.505 77.199 116.505 73.75C116.505 70.301 117.239 67.1639 118.707 64.3386C120.175 61.5133 122.248 59.2751 124.926 57.624C127.641 55.9362 130.815 55.0923 134.448 55.0923C138.374 55.0923 141.768 56.0646 144.63 58.0093C147.528 59.9172 149.656 62.3939 151.014 65.4394H146.501C145.4 63.4947 143.859 61.9536 141.878 60.8162C139.933 59.6788 137.566 59.11 134.778 59.11C131.843 59.11 129.311 59.7705 127.183 61.0914C125.055 62.3756 123.422 64.1184 122.284 66.32C121.184 68.5215 120.633 70.9981 120.633 73.75C120.633 76.4652 121.184 78.9419 122.284 81.1801C123.385 83.3816 124.981 85.1428 127.073 86.4637C129.201 87.7479 131.732 88.39 134.668 88.39C136.869 88.39 138.942 87.913 140.887 86.959C142.868 86.0051 144.464 84.6291 145.675 82.8312C146.923 81.0333 147.547 78.8685 147.547 76.3368H134.227V72.5942H151.344V91.9675H147.547V85.5281C146.776 86.7022 145.785 87.8213 144.575 88.8854C143.364 89.9127 141.896 90.7566 140.172 91.4171C138.484 92.0775 136.539 92.4078 134.338 92.4078Z" fill="#171717"/>
<path fill-rule="evenodd" clip-rule="evenodd" d="M76.7288 50.3621C77.8646 50.0578 79.032 50.7318 79.3363 51.8675L82.6404 64.1988L91.6678 55.1715C92.4992 54.3401 93.8472 54.3401 94.6786 55.1715L98.4454 58.9383C99.2769 59.7697 99.2769 61.1177 98.4454 61.9491L89.4184 70.9762L101.749 74.28C102.884 74.5843 103.558 75.7517 103.254 76.8875L101.875 82.0331C101.571 83.1688 100.404 83.8428 99.2678 83.5385L86.9372 80.2345L90.2412 92.5652C90.5455 93.701 89.8715 94.8684 88.7358 95.1727L83.5902 96.5514C82.4545 96.8557 81.2871 96.1817 80.9827 95.046L76.2465 77.3699L58.5702 72.6336C57.4344 72.3292 56.7605 71.1619 57.0648 70.0261L58.4435 64.8805C58.7478 63.7448 59.9152 63.0708 61.051 63.3751L73.3819 66.6792L70.0778 54.3483C69.7735 53.2126 70.4475 52.0452 71.5833 51.7409L76.7288 50.3621Z" fill="#D1F6EC"/>
<path d="M58.4718 64.8772C58.7761 63.7415 59.9444 63.0671 61.0802 63.3714L82.879 69.2132C83.3254 69.3328 83.703 69.587 83.9757 69.9202C84.2017 70.1659 84.3733 70.4689 84.4649 70.8108L90.2989 92.5833C90.6032 93.719 89.9288 94.8864 88.7931 95.1907L83.6475 96.5696C82.5119 96.8739 81.3445 96.2003 81.0401 95.0647L76.2999 77.3733L58.5987 72.6302C57.4631 72.3258 56.7896 71.1584 57.0938 70.0227L58.4718 64.8772Z" fill="#00FCB4"/>
<path d="M65.6067 81.2215C66.4382 80.3905 67.7862 80.3902 68.6175 81.2215L72.3841 84.9881C73.2155 85.8195 73.2155 87.1684 72.3841 87.9998L68.6175 91.7664C67.7862 92.5978 66.4382 92.5975 65.6067 91.7664L61.8391 87.9998C61.0077 87.1684 61.0077 85.8195 61.8391 84.9881L65.6067 81.2215Z" fill="#00FCB4"/>
<line x1="288.411" y1="119.405" x2="34.2342" y2="119.405" stroke="#E1E2E4" stroke-width="1.98047" stroke-dasharray="3.96 3.96"/>
<path d="M116.932 172.788V251.202H100.577V188.276H100.144L82.1651 199.54V185.135L101.552 172.788H116.932ZM136.896 252.177C131.806 252.177 127.69 248.061 127.798 243.079C127.69 238.097 131.806 234.09 136.896 234.09C141.662 234.09 145.886 238.097 145.886 243.079C145.886 248.061 141.662 252.177 136.896 252.177ZM183.288 252.285C166.934 252.285 155.02 242.646 154.695 229.108H170.508C170.833 235.281 176.465 239.397 183.288 239.397C191.411 239.397 197.151 233.656 197.151 225.533C197.151 217.194 191.303 211.454 183.071 211.345C177.223 211.345 173.107 213.511 170.724 217.952H155.995L160.218 172.788H208.523V186.11H173.649L171.482 205.93H172.132C175.057 202.031 180.905 199.323 187.837 199.323C202.242 199.323 212.964 210.046 212.964 225.1C212.964 240.913 200.942 252.285 183.288 252.285Z" fill="#008660"/>
<path d="M227.49 236.286C224.148 236.286 222.322 233.842 222.322 230.314C222.322 226.755 224.21 224.311 227.49 224.311C230.863 224.311 232.627 226.755 232.658 230.314C232.627 233.873 230.801 236.286 227.49 236.286ZM227.49 233.532C228.821 233.532 229.471 232.232 229.502 230.314C229.471 228.395 228.883 227.065 227.49 227.065C226.16 227.065 225.479 228.426 225.479 230.314C225.479 232.232 226.191 233.532 227.49 233.532ZM242.591 248.231C239.28 248.231 237.454 245.786 237.454 242.259C237.454 238.7 239.342 236.255 242.591 236.255C245.964 236.255 247.759 238.7 247.79 242.259C247.759 245.817 245.933 248.231 242.591 248.231ZM242.591 245.477C243.953 245.477 244.603 244.208 244.634 242.259C244.603 240.34 244.015 239.009 242.591 239.04C241.292 239.04 240.611 240.371 240.611 242.259C240.611 244.208 241.323 245.477 242.591 245.477ZM225.541 247.488L240.951 225.084H244.417L229.006 247.488H225.541Z" fill="#008660"/>
</g>
<defs>
<filter id="filter0_d_3245_45446" x="0.176757" y="0.0908196" width="321.826" height="308.623" filterUnits="userSpaceOnUse" color-interpolation-filters="sRGB">
<feFlood flood-opacity="0" result="BackgroundImageFix"/>
<feColorMatrix in="SourceAlpha" type="matrix" values="0 0 0 0 0 0 0 0 0 0 0 0 0 0 0 0 0 0 127 0" result="hardAlpha"/>
<feOffset dy="3.30078"/>
<feGaussianBlur stdDeviation="6.60156"/>
<feComposite in2="hardAlpha" operator="out"/>
<feColorMatrix type="matrix" values="0 0 0 0 0 0 0 0 0 0 0 0 0 0 0 0 0 0 0.05 0"/>
<feBlend mode="normal" in2="BackgroundImageFix" result="effect1_dropShadow_3245_45446"/>
<feBlend mode="normal" in="SourceGraphic" in2="effect1_dropShadow_3245_45446" result="shape"/>
</filter>
</defs>
</svg>
