<svg width="359" height="609" viewBox="0 0 359 609" fill="none" xmlns="http://www.w3.org/2000/svg">
<g filter="url(#filter0_ddd_5067_28927)">
<g clip-path="url(#clip0_5067_28927)">
<rect x="12" y="7.56055" width="335" height="584.24" rx="21.44" fill="white"/>
<path d="M29.8667 39.721C29.8667 33.8005 34.6662 29.001 40.5867 29.001H163.42C169.341 29.001 174.14 33.8005 174.14 39.721V188.174C174.14 194.095 169.341 198.894 163.42 198.894H40.5867C34.6662 198.894 29.8667 194.095 29.8667 188.174V39.721Z" fill="#F7F7F8"/>
<path d="M55.6808 57.1965V58.3742H44.898V57.1965H49.5566V55.9402H50.9961V57.1965H55.6808ZM50.9961 51.2293V52.3023H54.6209V53.4539H51.1138C51.2905 54.4223 52.6841 55.2336 55.1443 55.4037L54.6994 56.516C52.5795 56.3524 51.0157 55.6916 50.2763 54.6709C49.537 55.6916 47.9601 56.3524 45.8533 56.516L45.4084 55.4037C47.8554 55.2336 49.2491 54.4223 49.4388 53.4539H45.958V52.3023H49.5566V51.2293H50.9961ZM50.2763 59.0285C52.8543 59.0285 54.3591 59.7352 54.3722 61.0307C54.3591 62.3131 52.8543 63.0197 50.2763 63.0197C47.6853 63.0197 46.1543 62.3131 46.1543 61.0307C46.1543 59.7352 47.6853 59.0285 50.2763 59.0285ZM50.2763 60.1146C48.5359 60.1146 47.6199 60.4156 47.633 61.0307C47.6199 61.6326 48.5359 61.9336 50.2763 61.9336C51.9775 61.9336 52.9066 61.6326 52.9197 61.0307C52.9066 60.4156 51.9775 60.1146 50.2763 60.1146ZM66.0797 52.1846C66.0797 53.6764 67.7416 55.1813 70.2672 55.5084L69.6914 56.6861C67.6827 56.3852 66.0862 55.3972 65.3207 54.0559C64.5421 55.3972 62.9522 56.3852 60.9631 56.6861L60.3873 55.5084C62.8867 55.1813 64.5486 53.6764 64.5486 52.1846V51.5826H66.0797V52.1846ZM70.699 57.7068V58.9107H66.0012V63.0328H64.5617V58.9107H59.9162V57.7068H70.699ZM81.4796 58.7537V63.0328H80.014V59.9314H73.4056V58.7537H81.4796ZM81.4796 51.2031V58.1779H80.014V51.2031H81.4796ZM75.0283 51.8836C76.8472 51.8705 78.2081 53.0613 78.2081 54.7232C78.2081 56.4113 76.8472 57.5891 75.0283 57.5891C73.1962 57.5891 71.8353 56.4113 71.8353 54.7232C71.8353 53.0613 73.1962 51.8705 75.0283 51.8836ZM75.0283 53.1137C73.9945 53.1268 73.2486 53.7418 73.2617 54.7232C73.2486 55.7309 73.9945 56.359 75.0283 56.3459C76.049 56.359 76.7818 55.7309 76.7818 54.7232C76.7818 53.7418 76.049 53.1268 75.0283 53.1137Z" fill="#171717"/>
<line x1="44.1599" y1="77.1412" x2="159.847" y2="77.1412" stroke="#E1E2E4" stroke-width="0.893333"/>
<path d="M50.2693 92.3673C50.2571 93.8207 52.0403 95.1886 54.1899 95.4695L53.738 96.4222C51.9487 96.1352 50.3731 95.207 49.6709 93.9184C48.9503 95.2131 47.3808 96.1352 45.6037 96.4222L45.1396 95.4695C47.2892 95.1886 49.048 93.8329 49.0602 92.3673V91.7688H50.2693V92.3673ZM54.6418 97.497V98.4496H50.196V102.346H49.0602V98.4496H44.6633V97.497H54.6418ZM64.7283 98.4496V102.346H63.568V99.3901H57.3147V98.4496H64.7283ZM64.7283 91.4024V97.8878H63.568V91.4024H64.7283ZM58.7925 92.0375C60.4658 92.0375 61.6993 93.1123 61.6993 94.6512C61.6993 96.1901 60.4658 97.2649 58.7925 97.2649C57.1193 97.2649 55.8735 96.1901 55.8735 94.6512C55.8735 93.1123 57.1193 92.0375 58.7925 92.0375ZM58.7925 93.0268C57.7544 93.0268 57.0093 93.6742 57.0093 94.6512C57.0093 95.6405 57.7544 96.2879 58.7925 96.2756C59.8184 96.2879 60.5635 95.6405 60.5635 94.6512C60.5635 93.6742 59.8184 93.0268 58.7925 93.0268Z" fill="#878A93"/>
<path d="M49.3409 123.465C46.9697 123.465 45.2424 122.067 45.1953 120.104H47.4879C47.535 120.999 48.3516 121.596 49.3409 121.596C50.5186 121.596 51.3509 120.764 51.3509 119.586C51.3509 118.377 50.5029 117.545 49.3095 117.529C48.4615 117.529 47.8648 117.843 47.5193 118.487H45.3837L45.9961 111.939H52.9997V113.87H47.9433L47.6293 116.744H47.7235C48.1475 116.178 48.9954 115.786 50.0004 115.786C52.089 115.786 53.6436 117.34 53.6436 119.523C53.6436 121.816 51.9005 123.465 49.3409 123.465ZM59.4191 123.465C57.0479 123.465 55.3206 122.067 55.2735 120.104H57.5661C57.6132 120.999 58.4298 121.596 59.4191 121.596C60.5968 121.596 61.4291 120.764 61.4291 119.586C61.4291 118.377 60.5811 117.545 59.3877 117.529C58.5397 117.529 57.943 117.843 57.5975 118.487H55.4619L56.0743 111.939H63.0779V113.87H58.0215L57.7075 116.744H57.8017C58.2257 116.178 59.0736 115.786 60.0786 115.786C62.1671 115.786 63.7218 117.34 63.7218 119.523C63.7218 121.816 61.9787 123.465 59.4191 123.465ZM67.503 122.146L66.1525 126.621H64.488L65.2731 122.146H67.503ZM73.6554 123.465C71.2842 123.465 69.5569 122.067 69.5098 120.104H71.8024C71.8495 120.999 72.6661 121.596 73.6554 121.596C74.8331 121.596 75.6654 120.764 75.6654 119.586C75.6654 118.377 74.8174 117.545 73.624 117.529C72.776 117.529 72.1793 117.843 71.8338 118.487H69.6982L70.3106 111.939H77.3142V113.87H72.2578L71.9438 116.744H72.038C72.462 116.178 73.3099 115.786 74.3149 115.786C76.4034 115.786 77.9581 117.34 77.9581 119.523C77.9581 121.816 76.215 123.465 73.6554 123.465ZM83.765 123.465C81.2682 123.465 79.478 122.083 79.4309 120.104H81.8178C81.8649 120.952 82.6815 121.517 83.7807 121.517C84.9113 121.517 85.7279 120.874 85.7122 119.963C85.7279 119.036 84.8956 118.377 83.5609 118.377H82.5087V116.634H83.5609C84.6758 116.634 85.4609 116.021 85.4609 115.126C85.4609 114.263 84.8014 113.666 83.7964 113.666C82.7914 113.666 81.9591 114.231 81.9277 115.095H79.6665C79.6979 113.132 81.4723 111.782 83.7964 111.782C86.1676 111.782 87.7536 113.179 87.7379 114.985C87.7536 116.257 86.8585 117.168 85.5866 117.388V117.482C87.2511 117.686 88.1776 118.707 88.1619 120.12C88.1776 122.067 86.3246 123.465 83.765 123.465ZM94.2358 123.465C91.3935 123.465 89.6662 121.345 89.6662 117.623C89.6662 113.901 91.3935 111.782 94.2358 111.782C97.078 111.782 98.8054 113.917 98.8054 117.623C98.8054 121.36 97.078 123.465 94.2358 123.465ZM94.2358 121.517C95.5548 121.517 96.4028 120.246 96.3871 117.623C96.3871 115.032 95.5548 113.713 94.2358 113.713C92.9167 113.713 92.0844 115.032 92.0844 117.623C92.0687 120.246 92.9167 121.517 94.2358 121.517ZM102.508 122.146L101.158 126.621H99.4931L100.278 122.146H102.508ZM108.519 123.465C105.677 123.465 103.95 121.345 103.95 117.623C103.95 113.901 105.677 111.782 108.519 111.782C111.361 111.782 113.089 113.917 113.089 117.623C113.089 121.36 111.361 123.465 108.519 123.465ZM108.519 121.517C109.838 121.517 110.686 120.246 110.671 117.623C110.671 115.032 109.838 113.713 108.519 113.713C107.2 113.713 106.368 115.032 106.368 117.623C106.352 120.246 107.2 121.517 108.519 121.517ZM119.131 123.465C116.289 123.465 114.562 121.345 114.562 117.623C114.562 113.901 116.289 111.782 119.131 111.782C121.974 111.782 123.701 113.917 123.701 117.623C123.701 121.36 121.974 123.465 119.131 123.465ZM119.131 121.517C120.45 121.517 121.298 120.246 121.283 117.623C121.283 115.032 120.45 113.713 119.131 113.713C117.812 113.713 116.98 115.032 116.98 117.623C116.964 120.246 117.812 121.517 119.131 121.517ZM129.743 123.465C126.901 123.465 125.174 121.345 125.174 117.623C125.174 113.901 126.901 111.782 129.743 111.782C132.586 111.782 134.313 113.917 134.313 117.623C134.313 121.36 132.586 123.465 129.743 123.465ZM129.743 121.517C131.062 121.517 131.91 120.246 131.895 117.623C131.895 115.032 131.062 113.713 129.743 113.713C128.424 113.713 127.592 115.032 127.592 117.623C127.576 120.246 128.424 121.517 129.743 121.517Z" fill="#008660"/>
<path d="M147.337 112.208V121.093H146.094V119.968H143.738V119.091H146.094V112.208H147.337ZM147.625 122.664V123.671H139.158V120.23H140.388V122.664H147.625ZM137.535 117.56C139.708 117.547 142.626 117.521 145.125 117.207L145.204 118.097C144.203 118.26 143.149 118.371 142.116 118.437V120.727H140.872V118.502C139.734 118.555 138.641 118.561 137.693 118.555L137.535 117.56ZM141.37 112.653C143.084 112.653 144.275 113.477 144.275 114.721C144.275 115.964 143.084 116.762 141.37 116.762C139.629 116.762 138.452 115.964 138.452 114.721C138.452 113.477 139.629 112.653 141.37 112.653ZM141.37 113.582C140.323 113.569 139.616 114.014 139.629 114.721C139.616 115.414 140.323 115.846 141.37 115.846C142.377 115.846 143.084 115.414 143.097 114.721C143.084 114.014 142.377 113.569 141.37 113.582Z" fill="#008660"/>
<path d="M53.7868 143.134V151.195H52.6265V147.397H50.3548V146.432H52.6265V143.134H53.7868ZM50.4281 143.953C50.4159 146.811 48.4495 148.96 45.3106 149.974L44.8221 149.046C47.2587 148.258 48.9136 146.768 49.1579 144.918H45.3839V143.953H50.4281ZM54.0677 152.893V153.833H46.7396V150.365H47.9121V152.893H54.0677ZM61.2596 144.087C61.2474 145.54 63.0306 146.908 65.1802 147.189L64.7283 148.142C62.939 147.855 61.3635 146.927 60.6612 145.638C59.9406 146.933 58.3711 147.855 56.5941 148.142L56.13 147.189C58.2795 146.908 60.0383 145.553 60.0505 144.087V143.489H61.2596V144.087ZM65.6321 149.217V150.169H61.1864V154.065H60.0505V150.169H55.6536V149.217H65.6321Z" fill="#878A93"/>
<path d="M49.6838 175.184C47.187 175.184 45.3968 173.803 45.3497 171.824H47.7366C47.7837 172.672 48.6003 173.237 49.6995 173.237C50.8301 173.237 51.6467 172.593 51.631 171.683C51.6467 170.756 50.8144 170.097 49.4797 170.097H48.4275V168.354H49.4797C50.5946 168.354 51.3797 167.741 51.3797 166.846C51.3797 165.982 50.7202 165.386 49.7152 165.386C48.7102 165.386 47.8779 165.951 47.8465 166.815H45.5853C45.6167 164.852 47.3911 163.501 49.7152 163.501C52.0864 163.501 53.6724 164.899 53.6567 166.705C53.6724 167.977 52.7773 168.887 51.5054 169.107V169.201C53.1699 169.406 54.0964 170.426 54.0807 171.84C54.0964 173.787 52.2434 175.184 49.6838 175.184ZM59.919 175.184C57.5478 175.184 55.8205 173.787 55.7734 171.824H58.066C58.1132 172.719 58.9297 173.316 59.919 173.316C61.0967 173.316 61.929 172.483 61.929 171.306C61.929 170.097 61.081 169.264 59.8876 169.249C59.0396 169.249 58.4429 169.563 58.0975 170.206H55.9618L56.5742 163.658H63.5778V165.59H58.5214L58.2074 168.463H58.3016C58.7256 167.898 59.5735 167.506 60.5785 167.506C62.6671 167.506 64.2217 169.06 64.2217 171.243C64.2217 173.536 62.4786 175.184 59.919 175.184ZM65.8202 175.027L65.8045 173.316L69.8873 169.563C70.9551 168.542 71.5204 167.914 71.5204 167.019C71.5204 166.014 70.751 165.386 69.7145 165.386C68.6467 165.386 67.9558 166.061 67.9558 167.144H65.7103C65.6945 164.915 67.3434 163.501 69.746 163.501C72.1799 163.501 73.7974 164.883 73.7974 166.862C73.7974 168.149 73.1692 169.217 70.8295 171.337L69.1021 173.017V173.08H73.9544V175.027H65.8202Z" fill="#008660"/>
<path d="M87.363 163.928V172.564H86.1199V168.495H83.6859V167.461H86.1199V163.928H87.363ZM83.7644 164.804C83.7513 167.867 81.6445 170.17 78.2814 171.256L77.758 170.261C80.3686 169.417 82.1417 167.821 82.4035 165.838H78.3599V164.804H83.7644ZM87.664 174.383V175.391H79.8125V171.675H81.0687V174.383H87.664Z" fill="#008660"/>
<path d="M184.86 39.721C184.86 33.8005 189.66 29.001 195.58 29.001H318.413C324.334 29.001 329.133 33.8005 329.133 39.721V188.174C329.133 194.095 324.334 198.894 318.413 198.894H195.58C189.66 198.894 184.86 194.095 184.86 188.174V39.721Z" fill="#F7F7F8"/>
<path d="M203.435 61.998C201.328 61.998 199.836 60.8727 199.836 59.3285C199.836 58.1246 200.726 57.1432 201.864 56.96V56.9076C200.87 56.6982 200.189 55.8346 200.189 54.8008C200.189 53.3352 201.563 52.2621 203.435 52.2621C205.293 52.2621 206.667 53.3352 206.667 54.8008C206.667 55.8346 205.973 56.6982 204.992 56.9076V56.96C206.13 57.1432 207.033 58.1246 207.033 59.3285C207.033 60.8727 205.528 61.998 203.435 61.998ZM203.435 60.6502C204.547 60.6502 205.28 60.0482 205.28 59.1715C205.28 58.2816 204.494 57.6273 203.435 57.6273C202.361 57.6273 201.576 58.2816 201.589 59.1715C201.576 60.0482 202.309 60.6502 203.435 60.6502ZM203.435 56.358C204.351 56.358 205.005 55.7822 205.005 54.9578C205.005 54.1596 204.364 53.5969 203.435 53.5969C202.492 53.5969 201.851 54.1465 201.851 54.9578C201.851 55.7822 202.505 56.358 203.435 56.358ZM218.102 51.2152V58.1115H216.636V57.6273H214.424V56.7375H216.636V51.2152H218.102ZM208.169 55.4813C210.459 55.4813 213.312 55.4551 215.851 55.2064L215.929 56.1225C214.85 56.2729 213.737 56.3646 212.645 56.4104V58.1246H211.205V56.4758C210.191 56.502 209.216 56.5085 208.326 56.502L208.169 55.4813ZM218.102 58.4779V61.1344H211.375V61.8934H218.416V62.9271H209.949V60.1791H216.662V59.4725H209.897V58.4779H218.102ZM211.991 51.3984C213.744 51.3984 214.948 52.1051 214.948 53.1781C214.948 54.2773 213.744 54.9447 211.991 54.9447C210.198 54.9447 209.007 54.2773 209.007 53.1781C209.007 52.1051 210.198 51.3984 211.991 51.3984ZM211.991 52.3668C210.996 52.3668 210.381 52.6809 210.394 53.1781C210.381 53.6754 210.996 53.9764 211.991 53.9764C212.959 53.9764 213.587 53.6754 213.587 53.1781C213.587 52.6809 212.959 52.3668 211.991 52.3668ZM229.364 52.1836C229.364 53.6754 231.026 55.1803 233.552 55.5074L232.976 56.6852C230.967 56.3842 229.371 55.3962 228.605 54.0549C227.827 55.3962 226.237 56.3842 224.248 56.6852L223.672 55.5074C226.171 55.1803 227.833 53.6754 227.833 52.1836V51.5816H229.364V52.1836ZM233.984 57.7059V58.9098H229.286V63.0318H227.846V58.9098H223.201V57.7059H233.984ZM244.764 58.7527V63.0318H243.298V59.9305H236.69V58.7527H244.764ZM244.764 51.2021V58.177H243.298V51.2021H244.764ZM238.313 51.8826C240.132 51.8695 241.493 53.0604 241.493 54.7223C241.493 56.4104 240.132 57.5881 238.313 57.5881C236.481 57.5881 235.12 56.4104 235.12 54.7223C235.12 53.0604 236.481 51.8695 238.313 51.8826ZM238.313 53.1127C237.279 53.1258 236.533 53.7408 236.546 54.7223C236.533 55.7299 237.279 56.358 238.313 56.3449C239.333 56.358 240.066 55.7299 240.066 54.7223C240.066 53.7408 239.333 53.1258 238.313 53.1127Z" fill="#171717"/>
<line x1="199.153" y1="77.1412" x2="314.84" y2="77.1412" stroke="#E1E2E4" stroke-width="0.893333"/>
<path d="M205.263 92.3673C205.251 93.8207 207.034 95.1886 209.183 95.4695L208.731 96.4222C206.942 96.1352 205.367 95.207 204.664 93.9184C203.944 95.2131 202.374 96.1352 200.597 96.4222L200.133 95.4695C202.283 95.1886 204.041 93.8329 204.054 92.3673V91.7688H205.263V92.3673ZM209.635 97.497V98.4496H205.189V102.346H204.054V98.4496H199.657V97.497H209.635ZM219.722 98.4496V102.346H218.561V99.3901H212.308V98.4496H219.722ZM219.722 91.4024V97.8878H218.561V91.4024H219.722ZM213.786 92.0375C215.459 92.0375 216.693 93.1123 216.693 94.6512C216.693 96.1901 215.459 97.2649 213.786 97.2649C212.113 97.2649 210.867 96.1901 210.867 94.6512C210.867 93.1123 212.113 92.0375 213.786 92.0375ZM213.786 93.0268C212.748 93.0268 212.003 93.6742 212.003 94.6512C212.003 95.6405 212.748 96.2879 213.786 96.2756C214.812 96.2879 215.557 95.6405 215.557 94.6512C215.557 93.6742 214.812 93.0268 213.786 93.0268Z" fill="#878A93"/>
<path d="M204.784 123.465C202.193 123.465 200.325 122.098 200.325 120.246C200.325 118.817 201.424 117.654 202.837 117.435V117.356C201.612 117.121 200.764 116.084 200.764 114.844C200.764 113.069 202.46 111.782 204.784 111.782C207.108 111.782 208.804 113.069 208.82 114.844C208.804 116.1 207.941 117.121 206.747 117.356V117.435C208.129 117.654 209.244 118.817 209.244 120.246C209.244 122.098 207.375 123.465 204.784 123.465ZM204.784 121.659C205.978 121.659 206.778 120.984 206.778 120.01C206.778 119.021 205.946 118.298 204.784 118.298C203.622 118.298 202.774 119.021 202.79 120.01C202.774 120.984 203.575 121.659 204.784 121.659ZM204.784 116.634C205.789 116.634 206.512 115.99 206.512 115.079C206.512 114.2 205.805 113.572 204.784 113.572C203.763 113.572 203.073 114.184 203.073 115.079C203.073 115.99 203.779 116.634 204.784 116.634ZM213.072 122.146L211.722 126.621H210.057L210.842 122.146H213.072ZM219.225 123.465C216.853 123.465 215.126 122.067 215.079 120.104H217.372C217.419 120.999 218.235 121.596 219.225 121.596C220.402 121.596 221.235 120.764 221.235 119.586C221.235 118.377 220.387 117.545 219.193 117.529C218.345 117.529 217.749 117.843 217.403 118.487H215.267L215.88 111.939H222.883V113.87H217.827L217.513 116.744H217.607C218.031 116.178 218.879 115.786 219.884 115.786C221.973 115.786 223.527 117.34 223.527 119.523C223.527 121.816 221.784 123.465 219.225 123.465ZM225.565 123.308L230.355 113.949V113.87H224.78V111.939H232.805V113.901L228.015 123.308H225.565ZM238.392 123.465C236.021 123.465 234.293 122.067 234.246 120.104H236.539C236.586 120.999 237.402 121.596 238.392 121.596C239.569 121.596 240.402 120.764 240.402 119.586C240.402 118.377 239.554 117.545 238.36 117.529C237.512 117.529 236.916 117.843 236.57 118.487H234.435L235.047 111.939H242.051V113.87H236.994L236.68 116.744H236.774C237.198 116.178 238.046 115.786 239.051 115.786C241.14 115.786 242.694 117.34 242.694 119.523C242.694 121.816 240.951 123.465 238.392 123.465ZM246.476 122.146L245.125 126.621H243.461L244.246 122.146H246.476ZM248.545 123.308L248.53 121.596L252.612 117.843C253.68 116.822 254.245 116.194 254.245 115.299C254.245 114.294 253.476 113.666 252.44 113.666C251.372 113.666 250.681 114.341 250.681 115.425H248.435C248.42 113.195 250.068 111.782 252.471 111.782C254.905 111.782 256.522 113.163 256.522 115.142C256.522 116.43 255.894 117.497 253.555 119.617L251.827 121.298V121.36H256.679V123.308H248.545ZM262.769 123.465C259.927 123.465 258.199 121.345 258.199 117.623C258.199 113.901 259.927 111.782 262.769 111.782C265.611 111.782 267.339 113.917 267.339 117.623C267.339 121.36 265.611 123.465 262.769 123.465ZM262.769 121.517C264.088 121.517 264.936 120.246 264.92 117.623C264.92 115.032 264.088 113.713 262.769 113.713C261.45 113.713 260.618 115.032 260.618 117.623C260.602 120.246 261.45 121.517 262.769 121.517ZM273.381 123.465C270.539 123.465 268.812 121.345 268.812 117.623C268.812 113.901 270.539 111.782 273.381 111.782C276.223 111.782 277.951 113.917 277.951 117.623C277.951 121.36 276.223 123.465 273.381 123.465ZM273.381 121.517C274.7 121.517 275.548 120.246 275.532 117.623C275.532 115.032 274.7 113.713 273.381 113.713C272.062 113.713 271.23 115.032 271.23 117.623C271.214 120.246 272.062 121.517 273.381 121.517Z" fill="#008660"/>
<path d="M291.33 112.208V121.093H290.087V119.968H287.732V119.091H290.087V112.208H291.33ZM291.618 122.664V123.671H283.152V120.23H284.382V122.664H291.618ZM281.529 117.56C283.701 117.547 286.619 117.521 289.119 117.207L289.197 118.097C288.196 118.26 287.143 118.371 286.109 118.437V120.727H284.866V118.502C283.727 118.555 282.635 118.561 281.686 118.555L281.529 117.56ZM285.363 112.653C287.077 112.653 288.268 113.477 288.268 114.721C288.268 115.964 287.077 116.762 285.363 116.762C283.623 116.762 282.445 115.964 282.445 114.721C282.445 113.477 283.623 112.653 285.363 112.653ZM285.363 113.582C284.316 113.569 283.61 114.014 283.623 114.721C283.61 115.414 284.316 115.846 285.363 115.846C286.371 115.846 287.077 115.414 287.09 114.721C287.077 114.014 286.371 113.569 285.363 113.582Z" fill="#008660"/>
<path d="M208.78 143.134V151.195H207.62V147.397H205.348V146.432H207.62V143.134H208.78ZM205.422 143.953C205.409 146.811 203.443 148.96 200.304 149.974L199.815 149.046C202.252 148.258 203.907 146.768 204.151 144.918H200.377V143.953H205.422ZM209.061 152.893V153.833H201.733V150.365H202.906V152.893H209.061ZM216.253 144.087C216.241 145.54 218.024 146.908 220.174 147.189L219.722 148.142C217.932 147.855 216.357 146.927 215.655 145.638C214.934 146.933 213.365 147.855 211.587 148.142L211.123 147.189C213.273 146.908 215.032 145.553 215.044 144.087V143.489H216.253V144.087ZM220.626 149.217V150.169H216.18V154.065H215.044V150.169H210.647V149.217H220.626Z" fill="#878A93"/>
<path d="M200.037 173.017V171.149L204.842 163.658H207.81V171.117H209.254V173.017H207.81V175.027H205.564V173.017H200.037ZM202.424 171.117H205.596V166.249H205.486L202.424 171.023V171.117ZM214.967 175.184C212.596 175.184 210.869 173.787 210.822 171.824H213.114C213.161 172.719 213.978 173.316 214.967 173.316C216.145 173.316 216.977 172.483 216.977 171.306C216.977 170.097 216.129 169.264 214.936 169.249C214.088 169.249 213.491 169.563 213.146 170.206H211.01L211.622 163.658H218.626V165.59H213.57L213.256 168.463H213.35C213.774 167.898 214.622 167.506 215.627 167.506C217.715 167.506 219.27 169.06 219.27 171.243C219.27 173.536 217.527 175.184 214.967 175.184Z" fill="#008660"/>
<path d="M232.356 163.928V172.564H231.113V168.495H228.679V167.461H231.113V163.928H232.356ZM228.758 164.804C228.745 167.867 226.638 170.17 223.275 171.256L222.751 170.261C225.362 169.417 227.135 167.821 227.397 165.838H223.353V164.804H228.758ZM232.657 174.383V175.391H224.806V171.675H226.062V174.383H232.657Z" fill="#008660"/>
<path d="M29.8667 220.334C29.8667 214.414 34.6662 209.614 40.5867 209.614H163.42C169.341 209.614 174.14 214.414 174.14 220.334V368.788C174.14 374.708 169.341 379.508 163.42 379.508H40.5867C34.6662 379.508 29.8667 374.708 29.8667 368.788V220.334Z" fill="#F7F7F8"/>
<path d="M55.8613 241.028V242.219H45.0523V241.028H49.7239V238.306H51.1765V241.028H55.8613ZM54.9322 232.771V233.962H51.2027C51.2485 235.663 53.002 237.226 55.4294 237.586L54.8536 238.738C52.8515 238.371 51.2157 237.318 50.4568 235.846C49.6912 237.338 48.0686 238.43 46.0991 238.803L45.5234 237.652C47.8854 237.253 49.6258 235.663 49.6716 233.962H45.9552V232.771H54.9322ZM66.6157 231.815V243.645H65.1631V231.815H66.6157ZM56.8143 240.361C57.7565 240.354 58.823 240.354 59.9418 240.321V239.235C58.6071 239.026 57.7434 238.208 57.7434 237.089C57.7434 235.754 58.9211 234.864 60.6485 234.864C62.3889 234.864 63.5928 235.754 63.5928 237.089C63.5928 238.201 62.7226 239.013 61.3944 239.222V240.269C62.4347 240.223 63.4816 240.138 64.4696 240.007L64.5743 241.093C61.9702 241.538 59.1567 241.564 57.0237 241.564L56.8143 240.361ZM64.2602 233.176V234.328H57.0629V233.176H59.9418V231.855H61.3944V233.176H64.2602ZM60.6485 235.977C59.7586 235.99 59.1174 236.396 59.1305 237.089C59.1174 237.77 59.7586 238.175 60.6485 238.162C61.5776 238.175 62.1926 237.77 62.1926 237.089C62.1926 236.396 61.5776 235.99 60.6485 235.977ZM74.6351 232.797C74.6351 234.289 76.297 235.794 78.8226 236.121L78.2469 237.298C76.2382 236.997 74.6417 236.009 73.8762 234.668C73.0975 236.009 71.5076 236.997 69.5185 237.298L68.9428 236.121C71.4422 235.794 73.1041 234.289 73.1041 232.797V232.195H74.6351V232.797ZM79.2545 238.319V239.523H74.5566V243.645H73.1172V239.523H68.4717V238.319H79.2545Z" fill="#171717"/>
<path fill-rule="evenodd" clip-rule="evenodd" d="M148.848 232.301C148.619 232.537 148.625 232.914 148.861 233.143L153.198 237.356L148.848 241.829C148.619 242.065 148.625 242.442 148.86 242.672C149.096 242.901 149.473 242.896 149.703 242.66L154.467 237.759C154.577 237.646 154.638 237.493 154.635 237.335C154.633 237.178 154.568 237.027 154.455 236.917L149.69 232.288C149.455 232.059 149.078 232.065 148.848 232.301Z" fill="#C2C4C8"/>
<line x1="44.1599" y1="257.755" x2="159.847" y2="257.755" stroke="#E1E2E4" stroke-width="0.893333"/>
<path d="M50.196 273.103V280.211H45.0786V273.103H50.196ZM46.2144 274.019V279.271H49.048V274.019H46.2144ZM53.1884 272.016V276.303H54.9471V277.28H53.1884V282.959H52.0281V272.016H53.1884ZM65.0214 272.028V279.417H63.9222V272.028H65.0214ZM62.823 272.211V278.44H61.7238V276.107H59.8062C59.1589 277.347 58.0231 278.367 56.2643 279.124L55.7025 278.281C57.217 277.646 58.194 276.822 58.7681 275.839L55.8979 276.144L55.7269 275.191L59.1467 274.996C59.2688 274.629 59.3482 274.245 59.391 273.848H56.2277V272.907H60.5146C60.5146 273.713 60.4169 274.471 60.1971 275.167H61.7238V272.211H62.823ZM61.8703 279.1C61.8703 280.48 63.5192 281.701 65.5832 282.006L65.1313 282.91C63.4398 282.629 61.9864 281.799 61.3085 280.626C60.6184 281.799 59.165 282.629 57.4735 282.91L57.0093 282.006C59.0734 281.701 60.7223 280.48 60.7223 279.1V278.782H61.8703V279.1Z" fill="#878A93"/>
<path d="M45.263 303.921L45.2473 302.209L49.3301 298.456C50.3979 297.436 50.9632 296.807 50.9632 295.912C50.9632 294.907 50.1938 294.279 49.1574 294.279C48.0895 294.279 47.3986 294.954 47.3986 296.038H45.1531C45.1374 293.808 46.7862 292.395 49.1888 292.395C51.6228 292.395 53.2402 293.777 53.2402 295.755C53.2402 297.043 52.612 298.111 50.2723 300.231L48.5449 301.911V301.974H53.3972V303.921H45.263ZM57.6181 302.759L56.2677 307.234H54.6031L55.3883 302.759H57.6181ZM59.6877 303.921L59.672 302.209L63.7548 298.456C64.8226 297.436 65.388 296.807 65.388 295.912C65.388 294.907 64.6185 294.279 63.5821 294.279C62.5143 294.279 61.8233 294.954 61.8233 296.038H59.5778C59.5621 293.808 61.2109 292.395 63.6135 292.395C66.0475 292.395 67.6649 293.777 67.6649 295.755C67.6649 297.043 67.0368 298.111 64.697 300.231L62.9697 301.911V301.974H67.8219V303.921H59.6877ZM73.676 304.078C71.3048 304.078 69.5775 302.68 69.5304 300.717H71.823C71.8701 301.613 72.6867 302.209 73.676 302.209C74.8537 302.209 75.686 301.377 75.686 300.199C75.686 298.99 74.838 298.158 73.6446 298.142C72.7966 298.142 72.1999 298.456 71.8544 299.1H69.7188L70.3312 292.552H77.3348V294.483H72.2784L71.9644 297.357H72.0586C72.4826 296.792 73.3305 296.399 74.3355 296.399C76.424 296.399 77.9786 297.954 77.9786 300.136C77.9786 302.429 76.2356 304.078 73.676 304.078ZM83.7856 304.078C81.2888 304.078 79.4986 302.696 79.4515 300.717H81.8384C81.8855 301.565 82.7021 302.131 83.8013 302.131C84.9319 302.131 85.7485 301.487 85.7328 300.576C85.7485 299.65 84.9162 298.99 83.5815 298.99H82.5293V297.247H83.5815C84.6964 297.247 85.4815 296.635 85.4815 295.74C85.4815 294.876 84.822 294.279 83.817 294.279C82.812 294.279 81.9797 294.844 81.9483 295.708H79.6871C79.7185 293.745 81.4929 292.395 83.817 292.395C86.1882 292.395 87.7742 293.792 87.7585 295.598C87.7742 296.87 86.8791 297.781 85.6072 298.001V298.095C87.2717 298.299 88.1982 299.32 88.1825 300.733C88.1982 302.68 86.3452 304.078 83.7856 304.078Z" fill="#008660"/>
<path d="M101.285 292.808V304.533H100.041V292.808H101.285ZM91.6533 301.34C92.6151 301.334 93.7208 301.327 94.8724 301.288V300.123C93.4984 299.947 92.6085 299.142 92.6216 297.99C92.6085 296.669 93.7601 295.792 95.4613 295.792C97.1755 295.792 98.3533 296.669 98.3533 297.99C98.3533 299.129 97.4634 299.927 96.1025 300.11V301.249C97.1886 301.203 98.2878 301.118 99.3216 300.987L99.4132 301.916C96.8091 302.348 93.9695 302.374 91.8234 302.374L91.6533 301.34ZM99.0599 294.208V295.203H91.9019V294.208H94.8724V292.834H96.1156V294.208H99.0599ZM95.4613 296.76C94.4798 296.76 93.7863 297.244 93.7994 297.99C93.7863 298.736 94.4798 299.194 95.4613 299.194C96.4689 299.194 97.1625 298.736 97.1625 297.99C97.1625 297.244 96.4689 296.76 95.4613 296.76Z" fill="#008660"/>
<path d="M53.4375 324.224V325.189C53.4375 326.227 53.4375 327.326 53.1321 328.816L51.984 328.719C52.1062 328.126 52.1856 327.601 52.2283 327.106L45.7185 327.412L45.5597 326.435L52.2772 326.251C52.2894 325.879 52.2894 325.531 52.2894 325.189V325.164H45.8406V324.224H53.4375ZM54.6344 329.488V330.416H44.6803V329.488H48.6253V327.949H49.7978V329.488H54.6344ZM53.6695 333.567V334.508H45.9139V331.259H47.0742V333.567H53.6695ZM64.9896 323.748V331.931H63.8904V323.748H64.9896ZM62.84 323.955V331.662H61.7408V327.741H60.3851V326.801H61.7408V323.955H62.84ZM65.3072 333.506V334.447H57.7836V331.027H58.9561V333.506H65.3072ZM60.3118 324.615V325.555H57.2584V326.923H59.8844V327.827H57.2584V329.256C58.6996 329.25 59.6584 329.213 60.7759 328.987L60.8859 329.915C59.6279 330.16 58.5897 330.209 56.8554 330.209H56.147V324.615H60.3118ZM76.6639 332.358V333.311H66.6488V332.358H76.6639ZM75.7357 325.421V326.361H72.2304C72.2792 328.004 73.8853 329.36 76.1265 329.72L75.6624 330.648C73.8487 330.325 72.3464 329.396 71.6441 328.059C70.9296 329.396 69.4274 330.325 67.6259 330.648L67.174 329.72C69.3907 329.36 70.9968 328.004 71.0579 326.361H67.5526V325.421H71.0701V323.968H72.2182V325.421H75.7357Z" fill="#878A93"/>
<path d="M45.5506 355.641L50.3401 346.282V346.203H44.7655V344.272H52.7898V346.234L48.0003 355.641H45.5506ZM54.9379 354.479L53.5874 358.954H51.9229L52.7081 354.479H54.9379ZM56.8191 353.631V351.762L61.6242 344.272H64.5921V351.731H66.0368V353.631H64.5921V355.641H62.3466V353.631H56.8191ZM59.2059 351.731H62.378V346.863H62.268L59.2059 351.636V351.731ZM67.5725 355.641L67.5568 353.929L71.6396 350.176C72.7074 349.155 73.2727 348.527 73.2727 347.632C73.2727 346.627 72.5033 345.999 71.4669 345.999C70.399 345.999 69.7081 346.674 69.7081 347.758H67.4626C67.4469 345.528 69.0957 344.115 71.4983 344.115C73.9322 344.115 75.5497 345.496 75.5497 347.475C75.5497 348.763 74.9215 349.83 72.5818 351.95L70.8544 353.631V353.693H75.7067V355.641H67.5725ZM81.7963 355.798C78.954 355.798 77.2267 353.678 77.2267 349.956C77.2267 346.234 78.954 344.115 81.7963 344.115C84.6386 344.115 86.3659 346.25 86.3659 349.956C86.3659 353.693 84.6386 355.798 81.7963 355.798ZM81.7963 353.85C83.1154 353.85 83.9633 352.579 83.9476 349.956C83.9476 347.365 83.1154 346.046 81.7963 346.046C80.4772 346.046 79.645 347.365 79.645 349.956C79.6293 352.579 80.4772 353.85 81.7963 353.85Z" fill="#008660"/>
<path d="M99.2845 344.528V356.253H98.0414V344.528H99.2845ZM89.6533 353.06C90.6151 353.053 91.7208 353.047 92.8724 353.008V351.843C91.4984 351.666 90.6085 350.862 90.6216 349.71C90.6085 348.388 91.7601 347.512 93.4613 347.512C95.1755 347.512 96.3533 348.388 96.3533 349.71C96.3533 350.848 95.4634 351.647 94.1025 351.83V352.968C95.1886 352.923 96.2878 352.838 97.3216 352.707L97.4132 353.636C94.8091 354.068 91.9695 354.094 89.8234 354.094L89.6533 353.06ZM97.0599 345.928V346.923H89.9019V345.928H92.8724V344.554H94.1156V345.928H97.0599ZM93.4613 348.48C92.4798 348.48 91.7863 348.964 91.7994 349.71C91.7863 350.456 92.4798 350.914 93.4613 350.914C94.4689 350.914 95.1625 350.456 95.1625 349.71C95.1625 348.964 94.4689 348.48 93.4613 348.48Z" fill="#008660"/>
<path d="M184.86 220.334C184.86 214.414 189.66 209.614 195.58 209.614H318.413C324.334 209.614 329.133 214.414 329.133 220.334V368.788C329.133 374.708 324.334 379.508 318.413 379.508H195.58C189.66 379.508 184.86 374.708 184.86 368.788V220.334Z" fill="#F7F7F8"/>
<path d="M209.703 232.902V234.04C209.69 235.506 209.69 237.154 209.232 239.628L207.766 239.471C208.224 237.168 208.224 235.486 208.237 234.066H201.171V232.902H209.703ZM210.828 240.923V242.114H200.046V240.923H204.024V236.814H205.463V240.923H210.828ZM221.871 231.829V238.764H220.484V235.82H219.241V238.712H217.867V232.051H219.241V234.629H220.484V231.829H221.871ZM221.871 239.248V243.645H220.418V240.426H213.718V239.248H221.871ZM216.911 232.653C216.924 235.584 215.433 237.626 212.383 238.869L211.69 237.783C213.993 236.906 215.197 235.565 215.433 233.831H212.226V232.653H216.911ZM229.629 232.797C229.629 234.289 231.29 235.794 233.816 236.121L233.24 237.298C231.232 236.997 229.635 236.009 228.87 234.668C228.091 236.009 226.501 236.997 224.512 237.298L223.936 236.121C226.436 235.794 228.097 234.289 228.097 232.797V232.195H229.629V232.797ZM234.248 238.319V239.523H229.55V243.645H228.111V239.523H223.465V238.319H234.248Z" fill="#171717"/>
<path fill-rule="evenodd" clip-rule="evenodd" d="M303.842 232.301C303.613 232.537 303.618 232.914 303.854 233.143L308.191 237.356L303.842 241.829C303.613 242.065 303.618 242.442 303.854 242.672C304.09 242.901 304.467 242.896 304.696 242.66L309.46 237.759C309.57 237.646 309.631 237.493 309.629 237.335C309.627 237.178 309.562 237.027 309.448 236.917L304.684 232.288C304.448 232.059 304.071 232.065 303.842 232.301Z" fill="#C2C4C8"/>
<line x1="199.153" y1="257.755" x2="314.84" y2="257.755" stroke="#E1E2E4" stroke-width="0.893333"/>
<path d="M208.78 272.028V280.04H207.62V275.924H205.531V274.984H207.62V272.028H208.78ZM209.073 281.787V282.727H201.672V279.319H202.832V281.787H209.073ZM203.577 274.239C203.577 275.606 204.567 276.974 206.215 277.524L205.617 278.452C204.389 278.019 203.48 277.139 203.003 276.058C202.527 277.261 201.568 278.232 200.267 278.697L199.669 277.756C201.354 277.182 202.393 275.741 202.393 274.239V273.811H200.023V272.858H205.922V273.811H203.577V274.239ZM213.92 275.374C213.92 277.097 214.714 278.855 216.229 279.661L215.581 280.516C214.525 279.955 213.786 278.904 213.395 277.658C212.998 278.996 212.265 280.144 211.209 280.773L210.525 279.893C212.039 279.014 212.821 277.145 212.833 275.374V274.935H210.855V273.982H212.833V272.407H213.92V273.982H215.862V274.935H213.92V275.374ZM220.039 272.016V282.959H218.928V272.016H220.039ZM217.816 272.248V282.409H216.717V277.243H215.142V276.278H216.717V272.248H217.816Z" fill="#878A93"/>
<path d="M200.468 303.921L200.453 302.209L204.536 298.456C205.603 297.436 206.169 296.807 206.169 295.912C206.169 294.907 205.399 294.279 204.363 294.279C203.295 294.279 202.604 294.954 202.604 296.038H200.358C200.343 293.808 201.992 292.395 204.394 292.395C206.828 292.395 208.446 293.777 208.446 295.755C208.446 297.043 207.817 298.111 205.478 300.231L203.75 301.911V301.974H208.603V303.921H200.468ZM215.179 292.552V303.921H212.808V294.797H212.745L210.138 296.431V294.342L212.949 292.552H215.179ZM217.814 303.921L217.798 302.209L221.881 298.456C222.949 297.436 223.514 296.807 223.514 295.912C223.514 294.907 222.745 294.279 221.708 294.279C220.64 294.279 219.95 294.954 219.95 296.038H217.704C217.688 293.808 219.337 292.395 221.74 292.395C224.174 292.395 225.791 293.777 225.791 295.755C225.791 297.043 225.163 298.111 222.823 300.231L221.096 301.911V301.974H225.948V303.921H217.814Z" fill="#008660"/>
<path d="M239.356 292.808V299.731H238.113V297.99H235.562V298.946H230.118V293.685H235.562V294.653H238.113V292.808H239.356ZM231.348 294.679V297.951H234.345V294.679H231.348ZM235.431 300.058C237.891 300.058 239.396 300.869 239.396 302.296C239.396 303.709 237.891 304.52 235.431 304.507C232.971 304.52 231.453 303.709 231.466 302.296C231.453 300.869 232.971 300.058 235.431 300.058ZM235.431 301.013C233.716 301.026 232.696 301.471 232.696 302.296C232.696 303.081 233.716 303.552 235.431 303.552C237.145 303.552 238.166 303.081 238.166 302.296C238.166 301.471 237.145 301.026 235.431 301.013ZM235.562 296.983H238.113V295.648H235.562V296.983Z" fill="#008660"/>
<path d="M208.731 323.748V331.76H207.571V323.748H208.731ZM209.061 333.506V334.447H201.574V331.003H202.747V333.506H209.061ZM203.638 325.433C203.626 327.033 204.652 328.499 206.338 329.085L205.739 330.013C204.475 329.543 203.541 328.615 203.052 327.424C202.57 328.694 201.623 329.714 200.341 330.209L199.718 329.293C201.44 328.658 202.454 327.082 202.454 325.433V324.346H203.638V325.433ZM219.27 324.407V325.201C219.27 326.172 219.27 327.412 218.977 329.158H220.626V330.111H218.073V334.667H216.925V330.111H214.299V334.667H213.139V330.111H210.647V329.158H217.804C218.128 327.509 218.146 326.294 218.146 325.36H211.893V324.407H219.27Z" fill="#878A93"/>
<path d="M204.339 355.798C201.843 355.798 200.052 354.416 200.005 352.437H202.392C202.439 353.285 203.256 353.85 204.355 353.85C205.486 353.85 206.302 353.207 206.287 352.296C206.302 351.369 205.47 350.71 204.135 350.71H203.083V348.967H204.135C205.25 348.967 206.035 348.354 206.035 347.459C206.035 346.596 205.376 345.999 204.371 345.999C203.366 345.999 202.534 346.564 202.502 347.428H200.241C200.272 345.465 202.047 344.115 204.371 344.115C206.742 344.115 208.328 345.512 208.312 347.318C208.328 348.59 207.433 349.501 206.161 349.721V349.815C207.826 350.019 208.752 351.04 208.736 352.453C208.752 354.4 206.899 355.798 204.339 355.798ZM210.209 353.631V351.762L215.014 344.272H217.982V351.731H219.427V353.631H217.982V355.641H215.737V353.631H210.209ZM212.596 351.731H215.768V346.863H215.658L212.596 351.636V351.731Z" fill="#008660"/>
<path d="M232.356 344.528V351.45H231.113V349.71H228.562V350.665H223.118V345.405H228.562V346.373H231.113V344.528H232.356ZM224.348 346.399V349.671H227.345V346.399H224.348ZM228.431 351.778C230.891 351.778 232.396 352.589 232.396 354.015C232.396 355.429 230.891 356.24 228.431 356.227C225.971 356.24 224.453 355.429 224.466 354.015C224.453 352.589 225.971 351.778 228.431 351.778ZM228.431 352.733C226.716 352.746 225.696 353.191 225.696 354.015C225.696 354.8 226.716 355.271 228.431 355.271C230.145 355.271 231.166 354.8 231.166 354.015C231.166 353.191 230.145 352.746 228.431 352.733ZM228.562 348.702H231.113V347.368H228.562V348.702Z" fill="#008660"/>
<g clip-path="url(#clip1_5067_28927)">
<path d="M41.657 441.399V442.837H38.9351V447.038H37.1205V442.837H34.5242V447.038H32.6957V442.837H30.0297V441.399H41.657ZM35.8084 434.755C38.5303 434.755 40.4426 435.885 40.4426 437.63C40.4426 439.347 38.5303 440.422 35.8084 440.422C33.0865 440.422 31.1882 439.347 31.2022 437.63C31.1882 435.885 33.0865 434.755 35.8084 434.755ZM35.8084 436.178C34.1055 436.178 33.0167 436.695 33.0307 437.63C33.0167 438.523 34.1055 439.026 35.8084 439.026C37.5253 439.026 38.6001 438.523 38.6001 437.63C38.6001 436.695 37.5253 436.178 35.8084 436.178ZM53.1145 434.336V441.162H51.3278V434.336H53.1145ZM46.3726 441.72V442.906H51.3418V441.72H53.1145V446.898H44.6138V441.72H46.3726ZM46.3726 445.461H51.3418V444.288H46.3726V445.461ZM46.1493 434.866C48.1313 434.852 49.6249 436.095 49.6249 437.881C49.6249 439.612 48.1313 440.855 46.1493 440.855C44.1672 440.855 42.6736 439.612 42.6736 437.881C42.6736 436.095 44.1672 434.852 46.1493 434.866ZM46.1493 436.346C45.1303 436.346 44.4045 436.918 44.4184 437.881C44.4045 438.831 45.1303 439.389 46.1493 439.389C47.1403 439.389 47.8661 438.831 47.8661 437.881C47.8661 436.918 47.1403 436.346 46.1493 436.346ZM68.9945 434.35V441.664H67.2218V440.422H64.3603V438.998H67.2218V437.784H64.486C63.6973 439.794 61.8967 441.176 59.098 441.943L58.4001 440.533C61.3244 439.766 62.7551 438.37 63.0064 436.625H59.0841V435.201H64.9466C64.9466 435.613 64.9187 436.011 64.8628 436.388H67.2218V434.35H68.9945ZM64.7651 441.818C67.3474 441.818 69.0782 442.809 69.0922 444.386C69.0782 445.977 67.3474 446.982 64.7651 446.982C62.1549 446.982 60.4101 445.977 60.4241 444.386C60.4101 442.809 62.1549 441.818 64.7651 441.818ZM64.7651 443.213C63.1599 443.2 62.1968 443.604 62.1968 444.386C62.1968 445.168 63.1599 445.572 64.7651 445.572C66.3424 445.572 67.3055 445.168 67.3055 444.386C67.3055 443.604 66.3424 443.2 64.7651 443.213ZM82.3503 444.163V445.628H70.7231V444.163H75.6224V442.25H72.0631V437.979H79.2516V436.583H72.0491V435.16H81.0103V439.375H73.8497V440.799H81.3035V442.25H77.3951V444.163H82.3503Z" fill="#171717"/>
<path d="M259.954 434.654V443.239H258.71V438.829H256.473V437.821H258.71V434.654H259.954ZM260.268 445.11V446.118H252.338V442.467H253.581V445.11H260.268ZM254.379 437.023C254.379 438.488 255.439 439.954 257.206 440.543L256.564 441.538C255.249 441.073 254.274 440.131 253.764 438.973C253.254 440.262 252.226 441.302 250.833 441.799L250.192 440.792C251.997 440.177 253.11 438.632 253.11 437.023V436.565H250.571V435.544H256.892V436.565H254.379V437.023ZM265.395 438.24C265.395 440.085 266.246 441.969 267.868 442.833L267.175 443.749C266.043 443.147 265.251 442.022 264.832 440.687C264.407 442.12 263.622 443.35 262.49 444.024L261.757 443.082C263.38 442.139 264.217 440.137 264.23 438.24V437.769H262.111V436.748H264.23V435.06H265.395V436.748H267.476V437.769H265.395V438.24ZM271.951 434.641V446.366H270.76V434.641H271.951ZM269.57 434.89V445.777H268.392V440.242H266.704V439.208H268.392V434.89H269.57ZM287.728 443.88V444.914H276.998V443.88H281.722V441.472H278.228V435.439H279.471V437.455H285.229V435.439H286.459V441.472H282.952V443.88H287.728ZM279.471 440.464H285.229V438.462H279.471V440.464ZM298.457 434.641V446.366H297.2V434.641H298.457ZM294.963 435.897C294.963 439.326 293.497 442.31 289.48 444.233L288.825 443.226C291.946 441.74 293.464 439.627 293.706 436.892H289.388V435.897H294.963Z" fill="#008660"/>
<path fill-rule="evenodd" clip-rule="evenodd" d="M309.815 436.11C309.631 436.299 309.636 436.601 309.824 436.784L313.294 440.155L309.815 443.733C309.631 443.922 309.636 444.224 309.824 444.407C310.013 444.59 310.315 444.586 310.498 444.397L314.309 440.477C314.398 440.386 314.446 440.264 314.444 440.138C314.442 440.012 314.391 439.891 314.3 439.803L310.488 436.101C310.3 435.917 309.998 435.922 309.815 436.11Z" fill="#008660"/>
<g clip-path="url(#clip2_5067_28927)">
<mask id="path-44-inside-1_5067_28927" fill="white">
<path d="M29.8667 468.841H329.133V676.041H29.8667V468.841Z"/>
</mask>
<path d="M34.6954 485.086V494.561H32.7194V486.958H32.6671L30.4948 488.319V486.578L32.8372 485.086H34.6954Z" fill="#008660"/>
<line x1="29.8667" y1="509.835" x2="65.6" y2="509.835" stroke="#E1E2E4" stroke-width="0.893333"/>
<path d="M30.6126 536.001L30.5995 534.575L34.0019 531.447C34.8917 530.596 35.3628 530.073 35.3628 529.327C35.3628 528.49 34.7216 527.966 33.8579 527.966C32.9681 527.966 32.3923 528.529 32.3923 529.432H30.521C30.5079 527.574 31.8819 526.396 33.8841 526.396C35.9124 526.396 37.2603 527.547 37.2603 529.196C37.2603 530.269 36.7368 531.159 34.787 532.926L33.3476 534.326V534.378H37.3911V536.001H30.6126Z" fill="#008660"/>
<line x1="29.8667" y1="551.274" x2="65.6" y2="551.274" stroke="#E1E2E4" stroke-width="0.893333"/>
<path d="M34.1196 577.571C32.039 577.571 30.5472 576.42 30.5079 574.771H32.497C32.5362 575.478 33.2167 575.949 34.1327 575.949C35.0749 575.949 35.7554 575.412 35.7423 574.653C35.7554 573.881 35.0618 573.331 33.9495 573.331H33.0728V571.879H33.9495C34.8786 571.879 35.5329 571.369 35.5329 570.623C35.5329 569.903 34.9833 569.406 34.1458 569.406C33.3083 569.406 32.6147 569.877 32.5886 570.596H30.7042C30.7304 568.961 32.2091 567.835 34.1458 567.835C36.1218 567.835 37.4435 569 37.4304 570.505C37.4435 571.565 36.6976 572.324 35.6376 572.507V572.586C37.0247 572.756 37.7968 573.606 37.7837 574.784C37.7968 576.407 36.2526 577.571 34.1196 577.571Z" fill="#008660"/>
<path d="M68.0733 490.399V494.561H66.3983V485.086H68.0341V488.659H68.1257C68.4528 487.861 69.1333 487.363 70.2325 487.363C71.7112 487.363 72.6796 488.319 72.6796 490.033V494.561H71.0177V490.295C71.0177 489.326 70.4942 488.777 69.6175 488.777C68.7146 488.777 68.0733 489.365 68.0733 490.399ZM77.9379 487.455V488.737H76.5377V492.428C76.5377 493.108 76.878 493.252 77.2967 493.252C77.493 493.252 77.8201 493.239 78.0295 493.226V494.587C77.8332 494.626 77.5061 494.652 77.0873 494.652C75.8311 494.652 74.8627 494.037 74.8758 492.702V488.737H73.8551V487.455H74.8758V485.754H76.5377V487.455H77.9379ZM82.8953 487.455V488.737H81.4951V492.428C81.4951 493.108 81.8353 493.252 82.2541 493.252C82.4503 493.252 82.7775 493.239 82.9869 493.226V494.587C82.7906 494.626 82.4634 494.652 82.0447 494.652C80.7884 494.652 79.8201 494.037 79.8332 492.702V488.737H78.8125V487.455H79.8332V485.754H81.4951V487.455H82.8953ZM84.3063 497.23V487.455H85.9421V488.62H86.0468C86.3085 488.109 86.8319 487.363 88.0882 487.363C89.7239 487.363 91.0194 488.646 91.0194 491.014C91.0194 493.357 89.7632 494.691 88.0882 494.691C86.8581 494.691 86.3085 493.959 86.0468 493.435H85.9813V497.23H84.3063ZM85.9421 491.001C85.9421 492.388 86.544 493.317 87.6302 493.317C88.7294 493.317 89.3182 492.349 89.3182 491.001C89.3182 489.679 88.7425 488.724 87.6302 488.724C86.544 488.724 85.9421 489.627 85.9421 491.001ZM96.4871 489.483C96.3824 488.947 95.9375 488.606 95.2309 488.606C94.5111 488.606 93.9877 488.96 94.0008 489.444C93.9877 489.81 94.2887 490.085 95.0084 490.255L96.2123 490.504C97.5602 490.805 98.2014 491.42 98.2145 492.441C98.2014 493.775 97.0367 494.704 95.1785 494.704C93.3727 494.704 92.2996 493.893 92.1295 492.532H93.8307C93.9354 493.134 94.4065 493.435 95.1785 493.435C95.9768 493.435 96.5133 493.108 96.5133 492.585C96.5133 492.179 96.1861 491.917 95.4795 491.76L94.341 491.512C93.0193 491.25 92.3389 490.556 92.3389 489.536C92.3389 488.227 93.4643 487.363 95.2047 487.363C96.9059 487.363 97.9527 488.188 98.0705 489.483H96.4871ZM100.646 494.665C100.084 494.665 99.6255 494.207 99.6255 493.645C99.6255 493.095 100.084 492.637 100.646 492.637C101.183 492.637 101.654 493.095 101.654 493.645C101.654 494.207 101.183 494.665 100.646 494.665ZM100.646 489.588C100.084 489.588 99.6255 489.13 99.6255 488.567C99.6255 488.018 100.084 487.56 100.646 487.56C101.183 487.56 101.654 488.018 101.654 488.567C101.654 489.13 101.183 489.588 100.646 489.588ZM107.252 484.641L104.203 495.987H102.738L105.8 484.641H107.252ZM112.184 484.641L109.135 495.987H107.669L110.731 484.641H112.184ZM114.733 494.561L112.718 487.455H114.419L115.675 492.454H115.741L117.01 487.455H118.698L119.981 492.428H120.046L121.289 487.455H122.99L120.975 494.561H119.235L117.9 489.745H117.808L116.474 494.561H114.733ZM125.658 494.561L123.642 487.455H125.344L126.6 492.454H126.665L127.935 487.455H129.623L130.905 492.428H130.971L132.214 487.455H133.915L131.9 494.561H130.159L128.824 489.745H128.733L127.398 494.561H125.658ZM136.582 494.561L134.567 487.455H136.268L137.524 492.454H137.59L138.859 487.455H140.547L141.83 492.428H141.895L143.138 487.455H144.839L142.824 494.561H141.084L139.749 489.745H139.657L138.323 494.561H136.582ZM146.093 494.665C145.531 494.665 145.073 494.207 145.073 493.645C145.073 493.095 145.531 492.637 146.093 492.637C146.63 492.637 147.101 493.095 147.101 493.645C147.101 494.207 146.63 494.665 146.093 494.665ZM151.941 497.374C150.056 497.374 148.865 496.537 148.748 495.202H150.41C150.527 495.817 151.116 496.118 151.967 496.118C152.961 496.118 153.616 495.686 153.616 494.639V493.278H153.537C153.275 493.802 152.713 494.456 151.483 494.456C149.847 494.456 148.551 493.265 148.551 490.949C148.551 488.606 149.847 487.363 151.496 487.363C152.752 487.363 153.275 488.109 153.537 488.62H153.616V487.455H155.264V494.678C155.264 496.497 153.864 497.374 151.941 497.374ZM151.941 493.147C153.014 493.147 153.629 492.336 153.629 490.975C153.629 489.627 153.027 488.724 151.941 488.724C150.828 488.724 150.253 489.679 150.253 490.975C150.253 492.284 150.841 493.147 151.941 493.147ZM156.99 494.561V487.455H158.612V488.633H158.691C158.939 487.821 159.633 487.35 160.444 487.35C160.627 487.35 160.889 487.363 161.046 487.389V488.934C160.902 488.881 160.549 488.829 160.274 488.829C159.345 488.829 158.665 489.47 158.665 490.373V494.561H156.99ZM165.035 494.704C162.968 494.704 161.633 493.239 161.633 491.04C161.633 488.829 162.968 487.363 165.035 487.363C167.116 487.363 168.438 488.829 168.438 491.04C168.438 493.239 167.116 494.704 165.035 494.704ZM165.048 493.37C166.187 493.37 166.749 492.336 166.749 491.027C166.749 489.732 166.187 488.685 165.048 488.685C163.884 488.685 163.321 489.732 163.321 491.027C163.321 492.336 163.884 493.37 165.048 493.37ZM169.94 494.561V485.086H171.615V488.62H171.681C171.942 488.109 172.453 487.363 173.709 487.363C175.358 487.363 176.653 488.646 176.653 491.014C176.653 493.357 175.384 494.691 173.722 494.691C172.492 494.691 171.942 493.959 171.681 493.435H171.576V494.561H169.94ZM171.576 491.001C171.576 492.388 172.178 493.317 173.251 493.317C174.363 493.317 174.952 492.349 174.952 491.001C174.952 489.679 174.376 488.724 173.251 488.724C172.178 488.724 171.576 489.627 171.576 491.001ZM179.766 485.086V494.561H178.091V485.086H179.766ZM184.644 494.704C182.498 494.704 181.19 493.278 181.19 491.054C181.19 488.855 182.524 487.363 184.553 487.363C186.293 487.363 187.798 488.449 187.798 490.949V491.472H182.839C182.858 492.683 183.571 493.396 184.657 493.396C185.39 493.396 185.888 493.082 186.097 492.663H187.733C187.432 493.893 186.293 494.704 184.644 494.704ZM182.852 490.334H186.202C186.189 489.365 185.547 488.659 184.579 488.659C183.571 488.659 182.904 489.424 182.852 490.334ZM190.256 494.665C189.693 494.665 189.235 494.207 189.235 493.645C189.235 493.095 189.693 492.637 190.256 492.637C190.793 492.637 191.264 493.095 191.264 493.645C191.264 494.207 190.793 494.665 190.256 494.665ZM193.002 494.561V487.455H194.677V494.561H193.002ZM193.852 486.447C193.329 486.447 192.884 486.042 192.884 485.531C192.884 485.034 193.329 484.628 193.852 484.628C194.389 484.628 194.821 485.034 194.821 485.531C194.821 486.042 194.389 486.447 193.852 486.447ZM196.402 494.561V487.455H197.998V488.659H198.09C198.378 487.847 199.098 487.363 200.04 487.363C201.008 487.363 201.689 487.847 201.964 488.659H202.042C202.356 487.874 203.141 487.363 204.175 487.363C205.471 487.363 206.387 488.201 206.387 489.784V494.561H204.725V490.046C204.725 489.156 204.188 488.763 203.508 488.763C202.683 488.763 202.212 489.326 202.212 490.124V494.561H200.59V489.98C200.59 489.248 200.092 488.763 199.386 488.763C198.666 488.763 198.077 489.352 198.077 490.242V494.561H196.402Z" fill="#171717"/>
<line x1="65.6001" y1="509.835" x2="329.133" y2="509.835" stroke="#E1E2E4" stroke-width="0.893333"/>
<path d="M68.0733 531.84V536.001H66.3983V526.527H68.0341V530.099H68.1257C68.4528 529.301 69.1333 528.804 70.2325 528.804C71.7112 528.804 72.6796 529.759 72.6796 531.473V536.001H71.0177V531.735C71.0177 530.767 70.4942 530.217 69.6175 530.217C68.7146 530.217 68.0733 530.806 68.0733 531.84ZM77.9379 528.895V530.178H76.5377V533.868C76.5377 534.548 76.878 534.692 77.2967 534.692C77.493 534.692 77.8201 534.679 78.0295 534.666V536.027C77.8332 536.066 77.5061 536.093 77.0873 536.093C75.8311 536.093 74.8627 535.478 74.8758 534.143V530.178H73.8551V528.895H74.8758V527.194H76.5377V528.895H77.9379ZM82.8953 528.895V530.178H81.4951V533.868C81.4951 534.548 81.8353 534.692 82.2541 534.692C82.4503 534.692 82.7775 534.679 82.9869 534.666V536.027C82.7906 536.066 82.4634 536.093 82.0447 536.093C80.7884 536.093 79.8201 535.478 79.8332 534.143V530.178H78.8125V528.895H79.8332V527.194H81.4951V528.895H82.8953ZM84.3063 538.671V528.895H85.9421V530.06H86.0468C86.3085 529.55 86.8319 528.804 88.0882 528.804C89.7239 528.804 91.0194 530.086 91.0194 532.455C91.0194 534.797 89.7632 536.132 88.0882 536.132C86.8581 536.132 86.3085 535.399 86.0468 534.876H85.9813V538.671H84.3063ZM85.9421 532.442C85.9421 533.829 86.544 534.758 87.6302 534.758C88.7294 534.758 89.3182 533.789 89.3182 532.442C89.3182 531.12 88.7425 530.165 87.6302 530.165C86.544 530.165 85.9421 531.068 85.9421 532.442ZM96.4871 530.924C96.3824 530.387 95.9375 530.047 95.2309 530.047C94.5111 530.047 93.9877 530.4 94.0008 530.884C93.9877 531.251 94.2887 531.526 95.0084 531.696L96.2123 531.944C97.5602 532.245 98.2014 532.86 98.2145 533.881C98.2014 535.216 97.0367 536.145 95.1785 536.145C93.3727 536.145 92.2996 535.334 92.1295 533.973H93.8307C93.9354 534.575 94.4065 534.876 95.1785 534.876C95.9768 534.876 96.5133 534.548 96.5133 534.025C96.5133 533.619 96.1861 533.358 95.4795 533.201L94.341 532.952C93.0193 532.69 92.3389 531.997 92.3389 530.976C92.3389 529.667 93.4643 528.804 95.2047 528.804C96.9059 528.804 97.9527 529.628 98.0705 530.924H96.4871ZM100.646 536.106C100.084 536.106 99.6255 535.648 99.6255 535.085C99.6255 534.535 100.084 534.077 100.646 534.077C101.183 534.077 101.654 534.535 101.654 535.085C101.654 535.648 101.183 536.106 100.646 536.106ZM100.646 531.028C100.084 531.028 99.6255 530.57 99.6255 530.008C99.6255 529.458 100.084 529 100.646 529C101.183 529 101.654 529.458 101.654 530.008C101.654 530.57 101.183 531.028 100.646 531.028ZM107.252 526.082L104.203 537.427H102.738L105.8 526.082H107.252ZM112.184 526.082L109.135 537.427H107.669L110.731 526.082H112.184ZM114.733 536.001L112.718 528.895H114.419L115.675 533.894H115.741L117.01 528.895H118.698L119.981 533.868H120.046L121.289 528.895H122.99L120.975 536.001H119.235L117.9 531.185H117.808L116.474 536.001H114.733ZM125.658 536.001L123.642 528.895H125.344L126.6 533.894H126.665L127.935 528.895H129.623L130.905 533.868H130.971L132.214 528.895H133.915L131.9 536.001H130.159L128.824 531.185H128.733L127.398 536.001H125.658ZM136.582 536.001L134.567 528.895H136.268L137.524 533.894H137.59L138.859 528.895H140.547L141.83 533.868H141.895L143.138 528.895H144.839L142.824 536.001H141.084L139.749 531.185H139.657L138.323 536.001H136.582ZM146.093 536.106C145.531 536.106 145.073 535.648 145.073 535.085C145.073 534.535 145.531 534.077 146.093 534.077C146.63 534.077 147.101 534.535 147.101 535.085C147.101 535.648 146.63 536.106 146.093 536.106ZM152.386 528.895V530.178H150.985V533.868C150.985 534.548 151.326 534.692 151.744 534.692C151.941 534.692 152.268 534.679 152.477 534.666V536.027C152.281 536.066 151.954 536.093 151.535 536.093C150.279 536.093 149.31 535.478 149.323 534.143V530.178H148.303V528.895H149.323V527.194H150.985V528.895H152.386ZM155.629 531.84V536.001H153.954V526.527H155.589V530.099H155.681C156.008 529.301 156.689 528.804 157.788 528.804C159.267 528.804 160.235 529.759 160.235 531.473V536.001H158.573V531.735C158.573 530.767 158.05 530.217 157.173 530.217C156.27 530.217 155.629 530.806 155.629 531.84ZM161.947 536.001V528.895H163.57V530.073H163.648C163.897 529.262 164.59 528.791 165.402 528.791C165.585 528.791 165.847 528.804 166.004 528.83V530.374C165.86 530.322 165.506 530.269 165.232 530.269C164.302 530.269 163.622 530.911 163.622 531.813V536.001H161.947ZM170.045 536.145C167.899 536.145 166.59 534.719 166.59 532.494C166.59 530.296 167.925 528.804 169.953 528.804C171.694 528.804 173.199 529.89 173.199 532.389V532.913H168.239C168.259 534.123 168.972 534.836 170.058 534.836C170.791 534.836 171.288 534.522 171.497 534.104H173.133C172.832 535.334 171.694 536.145 170.045 536.145ZM168.252 531.774H171.602C171.589 530.806 170.948 530.099 169.98 530.099C168.972 530.099 168.305 530.865 168.252 531.774ZM174.296 533.999C174.296 532.402 175.617 531.931 176.939 531.853C177.43 531.82 178.45 531.761 178.758 531.748V531.185C178.758 530.479 178.3 530.073 177.476 530.073C176.73 530.073 176.272 530.413 176.141 530.924H174.531C174.649 529.72 175.735 528.804 177.515 528.804C178.863 528.804 180.42 529.353 180.42 531.251V536.001H178.823V535.02H178.771C178.457 535.621 177.79 536.145 176.677 536.145C175.316 536.145 174.296 535.399 174.296 533.999ZM175.905 533.986C175.905 534.601 176.402 534.915 177.109 534.915C178.117 534.915 178.771 534.247 178.771 533.449V532.86L177.201 532.965C176.402 533.03 175.905 533.358 175.905 533.986ZM184.762 536.132C183.087 536.132 181.831 534.797 181.831 532.455C181.831 530.086 183.126 528.804 184.775 528.804C186.032 528.804 186.555 529.55 186.804 530.06H186.869V526.527H188.531V536.001H186.895V534.876H186.804C186.542 535.399 185.992 536.132 184.762 536.132ZM185.22 534.758C186.293 534.758 186.908 533.829 186.908 532.442C186.908 531.068 186.306 530.165 185.22 530.165C184.108 530.165 183.532 531.12 183.532 532.442C183.532 533.789 184.121 534.758 185.22 534.758ZM194.378 530.924C194.273 530.387 193.829 530.047 193.122 530.047C192.402 530.047 191.879 530.4 191.892 530.884C191.879 531.251 192.18 531.526 192.899 531.696L194.103 531.944C195.451 532.245 196.092 532.86 196.105 533.881C196.092 535.216 194.928 536.145 193.07 536.145C191.264 536.145 190.191 535.334 190.021 533.973H191.722C191.826 534.575 192.297 534.876 193.07 534.876C193.868 534.876 194.404 534.548 194.404 534.025C194.404 533.619 194.077 533.358 193.371 533.201L192.232 532.952C190.91 532.69 190.23 531.997 190.23 530.976C190.23 529.667 191.355 528.804 193.096 528.804C194.797 528.804 195.844 529.628 195.962 530.924H194.378ZM198.537 536.106C197.975 536.106 197.517 535.648 197.517 535.085C197.517 534.535 197.975 534.077 198.537 534.077C199.074 534.077 199.545 534.535 199.545 535.085C199.545 535.648 199.074 536.106 198.537 536.106ZM204.384 536.145C202.264 536.145 200.982 534.627 200.982 532.481C200.982 530.309 202.304 528.804 204.384 528.804C206.112 528.804 207.316 529.811 207.433 531.342H205.837C205.706 530.662 205.209 530.138 204.397 530.138C203.364 530.138 202.67 531.015 202.67 532.442C202.67 533.907 203.351 534.784 204.397 534.784C205.143 534.784 205.693 534.352 205.837 533.58H207.433C207.303 535.085 206.164 536.145 204.384 536.145ZM211.92 536.145C209.852 536.145 208.517 534.679 208.517 532.481C208.517 530.269 209.852 528.804 211.92 528.804C214 528.804 215.322 530.269 215.322 532.481C215.322 534.679 214 536.145 211.92 536.145ZM211.933 534.81C213.071 534.81 213.634 533.776 213.634 532.468C213.634 531.172 213.071 530.125 211.933 530.125C210.768 530.125 210.205 531.172 210.205 532.468C210.205 533.776 210.768 534.81 211.933 534.81ZM216.746 536.001V528.895H218.343V530.099H218.434C218.722 529.288 219.442 528.804 220.384 528.804C221.352 528.804 222.033 529.288 222.308 530.099H222.386C222.7 529.314 223.485 528.804 224.519 528.804C225.815 528.804 226.731 529.641 226.731 531.225V536.001H225.069V531.486C225.069 530.596 224.532 530.204 223.852 530.204C223.027 530.204 222.556 530.767 222.556 531.565V536.001H220.934V531.421C220.934 530.688 220.436 530.204 219.73 530.204C219.01 530.204 218.421 530.793 218.421 531.683V536.001H216.746Z" fill="#171717"/>
<line x1="65.6001" y1="551.274" x2="329.133" y2="551.274" stroke="#E1E2E4" stroke-width="0.893333"/>
<path d="M68.0733 573.279V577.44H66.3983V567.966H68.0341V571.539H68.1257C68.4528 570.74 69.1333 570.243 70.2325 570.243C71.7112 570.243 72.6796 571.198 72.6796 572.913V577.44H71.0177V573.174C71.0177 572.206 70.4942 571.656 69.6175 571.656C68.7146 571.656 68.0733 572.245 68.0733 573.279ZM77.9379 570.335V571.617H76.5377V575.307C76.5377 575.988 76.878 576.132 77.2967 576.132C77.493 576.132 77.8201 576.119 78.0295 576.106V577.467C77.8332 577.506 77.5061 577.532 77.0873 577.532C75.8311 577.532 74.8627 576.917 74.8758 575.582V571.617H73.8551V570.335H74.8758V568.634H76.5377V570.335H77.9379ZM82.8953 570.335V571.617H81.4951V575.307C81.4951 575.988 81.8353 576.132 82.2541 576.132C82.4503 576.132 82.7775 576.119 82.9869 576.106V577.467C82.7906 577.506 82.4634 577.532 82.0447 577.532C80.7884 577.532 79.8201 576.917 79.8332 575.582V571.617H78.8125V570.335H79.8332V568.634H81.4951V570.335H82.8953ZM84.3063 580.11V570.335H85.9421V571.499H86.0468C86.3085 570.989 86.8319 570.243 88.0882 570.243C89.7239 570.243 91.0194 571.526 91.0194 573.894C91.0194 576.237 89.7632 577.571 88.0882 577.571C86.8581 577.571 86.3085 576.838 86.0468 576.315H85.9813V580.11H84.3063ZM85.9421 573.881C85.9421 575.268 86.544 576.197 87.6302 576.197C88.7294 576.197 89.3182 575.229 89.3182 573.881C89.3182 572.559 88.7425 571.604 87.6302 571.604C86.544 571.604 85.9421 572.507 85.9421 573.881ZM96.4871 572.363C96.3824 571.827 95.9375 571.486 95.2309 571.486C94.5111 571.486 93.9877 571.84 94.0008 572.324C93.9877 572.69 94.2887 572.965 95.0084 573.135L96.2123 573.384C97.5602 573.685 98.2014 574.3 98.2145 575.321C98.2014 576.655 97.0367 577.584 95.1785 577.584C93.3727 577.584 92.2996 576.773 92.1295 575.412H93.8307C93.9354 576.014 94.4065 576.315 95.1785 576.315C95.9768 576.315 96.5133 575.988 96.5133 575.464C96.5133 575.059 96.1861 574.797 95.4795 574.64L94.341 574.391C93.0193 574.13 92.3389 573.436 92.3389 572.415C92.3389 571.107 93.4643 570.243 95.2047 570.243C96.9059 570.243 97.9527 571.068 98.0705 572.363H96.4871ZM100.646 577.545C100.084 577.545 99.6255 577.087 99.6255 576.524C99.6255 575.975 100.084 575.517 100.646 575.517C101.183 575.517 101.654 575.975 101.654 576.524C101.654 577.087 101.183 577.545 100.646 577.545ZM100.646 572.468C100.084 572.468 99.6255 572.01 99.6255 571.447C99.6255 570.897 100.084 570.439 100.646 570.439C101.183 570.439 101.654 570.897 101.654 571.447C101.654 572.01 101.183 572.468 100.646 572.468ZM107.252 567.521L104.203 578.867H102.738L105.8 567.521H107.252ZM112.184 567.521L109.135 578.867H107.669L110.731 567.521H112.184ZM114.733 577.44L112.718 570.335H114.419L115.675 575.334H115.741L117.01 570.335H118.698L119.981 575.307H120.046L121.289 570.335H122.99L120.975 577.44H119.235L117.9 572.625H117.808L116.474 577.44H114.733ZM125.658 577.44L123.642 570.335H125.344L126.6 575.334H126.665L127.935 570.335H129.623L130.905 575.307H130.971L132.214 570.335H133.915L131.9 577.44H130.159L128.824 572.625H128.733L127.398 577.44H125.658ZM136.582 577.44L134.567 570.335H136.268L137.524 575.334H137.59L138.859 570.335H140.547L141.83 575.307H141.895L143.138 570.335H144.839L142.824 577.44H141.084L139.749 572.625H139.657L138.323 577.44H136.582ZM146.093 577.545C145.531 577.545 145.073 577.087 145.073 576.524C145.073 575.975 145.531 575.517 146.093 575.517C146.63 575.517 147.101 575.975 147.101 576.524C147.101 577.087 146.63 577.545 146.093 577.545ZM148.839 577.44V570.335H150.514V577.44H148.839ZM149.69 569.327C149.166 569.327 148.722 568.921 148.722 568.411C148.722 567.914 149.166 567.508 149.69 567.508C150.226 567.508 150.658 567.914 150.658 568.411C150.658 568.921 150.226 569.327 149.69 569.327ZM153.914 573.279V577.44H152.239V570.335H153.836V571.539H153.927C154.255 570.74 154.974 570.243 156.034 570.243C157.513 570.243 158.481 571.212 158.468 572.913V577.44H156.806V573.174C156.806 572.219 156.296 571.656 155.419 571.656C154.529 571.656 153.914 572.245 153.914 573.279ZM164.224 572.363C164.119 571.827 163.674 571.486 162.968 571.486C162.248 571.486 161.724 571.84 161.738 572.324C161.724 572.69 162.025 572.965 162.745 573.135L163.949 573.384C165.297 573.685 165.938 574.3 165.951 575.321C165.938 576.655 164.774 577.584 162.915 577.584C161.109 577.584 160.036 576.773 159.866 575.412H161.567C161.672 576.014 162.143 576.315 162.915 576.315C163.714 576.315 164.25 575.988 164.25 575.464C164.25 575.059 163.923 574.797 163.216 574.64L162.078 574.391C160.756 574.13 160.076 573.436 160.076 572.415C160.076 571.107 161.201 570.243 162.941 570.243C164.643 570.243 165.69 571.068 165.807 572.363H164.224ZM170.896 570.335V571.617H169.495V575.307C169.495 575.988 169.836 576.132 170.254 576.132C170.451 576.132 170.778 576.119 170.987 576.106V577.467C170.791 577.506 170.464 577.532 170.045 577.532C168.789 577.532 167.82 576.917 167.833 575.582V571.617H166.813V570.335H167.833V568.634H169.495V570.335H170.896ZM171.979 575.438C171.979 573.842 173.301 573.371 174.623 573.292C175.114 573.259 176.134 573.201 176.442 573.188V572.625C176.442 571.918 175.984 571.513 175.159 571.513C174.413 571.513 173.955 571.853 173.825 572.363H172.215C172.333 571.159 173.419 570.243 175.199 570.243C176.546 570.243 178.104 570.793 178.104 572.69V577.44H176.507V576.459H176.455C176.141 577.061 175.473 577.584 174.361 577.584C173 577.584 171.979 576.838 171.979 575.438ZM173.589 575.425C173.589 576.04 174.086 576.354 174.793 576.354C175.801 576.354 176.455 575.687 176.455 574.889V574.3L174.885 574.404C174.086 574.47 173.589 574.797 173.589 575.425ZM182.904 580.254C181.02 580.254 179.829 579.416 179.711 578.082H181.373C181.491 578.697 182.08 578.998 182.93 578.998C183.925 578.998 184.579 578.566 184.579 577.519V576.158H184.5C184.239 576.681 183.676 577.336 182.446 577.336C180.81 577.336 179.515 576.145 179.515 573.829C179.515 571.486 180.81 570.243 182.459 570.243C183.715 570.243 184.239 570.989 184.5 571.499H184.579V570.335H186.228V577.558C186.228 579.377 184.828 580.254 182.904 580.254ZM182.904 576.027C183.977 576.027 184.592 575.216 184.592 573.855C184.592 572.507 183.99 571.604 182.904 571.604C181.792 571.604 181.216 572.559 181.216 573.855C181.216 575.163 181.805 576.027 182.904 576.027ZM187.953 577.44V570.335H189.576V571.513H189.654C189.903 570.701 190.596 570.23 191.408 570.23C191.591 570.23 191.853 570.243 192.01 570.269V571.813C191.866 571.761 191.512 571.709 191.237 571.709C190.308 571.709 189.628 572.35 189.628 573.253V577.44H187.953ZM192.675 575.438C192.675 573.842 193.996 573.371 195.318 573.292C195.809 573.259 196.83 573.201 197.137 573.188V572.625C197.137 571.918 196.679 571.513 195.855 571.513C195.109 571.513 194.651 571.853 194.52 572.363H192.91C193.028 571.159 194.114 570.243 195.894 570.243C197.242 570.243 198.799 570.793 198.799 572.69V577.44H197.202V576.459H197.15C196.836 577.061 196.169 577.584 195.056 577.584C193.695 577.584 192.675 576.838 192.675 575.438ZM194.284 575.425C194.284 576.04 194.782 576.354 195.488 576.354C196.496 576.354 197.15 575.687 197.15 574.889V574.3L195.58 574.404C194.782 574.47 194.284 574.797 194.284 575.425ZM200.498 577.44V570.335H202.094V571.539H202.186C202.474 570.727 203.194 570.243 204.136 570.243C205.104 570.243 205.785 570.727 206.059 571.539H206.138C206.452 570.754 207.237 570.243 208.271 570.243C209.566 570.243 210.482 571.081 210.482 572.664V577.44H208.821V572.926C208.821 572.036 208.284 571.643 207.604 571.643C206.779 571.643 206.308 572.206 206.308 573.004V577.44H204.685V572.86C204.685 572.128 204.188 571.643 203.481 571.643C202.762 571.643 202.173 572.232 202.173 573.122V577.44H200.498ZM213.241 577.545C212.679 577.545 212.221 577.087 212.221 576.524C212.221 575.975 212.679 575.517 213.241 575.517C213.778 575.517 214.249 575.975 214.249 576.524C214.249 577.087 213.778 577.545 213.241 577.545ZM219.089 577.584C216.969 577.584 215.686 576.066 215.686 573.92C215.686 571.748 217.008 570.243 219.089 570.243C220.816 570.243 222.02 571.251 222.138 572.782H220.541C220.41 572.101 219.913 571.578 219.102 571.578C218.068 571.578 217.374 572.455 217.374 573.881C217.374 575.347 218.055 576.223 219.102 576.223C219.848 576.223 220.397 575.792 220.541 575.02H222.138C222.007 576.524 220.868 577.584 219.089 577.584ZM226.624 577.584C224.556 577.584 223.222 576.119 223.222 573.92C223.222 571.709 224.556 570.243 226.624 570.243C228.705 570.243 230.026 571.709 230.026 573.92C230.026 576.119 228.705 577.584 226.624 577.584ZM226.637 576.25C227.775 576.25 228.338 575.216 228.338 573.907C228.338 572.612 227.775 571.565 226.637 571.565C225.472 571.565 224.91 572.612 224.91 573.907C224.91 575.216 225.472 576.25 226.637 576.25ZM231.45 577.44V570.335H233.047V571.539H233.138C233.426 570.727 234.146 570.243 235.088 570.243C236.057 570.243 236.737 570.727 237.012 571.539H237.09C237.404 570.754 238.19 570.243 239.223 570.243C240.519 570.243 241.435 571.081 241.435 572.664V577.44H239.773V572.926C239.773 572.036 239.236 571.643 238.556 571.643C237.732 571.643 237.26 572.206 237.26 573.004V577.44H235.638V572.86C235.638 572.128 235.141 571.643 234.434 571.643C233.714 571.643 233.125 572.232 233.125 573.122V577.44H231.45Z" fill="#171717"/>
</g>
<path d="M29.8667 468.841V469.734H329.133V468.841V467.947H29.8667V468.841Z" fill="#171717" mask="url(#path-44-inside-1_5067_28927)"/>
</g>
</g>
</g>
<defs>
<filter id="filter0_ddd_5067_28927" x="0" y="0.560547" width="359" height="608.24" filterUnits="userSpaceOnUse" color-interpolation-filters="sRGB">
<feFlood flood-opacity="0" result="BackgroundImageFix"/>
<feColorMatrix in="SourceAlpha" type="matrix" values="0 0 0 0 0 0 0 0 0 0 0 0 0 0 0 0 0 0 127 0" result="hardAlpha"/>
<feOffset/>
<feGaussianBlur stdDeviation="1"/>
<feComposite in2="hardAlpha" operator="out"/>
<feColorMatrix type="matrix" values="0 0 0 0 0 0 0 0 0 0 0 0 0 0 0 0 0 0 0.05 0"/>
<feBlend mode="normal" in2="BackgroundImageFix" result="effect1_dropShadow_5067_28927"/>
<feColorMatrix in="SourceAlpha" type="matrix" values="0 0 0 0 0 0 0 0 0 0 0 0 0 0 0 0 0 0 127 0" result="hardAlpha"/>
<feOffset dy="1"/>
<feGaussianBlur stdDeviation="2.5"/>
<feComposite in2="hardAlpha" operator="out"/>
<feColorMatrix type="matrix" values="0 0 0 0 0 0 0 0 0 0 0 0 0 0 0 0 0 0 0.05 0"/>
<feBlend mode="normal" in2="effect1_dropShadow_5067_28927" result="effect2_dropShadow_5067_28927"/>
<feColorMatrix in="SourceAlpha" type="matrix" values="0 0 0 0 0 0 0 0 0 0 0 0 0 0 0 0 0 0 127 0" result="hardAlpha"/>
<feOffset dy="5"/>
<feGaussianBlur stdDeviation="6"/>
<feComposite in2="hardAlpha" operator="out"/>
<feColorMatrix type="matrix" values="0 0 0 0 0 0 0 0 0 0 0 0 0 0 0 0 0 0 0.05 0"/>
<feBlend mode="normal" in2="effect2_dropShadow_5067_28927" result="effect3_dropShadow_5067_28927"/>
<feBlend mode="normal" in="SourceGraphic" in2="effect3_dropShadow_5067_28927" result="shape"/>
</filter>
<clipPath id="clip0_5067_28927">
<rect x="12" y="7.56055" width="335" height="584.24" rx="21.44" fill="white"/>
</clipPath>
<clipPath id="clip1_5067_28927">
<rect width="299.267" height="275.093" fill="white" transform="translate(29.8667 422.388)"/>
</clipPath>
<clipPath id="clip2_5067_28927">
<path d="M29.8667 468.841H329.133V676.041H29.8667V468.841Z" fill="white"/>
</clipPath>
</defs>
</svg>
