<svg width="320" height="150" viewBox="0 0 320 150" fill="none" xmlns="http://www.w3.org/2000/svg">
<rect x="69.5559" y="0.92041" width="180.017" height="43.6724" rx="5.83621" fill="#008660"/>
<path d="M97.8864 15.0051V16.95H91.1753V20.391H97.5444V22.2718H91.1753V26.2472C94.1462 26.2258 96.4651 26.1189 99.1688 25.6701L99.3825 27.5937C96.4117 28.0639 93.8256 28.1707 90.3632 28.1707H88.7602V15.0051H97.8864ZM103.101 13.338V20.8185H106.072V22.8061H103.101V32.659H100.729V13.338H103.101ZM128.485 13.8937V15.689H125.835V18.6171H128.378V20.4124H114.187V18.6171H116.73V15.689H114.08V13.8937H128.485ZM130.109 21.6306V23.5114H112.498V21.6306H130.109ZM127.908 24.8152V29.4103H116.922V30.7141H128.442V32.488H114.593V27.7646H125.578V26.5464H114.571V24.8152H127.908ZM119.102 18.6171H123.441V15.689H119.102V18.6171ZM148.144 13.3594V26.3968H145.879V20.0918H143.87V24.7724H141.647V13.7227H143.87V18.1682H145.879V13.3594H148.144ZM139.766 14.7486V20.4551H134.744V22.6993C136.988 22.6672 138.698 22.539 140.664 22.165L140.878 24.0244C138.569 24.4946 136.624 24.5587 133.761 24.5587H132.435V18.7239H137.479V16.6721H132.414V14.7486H139.766ZM142.716 25.9266C142.716 28.128 145.174 30.2011 149.085 30.7141L148.123 32.5522C145.099 32.114 142.716 30.7461 141.54 28.8333C140.333 30.7461 137.95 32.114 134.936 32.5522L133.974 30.7141C137.864 30.2011 140.322 28.128 140.343 25.9266V25.5205H142.716V25.9266ZM168.359 22.8275V24.7083H150.748V22.8275H158.336V21.0536H152.437V19.13H154.98V15.8172H152.33V13.915H166.735V15.8172H164.085V19.13H166.628V21.0536H160.708V22.8275H168.359ZM166.222 26.2258V32.4239H152.821V26.2258H166.222ZM155.172 28.0852V30.5004H163.914V28.0852H155.172ZM157.352 19.13H161.691V15.8172H157.352V19.13ZM185.344 14.9409C185.344 17.3774 188.058 19.8353 192.183 20.3696L191.243 22.2932C187.962 21.8016 185.354 20.188 184.104 17.9973C182.832 20.188 180.236 21.8016 176.987 22.2932L176.046 20.3696C180.129 19.8353 182.843 17.3774 182.843 14.9409V13.9578H185.344V14.9409ZM192.888 23.9603V25.9266H185.215V32.659H182.864V25.9266H175.277V23.9603H192.888ZM204.469 14.9409C204.469 17.3774 207.183 19.8353 211.308 20.3696L210.368 22.2932C207.087 21.8016 204.479 20.188 203.229 17.9973C201.957 20.188 199.361 21.8016 196.112 22.2932L195.172 20.3696C199.254 19.8353 201.968 17.3774 201.968 14.9409V13.9578H204.469V14.9409ZM212.013 23.9603V25.9266H204.34V32.659H201.989V25.9266H194.402V23.9603H212.013ZM231.181 28.4486V30.4149H213.527V28.4486H218.208V25.264H215.622V18.959H226.736V16.5866H215.579V14.6631H229.087V20.8612H217.994V23.3405H229.535V25.264H226.714V28.4486H231.181ZM220.516 28.4486H224.385V25.264H220.516V28.4486Z" fill="#D1F6EC"/>
<g filter="url(#filter0_d_3245_45426)">
<rect x="11.714" y="62.1016" width="87.5431" height="58.3448" rx="10.275" fill="white" shape-rendering="crispEdges"/>
<path d="M48.7849 82.0829V84.1119H41.6721V85.7078H48.3746V87.6228H41.6721V89.3554C45.3425 89.344 47.5083 89.2756 50.0844 88.8994L50.3124 90.86C47.4855 91.316 45.0689 91.3844 40.7829 91.3844H39.1415V82.0829H48.7849ZM54.5528 81.1938V85.4114H57.4253V87.4632H54.5528V91.8403H52.0222V81.1938H54.5528ZM54.5528 92.7294V98.0185H43.6099V99.6599H55.1911V101.621H41.1021V96.1719H52.0222V94.7128H41.0793V92.7294H54.5528ZM61.9355 83.2684L65.5603 89.3326H65.6971L69.3675 83.2684H72.7416L67.6577 91.5212L72.8328 99.7739H69.3903L65.6971 93.7553H65.5603L61.8671 99.7739H58.4474L63.6681 91.5212L58.5158 83.2684H61.9355Z" fill="#171717"/>
</g>
<path d="M26.3498 131.904V144.283H24.11V134.075H24.0416L21.152 135.922V133.887L24.2125 131.904H26.3498ZM29.5781 141.974V140.196L34.9298 131.904H37.6997V140.145H39.3241V141.974H37.6997V144.283H35.5796V141.974H29.5781ZM31.8521 140.145H35.6137V134.434H35.477L31.8521 140.059V140.145ZM42.159 137.631C42.7233 137.016 43.4414 136.691 44.2279 136.691C45.5958 136.691 46.7756 137.649 48.1434 137.649C48.93 137.649 49.6139 137.324 50.161 136.674V138.538C49.5968 139.17 48.8787 139.478 48.0921 139.478C46.7243 139.478 45.5274 138.521 44.1766 138.521C43.3901 138.521 42.7062 138.845 42.159 139.495V137.631ZM52.8421 144.283V142.675L57.2193 138.452C58.4675 137.204 59.1172 136.469 59.1172 135.426C59.1172 134.28 58.211 133.545 56.997 133.545C55.7146 133.545 54.8939 134.349 54.911 135.597H52.7908C52.7737 133.254 54.5349 131.733 57.0141 131.733C59.5446 131.733 61.2545 133.237 61.2545 135.323C61.2545 136.725 60.5705 137.854 58.1426 140.145L55.9369 142.334V142.419H61.4426V144.283H52.8421ZM68.3982 144.454C65.4231 144.454 63.6449 142.145 63.6449 138.093C63.6449 134.058 65.4231 131.733 68.3982 131.733C71.3562 131.733 73.1515 134.058 73.1515 138.093C73.1515 142.145 71.3733 144.454 68.3982 144.454ZM68.3982 142.59C69.9541 142.59 70.9116 141.068 70.9116 138.093C70.9116 135.135 69.937 133.579 68.3982 133.579C66.8594 133.579 65.8848 135.135 65.8848 138.093C65.8848 141.068 66.8423 142.59 68.3982 142.59ZM78.4999 137.939C76.7388 137.939 75.7813 136.64 75.7813 134.742C75.7813 132.861 76.773 131.562 78.4999 131.562C80.2953 131.562 81.2357 132.861 81.2357 134.742C81.2357 136.657 80.2611 137.939 78.4999 137.939ZM78.4999 136.571C79.2694 136.571 79.6455 135.853 79.6455 134.742C79.6455 133.665 79.3036 132.912 78.4999 132.929C77.7476 132.929 77.3544 133.665 77.3544 134.742C77.3544 135.853 77.7476 136.571 78.4999 136.571ZM86.5874 144.608C84.8263 144.625 83.8688 143.308 83.8688 141.427C83.8688 139.529 84.8605 138.23 86.5874 138.23C88.3656 138.23 89.3231 139.529 89.3231 141.427C89.3231 143.325 88.3485 144.625 86.5874 144.608ZM86.5874 143.24C87.3739 143.24 87.733 142.522 87.733 141.427C87.733 140.333 87.391 139.581 86.5874 139.598C85.8351 139.598 85.4418 140.35 85.4418 141.427C85.4418 142.522 85.8351 143.24 86.5874 143.24ZM77.3715 144.283L85.8864 131.904H87.6133L79.0984 144.283H77.3715Z" fill="#008660"/>
<g filter="url(#filter1_d_3245_45426)">
<rect x="115.793" y="62.1016" width="87.5431" height="58.3448" rx="10.275" fill="white" shape-rendering="crispEdges"/>
<path d="M159.088 83.1088V85.571C159.088 88.5575 159.088 91.4072 158.176 95.7615L155.645 95.5336C156.067 93.7325 156.306 92.1481 156.443 90.6776L144.292 91.316L143.95 89.2642L156.557 88.7854C156.603 87.6798 156.603 86.6197 156.603 85.571V85.1606H144.566V83.1088H159.088ZM161.162 97.1066V99.1812H142.377V97.1066H161.162ZM166.014 83.2684L169.639 89.3326H169.776L173.447 83.2684H176.821L171.737 91.5212L176.912 99.7739H173.469L169.776 93.7553H169.639L165.946 99.7739H162.526L167.747 91.5212L162.595 83.2684H166.014Z" fill="#171717"/>
</g>
<path d="M135.488 144.454C132.838 144.454 130.957 143.017 130.906 140.931H133.146C133.214 141.923 134.206 142.573 135.488 142.573C136.856 142.573 137.831 141.821 137.831 140.726C137.831 139.615 136.873 138.811 135.266 138.811H134.155V137.101H135.266C136.583 137.101 137.506 136.366 137.489 135.289C137.506 134.246 136.719 133.545 135.505 133.545C134.343 133.545 133.334 134.195 133.3 135.238H131.162C131.214 133.152 133.094 131.733 135.522 131.733C138.036 131.733 139.66 133.271 139.643 135.169C139.66 136.554 138.737 137.563 137.386 137.837V137.939C139.13 138.179 140.122 139.29 140.105 140.846C140.122 142.932 138.173 144.454 135.488 144.454ZM143.111 137.631C143.675 137.016 144.393 136.691 145.18 136.691C146.547 136.691 147.727 137.649 149.095 137.649C149.882 137.649 150.566 137.324 151.113 136.674V138.538C150.548 139.17 149.83 139.478 149.044 139.478C147.676 139.478 146.479 138.521 145.128 138.521C144.342 138.521 143.658 138.845 143.111 139.495V137.631ZM159.248 131.904V144.283H157.008V134.075H156.94L154.05 135.922V133.887L157.111 131.904H159.248ZM167.093 144.454C164.614 144.454 162.801 142.983 162.733 140.931H164.904C164.973 141.94 165.913 142.658 167.093 142.658C168.478 142.658 169.47 141.65 169.47 140.282C169.47 138.863 168.444 137.854 167.025 137.854C166.067 137.837 165.366 138.179 164.973 138.914H162.904L163.656 131.904H170.974V133.767H165.486L165.11 137.05H165.229C165.708 136.503 166.614 136.11 167.623 136.11C169.931 136.11 171.624 137.837 171.624 140.213C171.624 142.693 169.76 144.454 167.093 144.454ZM176.989 137.939C175.228 137.939 174.271 136.64 174.271 134.742C174.271 132.861 175.263 131.562 176.989 131.562C178.785 131.562 179.725 132.861 179.725 134.742C179.725 136.657 178.751 137.939 176.989 137.939ZM176.989 136.571C177.759 136.571 178.135 135.853 178.135 134.742C178.135 133.665 177.793 132.912 176.989 132.929C176.237 132.929 175.844 133.665 175.844 134.742C175.844 135.853 176.237 136.571 176.989 136.571ZM185.077 144.608C183.316 144.625 182.358 143.308 182.358 141.427C182.358 139.529 183.35 138.23 185.077 138.23C186.855 138.23 187.813 139.529 187.813 141.427C187.813 143.325 186.838 144.625 185.077 144.608ZM185.077 143.24C185.863 143.24 186.223 142.522 186.223 141.427C186.223 140.333 185.881 139.581 185.077 139.598C184.325 139.598 183.931 140.35 183.931 141.427C183.931 142.522 184.325 143.24 185.077 143.24ZM175.861 144.283L184.376 131.904H186.103L177.588 144.283H175.861Z" fill="#008660"/>
<g filter="url(#filter2_d_3245_45426)">
<rect x="219.872" y="62.1016" width="87.5431" height="58.3448" rx="10.275" fill="white" shape-rendering="crispEdges"/>
<path d="M242.457 82.4705C245.626 82.4705 248.042 84.5223 248.065 87.4404C248.042 89.9595 246.264 91.8175 243.756 92.2963V95.3284C245.466 95.2486 247.187 95.1118 248.795 94.8952L248.977 96.7874C244.668 97.5626 239.949 97.5853 236.416 97.5398L236.051 95.4652C237.601 95.4652 239.379 95.4652 241.226 95.4196V92.2963C238.638 91.8631 236.849 89.9937 236.872 87.4404C236.849 84.5223 239.22 82.4705 242.457 82.4705ZM242.457 84.6135C240.656 84.6363 239.334 85.7078 239.334 87.4404C239.334 89.173 240.656 90.2673 242.457 90.2445C244.235 90.2673 245.557 89.173 245.557 87.4404C245.557 85.7078 244.235 84.6363 242.457 84.6135ZM252.511 81.1938V89.4238H255.497V91.5668H252.511V101.803H249.98V81.1938H252.511ZM259.939 83.2684L263.564 89.3326H263.701L267.371 83.2684H270.745L265.661 91.5212L270.836 99.7739H267.394L263.701 93.7553H263.564L259.871 99.7739H256.451L261.672 91.5212L256.519 83.2684H259.939ZM291.009 97.1294V99.2268H272.178V97.1294H291.009ZM282.893 85.4114C282.893 88.4435 285.97 91.1792 290.256 91.8403L289.253 93.8465C285.765 93.231 282.915 91.373 281.593 88.7854C280.259 91.4072 277.433 93.3222 274.002 93.9605L272.998 91.9087C277.17 91.2704 280.225 88.4435 280.225 85.4114V85.0922H273.751V83.0632H289.39V85.0922H282.893V85.4114Z" fill="#171717"/>
</g>
<path d="M235.441 131.904V144.283H233.202V134.075H233.133L230.244 135.922V133.887L233.304 131.904H235.441ZM243.457 144.454C240.482 144.454 238.704 142.145 238.704 138.093C238.704 134.058 240.482 131.733 243.457 131.733C246.415 131.733 248.21 134.058 248.21 138.093C248.21 142.145 246.432 144.454 243.457 144.454ZM243.457 142.59C245.013 142.59 245.971 141.068 245.971 138.093C245.971 135.135 244.996 133.579 243.457 133.579C241.918 133.579 240.944 135.135 240.944 138.093C240.944 141.068 241.901 142.59 243.457 142.59ZM251.131 137.631C251.695 137.016 252.413 136.691 253.2 136.691C254.568 136.691 255.747 137.649 257.115 137.649C257.902 137.649 258.586 137.324 259.133 136.674V138.538C258.569 139.17 257.851 139.478 257.064 139.478C255.696 139.478 254.499 138.521 253.149 138.521C252.362 138.521 251.678 138.845 251.131 139.495V137.631ZM267.268 131.904V144.283H265.029V134.075H264.96L262.071 135.922V133.887L265.131 131.904H267.268ZM275.113 131.733C277.541 131.75 279.935 133.186 279.952 137.717C279.952 141.992 278.02 144.454 274.976 144.454C272.583 144.454 270.941 142.966 270.668 140.914H272.873C273.096 141.889 273.848 142.522 274.976 142.522C276.772 142.522 277.78 140.931 277.798 138.281H277.661C277.028 139.358 275.848 139.991 274.481 139.991C272.275 139.991 270.565 138.315 270.548 135.973C270.548 133.545 272.36 131.715 275.113 131.733ZM275.13 133.528C273.745 133.528 272.702 134.605 272.719 135.922C272.719 137.255 273.711 138.298 275.096 138.298C276.464 138.298 277.541 137.187 277.524 135.905C277.524 134.639 276.515 133.528 275.13 133.528ZM285.283 137.939C283.522 137.939 282.565 136.64 282.565 134.742C282.565 132.861 283.556 131.562 285.283 131.562C287.079 131.562 288.019 132.861 288.019 134.742C288.019 136.657 287.044 137.939 285.283 137.939ZM285.283 136.571C286.053 136.571 286.429 135.853 286.429 134.742C286.429 133.665 286.087 132.912 285.283 132.929C284.531 132.929 284.138 133.665 284.138 134.742C284.138 135.853 284.531 136.571 285.283 136.571ZM293.371 144.608C291.61 144.625 290.652 143.308 290.652 141.427C290.652 139.529 291.644 138.23 293.371 138.23C295.149 138.23 296.106 139.529 296.106 141.427C296.106 143.325 295.132 144.625 293.371 144.608ZM293.371 143.24C294.157 143.24 294.516 142.522 294.516 141.427C294.516 140.333 294.174 139.581 293.371 139.598C292.618 139.598 292.225 140.35 292.225 141.427C292.225 142.522 292.618 143.24 293.371 143.24ZM284.155 144.283L292.67 131.904H294.397L285.882 144.283H284.155Z" fill="#008660"/>
<defs>
<filter id="filter0_d_3245_45426" x="0.0415735" y="53.3473" width="110.888" height="81.6896" filterUnits="userSpaceOnUse" color-interpolation-filters="sRGB">
<feFlood flood-opacity="0" result="BackgroundImageFix"/>
<feColorMatrix in="SourceAlpha" type="matrix" values="0 0 0 0 0 0 0 0 0 0 0 0 0 0 0 0 0 0 127 0" result="hardAlpha"/>
<feOffset dy="2.9181"/>
<feGaussianBlur stdDeviation="5.83621"/>
<feComposite in2="hardAlpha" operator="out"/>
<feColorMatrix type="matrix" values="0 0 0 0 0 0 0 0 0 0 0 0 0 0 0 0 0 0 0.05 0"/>
<feBlend mode="normal" in2="BackgroundImageFix" result="effect1_dropShadow_3245_45426"/>
<feBlend mode="normal" in="SourceGraphic" in2="effect1_dropShadow_3245_45426" result="shape"/>
</filter>
<filter id="filter1_d_3245_45426" x="104.121" y="53.3473" width="110.888" height="81.6896" filterUnits="userSpaceOnUse" color-interpolation-filters="sRGB">
<feFlood flood-opacity="0" result="BackgroundImageFix"/>
<feColorMatrix in="SourceAlpha" type="matrix" values="0 0 0 0 0 0 0 0 0 0 0 0 0 0 0 0 0 0 127 0" result="hardAlpha"/>
<feOffset dy="2.9181"/>
<feGaussianBlur stdDeviation="5.83621"/>
<feComposite in2="hardAlpha" operator="out"/>
<feColorMatrix type="matrix" values="0 0 0 0 0 0 0 0 0 0 0 0 0 0 0 0 0 0 0.05 0"/>
<feBlend mode="normal" in2="BackgroundImageFix" result="effect1_dropShadow_3245_45426"/>
<feBlend mode="normal" in="SourceGraphic" in2="effect1_dropShadow_3245_45426" result="shape"/>
</filter>
<filter id="filter2_d_3245_45426" x="208.2" y="53.3473" width="110.888" height="81.6896" filterUnits="userSpaceOnUse" color-interpolation-filters="sRGB">
<feFlood flood-opacity="0" result="BackgroundImageFix"/>
<feColorMatrix in="SourceAlpha" type="matrix" values="0 0 0 0 0 0 0 0 0 0 0 0 0 0 0 0 0 0 127 0" result="hardAlpha"/>
<feOffset dy="2.9181"/>
<feGaussianBlur stdDeviation="5.83621"/>
<feComposite in2="hardAlpha" operator="out"/>
<feColorMatrix type="matrix" values="0 0 0 0 0 0 0 0 0 0 0 0 0 0 0 0 0 0 0.05 0"/>
<feBlend mode="normal" in2="BackgroundImageFix" result="effect1_dropShadow_3245_45426"/>
<feBlend mode="normal" in="SourceGraphic" in2="effect1_dropShadow_3245_45426" result="shape"/>
</filter>
</defs>
</svg>
