<svg width="704" height="536" viewBox="0 0 704 536" fill="none" xmlns="http://www.w3.org/2000/svg">
<g filter="url(#filter0_ddd_4947_27007)">
<g clip-path="url(#clip0_4947_27007)">
<path d="M12 16.9452C12 11.4526 16.4526 7 21.9452 7H682.055C687.547 7 692 11.4526 692 16.9452V509.039C692 514.532 687.547 518.984 682.055 518.984H21.9452C16.4526 518.984 12 514.532 12 509.039V16.9452Z" fill="white"/>
<path d="M41.8356 56.7265C41.8356 51.2339 46.2882 46.7812 51.7808 46.7812H179.514C185.006 46.7812 189.459 51.2339 189.459 56.7265V212.452C189.459 217.945 185.006 222.398 179.514 222.398H51.7808C46.2882 222.398 41.8356 217.945 41.8356 212.452V56.7265Z" fill="#F7F7F8"/>
<path d="M69.5927 77.0489V78.2144H58.9223V77.0489H63.5323V75.8058H64.9568V77.0489H69.5927ZM64.9568 71.1439V72.2058H68.5438V73.3454H65.0733C65.2481 74.3036 66.6273 75.1065 69.0618 75.2748L68.6215 76.3755C66.5237 76.2137 64.9762 75.5597 64.2446 74.5497C63.5129 75.5597 61.9525 76.2137 59.8676 76.3755L59.4273 75.2748C61.8489 75.1065 63.228 74.3036 63.4158 73.3454H59.9712V72.2058H63.5323V71.1439H64.9568ZM64.2446 78.8618C66.7956 78.8618 68.2848 79.5611 68.2977 80.8431C68.2848 82.1122 66.7956 82.8114 64.2446 82.8114C61.6806 82.8114 60.1655 82.1122 60.1655 80.8431C60.1655 79.5611 61.6806 78.8618 64.2446 78.8618ZM64.2446 79.9366C62.5223 79.9366 61.6158 80.2345 61.6288 80.8431C61.6158 81.4388 62.5223 81.7366 64.2446 81.7366C65.928 81.7366 66.8474 81.4388 66.8603 80.8431C66.8474 80.2345 65.928 79.9366 64.2446 79.9366ZM79.7797 72.0893C79.7797 73.5655 81.4243 75.0547 83.9235 75.3784L83.3538 76.5439C81.366 76.246 79.7862 75.2684 79.0286 73.941C78.2581 75.2684 76.6848 76.246 74.7165 76.5439L74.1467 75.3784C76.62 75.0547 78.2646 73.5655 78.2646 72.0893V71.4936H79.7797V72.0893ZM84.3509 77.5539V78.7453H79.702V82.8244H78.2776V78.7453H73.6805V77.5539H84.3509ZM94.9673 78.5899V82.8244H93.517V79.7554H86.9775V78.5899H94.9673ZM94.9673 71.118V78.0201H93.517V71.118H94.9673ZM88.5832 71.7914C90.3832 71.7785 91.73 72.9569 91.73 74.6015C91.73 76.2719 90.3832 77.4374 88.5832 77.4374C86.7703 77.4374 85.4236 76.2719 85.4236 74.6015C85.4236 72.9569 86.7703 71.7785 88.5832 71.7914ZM88.5832 73.0087C87.5602 73.0216 86.8221 73.6302 86.8351 74.6015C86.8221 75.5986 87.5602 76.2201 88.5832 76.2072C89.5933 76.2201 90.3185 75.5986 90.3185 74.6015C90.3185 73.6302 89.5933 73.0216 88.5832 73.0087Z" fill="#171717"/>
<line x1="58.4109" y1="96.2028" x2="172.883" y2="96.2028" stroke="#E1E2E4" stroke-width="0.828767"/>
<path d="M64.6894 110.579C64.6894 111.963 66.2312 113.359 68.5742 113.662L68.0401 114.755C66.1766 114.476 64.6955 113.559 63.9853 112.315C63.2629 113.559 61.7879 114.476 59.9426 114.755L59.4084 113.662C61.7272 113.359 63.269 111.963 63.269 110.579V110.02H64.6894V110.579ZM68.9749 115.702V116.819H64.6166V120.643H63.2811V116.819H58.9714V115.702H68.9749ZM78.9763 116.673V120.643H77.6166V117.766H71.4858V116.673H78.9763ZM78.9763 109.668V116.139H77.6166V109.668H78.9763ZM72.9912 110.3C74.6787 110.287 75.9413 111.392 75.9413 112.934C75.9413 114.5 74.6787 115.593 72.9912 115.593C71.2916 115.593 70.029 114.5 70.029 112.934C70.029 111.392 71.2916 110.287 72.9912 110.3ZM72.9912 111.441C72.0321 111.453 71.3401 112.023 71.3523 112.934C71.3401 113.869 72.0321 114.451 72.9912 114.439C73.9381 114.451 74.618 113.869 74.618 112.934C74.618 112.023 73.9381 111.453 72.9912 111.441Z" fill="#878A93"/>
<path d="M64.2691 143.741C61.5804 143.741 59.6218 142.156 59.5684 139.93H62.168C62.2214 140.945 63.1473 141.622 64.2691 141.622C65.6045 141.622 66.5482 140.678 66.5482 139.343C66.5482 137.972 65.5867 137.028 64.2335 137.01C63.272 137.01 62.5954 137.366 62.2036 138.096H59.7821L60.4765 130.671H68.4178V132.861H62.6844L62.3283 136.12H62.4351C62.9159 135.479 63.8774 135.034 65.0169 135.034C67.3851 135.034 69.1478 136.796 69.1478 139.271C69.1478 141.871 67.1714 143.741 64.2691 143.741ZM75.3465 143.741C72.6579 143.741 70.6993 142.156 70.6459 139.93H73.2455C73.2989 140.945 74.2248 141.622 75.3465 141.622C76.6819 141.622 77.6256 140.678 77.6256 139.343C77.6256 137.972 76.6641 137.028 75.3109 137.01C74.3494 137.01 73.6728 137.366 73.2811 138.096H70.8595L71.5539 130.671H79.4952V132.861H73.7618L73.4057 136.12H73.5126C73.9933 135.479 74.9548 135.034 76.0944 135.034C78.4625 135.034 80.2252 136.796 80.2252 139.271C80.2252 141.871 78.2488 143.741 75.3465 143.741ZM84.1627 142.245L82.6314 147.319H80.744L81.6343 142.245H84.1627ZM90.7887 143.741C88.1001 143.741 86.1415 142.156 86.0881 139.93H88.6877C88.7411 140.945 89.667 141.622 90.7887 141.622C92.1241 141.622 93.0678 140.678 93.0678 139.343C93.0678 137.972 92.1063 137.028 90.7531 137.01C89.7916 137.01 89.115 137.366 88.7233 138.096H86.3017L86.9961 130.671H94.9374V132.861H89.204L88.8479 136.12H88.9547C89.4355 135.479 90.397 135.034 91.5365 135.034C93.9047 135.034 95.6674 136.796 95.6674 139.271C95.6674 141.871 93.691 143.741 90.7887 143.741ZM101.902 143.741C99.0707 143.741 97.0409 142.174 96.9874 139.93H99.6939C99.7473 140.892 100.673 141.533 101.92 141.533C103.202 141.533 104.127 140.803 104.11 139.77C104.127 138.719 103.184 137.972 101.67 137.972H100.477V135.995H101.67C102.934 135.995 103.825 135.301 103.825 134.286C103.825 133.307 103.077 132.63 101.937 132.63C100.798 132.63 99.8541 133.271 99.8185 134.25H97.2545C97.2901 132.025 99.3022 130.493 101.937 130.493C104.626 130.493 106.424 132.078 106.407 134.126C106.424 135.568 105.409 136.601 103.967 136.85V136.957C105.855 137.188 106.905 138.345 106.887 139.948C106.905 142.156 104.804 143.741 101.902 143.741ZM113.424 143.741C110.202 143.741 108.243 141.337 108.243 137.117C108.243 132.897 110.202 130.493 113.424 130.493C116.647 130.493 118.606 132.915 118.606 137.117C118.606 141.355 116.647 143.741 113.424 143.741ZM113.424 141.533C114.92 141.533 115.882 140.09 115.864 137.117C115.864 134.179 114.92 132.683 113.424 132.683C111.929 132.683 110.985 134.179 110.985 137.117C110.967 140.09 111.929 141.533 113.424 141.533ZM122.454 142.245L120.923 147.319H119.035L119.926 142.245H122.454ZM128.92 143.741C125.697 143.741 123.739 141.337 123.739 137.117C123.739 132.897 125.697 130.493 128.92 130.493C132.143 130.493 134.101 132.915 134.101 137.117C134.101 141.355 132.143 143.741 128.92 143.741ZM128.92 141.533C130.416 141.533 131.377 140.09 131.359 137.117C131.359 134.179 130.416 132.683 128.92 132.683C127.424 132.683 126.481 134.179 126.481 137.117C126.463 140.09 127.424 141.533 128.92 141.533ZM140.603 143.741C137.38 143.741 135.421 141.337 135.421 137.117C135.421 132.897 137.38 130.493 140.603 130.493C143.826 130.493 145.784 132.915 145.784 137.117C145.784 141.355 143.826 143.741 140.603 143.741ZM140.603 141.533C142.098 141.533 143.06 140.09 143.042 137.117C143.042 134.179 142.098 132.683 140.603 132.683C139.107 132.683 138.163 134.179 138.163 137.117C138.146 140.09 139.107 141.533 140.603 141.533ZM152.286 143.741C149.063 143.741 147.104 141.337 147.104 137.117C147.104 132.897 149.063 130.493 152.286 130.493C155.508 130.493 157.467 132.915 157.467 137.117C157.467 141.355 155.508 143.741 152.286 143.741ZM152.286 141.533C153.781 141.533 154.743 140.09 154.725 137.117C154.725 134.179 153.781 132.683 152.286 132.683C150.79 132.683 149.846 134.179 149.846 137.117C149.828 140.09 150.79 141.533 152.286 141.533Z" fill="#008660"/>
<path d="M171.456 131.762V141.654H170.072V140.401H167.45V139.425H170.072V131.762H171.456ZM171.776 143.402V144.524H162.351V140.693H163.72V143.402H171.776ZM160.544 137.721C162.963 137.706 166.211 137.677 168.994 137.327L169.081 138.318C167.967 138.5 166.794 138.624 165.643 138.697V141.246H164.259V138.77C162.992 138.828 161.775 138.835 160.719 138.828L160.544 137.721ZM164.813 132.258C166.721 132.258 168.047 133.175 168.047 134.559C168.047 135.943 166.721 136.832 164.813 136.832C162.875 136.832 161.564 135.943 161.564 134.559C161.564 133.175 162.875 132.258 164.813 132.258ZM164.813 133.292C163.647 133.277 162.861 133.773 162.875 134.559C162.861 135.331 163.647 135.812 164.813 135.812C165.935 135.812 166.721 135.331 166.736 134.559C166.721 133.773 165.935 133.277 164.813 133.292Z" fill="#008660"/>
<path d="M68.1615 162.625V170.674H66.8139V166.983H64.7015V165.866H66.8139V162.625H68.1615ZM64.7744 163.45C64.7744 166.34 62.8562 168.513 59.6877 169.52L59.1171 168.44C61.4844 167.687 63.0444 166.291 63.3054 164.555H59.6877V163.45H64.7744ZM68.4407 172.276V173.369H61.0109V169.86H62.3828V172.276H68.4407ZM75.5528 163.523C75.5528 164.907 77.0946 166.303 79.4376 166.607L78.9035 167.699C77.0399 167.42 75.5588 166.504 74.8486 165.259C74.1263 166.504 72.6513 167.42 70.806 167.699L70.2718 166.607C72.5906 166.303 74.1324 164.907 74.1324 163.523V162.965H75.5528V163.523ZM79.8382 168.646V169.763H75.4799V173.587H74.1445V169.763H69.8348V168.646H79.8382Z" fill="#878A93"/>
<path d="M64.4492 196.685C61.6181 196.685 59.5883 195.118 59.5349 192.875H62.2413C62.2947 193.836 63.2206 194.477 64.467 194.477C65.749 194.477 66.6749 193.747 66.6571 192.714C66.6749 191.664 65.7312 190.916 64.2177 190.916H63.0247V188.939H64.2177C65.4819 188.939 66.3722 188.245 66.3722 187.23C66.3722 186.251 65.6243 185.574 64.4848 185.574C63.3452 185.574 62.4015 186.215 62.3659 187.195H59.8019C59.8375 184.969 61.8496 183.438 64.4848 183.438C67.1734 183.438 68.9718 185.022 68.954 187.07C68.9718 188.512 67.9569 189.545 66.5146 189.794V189.901C68.402 190.132 69.4525 191.29 69.4347 192.892C69.4525 195.1 67.3515 196.685 64.4492 196.685ZM75.7047 196.685C73.016 196.685 71.0574 195.1 71.004 192.875H73.6036C73.657 193.889 74.5829 194.566 75.7047 194.566C77.0401 194.566 77.9838 193.622 77.9838 192.287C77.9838 190.916 77.0223 189.972 75.6691 189.954C74.7076 189.954 74.031 190.311 73.6392 191.041H71.2177L71.9121 183.616H79.8534V185.806H74.12L73.7639 189.064H73.8707C74.3515 188.423 75.313 187.978 76.4525 187.978C78.8206 187.978 80.5834 189.741 80.5834 192.216C80.5834 194.815 78.607 196.685 75.7047 196.685ZM82.0458 196.507L82.028 194.566L86.6575 190.311C87.8683 189.153 88.5093 188.441 88.5093 187.426C88.5093 186.286 87.6368 185.574 86.4616 185.574C85.2508 185.574 84.4674 186.34 84.4674 187.568H81.9212C81.9034 185.04 83.773 183.438 86.4972 183.438C89.2571 183.438 91.0911 185.004 91.0911 187.248C91.0911 188.708 90.3788 189.919 87.7258 192.323L85.7672 194.228V194.299H91.2691V196.507H82.0458Z" fill="#008660"/>
<path d="M105.485 184.707V194.322H104.101V189.791H101.392V188.64H104.101V184.707H105.485ZM101.479 185.683C101.464 189.092 99.1189 191.656 95.3749 192.865L94.7922 191.758C97.6986 190.818 99.6725 189.041 99.9639 186.834H95.4623V185.683H101.479ZM105.82 196.347V197.468H97.0794V193.331H98.4779V196.347H105.82Z" fill="#008660"/>
<path d="M199.404 56.7265C199.404 51.2339 203.857 46.7812 209.349 46.7812H337.082C342.575 46.7812 347.027 51.2339 347.027 56.7265V212.452C347.027 217.945 342.575 222.398 337.082 222.398H209.349C203.857 222.398 199.404 217.945 199.404 212.452V56.7265Z" fill="#F7F7F8"/>
<path d="M220.564 81.8014C218.48 81.8014 217.003 80.6877 217.003 79.1597C217.003 77.9683 217.884 76.9971 219.01 76.8158V76.764C218.026 76.5568 217.353 75.7022 217.353 74.6792C217.353 73.2288 218.713 72.167 220.564 72.167C222.403 72.167 223.763 73.2288 223.763 74.6792C223.763 75.7022 223.077 76.5568 222.105 76.764V76.8158C223.232 76.9971 224.126 77.9683 224.126 79.1597C224.126 80.6877 222.636 81.8014 220.564 81.8014ZM220.564 80.4676C221.665 80.4676 222.39 79.8719 222.39 79.0043C222.39 78.1237 221.613 77.4762 220.564 77.4762C219.503 77.4762 218.726 78.1237 218.739 79.0043C218.726 79.8719 219.451 80.4676 220.564 80.4676ZM220.564 76.2201C221.471 76.2201 222.118 75.6504 222.118 74.8345C222.118 74.0446 221.484 73.4878 220.564 73.4878C219.632 73.4878 218.998 74.0317 218.998 74.8345C218.998 75.6504 219.645 76.2201 220.564 76.2201ZM235.027 71.131V77.9554H233.577V77.4762H231.388V76.5957H233.577V71.131H235.027ZM225.198 75.3525C227.464 75.3525 230.287 75.3266 232.8 75.0806L232.877 75.9871C231.809 76.136 230.708 76.2266 229.627 76.2719V77.9683H228.202V76.3367C227.199 76.3626 226.234 76.3691 225.354 76.3626L225.198 75.3525ZM235.027 78.318V80.9467H228.371V81.6978H235.338V82.7208H226.959V80.0014H233.602V79.3021H226.908V78.318H235.027ZM228.979 71.3123C230.715 71.3123 231.906 72.0116 231.906 73.0734C231.906 74.1612 230.715 74.8216 228.979 74.8216C227.205 74.8216 226.027 74.1612 226.027 73.0734C226.027 72.0116 227.205 71.3123 228.979 71.3123ZM228.979 72.2705C227.995 72.2705 227.387 72.5813 227.4 73.0734C227.387 73.5655 227.995 73.8633 228.979 73.8633C229.938 73.8633 230.559 73.5655 230.559 73.0734C230.559 72.5813 229.938 72.2705 228.979 72.2705ZM246.069 72.0893C246.069 73.5655 247.713 75.0547 250.212 75.3784L249.643 76.5439C247.655 76.246 246.075 75.2684 245.317 73.941C244.547 75.2684 242.974 76.246 241.005 76.5439L240.436 75.3784C242.909 75.0547 244.553 73.5655 244.553 72.0893V71.4936H246.069V72.0893ZM250.64 77.5539V78.7453H245.991V82.8244H244.566V78.7453H239.969V77.5539H250.64ZM261.256 78.5899V82.8244H259.806V79.7554H253.266V78.5899H261.256ZM261.256 71.118V78.0201H259.806V71.118H261.256ZM254.872 71.7914C256.672 71.7785 258.019 72.9569 258.019 74.6015C258.019 76.2719 256.672 77.4374 254.872 77.4374C253.059 77.4374 251.712 76.2719 251.712 74.6015C251.712 72.9569 253.059 71.7785 254.872 71.7914ZM254.872 73.0087C253.849 73.0216 253.111 73.6302 253.124 74.6015C253.111 75.5986 253.849 76.2201 254.872 76.2072C255.882 76.2201 256.607 75.5986 256.607 74.6015C256.607 73.6302 255.882 73.0216 254.872 73.0087Z" fill="#171717"/>
<line x1="215.979" y1="96.2028" x2="330.452" y2="96.2028" stroke="#E1E2E4" stroke-width="0.828767"/>
<path d="M222.258 110.579C222.258 111.963 223.8 113.359 226.143 113.662L225.609 114.755C223.745 114.476 222.264 113.559 221.554 112.315C220.831 113.559 219.356 114.476 217.511 114.755L216.977 113.662C219.296 113.359 220.837 111.963 220.837 110.579V110.02H222.258V110.579ZM226.543 115.702V116.819H222.185V120.643H220.85V116.819H216.54V115.702H226.543ZM236.545 116.673V120.643H235.185V117.766H229.054V116.673H236.545ZM236.545 109.668V116.139H235.185V109.668H236.545ZM230.56 110.3C232.247 110.287 233.51 111.392 233.51 112.934C233.51 114.5 232.247 115.593 230.56 115.593C228.86 115.593 227.597 114.5 227.597 112.934C227.597 111.392 228.86 110.287 230.56 110.3ZM230.56 111.441C229.601 111.453 228.909 112.023 228.921 112.934C228.909 113.869 229.601 114.451 230.56 114.439C231.507 114.451 232.186 113.869 232.186 112.934C232.186 112.023 231.507 111.453 230.56 111.441Z" fill="#878A93"/>
<path d="M221.909 143.741C218.971 143.741 216.852 142.191 216.852 140.09C216.852 138.47 218.099 137.153 219.701 136.903V136.814C218.312 136.547 217.351 135.372 217.351 133.965C217.351 131.953 219.274 130.493 221.909 130.493C224.544 130.493 226.467 131.953 226.485 133.965C226.467 135.39 225.488 136.547 224.135 136.814V136.903C225.702 137.153 226.966 138.47 226.966 140.09C226.966 142.191 224.847 143.741 221.909 143.741ZM221.909 141.693C223.262 141.693 224.17 140.927 224.17 139.823C224.17 138.702 223.227 137.883 221.909 137.883C220.591 137.883 219.63 138.702 219.648 139.823C219.63 140.927 220.538 141.693 221.909 141.693ZM221.909 135.995C223.049 135.995 223.868 135.265 223.868 134.232C223.868 133.235 223.066 132.523 221.909 132.523C220.752 132.523 219.968 133.217 219.968 134.232C219.968 135.265 220.769 135.995 221.909 135.995ZM230.957 142.245L229.425 147.319H227.538L228.428 142.245H230.957ZM237.583 143.741C234.894 143.741 232.935 142.156 232.882 139.93H235.482C235.535 140.945 236.461 141.622 237.583 141.622C238.918 141.622 239.862 140.678 239.862 139.343C239.862 137.972 238.9 137.028 237.547 137.01C236.586 137.01 235.909 137.366 235.517 138.096H233.096L233.79 130.671H241.731V132.861H235.998L235.642 136.12H235.749C236.229 135.479 237.191 135.034 238.331 135.034C240.699 135.034 242.461 136.796 242.461 139.271C242.461 141.871 240.485 143.741 237.583 143.741ZM244.422 143.562L249.853 132.95V132.861H243.532V130.671H252.631V132.897L247.2 143.562H244.422ZM258.616 143.741C255.927 143.741 253.969 142.156 253.915 139.93H256.515C256.568 140.945 257.494 141.622 258.616 141.622C259.951 141.622 260.895 140.678 260.895 139.343C260.895 137.972 259.933 137.028 258.58 137.01C257.619 137.01 256.942 137.366 256.55 138.096H254.129L254.823 130.671H262.764V132.861H257.031L256.675 136.12H256.782C257.263 135.479 258.224 135.034 259.364 135.034C261.732 135.034 263.495 136.796 263.495 139.271C263.495 141.871 261.518 143.741 258.616 143.741ZM267.432 142.245L265.901 147.319H264.013L264.904 142.245H267.432ZM269.429 143.562L269.411 141.622L274.04 137.366C275.251 136.209 275.892 135.497 275.892 134.482C275.892 133.342 275.019 132.63 273.844 132.63C272.634 132.63 271.85 133.396 271.85 134.624H269.304C269.286 132.096 271.156 130.493 273.88 130.493C276.64 130.493 278.474 132.06 278.474 134.304C278.474 135.764 277.762 136.974 275.109 139.378L273.15 141.283V141.355H278.652V143.562H269.429ZM285.207 143.741C281.984 143.741 280.025 141.337 280.025 137.117C280.025 132.897 281.984 130.493 285.207 130.493C288.429 130.493 290.388 132.915 290.388 137.117C290.388 141.355 288.429 143.741 285.207 143.741ZM285.207 141.533C286.702 141.533 287.664 140.09 287.646 137.117C287.646 134.179 286.702 132.683 285.207 132.683C283.711 132.683 282.767 134.179 282.767 137.117C282.749 140.09 283.711 141.533 285.207 141.533ZM296.889 143.741C293.667 143.741 291.708 141.337 291.708 137.117C291.708 132.897 293.667 130.493 296.889 130.493C300.112 130.493 302.071 132.915 302.071 137.117C302.071 141.355 300.112 143.741 296.889 143.741ZM296.889 141.533C298.385 141.533 299.347 140.09 299.329 137.117C299.329 134.179 298.385 132.683 296.889 132.683C295.394 132.683 294.45 134.179 294.45 137.117C294.432 140.09 295.394 141.533 296.889 141.533Z" fill="#008660"/>
<path d="M316.025 131.762V141.654H314.641V140.401H312.018V139.425H314.641V131.762H316.025ZM316.345 143.402V144.524H306.919V140.693H308.289V143.402H316.345ZM305.113 137.721C307.531 137.706 310.78 137.677 313.563 137.327L313.65 138.318C312.536 138.5 311.363 138.624 310.212 138.697V141.246H308.828V138.77C307.56 138.828 306.344 138.835 305.288 138.828L305.113 137.721ZM309.381 132.258C311.29 132.258 312.616 133.175 312.616 134.559C312.616 135.943 311.29 136.832 309.381 136.832C307.444 136.832 306.133 135.943 306.133 134.559C306.133 133.175 307.444 132.258 309.381 132.258ZM309.381 133.292C308.216 133.277 307.429 133.773 307.444 134.559C307.429 135.331 308.216 135.812 309.381 135.812C310.503 135.812 311.29 135.331 311.304 134.559C311.29 133.773 310.503 133.277 309.381 133.292Z" fill="#008660"/>
<path d="M225.73 162.625V170.674H224.382V166.983H222.27V165.866H224.382V162.625H225.73ZM222.343 163.45C222.343 166.34 220.425 168.513 217.256 169.52L216.686 168.44C219.053 167.687 220.613 166.291 220.874 164.555H217.256V163.45H222.343ZM226.009 172.276V173.369H218.579V169.86H219.951V172.276H226.009ZM233.121 163.523C233.121 164.907 234.663 166.303 237.006 166.607L236.472 167.699C234.608 167.42 233.127 166.504 232.417 165.259C231.695 166.504 230.22 167.42 228.374 167.699L227.84 166.607C230.159 166.303 231.701 164.907 231.701 163.523V162.965H233.121V163.523ZM237.407 168.646V169.763H233.048V173.587H231.713V169.763H227.403V168.646H237.407Z" fill="#878A93"/>
<path d="M217.25 194.228V192.109L222.699 183.616H226.064V192.073H227.702V194.228H226.064V196.507H223.518V194.228H217.25ZM219.957 192.073H223.553V186.554H223.429L219.957 191.966V192.073ZM233.83 196.685C231.141 196.685 229.182 195.1 229.129 192.875H231.729C231.782 193.889 232.708 194.566 233.83 194.566C235.165 194.566 236.109 193.622 236.109 192.287C236.109 190.916 235.147 189.972 233.794 189.954C232.833 189.954 232.156 190.311 231.764 191.041H229.343L230.037 183.616H237.978V185.806H232.245L231.889 189.064H231.996C232.476 188.423 233.438 187.978 234.578 187.978C236.946 187.978 238.708 189.741 238.708 192.216C238.708 194.815 236.732 196.685 233.83 196.685Z" fill="#008660"/>
<path d="M253.054 184.707V194.322H251.67V189.791H248.96V188.64H251.67V184.707H253.054ZM249.047 185.683C249.033 189.092 246.687 191.656 242.943 192.865L242.361 191.758C245.267 190.818 247.241 189.041 247.532 186.834H243.031V185.683H249.047ZM253.389 196.347V197.468H244.648V193.331H246.046V196.347H253.389Z" fill="#008660"/>
<path d="M356.973 56.7265C356.973 51.2339 361.425 46.7812 366.918 46.7812H494.651C500.143 46.7812 504.596 51.2339 504.596 56.7265V212.452C504.596 217.945 500.143 222.398 494.651 222.398H366.918C361.425 222.398 356.973 217.945 356.973 212.452V56.7265Z" fill="#F7F7F8"/>
<path d="M384.867 80.2345V81.4129H374.17V80.2345H378.793V77.541H380.231V80.2345H384.867ZM383.947 72.0634V73.2418H380.257C380.302 74.9252 382.037 76.4727 384.439 76.8288L383.869 77.9683C381.888 77.6057 380.27 76.5633 379.518 75.1065C378.761 76.5827 377.155 77.664 375.206 78.0331L374.636 76.8935C376.974 76.4986 378.696 74.9252 378.741 73.2418H375.064V72.0634H383.947ZM395.457 71.118V82.8244H394.02V71.118H395.457ZM385.758 79.5741C386.69 79.5676 387.746 79.5676 388.853 79.5352V78.4604C387.532 78.2532 386.677 77.4439 386.677 76.3367C386.677 75.0158 387.843 74.1353 389.552 74.1353C391.274 74.1353 392.466 75.0158 392.466 76.3367C392.466 77.4374 391.605 78.2403 390.29 78.4475V79.4834C391.32 79.4381 392.356 79.3539 393.333 79.2244L393.437 80.2992C390.86 80.7395 388.076 80.7654 385.965 80.7654L385.758 79.5741ZM393.126 72.4648V73.6043H386.004V72.4648H388.853V71.1569H390.29V72.4648H393.126ZM389.552 75.236C388.672 75.2489 388.037 75.6504 388.05 76.3367C388.037 77.0101 388.672 77.4115 389.552 77.3985C390.472 77.4115 391.08 77.0101 391.08 76.3367C391.08 75.6504 390.472 75.2489 389.552 75.236ZM403.341 72.0893C403.341 73.5655 404.986 75.0547 407.485 75.3784L406.915 76.5439C404.928 76.246 403.348 75.2684 402.59 73.941C401.82 75.2684 400.246 76.246 398.278 76.5439L397.708 75.3784C400.182 75.0547 401.826 73.5655 401.826 72.0893V71.4936H403.341V72.0893ZM407.912 77.5539V78.7453H403.264V82.8244H401.839V78.7453H397.242V77.5539H407.912Z" fill="#171717"/>
<path fill-rule="evenodd" clip-rule="evenodd" d="M477.817 71.8667C477.605 72.0856 477.61 72.4354 477.828 72.648L481.852 76.5567L477.817 80.7068C477.605 80.9256 477.61 81.2754 477.828 81.4881C478.047 81.7008 478.397 81.6958 478.61 81.4771L483.03 76.9307C483.132 76.8256 483.188 76.6842 483.186 76.5376C483.184 76.3911 483.124 76.2514 483.019 76.1492L478.598 71.8554C478.38 71.6428 478.03 71.6479 477.817 71.8667Z" fill="#C2C4C8"/>
<line x1="373.548" y1="96.2028" x2="488.02" y2="96.2028" stroke="#E1E2E4" stroke-width="0.828767"/>
<path d="M379.693 110.737V117.924H374.497V110.737H379.693ZM375.82 111.793V116.843H378.345V111.793H375.82ZM382.704 109.668V113.881H384.391V115.022H382.704V120.643H381.356V109.668H382.704ZM394.405 109.68V117.049H393.118V109.68H394.405ZM392.171 109.863V116.066H390.884V113.857H389.099C388.45 115.077 387.333 116.06 385.603 116.807L384.96 115.835C386.368 115.241 387.29 114.5 387.849 113.614L385.215 113.905L385.032 112.8L388.31 112.63C388.401 112.309 388.468 111.975 388.505 111.623H385.518V110.53H389.828C389.828 111.331 389.737 112.078 389.536 112.764H390.884V109.863H392.171ZM391.285 116.697C391.285 117.996 392.717 119.235 394.939 119.538L394.417 120.582C392.675 120.315 391.315 119.508 390.629 118.385C389.943 119.508 388.571 120.315 386.841 120.582L386.295 119.538C388.529 119.235 389.949 117.996 389.961 116.697V116.418H391.285V116.697Z" fill="#878A93"/>
<path d="M374.986 143.562L374.969 141.622L379.598 137.366C380.809 136.209 381.45 135.497 381.45 134.482C381.45 133.342 380.577 132.63 379.402 132.63C378.191 132.63 377.408 133.396 377.408 134.624H374.862C374.844 132.096 376.713 130.493 379.438 130.493C382.198 130.493 384.032 132.06 384.032 134.304C384.032 135.764 383.319 136.974 380.666 139.378L378.708 141.283V141.355H384.21V143.562H374.986ZM388.646 142.245L387.114 147.319H385.227L386.117 142.245H388.646ZM390.642 143.562L390.624 141.622L395.254 137.366C396.465 136.209 397.106 135.497 397.106 134.482C397.106 133.342 396.233 132.63 395.058 132.63C393.847 132.63 393.064 133.396 393.064 134.624H390.518C390.5 132.096 392.369 130.493 395.094 130.493C397.853 130.493 399.687 132.06 399.687 134.304C399.687 135.764 398.975 136.974 396.322 139.378L394.364 141.283V141.355H399.865V143.562H390.642ZM406.153 143.741C403.465 143.741 401.506 142.156 401.453 139.93H404.052C404.106 140.945 405.031 141.622 406.153 141.622C407.489 141.622 408.432 140.678 408.432 139.343C408.432 137.972 407.471 137.028 406.118 137.01C405.156 137.01 404.479 137.366 404.088 138.096H401.666L402.361 130.671H410.302V132.861H404.569L404.212 136.12H404.319C404.8 135.479 405.761 135.034 406.901 135.034C409.269 135.034 411.032 136.796 411.032 139.271C411.032 141.871 409.056 143.741 406.153 143.741ZM417.266 143.741C414.435 143.741 412.405 142.174 412.352 139.93H415.058C415.112 140.892 416.038 141.533 417.284 141.533C418.566 141.533 419.492 140.803 419.474 139.77C419.492 138.719 418.548 137.972 417.035 137.972H415.842V135.995H417.035C418.299 135.995 419.189 135.301 419.189 134.286C419.189 133.307 418.441 132.63 417.302 132.63C416.162 132.63 415.219 133.271 415.183 134.25H412.619C412.655 132.025 414.667 130.493 417.302 130.493C419.991 130.493 421.789 132.078 421.771 134.126C421.789 135.568 420.774 136.601 419.332 136.85V136.957C421.219 137.188 422.27 138.345 422.252 139.948C422.27 142.156 420.169 143.741 417.266 143.741Z" fill="#008660"/>
<path d="M436.535 131.748V144.801H435.151V131.748H436.535ZM425.812 141.246C426.883 141.239 428.114 141.232 429.396 141.188V139.891C427.867 139.695 426.876 138.799 426.891 137.517C426.876 136.045 428.158 135.069 430.052 135.069C431.96 135.069 433.271 136.045 433.271 137.517C433.271 138.784 432.281 139.673 430.766 139.877V141.144C431.975 141.093 433.199 140.999 434.349 140.853L434.451 141.887C431.552 142.368 428.391 142.397 426.002 142.397L425.812 141.246ZM434.058 133.307V134.414H426.089V133.307H429.396V131.777H430.78V133.307H434.058ZM430.052 136.147C428.959 136.147 428.187 136.686 428.202 137.517C428.187 138.347 428.959 138.857 430.052 138.857C431.174 138.857 431.946 138.347 431.946 137.517C431.946 136.686 431.174 136.147 430.052 136.147Z" fill="#008660"/>
<path d="M383.003 163.074V164.069C382.99 165.138 382.99 166.218 382.687 167.699L381.351 167.59C381.467 167.056 381.54 166.57 381.582 166.109L375.221 166.388L375.051 165.271L381.643 165.113C381.655 164.786 381.655 164.47 381.655 164.154H375.342V163.074H383.003ZM384.156 168.306V169.387H374.201V168.306H378.037V166.862H379.385V168.306H384.156ZM383.209 172.325V173.417H375.391V170.152H376.738V172.325H383.209ZM394.424 162.625V170.819H393.138V162.625H394.424ZM392.263 162.831V170.552H390.977V166.728H389.738V165.648H390.977V162.831H392.263ZM394.728 172.276V173.369H387.14V169.921H388.5V172.276H394.728ZM389.678 163.475V164.567H386.8V165.793H389.265V166.825H386.8V168.088C388.118 168.082 389.022 168.045 390.09 167.845L390.236 168.913C388.973 169.144 387.929 169.193 386.23 169.193H385.501V163.475H389.678ZM405.931 171.159V172.264H395.903V171.159H405.931ZM405.033 164.227V165.32H401.609C401.688 166.795 403.109 168.149 405.482 168.501L404.96 169.581C403.072 169.265 401.627 168.361 400.905 167.092C400.177 168.361 398.738 169.265 396.85 169.581L396.34 168.501C398.702 168.149 400.122 166.795 400.225 165.32H396.79V164.227H400.237V162.819H401.573V164.227H405.033Z" fill="#878A93"/>
<path d="M375.446 196.507L380.877 185.895V185.806H374.556V183.616H383.655V185.841L378.224 196.507H375.446ZM385.74 195.189L384.209 200.264H382.322L383.212 195.189H385.74ZM387.523 194.228V192.109L392.972 183.616H396.337V192.073H397.975V194.228H396.337V196.507H393.791V194.228H387.523ZM390.23 192.073H393.826V186.554H393.702L390.23 191.966V192.073ZM399.366 196.507L399.349 194.566L403.978 190.311C405.189 189.153 405.83 188.441 405.83 187.426C405.83 186.286 404.957 185.574 403.782 185.574C402.571 185.574 401.788 186.34 401.788 187.568H399.242C399.224 185.04 401.094 183.438 403.818 183.438C406.578 183.438 408.412 185.004 408.412 187.248C408.412 188.708 407.699 189.919 405.046 192.323L403.088 194.228V194.299H408.59V196.507H399.366ZM415.145 196.685C411.922 196.685 409.963 194.281 409.963 190.061C409.963 185.841 411.922 183.438 415.145 183.438C418.367 183.438 420.326 185.859 420.326 190.061C420.326 194.299 418.367 196.685 415.145 196.685ZM415.145 194.477C416.64 194.477 417.602 193.035 417.584 190.061C417.584 187.123 416.64 185.628 415.145 185.628C413.649 185.628 412.705 187.123 412.705 190.061C412.687 193.035 413.649 194.477 415.145 194.477Z" fill="#008660"/>
<path d="M434.535 184.692V197.745H433.151V184.692H434.535ZM423.812 194.19C424.883 194.183 426.114 194.176 427.396 194.132V192.836C425.867 192.639 424.876 191.743 424.891 190.461C424.876 188.99 426.158 188.014 428.052 188.014C429.96 188.014 431.271 188.99 431.271 190.461C431.271 191.728 430.281 192.617 428.766 192.821V194.089C429.975 194.038 431.199 193.943 432.349 193.797L432.451 194.831C429.552 195.312 426.391 195.341 424.002 195.341L423.812 194.19ZM432.058 186.251V187.358H424.089V186.251H427.396V184.721H428.78V186.251H432.058ZM428.052 189.092C426.959 189.092 426.187 189.631 426.202 190.461C426.187 191.291 426.959 191.801 428.052 191.801C429.174 191.801 429.946 191.291 429.946 190.461C429.946 189.631 429.174 189.092 428.052 189.092Z" fill="#008660"/>
<path d="M514.541 56.7265C514.541 51.2339 518.994 46.7812 524.486 46.7812H652.219C657.712 46.7812 662.164 51.2339 662.164 56.7265V212.452C662.164 217.945 657.712 222.398 652.219 222.398H524.486C518.994 222.398 514.541 217.945 514.541 212.452V56.7265Z" fill="#F7F7F8"/>
<path d="M541.296 72.1929V73.3195C541.283 74.7698 541.283 76.4014 540.829 78.8489L539.379 78.6935C539.832 76.4144 539.832 74.7504 539.845 73.3454H532.853V72.1929H541.296ZM542.409 80.1309V81.3093H531.739V80.1309H535.676V76.0647H537.1V80.1309H542.409ZM553.285 71.131V77.9942H551.912V75.0806H550.682V77.9424H549.322V71.3511H550.682V73.9022H551.912V71.131H553.285ZM553.285 78.4734V82.8244H551.847V79.6388H545.217V78.4734H553.285ZM548.377 71.9468C548.39 74.8475 546.914 76.8676 543.896 78.0978L543.21 77.023C545.489 76.1554 546.681 74.8281 546.914 73.1123H543.741V71.9468H548.377ZM560.91 72.0893C560.91 73.5655 562.554 75.0547 565.054 75.3784L564.484 76.5439C562.496 76.246 560.916 75.2684 560.159 73.941C559.388 75.2684 557.815 76.246 555.847 76.5439L555.277 75.3784C557.75 75.0547 559.395 73.5655 559.395 72.0893V71.4936H560.91V72.0893ZM565.481 77.5539V78.7453H560.832V82.8244H559.408V78.7453H554.811V77.5539H565.481Z" fill="#171717"/>
<path fill-rule="evenodd" clip-rule="evenodd" d="M635.386 71.8667C635.173 72.0856 635.178 72.4354 635.397 72.648L639.421 76.5567L635.386 80.7068C635.173 80.9256 635.178 81.2754 635.397 81.4881C635.616 81.7008 635.965 81.6958 636.178 81.4771L640.598 76.9307C640.7 76.8256 640.757 76.6842 640.755 76.5376C640.752 76.3911 640.692 76.2514 640.587 76.1492L636.167 71.8554C635.948 71.6428 635.598 71.6479 635.386 71.8667Z" fill="#C2C4C8"/>
<line x1="531.116" y1="96.2028" x2="645.589" y2="96.2028" stroke="#E1E2E4" stroke-width="0.828767"/>
<path d="M540.867 109.68V117.693H539.519V113.675H537.577V112.582H539.519V109.68H540.867ZM541.146 119.332V120.424H533.668V116.989H535.016V119.332H541.146ZM535.707 111.866C535.707 113.189 536.594 114.549 538.293 115.107L537.613 116.188C536.387 115.769 535.519 114.937 535.04 113.893C534.554 115.052 533.638 115.969 532.345 116.418L531.653 115.326C533.401 114.755 534.336 113.31 534.336 111.854V111.562H532.053V110.47H537.978V111.562H535.707V111.866ZM545.891 113.019C545.891 114.719 546.595 116.43 548.125 117.256L547.372 118.251C546.352 117.711 545.66 116.746 545.272 115.593C544.883 116.837 544.191 117.899 543.159 118.506L542.37 117.487C543.924 116.588 544.616 114.755 544.616 113.019V112.679H542.747V111.586H544.616V110.057H545.891V111.586H547.724V112.679H545.891V113.019ZM551.985 109.668V120.643H550.699V109.668H551.985ZM549.752 109.875V120.109H548.477V114.998H547.044V113.881H548.477V109.875H549.752Z" fill="#878A93"/>
<path d="M532.583 143.562L532.565 141.622L537.195 137.366C538.406 136.209 539.047 135.497 539.047 134.482C539.047 133.342 538.174 132.63 536.999 132.63C535.788 132.63 535.005 133.396 535.005 134.624H532.459C532.441 132.096 534.31 130.493 537.035 130.493C539.795 130.493 541.629 132.06 541.629 134.304C541.629 135.764 540.916 136.974 538.263 139.378L536.305 141.283V141.355H541.807V143.562H532.583ZM548.913 130.671V143.562H546.225V133.217H546.154L543.198 135.069V132.701L546.385 130.671H548.913ZM551.551 143.562L551.533 141.622L556.163 137.366C557.373 136.209 558.014 135.497 558.014 134.482C558.014 133.342 557.142 132.63 555.967 132.63C554.756 132.63 553.973 133.396 553.973 134.624H551.426C551.409 132.096 553.278 130.493 556.002 130.493C558.762 130.493 560.596 132.06 560.596 134.304C560.596 135.764 559.884 136.974 557.231 139.378L555.272 141.283V141.355H560.774V143.562H551.551Z" fill="#008660"/>
<path d="M575.191 131.748V139.454H573.807V137.517H570.966V138.58H564.906V132.724H570.966V133.802H573.807V131.748H575.191ZM566.275 133.831V137.473H569.611V133.831H566.275ZM570.82 139.818C573.559 139.818 575.234 140.722 575.234 142.31C575.234 143.883 573.559 144.786 570.82 144.772C568.081 144.786 566.392 143.883 566.406 142.31C566.392 140.722 568.081 139.818 570.82 139.818ZM570.82 140.882C568.912 140.897 567.775 141.392 567.775 142.31C567.775 143.184 568.912 143.708 570.82 143.708C572.729 143.708 573.865 143.184 573.865 142.31C573.865 141.392 572.729 140.897 570.82 140.882ZM570.966 136.395H573.807V134.909H570.966V136.395Z" fill="#008660"/>
<path d="M540.818 162.625V170.637H539.459V162.625H540.818ZM541.122 172.276V173.369H533.559V169.872H534.918V172.276H541.122ZM535.768 164.3C535.768 165.83 536.667 167.274 538.403 167.857L537.711 168.925C536.46 168.488 535.568 167.614 535.088 166.497C534.591 167.693 533.686 168.652 532.393 169.12L531.689 168.051C533.474 167.42 534.372 165.878 534.372 164.3V163.232H535.768V164.3ZM551.221 163.256V164.021C551.208 164.962 551.208 166.218 550.917 168.003H552.544V169.095H550.067V173.575H548.732V169.095H546.279V173.575H544.92V169.095H542.54V168.003H549.557C549.855 166.431 549.891 165.259 549.897 164.361H543.766V163.256H551.221Z" fill="#878A93"/>
<path d="M537.266 196.685C534.435 196.685 532.405 195.118 532.352 192.875H535.058C535.112 193.836 536.038 194.477 537.284 194.477C538.566 194.477 539.492 193.747 539.474 192.714C539.492 191.664 538.548 190.916 537.035 190.916H535.842V188.939H537.035C538.299 188.939 539.189 188.245 539.189 187.23C539.189 186.251 538.441 185.574 537.302 185.574C536.162 185.574 535.218 186.215 535.183 187.195H532.619C532.655 184.969 534.667 183.438 537.302 183.438C539.99 183.438 541.789 185.022 541.771 187.07C541.789 188.512 540.774 189.545 539.332 189.794V189.901C541.219 190.132 542.269 191.29 542.252 192.892C542.269 195.1 540.168 196.685 537.266 196.685ZM543.572 194.228V192.109L549.02 183.616H552.385V192.073H554.024V194.228H552.385V196.507H549.839V194.228H543.572ZM546.278 192.073H549.875V186.554H549.75L546.278 191.966V192.073Z" fill="#008660"/>
<path d="M568.191 184.692V192.399H566.807V190.461H563.966V191.525H557.906V185.668H563.966V186.746H566.807V184.692H568.191ZM559.275 186.775V190.417H562.611V186.775H559.275ZM563.82 192.763C566.559 192.763 568.234 193.666 568.234 195.254C568.234 196.827 566.559 197.731 563.82 197.716C561.081 197.731 559.392 196.827 559.406 195.254C559.392 193.666 561.081 192.763 563.82 192.763ZM563.82 193.826C561.912 193.841 560.775 194.336 560.775 195.254C560.775 196.128 561.912 196.653 563.82 196.653C565.729 196.653 566.865 196.128 566.865 195.254C566.865 194.336 565.729 193.841 563.82 193.826ZM563.966 189.339H566.807V187.853H563.966V189.339Z" fill="#008660"/>
<g clip-path="url(#clip1_4947_27007)">
<path d="M41.8356 271.816C41.8356 266.493 46.151 262.178 51.4742 262.178H652.526C657.849 262.178 662.164 266.493 662.164 271.816V469.564C662.164 474.888 657.849 479.203 652.526 479.203H51.4743C46.151 479.203 41.8356 474.888 41.8356 469.564V271.816Z" fill="white"/>
<path d="M53.9639 273.773V275.227H51.2107V279.477H49.3752V275.227H46.749V279.477H44.8994V275.227H42.2027V273.773H53.9639ZM48.048 267.052C50.8012 267.052 52.7356 268.195 52.7356 269.96C52.7356 271.697 50.8012 272.784 48.048 272.784C45.2948 272.784 43.3746 271.697 43.3887 269.96C43.3746 268.195 45.2948 267.052 48.048 267.052ZM48.048 268.492C46.3255 268.492 45.2242 269.014 45.2383 269.96C45.2242 270.864 46.3255 271.372 48.048 271.372C49.7847 271.372 50.8718 270.864 50.8718 269.96C50.8718 269.014 49.7847 268.492 48.048 268.492ZM65.4681 266.628V273.533H63.6609V266.628H65.4681ZM58.6486 274.097V275.297H63.675V274.097H65.4681V279.336H56.8696V274.097H58.6486ZM58.6486 277.881H63.675V276.695H58.6486V277.881ZM58.4227 267.165C60.4276 267.151 61.9384 268.407 61.9384 270.215C61.9384 271.965 60.4276 273.222 58.4227 273.222C56.4178 273.222 54.907 271.965 54.907 270.215C54.907 268.407 56.4178 267.151 58.4227 267.165ZM58.4227 268.661C57.392 268.661 56.6578 269.24 56.6719 270.215C56.6578 271.175 57.392 271.739 58.4227 271.739C59.4251 271.739 60.1593 271.175 60.1593 270.215C60.1593 269.24 59.4251 268.661 58.4227 268.661ZM81.3605 266.642V274.041H79.5674V272.784H76.673V271.344H79.5674V270.116H76.8C76.0023 272.149 74.1809 273.547 71.35 274.323L70.6441 272.897C73.602 272.121 75.0493 270.709 75.3034 268.944H71.3359V267.504H77.266C77.266 267.92 77.2377 268.323 77.1813 268.704H79.5674V266.642H81.3605ZM77.0824 274.196C79.6945 274.196 81.4452 275.199 81.4594 276.794C81.4452 278.404 79.6945 279.42 77.0824 279.42C74.4421 279.42 72.6772 278.404 72.6914 276.794C72.6772 275.199 74.4421 274.196 77.0824 274.196ZM77.0824 275.608C75.4587 275.594 74.4845 276.003 74.4845 276.794C74.4845 277.585 75.4587 277.994 77.0824 277.994C78.6779 277.994 79.6521 277.585 79.6521 276.794C79.6521 276.003 78.6779 275.594 77.0824 275.608ZM94.7849 276.568V278.051H83.0237V276.568H87.9795V274.634H84.3791V270.313H91.6505V268.901H84.365V267.461H93.4295V271.725H86.1864V273.165H93.726V274.634H89.7726V276.568H94.7849Z" fill="#171717"/>
<g clip-path="url(#clip2_4947_27007)">
<mask id="path-42-inside-1_4947_27007" fill="white">
<path d="M41.8356 292.816H662.164V479.203H41.8356V292.816Z"/>
</mask>
<path d="M46.1772 306.937V315.455H44.4006V308.619H44.3535L42.4003 309.843V308.278L44.5064 306.937H46.1772Z" fill="#008660"/>
<line x1="41.8356" y1="329.692" x2="73.9645" y2="329.692" stroke="#E1E2E4" stroke-width="0.803223"/>
<path d="M42.5062 352.732L42.4945 351.45L45.5536 348.638C46.3537 347.873 46.7773 347.402 46.7773 346.732C46.7773 345.979 46.2007 345.508 45.4242 345.508C44.6241 345.508 44.1064 346.014 44.1064 346.826H42.4239C42.4121 345.155 43.6475 344.096 45.4477 344.096C47.2714 344.096 48.4833 345.132 48.4833 346.614C48.4833 347.579 48.0127 348.379 46.2596 349.967L44.9653 351.226V351.273H48.601V352.732H42.5062Z" fill="#008660"/>
<line x1="41.8356" y1="366.969" x2="73.9645" y2="366.969" stroke="#E1E2E4" stroke-width="0.803223"/>
<path d="M45.6595 390.127C43.7887 390.127 42.4474 389.092 42.4121 387.61H44.2005C44.2358 388.245 44.8477 388.668 45.6713 388.668C46.5184 388.668 47.1303 388.186 47.1185 387.504C47.1303 386.809 46.5067 386.315 45.5066 386.315H44.7182V385.009H45.5066C46.3419 385.009 46.9302 384.55 46.9302 383.88C46.9302 383.233 46.4361 382.785 45.683 382.785C44.93 382.785 44.3064 383.209 44.2829 383.856H42.5886C42.6121 382.385 43.9417 381.374 45.683 381.374C47.4597 381.374 48.6481 382.421 48.6363 383.774C48.6481 384.727 47.9774 385.409 47.0244 385.574V385.645C48.2716 385.798 48.9657 386.562 48.954 387.621C48.9657 389.08 47.5774 390.127 45.6595 390.127Z" fill="#008660"/>
<line x1="41.8356" y1="404.247" x2="73.9645" y2="404.247" stroke="#E1E2E4" stroke-width="0.803223"/>
<path d="M42.365 425.781V424.381L45.9654 418.769H48.1892V424.357H49.2717V425.781H48.1892V427.287H46.5067V425.781H42.365ZM44.1535 424.357H46.5302V420.71H46.4478L44.1535 424.287V424.357Z" fill="#008660"/>
<line x1="41.8356" y1="441.524" x2="73.9645" y2="441.524" stroke="#E1E2E4" stroke-width="0.803223"/>
<path d="M45.636 464.682C43.8593 464.682 42.5651 463.635 42.5298 462.164H44.2476C44.2829 462.835 44.8947 463.282 45.636 463.282C46.5184 463.282 47.142 462.658 47.142 461.776C47.142 460.87 46.5067 460.246 45.6124 460.235C44.9771 460.235 44.53 460.47 44.2711 460.952H42.671L43.1298 456.046H48.3774V457.493H44.5888L44.3535 459.646H44.4241C44.7418 459.223 45.3771 458.929 46.1301 458.929C47.695 458.929 48.8598 460.093 48.8598 461.729C48.8598 463.447 47.5538 464.682 45.636 464.682Z" fill="#008660"/>
<line x1="41.8356" y1="478.802" x2="73.9645" y2="478.802" stroke="#E1E2E4" stroke-width="0.803223"/>
<path d="M76.1882 311.714V315.455H74.6822V306.937H76.1529V310.149H76.2353C76.5295 309.431 77.1413 308.984 78.1296 308.984C79.4592 308.984 80.3299 309.843 80.3299 311.384V315.455H78.8356V311.619C78.8356 310.749 78.3649 310.255 77.5766 310.255C76.7648 310.255 76.1882 310.784 76.1882 311.714ZM85.0578 309.066V310.219H83.7988V313.537C83.7988 314.149 84.1047 314.278 84.4813 314.278C84.6577 314.278 84.9519 314.267 85.1401 314.255V315.479C84.9637 315.514 84.6695 315.537 84.293 315.537C83.1635 315.537 82.2928 314.984 82.3045 313.784V310.219H81.3868V309.066H82.3045V307.537H83.7988V309.066H85.0578ZM89.5151 309.066V310.219H88.2561V313.537C88.2561 314.149 88.562 314.278 88.9386 314.278C89.115 314.278 89.4092 314.267 89.5974 314.255V315.479C89.421 315.514 89.1268 315.537 88.7503 315.537C87.6208 315.537 86.7501 314.984 86.7619 313.784V310.219H85.8441V309.066H86.7619V307.537H88.2561V309.066H89.5151ZM90.7838 317.855V309.066H92.2546V310.113H92.3487C92.584 309.654 93.0546 308.984 94.1842 308.984C95.6549 308.984 96.8198 310.137 96.8198 312.267C96.8198 314.373 95.6902 315.573 94.1842 315.573C93.0782 315.573 92.584 314.914 92.3487 314.443H92.2899V317.855H90.7838ZM92.2546 312.255C92.2546 313.502 92.7958 314.337 93.7724 314.337C94.7607 314.337 95.2902 313.467 95.2902 312.255C95.2902 311.066 94.7725 310.207 93.7724 310.207C92.7958 310.207 92.2546 311.019 92.2546 312.255ZM101.736 310.89C101.642 310.407 101.242 310.102 100.606 310.102C99.9593 310.102 99.4886 310.419 99.5004 310.855C99.4886 311.184 99.7592 311.431 100.406 311.584L101.489 311.808C102.701 312.078 103.277 312.631 103.289 313.549C103.277 314.749 102.23 315.585 100.559 315.585C98.9356 315.585 97.9708 314.855 97.8179 313.631H99.3474C99.4416 314.173 99.8651 314.443 100.559 314.443C101.277 314.443 101.759 314.149 101.759 313.678C101.759 313.314 101.465 313.078 100.83 312.937L99.8063 312.714C98.6179 312.478 98.0061 311.855 98.0061 310.937C98.0061 309.76 99.018 308.984 100.583 308.984C102.112 308.984 103.054 309.725 103.16 310.89H101.736ZM105.476 315.549C104.97 315.549 104.558 315.137 104.558 314.631C104.558 314.137 104.97 313.725 105.476 313.725C105.958 313.725 106.381 314.137 106.381 314.631C106.381 315.137 105.958 315.549 105.476 315.549ZM105.476 310.984C104.97 310.984 104.558 310.572 104.558 310.066C104.558 309.572 104.97 309.16 105.476 309.16C105.958 309.16 106.381 309.572 106.381 310.066C106.381 310.572 105.958 310.984 105.476 310.984ZM111.415 306.536L108.674 316.738H107.356L110.109 306.536H111.415ZM115.849 306.536L113.108 316.738H111.79L114.543 306.536H115.849ZM118.141 315.455L116.33 309.066H117.859L118.989 313.561H119.047L120.189 309.066H121.707L122.86 313.537H122.918L124.036 309.066H125.566L123.754 315.455H122.189L120.989 311.125H120.906L119.706 315.455H118.141ZM127.964 315.455L126.152 309.066H127.682L128.811 313.561H128.87L130.011 309.066H131.529L132.682 313.537H132.741L133.859 309.066H135.388L133.576 315.455H132.012L130.811 311.125H130.729L129.529 315.455H127.964ZM137.787 315.455L135.975 309.066H137.504L138.634 313.561H138.693L139.834 309.066H141.352L142.505 313.537H142.564L143.681 309.066H145.211L143.399 315.455H141.834L140.634 311.125H140.552L139.351 315.455H137.787ZM146.338 315.549C145.833 315.549 145.421 315.137 145.421 314.631C145.421 314.137 145.833 313.725 146.338 313.725C146.821 313.725 147.244 314.137 147.244 314.631C147.244 315.137 146.821 315.549 146.338 315.549ZM151.596 317.985C149.902 317.985 148.831 317.232 148.725 316.032H150.219C150.325 316.585 150.855 316.855 151.619 316.855C152.514 316.855 153.102 316.467 153.102 315.526V314.302H153.031C152.796 314.773 152.29 315.361 151.184 315.361C149.713 315.361 148.548 314.29 148.548 312.208C148.548 310.102 149.713 308.984 151.196 308.984C152.325 308.984 152.796 309.654 153.031 310.113H153.102V309.066H154.584V315.561C154.584 317.196 153.325 317.985 151.596 317.985ZM151.596 314.184C152.561 314.184 153.114 313.455 153.114 312.231C153.114 311.019 152.572 310.207 151.596 310.207C150.596 310.207 150.078 311.066 150.078 312.231C150.078 313.408 150.608 314.184 151.596 314.184ZM156.136 315.455V309.066H157.595V310.125H157.665C157.889 309.396 158.512 308.972 159.242 308.972C159.406 308.972 159.642 308.984 159.783 309.007V310.396C159.654 310.349 159.336 310.302 159.089 310.302C158.253 310.302 157.642 310.878 157.642 311.69V315.455H156.136ZM163.37 315.585C161.511 315.585 160.31 314.267 160.31 312.29C160.31 310.302 161.511 308.984 163.37 308.984C165.24 308.984 166.429 310.302 166.429 312.29C166.429 314.267 165.24 315.585 163.37 315.585ZM163.381 314.384C164.405 314.384 164.911 313.455 164.911 312.278C164.911 311.113 164.405 310.172 163.381 310.172C162.334 310.172 161.828 311.113 161.828 312.278C161.828 313.455 162.334 314.384 163.381 314.384ZM167.78 315.455V306.937H169.286V310.113H169.345C169.58 309.654 170.039 308.984 171.168 308.984C172.651 308.984 173.816 310.137 173.816 312.267C173.816 314.373 172.674 315.573 171.18 315.573C170.074 315.573 169.58 314.914 169.345 314.443H169.251V315.455H167.78ZM169.251 312.255C169.251 313.502 169.792 314.337 170.757 314.337C171.757 314.337 172.286 313.467 172.286 312.255C172.286 311.066 171.769 310.207 170.757 310.207C169.792 310.207 169.251 311.019 169.251 312.255ZM176.614 306.937V315.455H175.108V306.937H176.614ZM181.001 315.585C179.071 315.585 177.895 314.302 177.895 312.302C177.895 310.325 179.095 308.984 180.918 308.984C182.483 308.984 183.836 309.96 183.836 312.208V312.678H179.377C179.395 313.767 180.036 314.408 181.013 314.408C181.671 314.408 182.119 314.126 182.307 313.749H183.778C183.507 314.855 182.483 315.585 181.001 315.585ZM179.389 311.655H182.401C182.389 310.784 181.813 310.149 180.942 310.149C180.036 310.149 179.436 310.837 179.389 311.655ZM186.046 315.549C185.54 315.549 185.129 315.137 185.129 314.631C185.129 314.137 185.54 313.725 186.046 313.725C186.529 313.725 186.952 314.137 186.952 314.631C186.952 315.137 186.529 315.549 186.046 315.549ZM188.515 315.455V309.066H190.021V315.455H188.515ZM189.28 308.16C188.809 308.16 188.409 307.795 188.409 307.337C188.409 306.889 188.809 306.525 189.28 306.525C189.762 306.525 190.151 306.889 190.151 307.337C190.151 307.795 189.762 308.16 189.28 308.16ZM191.572 315.455V309.066H193.008V310.149H193.09C193.349 309.419 193.996 308.984 194.843 308.984C195.714 308.984 196.326 309.419 196.573 310.149H196.644C196.926 309.443 197.632 308.984 198.561 308.984C199.726 308.984 200.55 309.737 200.55 311.161V315.455H199.056V311.396C199.056 310.596 198.573 310.243 197.961 310.243C197.22 310.243 196.796 310.749 196.796 311.466V315.455H195.338V311.337C195.338 310.678 194.89 310.243 194.255 310.243C193.608 310.243 193.078 310.772 193.078 311.572V315.455H191.572Z" fill="#171717"/>
<line x1="73.9645" y1="329.692" x2="533.649" y2="329.692" stroke="#E1E2E4" stroke-width="0.803223"/>
<path d="M76.1882 348.991V352.732H74.6822V344.214H76.1529V347.426H76.2353C76.5295 346.708 77.1413 346.261 78.1296 346.261C79.4592 346.261 80.3299 347.12 80.3299 348.661V352.732H78.8356V348.897C78.8356 348.026 78.3649 347.532 77.5766 347.532C76.7648 347.532 76.1882 348.061 76.1882 348.991ZM85.0578 346.344V347.497H83.7988V350.815C83.7988 351.426 84.1047 351.556 84.4813 351.556C84.6577 351.556 84.9519 351.544 85.1401 351.532V352.756C84.9637 352.791 84.6695 352.815 84.293 352.815C83.1635 352.815 82.2928 352.262 82.3045 351.062V347.497H81.3868V346.344H82.3045V344.814H83.7988V346.344H85.0578ZM89.5151 346.344V347.497H88.2561V350.815C88.2561 351.426 88.562 351.556 88.9386 351.556C89.115 351.556 89.4092 351.544 89.5974 351.532V352.756C89.421 352.791 89.1268 352.815 88.7503 352.815C87.6208 352.815 86.7501 352.262 86.7619 351.062V347.497H85.8441V346.344H86.7619V344.814H88.2561V346.344H89.5151ZM90.7838 355.133V346.344H92.2546V347.391H92.3487C92.584 346.932 93.0546 346.261 94.1842 346.261C95.6549 346.261 96.8198 347.414 96.8198 349.544C96.8198 351.65 95.6902 352.85 94.1842 352.85C93.0782 352.85 92.584 352.191 92.3487 351.721H92.2899V355.133H90.7838ZM92.2546 349.532C92.2546 350.779 92.7958 351.615 93.7724 351.615C94.7607 351.615 95.2902 350.744 95.2902 349.532C95.2902 348.344 94.7725 347.485 93.7724 347.485C92.7958 347.485 92.2546 348.297 92.2546 349.532ZM101.736 348.167C101.642 347.685 101.242 347.379 100.606 347.379C99.9593 347.379 99.4886 347.697 99.5004 348.132C99.4886 348.461 99.7592 348.708 100.406 348.861L101.489 349.085C102.701 349.356 103.277 349.909 103.289 350.826C103.277 352.026 102.23 352.862 100.559 352.862C98.9356 352.862 97.9708 352.132 97.8179 350.909H99.3474C99.4416 351.45 99.8651 351.721 100.559 351.721C101.277 351.721 101.759 351.426 101.759 350.956C101.759 350.591 101.465 350.356 100.83 350.215L99.8063 349.991C98.6179 349.756 98.0061 349.132 98.0061 348.214C98.0061 347.038 99.018 346.261 100.583 346.261C102.112 346.261 103.054 347.002 103.16 348.167H101.736ZM105.476 352.827C104.97 352.827 104.558 352.415 104.558 351.909C104.558 351.415 104.97 351.003 105.476 351.003C105.958 351.003 106.381 351.415 106.381 351.909C106.381 352.415 105.958 352.827 105.476 352.827ZM105.476 348.261C104.97 348.261 104.558 347.85 104.558 347.344C104.558 346.849 104.97 346.438 105.476 346.438C105.958 346.438 106.381 346.849 106.381 347.344C106.381 347.85 105.958 348.261 105.476 348.261ZM111.415 343.814L108.674 354.015H107.356L110.109 343.814H111.415ZM115.849 343.814L113.108 354.015H111.79L114.543 343.814H115.849ZM118.141 352.732L116.33 346.344H117.859L118.989 350.838H119.047L120.189 346.344H121.707L122.86 350.815H122.918L124.036 346.344H125.566L123.754 352.732H122.189L120.989 348.403H120.906L119.706 352.732H118.141ZM127.964 352.732L126.152 346.344H127.682L128.811 350.838H128.87L130.011 346.344H131.529L132.682 350.815H132.741L133.859 346.344H135.388L133.576 352.732H132.012L130.811 348.403H130.729L129.529 352.732H127.964ZM137.787 352.732L135.975 346.344H137.504L138.634 350.838H138.693L139.834 346.344H141.352L142.505 350.815H142.564L143.681 346.344H145.211L143.399 352.732H141.834L140.634 348.403H140.552L139.351 352.732H137.787ZM146.338 352.827C145.833 352.827 145.421 352.415 145.421 351.909C145.421 351.415 145.833 351.003 146.338 351.003C146.821 351.003 147.244 351.415 147.244 351.909C147.244 352.415 146.821 352.827 146.338 352.827ZM151.996 346.344V347.497H150.737V350.815C150.737 351.426 151.043 351.556 151.419 351.556C151.596 351.556 151.89 351.544 152.078 351.532V352.756C151.902 352.791 151.608 352.815 151.231 352.815C150.102 352.815 149.231 352.262 149.243 351.062V347.497H148.325V346.344H149.243V344.814H150.737V346.344H151.996ZM154.912 348.991V352.732H153.406V344.214H154.877V347.426H154.959C155.253 346.708 155.865 346.261 156.853 346.261C158.183 346.261 159.053 347.12 159.053 348.661V352.732H157.559V348.897C157.559 348.026 157.089 347.532 156.3 347.532C155.488 347.532 154.912 348.061 154.912 348.991ZM160.593 352.732V346.344H162.052V347.402H162.122C162.346 346.673 162.97 346.249 163.699 346.249C163.864 346.249 164.099 346.261 164.24 346.285V347.673C164.111 347.626 163.793 347.579 163.546 347.579C162.711 347.579 162.099 348.155 162.099 348.967V352.732H160.593ZM167.874 352.862C165.944 352.862 164.768 351.579 164.768 349.579C164.768 347.602 165.968 346.261 167.792 346.261C169.356 346.261 170.71 347.238 170.71 349.485V349.956H166.25C166.268 351.044 166.909 351.685 167.886 351.685C168.545 351.685 168.992 351.403 169.18 351.026H170.651C170.38 352.132 169.356 352.862 167.874 352.862ZM166.262 348.932H169.274C169.262 348.061 168.686 347.426 167.815 347.426C166.909 347.426 166.309 348.114 166.262 348.932ZM171.696 350.932C171.696 349.497 172.884 349.073 174.073 349.003C174.514 348.973 175.432 348.92 175.708 348.908V348.403C175.708 347.767 175.296 347.402 174.555 347.402C173.884 347.402 173.473 347.708 173.355 348.167H171.908C172.014 347.085 172.99 346.261 174.59 346.261C175.802 346.261 177.202 346.755 177.202 348.461V352.732H175.767V351.85H175.72C175.437 352.391 174.837 352.862 173.837 352.862C172.614 352.862 171.696 352.191 171.696 350.932ZM173.143 350.92C173.143 351.473 173.59 351.756 174.226 351.756C175.132 351.756 175.72 351.156 175.72 350.438V349.909L174.308 350.003C173.59 350.062 173.143 350.356 173.143 350.92ZM181.107 352.85C179.601 352.85 178.471 351.65 178.471 349.544C178.471 347.414 179.636 346.261 181.118 346.261C182.248 346.261 182.719 346.932 182.942 347.391H183.001V344.214H184.495V352.732H183.025V351.721H182.942C182.707 352.191 182.213 352.85 181.107 352.85ZM181.519 351.615C182.483 351.615 183.036 350.779 183.036 349.532C183.036 348.297 182.495 347.485 181.519 347.485C180.518 347.485 180.001 348.344 180.001 349.532C180.001 350.744 180.53 351.615 181.519 351.615ZM189.753 348.167C189.659 347.685 189.259 347.379 188.623 347.379C187.976 347.379 187.505 347.697 187.517 348.132C187.505 348.461 187.776 348.708 188.423 348.861L189.506 349.085C190.717 349.356 191.294 349.909 191.306 350.826C191.294 352.026 190.247 352.862 188.576 352.862C186.952 352.862 185.988 352.132 185.835 350.909H187.364C187.458 351.45 187.882 351.721 188.576 351.721C189.294 351.721 189.776 351.426 189.776 350.956C189.776 350.591 189.482 350.356 188.847 350.215L187.823 349.991C186.635 349.756 186.023 349.132 186.023 348.214C186.023 347.038 187.035 346.261 188.6 346.261C190.129 346.261 191.07 347.002 191.176 348.167H189.753ZM193.492 352.827C192.986 352.827 192.575 352.415 192.575 351.909C192.575 351.415 192.986 351.003 193.492 351.003C193.975 351.003 194.398 351.415 194.398 351.909C194.398 352.415 193.975 352.827 193.492 352.827ZM198.75 352.862C196.844 352.862 195.69 351.497 195.69 349.567C195.69 347.614 196.879 346.261 198.75 346.261C200.303 346.261 201.385 347.167 201.491 348.544H200.056C199.938 347.932 199.491 347.461 198.761 347.461C197.832 347.461 197.208 348.25 197.208 349.532C197.208 350.85 197.82 351.638 198.761 351.638C199.432 351.638 199.926 351.25 200.056 350.556H201.491C201.373 351.909 200.35 352.862 198.75 352.862ZM205.525 352.862C203.666 352.862 202.466 351.544 202.466 349.567C202.466 347.579 203.666 346.261 205.525 346.261C207.396 346.261 208.584 347.579 208.584 349.567C208.584 351.544 207.396 352.862 205.525 352.862ZM205.537 351.662C206.56 351.662 207.066 350.732 207.066 349.556C207.066 348.391 206.56 347.45 205.537 347.45C204.489 347.45 203.984 348.391 203.984 349.556C203.984 350.732 204.489 351.662 205.537 351.662ZM209.864 352.732V346.344H211.3V347.426H211.382C211.641 346.696 212.288 346.261 213.135 346.261C214.006 346.261 214.618 346.696 214.865 347.426H214.936C215.218 346.72 215.924 346.261 216.853 346.261C218.018 346.261 218.842 347.014 218.842 348.438V352.732H217.348V348.673C217.348 347.873 216.865 347.52 216.253 347.52C215.512 347.52 215.089 348.026 215.089 348.744V352.732H213.63V348.614C213.63 347.955 213.182 347.52 212.547 347.52C211.9 347.52 211.371 348.05 211.371 348.85V352.732H209.864Z" fill="#171717"/>
<line x1="73.9645" y1="366.969" x2="533.649" y2="366.969" stroke="#E1E2E4" stroke-width="0.803223"/>
<path d="M76.1882 386.268V390.01H74.6822V381.491H76.1529V384.703H76.2353C76.5295 383.986 77.1413 383.538 78.1296 383.538C79.4592 383.538 80.3299 384.397 80.3299 385.939V390.01H78.8356V386.174C78.8356 385.303 78.3649 384.809 77.5766 384.809C76.7648 384.809 76.1882 385.339 76.1882 386.268ZM85.0578 383.621V384.774H83.7988V388.092C83.7988 388.704 84.1047 388.833 84.4813 388.833C84.6577 388.833 84.9519 388.821 85.1401 388.81V390.033C84.9637 390.069 84.6695 390.092 84.293 390.092C83.1635 390.092 82.2928 389.539 82.3045 388.339V384.774H81.3868V383.621H82.3045V382.091H83.7988V383.621H85.0578ZM89.5151 383.621V384.774H88.2561V388.092C88.2561 388.704 88.562 388.833 88.9386 388.833C89.115 388.833 89.4092 388.821 89.5974 388.81V390.033C89.421 390.069 89.1268 390.092 88.7503 390.092C87.6208 390.092 86.7501 389.539 86.7619 388.339V384.774H85.8441V383.621H86.7619V382.091H88.2561V383.621H89.5151ZM90.7838 392.41V383.621H92.2546V384.668H92.3487C92.584 384.209 93.0546 383.538 94.1842 383.538C95.6549 383.538 96.8198 384.692 96.8198 386.821C96.8198 388.927 95.6902 390.127 94.1842 390.127C93.0782 390.127 92.584 389.469 92.3487 388.998H92.2899V392.41H90.7838ZM92.2546 386.809C92.2546 388.057 92.7958 388.892 93.7724 388.892C94.7607 388.892 95.2902 388.021 95.2902 386.809C95.2902 385.621 94.7725 384.762 93.7724 384.762C92.7958 384.762 92.2546 385.574 92.2546 386.809ZM101.736 385.445C101.642 384.962 101.242 384.656 100.606 384.656C99.9593 384.656 99.4886 384.974 99.5004 385.409C99.4886 385.739 99.7592 385.986 100.406 386.139L101.489 386.362C102.701 386.633 103.277 387.186 103.289 388.104C103.277 389.304 102.23 390.139 100.559 390.139C98.9356 390.139 97.9708 389.41 97.8179 388.186H99.3474C99.4416 388.727 99.8651 388.998 100.559 388.998C101.277 388.998 101.759 388.704 101.759 388.233C101.759 387.868 101.465 387.633 100.83 387.492L99.8063 387.268C98.6179 387.033 98.0061 386.409 98.0061 385.492C98.0061 384.315 99.018 383.538 100.583 383.538C102.112 383.538 103.054 384.28 103.16 385.445H101.736ZM105.476 390.104C104.97 390.104 104.558 389.692 104.558 389.186C104.558 388.692 104.97 388.28 105.476 388.28C105.958 388.28 106.381 388.692 106.381 389.186C106.381 389.692 105.958 390.104 105.476 390.104ZM105.476 385.539C104.97 385.539 104.558 385.127 104.558 384.621C104.558 384.127 104.97 383.715 105.476 383.715C105.958 383.715 106.381 384.127 106.381 384.621C106.381 385.127 105.958 385.539 105.476 385.539ZM111.415 381.091L108.674 391.292H107.356L110.109 381.091H111.415ZM115.849 381.091L113.108 391.292H111.79L114.543 381.091H115.849ZM118.141 390.01L116.33 383.621H117.859L118.989 388.115H119.047L120.189 383.621H121.707L122.86 388.092H122.918L124.036 383.621H125.566L123.754 390.01H122.189L120.989 385.68H120.906L119.706 390.01H118.141ZM127.964 390.01L126.152 383.621H127.682L128.811 388.115H128.87L130.011 383.621H131.529L132.682 388.092H132.741L133.859 383.621H135.388L133.576 390.01H132.012L130.811 385.68H130.729L129.529 390.01H127.964ZM137.787 390.01L135.975 383.621H137.504L138.634 388.115H138.693L139.834 383.621H141.352L142.505 388.092H142.564L143.681 383.621H145.211L143.399 390.01H141.834L140.634 385.68H140.552L139.351 390.01H137.787ZM146.338 390.104C145.833 390.104 145.421 389.692 145.421 389.186C145.421 388.692 145.833 388.28 146.338 388.28C146.821 388.28 147.244 388.692 147.244 389.186C147.244 389.692 146.821 390.104 146.338 390.104ZM148.807 390.01V383.621H150.313V390.01H148.807ZM149.572 382.715C149.101 382.715 148.701 382.35 148.701 381.891C148.701 381.444 149.101 381.079 149.572 381.079C150.055 381.079 150.443 381.444 150.443 381.891C150.443 382.35 150.055 382.715 149.572 382.715ZM153.371 386.268V390.01H151.864V383.621H153.3V384.703H153.382C153.676 383.986 154.324 383.538 155.277 383.538C156.606 383.538 157.477 384.409 157.465 385.939V390.01H155.971V386.174C155.971 385.315 155.512 384.809 154.724 384.809C153.924 384.809 153.371 385.339 153.371 386.268ZM162.64 385.445C162.546 384.962 162.146 384.656 161.511 384.656C160.863 384.656 160.393 384.974 160.405 385.409C160.393 385.739 160.663 385.986 161.311 386.139L162.393 386.362C163.605 386.633 164.181 387.186 164.193 388.104C164.181 389.304 163.134 390.139 161.464 390.139C159.84 390.139 158.875 389.41 158.722 388.186H160.252C160.346 388.727 160.769 388.998 161.464 388.998C162.181 388.998 162.664 388.704 162.664 388.233C162.664 387.868 162.369 387.633 161.734 387.492L160.71 387.268C159.522 387.033 158.91 386.409 158.91 385.492C158.91 384.315 159.922 383.538 161.487 383.538C163.017 383.538 163.958 384.28 164.064 385.445H162.64ZM168.639 383.621V384.774H167.38V388.092C167.38 388.704 167.686 388.833 168.062 388.833C168.239 388.833 168.533 388.821 168.721 388.81V390.033C168.545 390.069 168.25 390.092 167.874 390.092C166.744 390.092 165.874 389.539 165.886 388.339V384.774H164.968V383.621H165.886V382.091H167.38V383.621H168.639ZM169.613 388.21C169.613 386.774 170.802 386.351 171.99 386.28C172.431 386.251 173.349 386.198 173.626 386.186V385.68C173.626 385.045 173.214 384.68 172.472 384.68C171.802 384.68 171.39 384.986 171.272 385.445H169.825C169.931 384.362 170.908 383.538 172.508 383.538C173.72 383.538 175.12 384.033 175.12 385.739V390.01H173.684V389.127H173.637C173.355 389.669 172.755 390.139 171.755 390.139C170.531 390.139 169.613 389.469 169.613 388.21ZM171.061 388.198C171.061 388.751 171.508 389.033 172.143 389.033C173.049 389.033 173.637 388.433 173.637 387.715V387.186L172.225 387.28C171.508 387.339 171.061 387.633 171.061 388.198ZM179.436 392.539C177.742 392.539 176.671 391.786 176.565 390.586H178.059C178.165 391.139 178.695 391.41 179.459 391.41C180.354 391.41 180.942 391.022 180.942 390.08V388.857H180.871C180.636 389.327 180.13 389.916 179.024 389.916C177.553 389.916 176.389 388.845 176.389 386.762C176.389 384.656 177.553 383.538 179.036 383.538C180.165 383.538 180.636 384.209 180.871 384.668H180.942V383.621H182.424V390.116C182.424 391.751 181.166 392.539 179.436 392.539ZM179.436 388.739C180.401 388.739 180.954 388.01 180.954 386.786C180.954 385.574 180.412 384.762 179.436 384.762C178.436 384.762 177.918 385.621 177.918 386.786C177.918 387.962 178.448 388.739 179.436 388.739ZM183.976 390.01V383.621H185.435V384.68H185.505C185.729 383.95 186.352 383.527 187.082 383.527C187.247 383.527 187.482 383.538 187.623 383.562V384.95C187.494 384.903 187.176 384.856 186.929 384.856C186.093 384.856 185.482 385.433 185.482 386.245V390.01H183.976ZM188.221 388.21C188.221 386.774 189.409 386.351 190.598 386.28C191.039 386.251 191.957 386.198 192.233 386.186V385.68C192.233 385.045 191.821 384.68 191.08 384.68C190.41 384.68 189.998 384.986 189.88 385.445H188.433C188.539 384.362 189.515 383.538 191.116 383.538C192.327 383.538 193.728 384.033 193.728 385.739V390.01H192.292V389.127H192.245C191.963 389.669 191.363 390.139 190.363 390.139C189.139 390.139 188.221 389.469 188.221 388.21ZM189.668 388.198C189.668 388.751 190.115 389.033 190.751 389.033C191.657 389.033 192.245 388.433 192.245 387.715V387.186L190.833 387.28C190.115 387.339 189.668 387.633 189.668 388.198ZM195.255 390.01V383.621H196.691V384.703H196.773C197.032 383.974 197.679 383.538 198.526 383.538C199.397 383.538 200.009 383.974 200.256 384.703H200.326C200.609 383.997 201.315 383.538 202.244 383.538C203.409 383.538 204.233 384.292 204.233 385.715V390.01H202.738V385.951C202.738 385.15 202.256 384.797 201.644 384.797C200.903 384.797 200.479 385.303 200.479 386.021V390.01H199.02V385.892C199.02 385.233 198.573 384.797 197.938 384.797C197.291 384.797 196.761 385.327 196.761 386.127V390.01H195.255ZM206.713 390.104C206.207 390.104 205.795 389.692 205.795 389.186C205.795 388.692 206.207 388.28 206.713 388.28C207.196 388.28 207.619 388.692 207.619 389.186C207.619 389.692 207.196 390.104 206.713 390.104ZM211.971 390.139C210.065 390.139 208.911 388.774 208.911 386.845C208.911 384.892 210.1 383.538 211.971 383.538C213.524 383.538 214.606 384.444 214.712 385.821H213.277C213.159 385.209 212.712 384.739 211.982 384.739C211.053 384.739 210.429 385.527 210.429 386.809C210.429 388.127 211.041 388.916 211.982 388.916C212.653 388.916 213.147 388.527 213.277 387.833H214.712C214.594 389.186 213.571 390.139 211.971 390.139ZM218.746 390.139C216.887 390.139 215.687 388.821 215.687 386.845C215.687 384.856 216.887 383.538 218.746 383.538C220.617 383.538 221.805 384.856 221.805 386.845C221.805 388.821 220.617 390.139 218.746 390.139ZM218.758 388.939C219.781 388.939 220.287 388.01 220.287 386.833C220.287 385.668 219.781 384.727 218.758 384.727C217.71 384.727 217.204 385.668 217.204 386.833C217.204 388.01 217.71 388.939 218.758 388.939ZM223.085 390.01V383.621H224.521V384.703H224.603C224.862 383.974 225.509 383.538 226.356 383.538C227.227 383.538 227.839 383.974 228.086 384.703H228.157C228.439 383.997 229.145 383.538 230.074 383.538C231.239 383.538 232.063 384.292 232.063 385.715V390.01H230.569V385.951C230.569 385.15 230.086 384.797 229.474 384.797C228.733 384.797 228.31 385.303 228.31 386.021V390.01H226.851V385.892C226.851 385.233 226.403 384.797 225.768 384.797C225.121 384.797 224.591 385.327 224.591 386.127V390.01H223.085Z" fill="#171717"/>
<line x1="73.9645" y1="404.247" x2="533.649" y2="404.247" stroke="#E1E2E4" stroke-width="0.803223"/>
<path d="M76.1882 423.546V427.287H74.6822V418.769H76.1529V421.981H76.2353C76.5295 421.263 77.1413 420.816 78.1296 420.816C79.4592 420.816 80.3299 421.675 80.3299 423.216V427.287H78.8356V423.451C78.8356 422.581 78.3649 422.087 77.5766 422.087C76.7648 422.087 76.1882 422.616 76.1882 423.546ZM85.0578 420.898V422.051H83.7988V425.369C83.7988 425.981 84.1047 426.111 84.4813 426.111C84.6577 426.111 84.9519 426.099 85.1401 426.087V427.311C84.9637 427.346 84.6695 427.369 84.293 427.369C83.1635 427.369 82.2928 426.816 82.3045 425.616V422.051H81.3868V420.898H82.3045V419.369H83.7988V420.898H85.0578ZM89.5151 420.898V422.051H88.2561V425.369C88.2561 425.981 88.562 426.111 88.9386 426.111C89.115 426.111 89.4092 426.099 89.5974 426.087V427.311C89.421 427.346 89.1268 427.369 88.7503 427.369C87.6208 427.369 86.7501 426.816 86.7619 425.616V422.051H85.8441V420.898H86.7619V419.369H88.2561V420.898H89.5151ZM90.7838 429.687V420.898H92.2546V421.945H92.3487C92.584 421.486 93.0546 420.816 94.1842 420.816C95.6549 420.816 96.8198 421.969 96.8198 424.099C96.8198 426.205 95.6902 427.405 94.1842 427.405C93.0782 427.405 92.584 426.746 92.3487 426.275H92.2899V429.687H90.7838ZM92.2546 424.087C92.2546 425.334 92.7958 426.169 93.7724 426.169C94.7607 426.169 95.2902 425.299 95.2902 424.087C95.2902 422.898 94.7725 422.039 93.7724 422.039C92.7958 422.039 92.2546 422.851 92.2546 424.087ZM101.736 422.722C101.642 422.24 101.242 421.934 100.606 421.934C99.9593 421.934 99.4886 422.251 99.5004 422.687C99.4886 423.016 99.7592 423.263 100.406 423.416L101.489 423.64C102.701 423.91 103.277 424.463 103.289 425.381C103.277 426.581 102.23 427.417 100.559 427.417C98.9356 427.417 97.9708 426.687 97.8179 425.463H99.3474C99.4416 426.005 99.8651 426.275 100.559 426.275C101.277 426.275 101.759 425.981 101.759 425.51C101.759 425.146 101.465 424.91 100.83 424.769L99.8063 424.546C98.6179 424.31 98.0061 423.687 98.0061 422.769C98.0061 421.592 99.018 420.816 100.583 420.816C102.112 420.816 103.054 421.557 103.16 422.722H101.736ZM105.476 427.381C104.97 427.381 104.558 426.969 104.558 426.463C104.558 425.969 104.97 425.558 105.476 425.558C105.958 425.558 106.381 425.969 106.381 426.463C106.381 426.969 105.958 427.381 105.476 427.381ZM105.476 422.816C104.97 422.816 104.558 422.404 104.558 421.898C104.558 421.404 104.97 420.992 105.476 420.992C105.958 420.992 106.381 421.404 106.381 421.898C106.381 422.404 105.958 422.816 105.476 422.816ZM111.415 418.369L108.674 428.57H107.356L110.109 418.369H111.415ZM115.849 418.369L113.108 428.57H111.79L114.543 418.369H115.849ZM118.141 427.287L116.33 420.898H117.859L118.989 425.393H119.047L120.189 420.898H121.707L122.86 425.369H122.918L124.036 420.898H125.566L123.754 427.287H122.189L120.989 422.957H120.906L119.706 427.287H118.141ZM127.964 427.287L126.152 420.898H127.682L128.811 425.393H128.87L130.011 420.898H131.529L132.682 425.369H132.741L133.859 420.898H135.388L133.576 427.287H132.012L130.811 422.957H130.729L129.529 427.287H127.964ZM137.787 427.287L135.975 420.898H137.504L138.634 425.393H138.693L139.834 420.898H141.352L142.505 425.369H142.564L143.681 420.898H145.211L143.399 427.287H141.834L140.634 422.957H140.552L139.351 427.287H137.787ZM146.338 427.381C145.833 427.381 145.421 426.969 145.421 426.463C145.421 425.969 145.833 425.558 146.338 425.558C146.821 425.558 147.244 425.969 147.244 426.463C147.244 426.969 146.821 427.381 146.338 427.381ZM151.596 429.817C149.902 429.817 148.831 429.064 148.725 427.864H150.219C150.325 428.417 150.855 428.687 151.619 428.687C152.514 428.687 153.102 428.299 153.102 427.358V426.134H153.031C152.796 426.605 152.29 427.193 151.184 427.193C149.713 427.193 148.548 426.122 148.548 424.04C148.548 421.934 149.713 420.816 151.196 420.816C152.325 420.816 152.796 421.486 153.031 421.945H153.102V420.898H154.584V427.393C154.584 429.028 153.325 429.817 151.596 429.817ZM151.596 426.016C152.561 426.016 153.114 425.287 153.114 424.063C153.114 422.851 152.572 422.039 151.596 422.039C150.596 422.039 150.078 422.898 150.078 424.063C150.078 425.24 150.608 426.016 151.596 426.016ZM158.924 427.417C157.065 427.417 155.865 426.099 155.865 424.122C155.865 422.134 157.065 420.816 158.924 420.816C160.795 420.816 161.983 422.134 161.983 424.122C161.983 426.099 160.795 427.417 158.924 427.417ZM158.936 426.216C159.959 426.216 160.465 425.287 160.465 424.11C160.465 422.945 159.959 422.004 158.936 422.004C157.889 422.004 157.383 422.945 157.383 424.11C157.383 425.287 157.889 426.216 158.936 426.216ZM166.052 427.417C164.193 427.417 162.993 426.099 162.993 424.122C162.993 422.134 164.193 420.816 166.052 420.816C167.923 420.816 169.111 422.134 169.111 424.122C169.111 426.099 167.923 427.417 166.052 427.417ZM166.064 426.216C167.088 426.216 167.594 425.287 167.594 424.11C167.594 422.945 167.088 422.004 166.064 422.004C165.017 422.004 164.511 422.945 164.511 424.11C164.511 425.287 165.017 426.216 166.064 426.216ZM173.18 429.817C171.486 429.817 170.415 429.064 170.31 427.864H171.804C171.91 428.417 172.439 428.687 173.204 428.687C174.098 428.687 174.686 428.299 174.686 427.358V426.134H174.616C174.381 426.605 173.875 427.193 172.769 427.193C171.298 427.193 170.133 426.122 170.133 424.04C170.133 421.934 171.298 420.816 172.78 420.816C173.91 420.816 174.381 421.486 174.616 421.945H174.686V420.898H176.169V427.393C176.169 429.028 174.91 429.817 173.18 429.817ZM173.18 426.016C174.145 426.016 174.698 425.287 174.698 424.063C174.698 422.851 174.157 422.039 173.18 422.039C172.18 422.039 171.663 422.898 171.663 424.063C171.663 425.24 172.192 426.016 173.18 426.016ZM179.226 418.769V427.287H177.72V418.769H179.226ZM183.613 427.417C181.683 427.417 180.507 426.134 180.507 424.134C180.507 422.157 181.707 420.816 183.53 420.816C185.095 420.816 186.448 421.792 186.448 424.04V424.51H181.989C182.007 425.599 182.648 426.24 183.625 426.24C184.283 426.24 184.731 425.958 184.919 425.581H186.39C186.119 426.687 185.095 427.417 183.613 427.417ZM182.001 423.487H185.013C185.001 422.616 184.425 421.981 183.554 421.981C182.648 421.981 182.048 422.669 182.001 423.487ZM188.658 427.381C188.153 427.381 187.741 426.969 187.741 426.463C187.741 425.969 188.153 425.558 188.658 425.558C189.141 425.558 189.564 425.969 189.564 426.463C189.564 426.969 189.141 427.381 188.658 427.381ZM193.916 427.417C192.01 427.417 190.857 426.052 190.857 424.122C190.857 422.169 192.045 420.816 193.916 420.816C195.469 420.816 196.551 421.722 196.657 423.098H195.222C195.104 422.487 194.657 422.016 193.928 422.016C192.998 422.016 192.374 422.804 192.374 424.087C192.374 425.405 192.986 426.193 193.928 426.193C194.598 426.193 195.092 425.805 195.222 425.11H196.657C196.54 426.463 195.516 427.417 193.916 427.417ZM200.691 427.417C198.832 427.417 197.632 426.099 197.632 424.122C197.632 422.134 198.832 420.816 200.691 420.816C202.562 420.816 203.75 422.134 203.75 424.122C203.75 426.099 202.562 427.417 200.691 427.417ZM200.703 426.216C201.726 426.216 202.232 425.287 202.232 424.11C202.232 422.945 201.726 422.004 200.703 422.004C199.656 422.004 199.15 422.945 199.15 424.11C199.15 425.287 199.656 426.216 200.703 426.216ZM205.031 427.287V420.898H206.466V421.981H206.548C206.807 421.251 207.454 420.816 208.302 420.816C209.172 420.816 209.784 421.251 210.031 421.981H210.102C210.384 421.275 211.09 420.816 212.02 420.816C213.184 420.816 214.008 421.569 214.008 422.993V427.287H212.514V423.228C212.514 422.428 212.031 422.075 211.42 422.075C210.678 422.075 210.255 422.581 210.255 423.298V427.287H208.796V423.169C208.796 422.51 208.349 422.075 207.713 422.075C207.066 422.075 206.537 422.604 206.537 423.404V427.287H205.031Z" fill="#171717"/>
<line x1="73.9645" y1="441.524" x2="533.649" y2="441.524" stroke="#E1E2E4" stroke-width="0.803223"/>
<path d="M76.1882 460.823V464.564H74.6822V456.046H76.1529V459.258H76.2353C76.5295 458.54 77.1413 458.093 78.1296 458.093C79.4592 458.093 80.3299 458.952 80.3299 460.493V464.564H78.8356V460.729C78.8356 459.858 78.3649 459.364 77.5766 459.364C76.7648 459.364 76.1882 459.893 76.1882 460.823ZM85.0578 458.176V459.329H83.7988V462.647C83.7988 463.258 84.1047 463.388 84.4813 463.388C84.6577 463.388 84.9519 463.376 85.1401 463.364V464.588C84.9637 464.623 84.6695 464.647 84.293 464.647C83.1635 464.647 82.2928 464.094 82.3045 462.894V459.329H81.3868V458.176H82.3045V456.646H83.7988V458.176H85.0578ZM89.5151 458.176V459.329H88.2561V462.647C88.2561 463.258 88.562 463.388 88.9386 463.388C89.115 463.388 89.4092 463.376 89.5974 463.364V464.588C89.421 464.623 89.1268 464.647 88.7503 464.647C87.6208 464.647 86.7501 464.094 86.7619 462.894V459.329H85.8441V458.176H86.7619V456.646H88.2561V458.176H89.5151ZM90.7838 466.965V458.176H92.2546V459.223H92.3487C92.584 458.764 93.0546 458.093 94.1842 458.093C95.6549 458.093 96.8198 459.246 96.8198 461.376C96.8198 463.482 95.6902 464.682 94.1842 464.682C93.0782 464.682 92.584 464.023 92.3487 463.553H92.2899V466.965H90.7838ZM92.2546 461.364C92.2546 462.611 92.7958 463.447 93.7724 463.447C94.7607 463.447 95.2902 462.576 95.2902 461.364C95.2902 460.176 94.7725 459.317 93.7724 459.317C92.7958 459.317 92.2546 460.129 92.2546 461.364ZM101.736 459.999C101.642 459.517 101.242 459.211 100.606 459.211C99.9593 459.211 99.4886 459.529 99.5004 459.964C99.4886 460.293 99.7592 460.54 100.406 460.693L101.489 460.917C102.701 461.188 103.277 461.741 103.289 462.658C103.277 463.858 102.23 464.694 100.559 464.694C98.9356 464.694 97.9708 463.964 97.8179 462.741H99.3474C99.4416 463.282 99.8651 463.553 100.559 463.553C101.277 463.553 101.759 463.258 101.759 462.788C101.759 462.423 101.465 462.188 100.83 462.047L99.8063 461.823C98.6179 461.588 98.0061 460.964 98.0061 460.046C98.0061 458.87 99.018 458.093 100.583 458.093C102.112 458.093 103.054 458.834 103.16 459.999H101.736ZM105.476 464.659C104.97 464.659 104.558 464.247 104.558 463.741C104.558 463.247 104.97 462.835 105.476 462.835C105.958 462.835 106.381 463.247 106.381 463.741C106.381 464.247 105.958 464.659 105.476 464.659ZM105.476 460.093C104.97 460.093 104.558 459.682 104.558 459.176C104.558 458.681 104.97 458.27 105.476 458.27C105.958 458.27 106.381 458.681 106.381 459.176C106.381 459.682 105.958 460.093 105.476 460.093ZM111.415 455.646L108.674 465.847H107.356L110.109 455.646H111.415ZM115.849 455.646L113.108 465.847H111.79L114.543 455.646H115.849ZM118.141 464.564L116.33 458.176H117.859L118.989 462.67H119.047L120.189 458.176H121.707L122.86 462.647H122.918L124.036 458.176H125.566L123.754 464.564H122.189L120.989 460.235H120.906L119.706 464.564H118.141ZM127.964 464.564L126.152 458.176H127.682L128.811 462.67H128.87L130.011 458.176H131.529L132.682 462.647H132.741L133.859 458.176H135.388L133.576 464.564H132.012L130.811 460.235H130.729L129.529 464.564H127.964ZM137.787 464.564L135.975 458.176H137.504L138.634 462.67H138.693L139.834 458.176H141.352L142.505 462.647H142.564L143.681 458.176H145.211L143.399 464.564H141.834L140.634 460.235H140.552L139.351 464.564H137.787ZM146.338 464.659C145.833 464.659 145.421 464.247 145.421 463.741C145.421 463.247 145.833 462.835 146.338 462.835C146.821 462.835 147.244 463.247 147.244 463.741C147.244 464.247 146.821 464.659 146.338 464.659ZM150.313 460.823V464.564H148.807V458.176H150.243V459.258H150.325C150.619 458.54 151.266 458.093 152.219 458.093C153.549 458.093 154.42 458.964 154.408 460.493V464.564H152.914V460.729C152.914 459.87 152.455 459.364 151.666 459.364C150.866 459.364 150.313 459.893 150.313 460.823ZM155.665 462.764C155.665 461.329 156.853 460.905 158.042 460.835C158.483 460.805 159.401 460.752 159.677 460.741V460.235C159.677 459.599 159.265 459.234 158.524 459.234C157.853 459.234 157.442 459.54 157.324 459.999H155.877C155.983 458.917 156.959 458.093 158.559 458.093C159.771 458.093 161.171 458.587 161.171 460.293V464.564H159.736V463.682H159.689C159.406 464.223 158.806 464.694 157.806 464.694C156.583 464.694 155.665 464.023 155.665 462.764ZM157.112 462.752C157.112 463.305 157.559 463.588 158.195 463.588C159.101 463.588 159.689 462.988 159.689 462.27V461.741L158.277 461.835C157.559 461.894 157.112 462.188 157.112 462.752ZM168.17 458.176L165.888 464.564H164.24L161.958 458.176H163.558L165.029 462.929H165.099L166.582 458.176H168.17ZM171.839 464.694C169.909 464.694 168.733 463.411 168.733 461.411C168.733 459.434 169.933 458.093 171.757 458.093C173.322 458.093 174.675 459.07 174.675 461.317V461.788H170.215C170.233 462.876 170.874 463.517 171.851 463.517C172.51 463.517 172.957 463.235 173.145 462.858H174.616C174.345 463.964 173.322 464.694 171.839 464.694ZM170.227 460.764H173.239C173.227 459.893 172.651 459.258 171.78 459.258C170.874 459.258 170.274 459.946 170.227 460.764ZM175.955 464.564V458.176H177.414V459.234H177.485C177.708 458.505 178.332 458.081 179.061 458.081C179.226 458.081 179.461 458.093 179.603 458.117V459.505C179.473 459.458 179.156 459.411 178.908 459.411C178.073 459.411 177.461 459.987 177.461 460.799V464.564H175.955ZM180.813 464.659C180.307 464.659 179.895 464.247 179.895 463.741C179.895 463.247 180.307 462.835 180.813 462.835C181.295 462.835 181.719 463.247 181.719 463.741C181.719 464.247 181.295 464.659 180.813 464.659ZM186.07 464.694C184.164 464.694 183.011 463.329 183.011 461.399C183.011 459.446 184.199 458.093 186.07 458.093C187.623 458.093 188.706 458.999 188.811 460.376H187.376C187.258 459.764 186.811 459.293 186.082 459.293C185.152 459.293 184.529 460.082 184.529 461.364C184.529 462.682 185.14 463.47 186.082 463.47C186.752 463.47 187.247 463.082 187.376 462.388H188.811C188.694 463.741 187.67 464.694 186.07 464.694ZM192.845 464.694C190.986 464.694 189.786 463.376 189.786 461.399C189.786 459.411 190.986 458.093 192.845 458.093C194.716 458.093 195.904 459.411 195.904 461.399C195.904 463.376 194.716 464.694 192.845 464.694ZM192.857 463.494C193.881 463.494 194.386 462.564 194.386 461.388C194.386 460.223 193.881 459.282 192.857 459.282C191.81 459.282 191.304 460.223 191.304 461.388C191.304 462.564 191.81 463.494 192.857 463.494ZM197.185 464.564V458.176H198.62V459.258H198.703C198.961 458.529 199.609 458.093 200.456 458.093C201.326 458.093 201.938 458.529 202.185 459.258H202.256C202.538 458.552 203.244 458.093 204.174 458.093C205.339 458.093 206.162 458.846 206.162 460.27V464.564H204.668V460.505C204.668 459.705 204.186 459.352 203.574 459.352C202.832 459.352 202.409 459.858 202.409 460.576V464.564H200.95V460.446C200.95 459.787 200.503 459.352 199.867 459.352C199.22 459.352 198.691 459.882 198.691 460.682V464.564H197.185Z" fill="#171717"/>
<line x1="73.9645" y1="478.802" x2="533.649" y2="478.802" stroke="#E1E2E4" stroke-width="0.803223"/>
<rect width="96.3867" height="186.387" transform="translate(565.778 292.816)" fill="#F7F7F8"/>
<path d="M579.381 315.573C577.616 315.561 575.946 314.514 575.946 311.396C575.946 308.525 577.322 306.819 579.452 306.819C581.17 306.819 582.335 307.901 582.511 309.301H580.77C580.629 308.701 580.134 308.337 579.452 308.337C578.299 308.337 577.687 309.384 577.675 311.055H577.758C578.146 310.302 578.993 309.854 579.934 309.854C581.464 309.854 582.605 311.008 582.605 312.608C582.605 314.337 581.299 315.585 579.381 315.573ZM579.37 314.173C580.24 314.173 580.887 313.514 580.887 312.655C580.887 311.808 580.264 311.137 579.393 311.137C578.522 311.137 577.864 311.819 577.852 312.655C577.864 313.49 578.499 314.173 579.37 314.173ZM583.803 313.949V312.549L587.404 306.937H589.628V312.525H590.71V313.949H589.628V315.455H587.945V313.949H583.803ZM585.592 312.525H587.969V308.878H587.886L585.592 312.455V312.525ZM591.979 315.455L591.967 314.173L595.026 311.361C595.826 310.596 596.25 310.125 596.25 309.454C596.25 308.701 595.673 308.231 594.897 308.231C594.097 308.231 593.579 308.737 593.579 309.549H591.896C591.885 307.878 593.12 306.819 594.92 306.819C596.744 306.819 597.956 307.854 597.956 309.337C597.956 310.302 597.485 311.102 595.732 312.69L594.438 313.949V313.996H598.074V315.455H591.979ZM608.096 305.831V316.538H606.602V305.831H608.096ZM599.142 313.514C599.96 313.508 600.895 313.508 601.872 313.478V312.572C600.695 312.367 599.931 311.637 599.942 310.631C599.931 309.431 601.025 308.619 602.601 308.619C604.19 308.619 605.296 309.431 605.296 310.631C605.296 311.631 604.531 312.361 603.354 312.572V313.431C604.249 313.39 605.155 313.32 606.014 313.208L606.119 314.314C603.778 314.714 601.248 314.737 599.342 314.737L599.142 313.514ZM605.861 307.019V308.195H599.354V307.019H601.872V305.878H603.366V307.019H605.861ZM602.601 309.76C601.872 309.76 601.354 310.078 601.366 310.631C601.354 311.196 601.872 311.502 602.601 311.502C603.354 311.502 603.86 311.196 603.86 310.631C603.86 310.078 603.354 309.76 602.601 309.76Z" fill="#171717"/>
<line x1="575.416" y1="329.692" x2="652.526" y2="329.692" stroke="#E1E2E4" stroke-width="0.803223"/>
<path d="M575.946 351.226V349.826L579.546 344.214H581.77V349.803H582.852V351.226H581.77V352.732H580.087V351.226H575.946ZM577.734 349.803H580.111V346.155H580.029L577.734 349.732V349.803ZM587.251 352.85C585.474 352.85 584.18 351.803 584.145 350.332H585.862C585.898 351.003 586.51 351.45 587.251 351.45C588.133 351.45 588.757 350.826 588.757 349.944C588.757 349.038 588.122 348.414 587.227 348.403C586.592 348.403 586.145 348.638 585.886 349.12H584.286L584.745 344.214H589.992V345.661H586.204L585.968 347.814H586.039C586.357 347.391 586.992 347.097 587.745 347.097C589.31 347.097 590.475 348.261 590.475 349.897C590.475 351.615 589.169 352.85 587.251 352.85ZM594.991 352.85C593.049 352.85 591.649 351.826 591.649 350.438C591.649 349.367 592.473 348.497 593.532 348.332V348.273C592.614 348.097 591.979 347.32 591.979 346.391C591.979 345.061 593.249 344.096 594.991 344.096C596.732 344.096 598.003 345.061 598.015 346.391C598.003 347.332 597.356 348.097 596.462 348.273V348.332C597.497 348.497 598.332 349.367 598.332 350.438C598.332 351.826 596.932 352.85 594.991 352.85ZM594.991 351.497C595.885 351.497 596.485 350.991 596.485 350.262C596.485 349.52 595.862 348.979 594.991 348.979C594.12 348.979 593.485 349.52 593.497 350.262C593.485 350.991 594.085 351.497 594.991 351.497ZM594.991 347.732C595.744 347.732 596.285 347.249 596.285 346.567C596.285 345.908 595.756 345.438 594.991 345.438C594.226 345.438 593.708 345.896 593.708 346.567C593.708 347.249 594.238 347.732 594.991 347.732ZM608.308 343.108V353.815H606.814V343.108H608.308ZM599.354 350.791C600.172 350.785 601.107 350.785 602.084 350.756V349.85C600.907 349.644 600.142 348.914 600.154 347.908C600.142 346.708 601.237 345.896 602.813 345.896C604.402 345.896 605.508 346.708 605.508 347.908C605.508 348.908 604.743 349.638 603.566 349.85V350.709C604.46 350.667 605.366 350.597 606.225 350.485L606.331 351.591C603.99 351.991 601.46 352.015 599.554 352.015L599.354 350.791ZM606.072 344.296V345.473H599.566V344.296H602.084V343.155H603.578V344.296H606.072ZM602.813 347.038C602.084 347.038 601.566 347.355 601.578 347.908C601.566 348.473 602.084 348.779 602.813 348.779C603.566 348.779 604.072 348.473 604.072 347.908C604.072 347.355 603.566 347.038 602.813 347.038Z" fill="#171717"/>
<line x1="575.416" y1="366.969" x2="652.526" y2="366.969" stroke="#E1E2E4" stroke-width="0.803223"/>
<path d="M576.087 390.01L576.075 388.727L579.134 385.915C579.934 385.15 580.358 384.68 580.358 384.009C580.358 383.256 579.781 382.785 579.005 382.785C578.205 382.785 577.687 383.291 577.687 384.103H576.005C575.993 382.432 577.228 381.374 579.028 381.374C580.852 381.374 582.064 382.409 582.064 383.891C582.064 384.856 581.593 385.656 579.84 387.245L578.546 388.504V388.551H582.182V390.01H576.087ZM583.556 390.01L583.545 388.727L586.604 385.915C587.404 385.15 587.827 384.68 587.827 384.009C587.827 383.256 587.251 382.785 586.474 382.785C585.674 382.785 585.156 383.291 585.156 384.103H583.474C583.462 382.432 584.698 381.374 586.498 381.374C588.322 381.374 589.533 382.409 589.533 383.891C589.533 384.856 589.063 385.656 587.31 387.245L586.015 388.504V388.551H589.651V390.01H583.556ZM594.32 390.127C592.555 390.116 590.885 389.068 590.885 385.951C590.885 383.08 592.261 381.374 594.391 381.374C596.109 381.374 597.273 382.456 597.45 383.856H595.709C595.567 383.256 595.073 382.891 594.391 382.891C593.238 382.891 592.626 383.939 592.614 385.609H592.696C593.085 384.856 593.932 384.409 594.873 384.409C596.403 384.409 597.544 385.562 597.544 387.162C597.544 388.892 596.238 390.139 594.32 390.127ZM594.308 388.727C595.179 388.727 595.826 388.068 595.826 387.209C595.826 386.362 595.203 385.692 594.332 385.692C593.461 385.692 592.802 386.374 592.791 387.209C592.802 388.045 593.438 388.727 594.308 388.727ZM607.531 380.385V391.092H606.037V380.385H607.531ZM598.577 388.068C599.395 388.062 600.331 388.062 601.307 388.033V387.127C600.131 386.921 599.366 386.192 599.378 385.186C599.366 383.986 600.46 383.174 602.037 383.174C603.625 383.174 604.731 383.986 604.731 385.186C604.731 386.186 603.966 386.915 602.79 387.127V387.986C603.684 387.945 604.59 387.874 605.449 387.762L605.555 388.868C603.213 389.269 600.684 389.292 598.777 389.292L598.577 388.068ZM605.296 381.574V382.75H598.789V381.574H601.307V380.432H602.801V381.574H605.296ZM602.037 384.315C601.307 384.315 600.789 384.633 600.801 385.186C600.789 385.75 601.307 386.056 602.037 386.056C602.79 386.056 603.296 385.75 603.296 385.186C603.296 384.633 602.79 384.315 602.037 384.315Z" fill="#171717"/>
<line x1="575.416" y1="404.247" x2="652.526" y2="404.247" stroke="#E1E2E4" stroke-width="0.803223"/>
<path d="M579.758 418.769V427.287H577.981V420.451H577.934L575.981 421.675V420.11L578.087 418.769H579.758ZM585.051 427.405C583.109 427.405 581.709 426.381 581.709 424.993C581.709 423.922 582.533 423.051 583.592 422.887V422.828C582.674 422.651 582.039 421.875 582.039 420.945C582.039 419.616 583.309 418.651 585.051 418.651C586.792 418.651 588.063 419.616 588.074 420.945C588.063 421.887 587.416 422.651 586.521 422.828V422.887C587.557 423.051 588.392 423.922 588.392 424.993C588.392 426.381 586.992 427.405 585.051 427.405ZM585.051 426.052C585.945 426.052 586.545 425.546 586.545 424.816C586.545 424.075 585.921 423.534 585.051 423.534C584.18 423.534 583.545 424.075 583.556 424.816C583.545 425.546 584.145 426.052 585.051 426.052ZM585.051 422.287C585.804 422.287 586.345 421.804 586.345 421.122C586.345 420.463 585.815 419.992 585.051 419.992C584.286 419.992 583.768 420.451 583.768 421.122C583.768 421.804 584.298 422.287 585.051 422.287ZM592.826 418.651C594.591 418.663 596.262 419.71 596.262 422.804C596.273 425.699 594.897 427.405 592.755 427.405C591.037 427.405 589.873 426.334 589.696 424.887H591.438C591.579 425.51 592.073 425.887 592.755 425.887C593.92 425.887 594.532 424.852 594.532 423.145H594.461C594.061 423.899 593.226 424.346 592.273 424.346C590.743 424.346 589.614 423.193 589.602 421.604C589.602 419.886 590.896 418.639 592.826 418.651ZM592.838 420.039C591.967 420.039 591.32 420.71 591.332 421.557C591.332 422.392 591.955 423.051 592.826 423.051C593.685 423.051 594.355 422.369 594.355 421.545C594.344 420.733 593.708 420.039 592.838 420.039ZM606.225 417.663V428.37H604.731V417.663H606.225ZM597.271 425.346C598.089 425.34 599.025 425.34 600.001 425.31V424.404C598.825 424.199 598.06 423.469 598.072 422.463C598.06 421.263 599.154 420.451 600.731 420.451C602.319 420.451 603.425 421.263 603.425 422.463C603.425 423.463 602.66 424.193 601.484 424.404V425.263C602.378 425.222 603.284 425.152 604.143 425.04L604.249 426.146C601.907 426.546 599.378 426.569 597.471 426.569L597.271 425.346ZM603.99 418.851V420.028H597.483V418.851H600.001V417.71H601.495V418.851H603.99ZM600.731 421.592C600.001 421.592 599.483 421.91 599.495 422.463C599.483 423.028 600.001 423.334 600.731 423.334C601.484 423.334 601.99 423.028 601.99 422.463C601.99 421.91 601.484 421.592 600.731 421.592Z" fill="#171717"/>
<line x1="575.416" y1="441.524" x2="652.526" y2="441.524" stroke="#E1E2E4" stroke-width="0.803223"/>
<path d="M576.416 464.564L580.005 457.552V457.493H575.828V456.046H581.84V457.517L578.252 464.564H576.416ZM583.698 464.564L587.286 457.552V457.493H583.109V456.046H589.122V457.517L585.533 464.564H583.698ZM599.062 454.94V465.647H597.568V454.94H599.062ZM590.108 462.623C590.926 462.617 591.861 462.617 592.838 462.588V461.682C591.661 461.476 590.896 460.746 590.908 459.74C590.896 458.54 591.991 457.728 593.567 457.728C595.156 457.728 596.262 458.54 596.262 459.74C596.262 460.741 595.497 461.47 594.32 461.682V462.541C595.214 462.5 596.12 462.429 596.979 462.317L597.085 463.423C594.744 463.823 592.214 463.847 590.308 463.847L590.108 462.623ZM596.826 456.128V457.305H590.32V456.128H592.838V454.987H594.332V456.128H596.826ZM593.567 458.87C592.838 458.87 592.32 459.187 592.332 459.74C592.32 460.305 592.838 460.611 593.567 460.611C594.32 460.611 594.826 460.305 594.826 459.74C594.826 459.187 594.32 458.87 593.567 458.87Z" fill="#171717"/>
<line x1="575.416" y1="478.802" x2="652.526" y2="478.802" stroke="#E1E2E4" stroke-width="0.803223"/>
</g>
<path d="M41.8356 292.816V293.62H662.164V292.816V292.013H41.8356V292.816Z" fill="#171717" mask="url(#path-42-inside-1_4947_27007)"/>
</g>
</g>
</g>
<defs>
<filter id="filter0_ddd_4947_27007" x="0" y="0" width="704" height="535.984" filterUnits="userSpaceOnUse" color-interpolation-filters="sRGB">
<feFlood flood-opacity="0" result="BackgroundImageFix"/>
<feColorMatrix in="SourceAlpha" type="matrix" values="0 0 0 0 0 0 0 0 0 0 0 0 0 0 0 0 0 0 127 0" result="hardAlpha"/>
<feOffset/>
<feGaussianBlur stdDeviation="1"/>
<feComposite in2="hardAlpha" operator="out"/>
<feColorMatrix type="matrix" values="0 0 0 0 0 0 0 0 0 0 0 0 0 0 0 0 0 0 0.05 0"/>
<feBlend mode="normal" in2="BackgroundImageFix" result="effect1_dropShadow_4947_27007"/>
<feColorMatrix in="SourceAlpha" type="matrix" values="0 0 0 0 0 0 0 0 0 0 0 0 0 0 0 0 0 0 127 0" result="hardAlpha"/>
<feOffset dy="1"/>
<feGaussianBlur stdDeviation="2.5"/>
<feComposite in2="hardAlpha" operator="out"/>
<feColorMatrix type="matrix" values="0 0 0 0 0 0 0 0 0 0 0 0 0 0 0 0 0 0 0.05 0"/>
<feBlend mode="normal" in2="effect1_dropShadow_4947_27007" result="effect2_dropShadow_4947_27007"/>
<feColorMatrix in="SourceAlpha" type="matrix" values="0 0 0 0 0 0 0 0 0 0 0 0 0 0 0 0 0 0 127 0" result="hardAlpha"/>
<feOffset dy="5"/>
<feGaussianBlur stdDeviation="6"/>
<feComposite in2="hardAlpha" operator="out"/>
<feColorMatrix type="matrix" values="0 0 0 0 0 0 0 0 0 0 0 0 0 0 0 0 0 0 0.05 0"/>
<feBlend mode="normal" in2="effect2_dropShadow_4947_27007" result="effect3_dropShadow_4947_27007"/>
<feBlend mode="normal" in="SourceGraphic" in2="effect3_dropShadow_4947_27007" result="shape"/>
</filter>
<clipPath id="clip0_4947_27007">
<path d="M12 16.9452C12 11.4526 16.4526 7 21.9452 7H682.055C687.547 7 692 11.4526 692 16.9452V509.039C692 514.532 687.547 518.984 682.055 518.984H21.9452C16.4526 518.984 12 514.532 12 509.039V16.9452Z" fill="white"/>
</clipPath>
<clipPath id="clip1_4947_27007">
<path d="M41.8356 271.816C41.8356 266.493 46.151 262.178 51.4742 262.178H652.526C657.849 262.178 662.164 266.493 662.164 271.816V469.564C662.164 474.888 657.849 479.203 652.526 479.203H51.4743C46.151 479.203 41.8356 474.888 41.8356 469.564V271.816Z" fill="white"/>
</clipPath>
<clipPath id="clip2_4947_27007">
<path d="M41.8356 292.816H662.164V479.203H41.8356V292.816Z" fill="white"/>
</clipPath>
</defs>
</svg>
