<svg width="287" height="120" viewBox="0 0 287 120" fill="none" xmlns="http://www.w3.org/2000/svg">
<g filter="url(#filter0_d_3245_45837)">
<rect x="8" y="6.63867" width="271" height="103" rx="7.04225" fill="white" shape-rendering="crispEdges"/>
<path d="M126.607 67.7079C125.199 67.7079 123.967 67.3929 122.911 66.763C121.855 66.1146 121.031 65.2438 120.438 64.1508C119.864 63.0577 119.576 61.8534 119.576 60.538C119.576 59.2041 119.854 57.9999 120.41 56.9253C120.966 55.8322 121.763 54.9707 122.8 54.3408C123.838 53.6924 125.06 53.3682 126.468 53.3682C127.895 53.3682 129.118 53.6924 130.137 54.3408C131.174 54.9707 131.971 55.8322 132.527 56.9253C133.082 57.9999 133.36 59.2041 133.36 60.538V61.3717H121.716C121.827 62.1869 122.087 62.9373 122.494 63.6227C122.92 64.2897 123.486 64.827 124.19 65.2346C124.894 65.6236 125.709 65.8182 126.635 65.8182C127.617 65.8182 128.441 65.6051 129.108 65.179C129.775 64.7343 130.294 64.1693 130.665 63.4838H132.943C132.462 64.7251 131.693 65.7441 130.637 66.5407C129.599 67.3188 128.256 67.7079 126.607 67.7079ZM121.744 59.4264H131.193C131.007 58.2407 130.507 57.2495 129.692 56.4529C128.877 55.6562 127.802 55.2579 126.468 55.2579C125.134 55.2579 124.06 55.6562 123.245 56.4529C122.448 57.2495 121.948 58.2407 121.744 59.4264Z" fill="#171717"/>
<path d="M115.855 67.4854V48.0322H117.939V67.4854H115.855Z" fill="#171717"/>
<path d="M107.5 67.7077C106.352 67.7077 105.361 67.4854 104.527 67.0407C103.712 66.5961 103.045 66.0032 102.526 65.2621V67.4854H100.442V48.0322H102.526V55.8413C103.045 55.0817 103.712 54.4796 104.527 54.0349C105.361 53.5903 106.352 53.3679 107.5 53.3679C108.853 53.3679 110.029 53.6922 111.03 54.3406C112.049 54.9705 112.836 55.832 113.392 56.9251C113.948 57.9996 114.226 59.2039 114.226 60.5378C114.226 61.8532 113.948 63.0575 113.392 64.1505C112.836 65.2436 112.049 66.1144 111.03 66.7628C110.029 67.3927 108.853 67.7077 107.5 67.7077ZM107.222 65.8179C108.26 65.8179 109.14 65.5771 109.863 65.0954C110.604 64.6137 111.169 63.9745 111.558 63.1779C111.947 62.3627 112.141 61.4827 112.141 60.5378C112.141 59.5744 111.947 58.6944 111.558 57.8977C111.169 57.1011 110.604 56.4619 109.863 55.9802C109.14 55.4985 108.26 55.2577 107.222 55.2577C106.203 55.2577 105.333 55.4985 104.61 55.9802C103.888 56.4619 103.341 57.1011 102.971 57.8977C102.6 58.6944 102.415 59.5744 102.415 60.5378C102.415 61.4827 102.6 62.3627 102.971 63.1779C103.341 63.9745 103.888 64.6137 104.61 65.0954C105.333 65.5771 106.203 65.8179 107.222 65.8179Z" fill="#171717"/>
<path d="M91.8915 67.7079C90.4834 67.7079 89.2607 67.3929 88.2232 66.763C87.1857 66.1146 86.389 65.2438 85.8332 64.1508C85.2774 63.0577 84.9995 61.8534 84.9995 60.538C84.9995 59.2041 85.2774 57.9999 85.8332 56.9253C86.389 55.8322 87.1857 54.9707 88.2232 54.3408C89.2607 53.6924 90.4834 53.3682 91.8915 53.3682C93.318 53.3682 94.5408 53.6924 95.5598 54.3408C96.5973 54.9707 97.3939 55.8322 97.9497 56.9253C98.5055 57.9999 98.7834 59.2041 98.7834 60.538C98.7834 61.8534 98.5055 63.0577 97.9497 64.1508C97.3939 65.2438 96.5973 66.1146 95.5598 66.763C94.5408 67.3929 93.318 67.7079 91.8915 67.7079ZM91.8915 65.8182C92.929 65.8182 93.7997 65.5773 94.5038 65.0956C95.2263 64.6139 95.7728 63.9748 96.1434 63.1781C96.5139 62.3629 96.6992 61.4829 96.6992 60.538C96.6992 59.5746 96.5139 58.6946 96.1434 57.898C95.7728 57.1013 95.2263 56.4621 94.5038 55.9804C93.7997 55.4987 92.929 55.2579 91.8915 55.2579C90.8725 55.2579 90.0017 55.4987 89.2792 55.9804C88.5567 56.4621 88.0101 57.1013 87.6396 57.898C87.269 58.6946 87.0838 59.5746 87.0838 60.538C87.0838 61.4829 87.269 62.3629 87.6396 63.1781C88.0101 63.9748 88.5567 64.6139 89.2792 65.0956C90.0017 65.5773 90.8725 65.8182 91.8915 65.8182Z" fill="#171717"/>
<path d="M77.7485 67.4856V53.5905H79.8328V57.0087C79.9069 56.7678 80.0459 56.4529 80.2497 56.0638C80.472 55.6562 80.7869 55.2486 81.1945 54.841C81.6021 54.4335 82.1116 54.0907 82.723 53.8128C83.3529 53.5164 84.094 53.3682 84.9462 53.3682H85.0851V55.4524H84.835C83.7975 55.4524 82.899 55.7396 82.1394 56.3139C81.3983 56.8697 80.824 57.6015 80.4164 58.5093C80.0273 59.3986 79.8328 60.3528 79.8328 61.3717V67.4856H77.7485Z" fill="#171717"/>
<path d="M67.0548 67.708C65.1836 67.708 63.5718 67.2911 62.2193 66.4574C60.8854 65.6052 59.8571 64.4658 59.1346 63.0392C58.4121 61.6126 58.0508 60.0286 58.0508 58.2871C58.0508 56.5456 58.4213 54.9615 59.1624 53.535C59.9035 52.1084 60.9502 50.9783 62.3027 50.1446C63.6737 49.2923 65.2762 48.8662 67.1104 48.8662C69.0927 48.8662 70.8065 49.3572 72.2516 50.3391C73.7152 51.3025 74.7897 52.553 75.4752 54.0908H73.1964C72.6406 53.1088 71.8625 52.3307 70.8621 51.7564C69.8801 51.1821 68.6852 50.8949 67.2771 50.8949C65.795 50.8949 64.5166 51.2284 63.4421 51.8953C62.3675 52.5438 61.5431 53.4238 60.9688 54.5354C60.4129 55.647 60.135 56.8976 60.135 58.2871C60.135 59.6581 60.4129 60.9086 60.9688 62.0388C61.5246 63.1504 62.3305 64.0396 63.3865 64.7066C64.4611 65.355 65.7394 65.6793 67.2215 65.6793C68.3331 65.6793 69.3799 65.4384 70.3618 64.9567C71.3623 64.475 72.1682 63.7803 72.7796 62.8725C73.4095 61.9646 73.7244 60.8716 73.7244 59.5932H66.9992V57.7035H75.642V67.4856H73.7244V64.2342C73.3354 64.827 72.8352 65.3921 72.2238 65.9294C71.6124 66.4481 70.8713 66.8742 70.0006 67.2077C69.1483 67.5412 68.1664 67.708 67.0548 67.708Z" fill="#171717"/>
<path fill-rule="evenodd" clip-rule="evenodd" d="M37.9659 46.4749C38.5394 46.3212 39.1288 46.6615 39.2825 47.235L40.9508 53.4615L45.509 48.9033C45.9288 48.4835 46.6095 48.4835 47.0293 48.9033L48.9313 50.8053C49.3511 51.2251 49.3511 51.9057 48.9313 52.3255L44.3733 56.8835L50.5992 58.5518C51.1726 58.7054 51.5129 59.2949 51.3593 59.8684L50.6631 62.4665C50.5095 63.04 49.92 63.3803 49.3465 63.2266L43.1204 61.5584L44.7887 67.7845C44.9424 68.358 44.602 68.9475 44.0286 69.1011L41.4304 69.7973C40.8569 69.951 40.2675 69.6106 40.1138 69.0372L37.7223 60.1119L28.797 57.7204C28.2236 57.5668 27.8832 56.9773 28.0369 56.4038L28.7331 53.8057C28.8867 53.2322 29.4762 52.8919 30.0497 53.0455L36.2759 54.7139L34.6076 48.4876C34.4539 47.9142 34.7943 47.3247 35.3677 47.1711L37.9659 46.4749Z" fill="#D1F6EC"/>
<path d="M28.7478 53.7996C28.9015 53.2262 29.4908 52.8862 30.0642 53.0398L41.0721 55.9891C41.2973 56.0495 41.4872 56.1783 41.6248 56.3465C41.7389 56.4705 41.8256 56.6231 41.8719 56.7957L44.8181 67.7898C44.9716 68.3632 44.6308 68.9526 44.0574 69.1063L41.4598 69.8025C40.8863 69.9562 40.297 69.6153 40.1433 69.0418L37.7498 60.1092L28.8113 57.7147C28.238 57.5609 27.8979 56.9706 28.0515 56.3973L28.7478 53.7996Z" fill="#00FCB4"/>
<path d="M32.3521 62.0561C32.7719 61.6363 33.4528 61.6363 33.8726 62.0561L35.7739 63.9584C36.1937 64.3782 36.1937 65.0581 35.7739 65.4779L33.8726 67.3803C33.4528 67.8001 32.7719 67.8001 32.3521 67.3803L30.4497 65.4779C30.0304 65.0582 30.0304 64.3781 30.4497 63.9584L32.3521 62.0561Z" fill="#00FCB4"/>
<line x1="150.82" y1="18.6387" x2="150.82" y2="97.6387" stroke="#E1E2E4" stroke-dasharray="2 2"/>
<path d="M190.727 38.5449V78.1387H182.469V46.3652H182.25L173.172 52.0527V44.7793L182.961 38.5449H190.727ZM200.808 78.6309C198.237 78.6309 196.159 76.5527 196.214 74.0371C196.159 71.5215 198.237 69.498 200.808 69.498C203.214 69.498 205.347 71.5215 205.347 74.0371C205.347 76.5527 203.214 78.6309 200.808 78.6309ZM224.232 78.6855C215.974 78.6855 209.959 73.8184 209.795 66.9824H217.779C217.943 70.0996 220.787 72.1777 224.232 72.1777C228.334 72.1777 231.232 69.2793 231.232 65.1777C231.232 60.9668 228.279 58.0684 224.123 58.0137C221.17 58.0137 219.091 59.1074 217.888 61.3496H210.451L212.584 38.5449H236.974V45.2715H219.365L218.271 55.2793H218.599C220.076 53.3105 223.029 51.9434 226.529 51.9434C233.802 51.9434 239.216 57.3574 239.216 64.959C239.216 72.9434 233.146 78.6855 224.232 78.6855Z" fill="#008660"/>
<path d="M246.551 70.9824C244.863 70.9824 243.941 69.748 243.941 67.9668C243.941 66.1699 244.894 64.9355 246.551 64.9355C248.254 64.9355 249.144 66.1699 249.16 67.9668C249.144 69.7637 248.222 70.9824 246.551 70.9824ZM246.551 69.5918C247.222 69.5918 247.551 68.9355 247.566 67.9668C247.551 66.998 247.254 66.3262 246.551 66.3262C245.879 66.3262 245.535 67.0137 245.535 67.9668C245.535 68.9355 245.894 69.5918 246.551 69.5918ZM254.176 77.0137C252.504 77.0137 251.582 75.7793 251.582 73.998C251.582 72.2012 252.535 70.9668 254.176 70.9668C255.879 70.9668 256.785 72.2012 256.801 73.998C256.785 75.7949 255.863 77.0137 254.176 77.0137ZM254.176 75.623C254.863 75.623 255.191 74.9824 255.207 73.998C255.191 73.0293 254.894 72.3574 254.176 72.373C253.519 72.373 253.176 73.0449 253.176 73.998C253.176 74.9824 253.535 75.623 254.176 75.623ZM245.566 76.6387L253.347 65.3262H255.097L247.316 76.6387H245.566Z" fill="#008660"/>
</g>
<defs>
<filter id="filter0_d_3245_45837" x="0" y="0.638672" width="287" height="119" filterUnits="userSpaceOnUse" color-interpolation-filters="sRGB">
<feFlood flood-opacity="0" result="BackgroundImageFix"/>
<feColorMatrix in="SourceAlpha" type="matrix" values="0 0 0 0 0 0 0 0 0 0 0 0 0 0 0 0 0 0 127 0" result="hardAlpha"/>
<feOffset dy="2"/>
<feGaussianBlur stdDeviation="4"/>
<feComposite in2="hardAlpha" operator="out"/>
<feColorMatrix type="matrix" values="0 0 0 0 0 0 0 0 0 0 0 0 0 0 0 0 0 0 0.05 0"/>
<feBlend mode="normal" in2="BackgroundImageFix" result="effect1_dropShadow_3245_45837"/>
<feBlend mode="normal" in="SourceGraphic" in2="effect1_dropShadow_3245_45837" result="shape"/>
</filter>
</defs>
</svg>
