<svg width="357" height="497" viewBox="0 0 357 497" fill="none" xmlns="http://www.w3.org/2000/svg">
<g filter="url(#filter0_ddd_5067_27753)">
<g clip-path="url(#clip0_5067_27753)">
<rect x="11" y="7.14014" width="335" height="474" rx="21.44" fill="white"/>
<path d="M44.8691 31.7212V47.7524H42.6016V31.7212H44.8691ZM34.5156 32.9868V36.8892H37.9609V32.9868H40.1758V44.0083H32.2656V32.9868H34.5156ZM34.5156 42.1978H37.9609V38.6294H34.5156V42.1978ZM60.8265 31.7212V47.7173H58.6644V39.5786H57.2054V47.0142H55.1136V32.1431H57.2054V37.7856H58.6644V31.7212H60.8265ZM53.9886 33.6899C53.971 38.1548 52.6351 41.811 48.1351 44.4302L46.8343 42.8833C50.095 40.9673 51.4925 38.6206 51.8089 35.4829H47.6429V33.6899H53.9886ZM65.2877 32.4419V34.3403H68.5573V32.4419H70.8073V39.4204H63.0553V32.4419H65.2877ZM65.2877 37.6626H68.5573V36.0278H65.2877V37.6626ZM75.2721 31.7212V34.8325H77.4342V36.6431H75.2721V39.8599H73.0221V31.7212H75.2721ZM75.2721 40.4575V44.7993H66.8873V45.8364H75.7291V47.6118H64.6901V43.1997H73.0397V42.1978H64.6549V40.4575H75.2721ZM84.04 36.0806C84.0224 38.5239 85.3232 41.3364 87.9599 42.5493L86.7119 44.3071C84.9277 43.4897 83.6533 41.855 82.9501 39.9302C82.2294 42.0483 80.9199 43.8413 79.0654 44.7114L77.7646 42.936C80.4365 41.688 81.7724 38.7173 81.79 36.0806V35.0962H78.3974V33.2681H87.2568V35.0962H84.04V36.0806ZM90.7548 31.7212V37.8208H93.1103V39.7017H90.7548V47.7173H88.5048V31.7212H90.7548ZM108.312 38.8931V40.563H93.6692V38.8931H108.312ZM106.554 41.354V45.1333H97.5891V46.0474H107.029V47.5767H95.3567V43.7095H104.339V42.9009H95.3391V41.354H106.554ZM106.536 32.0024V35.7642H97.7297V36.6255H106.818V38.1372H95.4973V34.3403H104.286V33.5317H95.4622V32.0024H106.536ZM118.605 32.3892C121.049 32.3716 122.824 33.7603 122.824 35.7817C122.824 37.7856 121.049 39.1919 118.605 39.1743C116.162 39.1919 114.387 37.7856 114.404 35.7817C114.387 33.7603 116.162 32.3716 118.605 32.3892ZM118.605 34.1821C117.41 34.1821 116.566 34.7622 116.566 35.7817C116.566 36.7837 117.41 37.3638 118.605 37.3462C119.836 37.3638 120.697 36.7837 120.697 35.7817C120.697 34.7622 119.836 34.1821 118.605 34.1821ZM126.867 31.7388V47.7173H124.652V31.7388H126.867ZM113.42 40.1587C116.25 40.1587 120.275 40.0884 123.685 39.5786L123.826 41.231C122.508 41.4946 121.154 41.6616 119.818 41.7583V47.2427H117.586V41.8989C116.18 41.9604 114.852 41.9692 113.701 41.9868L113.42 40.1587ZM141.629 31.7388V36.6431H143.791V38.4712H141.629V43.6743H139.379V31.7388H141.629ZM138.43 33.4087V35.1841H128.938V33.4087H132.576V31.7036H134.809V33.4087H138.43ZM133.684 35.7466C136.004 35.7466 137.621 36.9946 137.621 38.8403C137.621 40.686 136.004 41.8989 133.684 41.8989C131.346 41.8989 129.711 40.686 129.711 38.8403C129.711 36.9946 131.346 35.7466 133.684 35.7466ZM133.684 37.4517C132.612 37.4692 131.891 37.9614 131.908 38.8403C131.891 39.7192 132.612 40.1938 133.684 40.1938C134.756 40.1938 135.494 39.7192 135.494 38.8403C135.494 37.9614 134.756 37.4692 133.684 37.4517ZM142.209 45.6431V47.436H131.258V42.7603H133.49V45.6431H142.209ZM161.766 33.0571V34.481C161.766 36.4146 161.784 38.6646 161.046 42.1274L158.848 41.8989C159.112 40.686 159.27 39.605 159.376 38.6294L150.095 39.1567L149.778 37.2407L159.516 36.9243C159.552 36.1685 159.56 35.4829 159.569 34.8501H150.305V33.0571H161.766ZM163.225 44.0435V45.8716H148.636V44.0435H153.856V40.1763H156.089V44.0435H163.225ZM177.583 31.7212V41.2837H175.333V31.7212H177.583ZM172.749 32.9165V34.7095H167.318V38.5063C170.35 38.4888 172.108 38.3833 174.068 37.9966L174.261 39.7896C172.099 40.229 170.148 40.2993 166.491 40.2993H165.103V32.9165H172.749ZM172.134 41.4419C175.491 41.4243 177.618 42.6021 177.636 44.5884C177.618 46.5747 175.491 47.7349 172.134 47.7349C168.706 47.7349 166.632 46.5747 166.632 44.5884C166.632 42.6021 168.706 41.4243 172.134 41.4419ZM172.134 43.1997C170.007 43.1997 168.882 43.6392 168.882 44.5884C168.882 45.52 170.007 45.9946 172.134 45.9946C174.243 45.9946 175.421 45.52 175.421 44.5884C175.421 43.6392 174.243 43.1997 172.134 43.1997ZM181.816 44.5532C180.99 44.5532 180.322 43.8853 180.339 43.0767C180.322 42.2681 180.99 41.6177 181.816 41.6177C182.589 41.6177 183.275 42.2681 183.275 43.0767C183.275 43.8853 182.589 44.5532 181.816 44.5532ZM181.816 37.856C180.99 37.856 180.322 37.188 180.339 36.3794C180.322 35.5708 180.99 34.9204 181.816 34.9204C182.589 34.9204 183.275 35.5708 183.275 36.3794C183.275 37.188 182.589 37.856 181.816 37.856ZM44.8691 57.7212V66.3169H42.6191V57.7212H44.8691ZM36.3789 67.02V68.5142H42.6367V67.02H44.8691V73.5415H34.1641V67.02H36.3789ZM36.3789 71.731H42.6367V70.2544H36.3789V71.731ZM36.0977 58.3892C38.5938 58.3716 40.4746 59.936 40.4746 62.186C40.4746 64.3657 38.5938 65.9302 36.0977 65.9302C33.6016 65.9302 31.7207 64.3657 31.7207 62.186C31.7207 59.936 33.6016 58.3716 36.0977 58.3892ZM36.0977 60.2524C34.8145 60.2524 33.9004 60.9731 33.918 62.186C33.9004 63.3813 34.8145 64.0845 36.0977 64.0845C37.3457 64.0845 38.2598 63.3813 38.2598 62.186C38.2598 60.9731 37.3457 60.2524 36.0977 60.2524ZM61.6526 65.6313V67.4067H55.6234V70.1665H53.4085V67.4067H47.0101V65.6313H61.6526ZM59.7718 58.4243V64.313H48.8382V58.4243H59.7718ZM51.0355 60.1646V62.5728H57.5745V60.1646H51.0355ZM60.0355 71.6431V73.436H48.7327V68.7778H50.9651V71.6431H60.0355ZM77.2057 66.9497V68.7075H70.9479V73.7173H68.733V68.7075H62.5631V66.9497H77.2057ZM66.5006 58.3364V60.1821H73.2155V58.3364H75.4655V65.4028H64.2858V58.3364H66.5006ZM66.5006 63.6099H73.2155V61.9399H66.5006V63.6099ZM91.6337 57.7212V73.7524H89.4189V65.1743H86.6064V63.3638H89.4189V57.7212H91.6337ZM86.3427 59.0571V60.8677H81.1044V63.522H85.7626V65.2798H81.1044V68.3032C83.3193 68.2856 85.0947 68.2065 87.081 67.8989L87.3095 69.6919C84.9716 70.0435 82.8798 70.1313 80.1376 70.1313H78.872V59.0571H86.3427ZM112.474 70.061V71.9419H97.8316V70.061H103.984V67.1782H99.0445V65.4204H101.189V60.8501H98.9742V59.0571H111.244V60.8501H108.994V65.4204H111.173V67.1782H106.216V70.061H112.474ZM103.439 65.4204H106.779V60.8501H103.439V65.4204ZM126.428 65.9829V67.7583H115.107V58.8989H126.305V60.7095H117.392V62.397H125.935V64.1548H117.392V65.9829H126.428ZM128.027 70.0259V71.854H113.385V70.0259H128.027ZM142.227 58.1079V59.7603H140.135V61.8696H142.121V63.5396H137.34V64.5415H143.528V66.2817H128.938V64.5415H135.09V63.5396H130.326V61.8696H132.295V59.7603H130.221V58.1079H142.227ZM141.752 67.1255V71.0454H132.84V71.9595H142.174V73.6118H130.643V69.5337H139.537V68.7251H130.625V67.1255H141.752ZM134.545 61.8696H137.885V59.7603H134.545V61.8696ZM157.903 57.7212V73.7524H155.67V57.7212H157.903ZM152.946 59.0571V65.2271H147.672V68.1626C150.107 68.1538 152.181 68.0132 154.528 67.6353L154.721 69.4458C152.084 69.9028 149.711 70.0083 146.793 70.0083H145.352V63.4517H150.661V60.8677H145.334V59.0571H152.946ZM167.339 58.5474C170.784 58.5474 173.35 60.2876 173.368 62.9243C173.35 65.3325 171.32 66.9585 168.446 67.2837V70.0083H174.686V71.854H160.044V70.0083H166.214V67.2661C163.348 66.9585 161.327 65.3237 161.327 62.9243C161.327 60.2876 163.893 58.5474 167.339 58.5474ZM167.339 60.3403C165.106 60.3403 163.542 61.3247 163.542 62.9243C163.542 64.6118 165.106 65.561 167.339 65.561C169.589 65.561 171.136 64.6118 171.153 62.9243C171.136 61.3247 169.589 60.3403 167.339 60.3403ZM193.576 57.7212V73.7173H191.449V57.7212H193.576ZM190.306 57.9849V72.979H188.197V65.0161H186.087V63.2056H188.197V57.9849H190.306ZM184.804 62.0103C184.804 64.6646 185.63 67.354 187.968 68.6899L186.65 70.3423C185.226 69.4985 184.286 68.0659 183.749 66.3521C183.196 68.2153 182.229 69.7974 180.761 70.6938L179.408 69.0415C181.763 67.6001 182.642 64.7173 182.642 62.0103V61.1489H180.023V59.356H187.23V61.1489H184.804V62.0103ZM204.383 58.6528V60.4458H201.201C201.219 62.3179 202.326 64.2339 204.928 65.0688L203.785 66.8091C202.01 66.2378 200.788 65.0952 200.094 63.6626C199.382 65.2271 198.107 66.4663 196.244 67.0728L195.049 65.3501C197.694 64.4976 198.898 62.4497 198.933 60.4458H195.664V58.6528H204.383ZM207.986 57.7212V61.606H210.148V63.4692H207.986V67.3716H205.736V57.7212H207.986ZM207.986 68.0571V73.7173H205.736V69.8325H197.211V68.0571H207.986ZM223.662 57.7212V63.9966H225.789V65.8423H223.662V73.7173H221.412V57.7212H223.662ZM215.629 59.356C215.611 63.7505 215.154 67.1782 212.289 70.3247L210.531 69.0767C212.711 66.7212 213.344 64.3745 213.484 61.1841H211.234V59.356H215.629ZM220.059 59.356C220.059 63.9263 219.654 67.8813 216.824 71.3618L215.049 70.1138C217.22 67.4419 217.809 64.6997 217.949 61.1841H216.156V59.356H220.059ZM232.606 62.0806C232.606 64.6646 233.924 67.4243 236.614 68.5493L235.401 70.3071C233.511 69.5073 232.21 67.9165 231.498 65.9653C230.769 68.0835 229.442 69.8413 227.561 70.7114L226.278 68.936C228.932 67.7583 230.303 64.7876 230.303 62.0806V61.0962H226.911V59.2681H235.946V61.0962H232.606V62.0806ZM239.795 57.7212V73.7173H237.528V57.7212H239.795Z" fill="#171717"/>
<path d="M39.3906 109.506V111.1H38.2344V115.053C38.8047 115.006 39.3594 114.952 39.8906 114.881L40.0312 116.35C37.1875 116.834 33.9375 116.881 31.5625 116.881L31.3438 115.288L32.8906 115.272V111.1H31.7188V109.506H39.3906ZM42.7031 108.334V112.334H44.625V113.991H42.7031V118.803H40.7031V108.334H42.7031ZM43.2188 120.694V122.288H33.4844V117.803H35.4688V120.694H43.2188ZM34.8125 115.225L36.3125 115.163V111.1H34.8125V115.225ZM57.6693 108.319V122.538H55.7631V115.366H54.4818V121.881H52.5912V108.522H54.4818V113.741H55.7631V108.319H57.6693ZM51.4037 109.788V118.959H45.7474V109.788H51.4037ZM47.6068 111.366V117.397H49.5443V111.366H47.6068ZM71.008 109.35V110.241C71.008 111.225 71.008 112.647 70.6798 114.413L68.7267 114.225C68.9767 112.858 69.0392 111.827 69.0548 110.975H63.6955V109.35H71.008ZM67.4767 112.631V115.35C68.8908 115.295 70.3439 115.186 71.6798 114.991L71.7892 116.428C68.8361 116.975 65.4923 117.022 63.0236 117.038L62.8517 115.444C63.6486 115.444 64.547 115.444 65.4923 115.413V112.631H67.4767ZM74.4923 108.319V112.647H76.2111V114.319H74.4923V118.959H72.4455V108.319H74.4923ZM74.9298 120.694V122.288H64.9455V118.006H66.9455V120.694H74.9298ZM88.8804 108.319V122.569H86.896V108.319H88.8804ZM84.4742 109.506V114.991H79.7867V117.6C81.9507 117.592 83.7945 117.467 85.8804 117.131L86.0523 118.741C83.7085 119.147 81.5992 119.241 79.0054 119.241H77.7242V113.413H82.4429V111.116H77.7085V109.506H84.4742Z" fill="#171717"/>
<path d="M31 151.1C31 142.264 38.1634 135.1 47 135.1H310C318.837 135.1 326 142.264 326 151.1V231.1C326 239.937 318.837 247.1 310 247.1H47C38.1634 247.1 31 239.937 31 231.1V151.1Z" fill="#F7F7F8"/>
<path d="M64.703 174.522V175.928H51.828V174.522H57.3905V173.022H59.1092V174.522H64.703ZM59.1092 167.397V168.678H63.4373V170.053H59.2498C59.4608 171.209 61.1248 172.178 64.0623 172.381L63.5311 173.709C60.9998 173.514 59.1326 172.725 58.2498 171.506C57.367 172.725 55.4842 173.514 52.9686 173.709L52.4373 172.381C55.3592 172.178 57.0233 171.209 57.2498 170.053H53.0936V168.678H57.3905V167.397H59.1092ZM58.2498 176.709C61.328 176.709 63.1248 177.553 63.1405 179.1C63.1248 180.631 61.328 181.475 58.2498 181.475C55.1561 181.475 53.328 180.631 53.328 179.1C53.328 177.553 55.1561 176.709 58.2498 176.709ZM58.2498 178.006C56.1717 178.006 55.078 178.366 55.0936 179.1C55.078 179.819 56.1717 180.178 58.2498 180.178C60.2811 180.178 61.3905 179.819 61.4061 179.1C61.3905 178.366 60.2811 178.006 58.2498 178.006ZM81.4635 167.366V174.522H79.7291V173.288H76.3229V171.959H79.7291V170.569H76.5104C75.6197 172.725 73.5572 174.131 70.4322 174.834L69.8229 173.413C73.1432 172.725 74.7994 171.264 75.0416 169.381H70.6041V167.975H76.9791C76.9791 168.42 76.94 168.842 76.8854 169.241H79.7291V167.366H81.4635ZM81.4635 175.069V178.788H73.9166V179.959H81.8385V181.35H72.1822V177.491H79.7291V176.444H72.1666V175.069H81.4635ZM95.7109 167.366V181.491H94.0547V167.366H95.7109ZM92.8359 167.631V180.803H91.1953V173.694H89.1641V172.288H91.1953V167.631H92.8359ZM87.9141 171.225C87.9141 173.616 88.7734 176.006 90.7891 177.163L89.7578 178.444C88.4531 177.663 87.5859 176.319 87.1016 174.709C86.6016 176.452 85.7031 177.936 84.3672 178.772L83.3047 177.475C85.3516 176.241 86.2422 173.678 86.2422 171.225V170.288H83.7891V168.881H90.1953V170.288H87.9141V171.225ZM112.69 168.053V169.147C112.69 170.241 112.69 171.491 112.346 173.163H114.268V174.569H101.362V173.163H110.596C110.925 171.639 110.956 170.475 110.956 169.444H102.956V168.053H112.69ZM112.675 176.209V181.319H102.909V176.209H112.675ZM104.612 177.569V179.913H110.956V177.569H104.612ZM118.61 168.241C120.485 168.241 121.86 169.647 121.86 171.647C121.86 173.663 120.485 175.038 118.61 175.038C116.735 175.038 115.375 173.663 115.375 171.647C115.375 169.647 116.735 168.241 118.61 168.241ZM118.61 169.725C117.625 169.725 116.922 170.459 116.938 171.647C116.922 172.819 117.625 173.584 118.61 173.569C119.578 173.584 120.281 172.819 120.281 171.647C120.281 170.459 119.578 169.725 118.61 169.725ZM127.36 167.381V175.803H125.703V172.272H124.313V175.709H122.703V167.647H124.313V170.881H125.703V167.381H127.36ZM127.36 176.475V181.491H125.625V177.866H117.688V176.475H127.36Z" fill="#46474C"/>
<path d="M58.2961 213.315C55.0734 213.293 52.0226 211.381 52.0226 205.688C52.0226 200.446 54.5363 197.331 58.425 197.331C61.5617 197.331 63.6886 199.307 64.0109 201.864H60.8312C60.5734 200.768 59.6711 200.102 58.425 200.102C56.3195 200.102 55.2023 202.014 55.1808 205.065H55.3312C56.0402 203.69 57.5871 202.874 59.3058 202.874C62.0988 202.874 64.1828 204.979 64.1828 207.901C64.1828 211.059 61.798 213.336 58.2961 213.315ZM58.2746 210.758C59.8644 210.758 61.0461 209.555 61.0461 207.987C61.0461 206.44 59.9074 205.215 58.3176 205.215C56.7277 205.215 55.5246 206.461 55.5031 207.987C55.5246 209.512 56.6847 210.758 58.2746 210.758ZM68.8263 211.51L66.9786 217.633H64.7013L65.7755 211.51H68.8263ZM76.4347 213.315C72.8897 213.315 70.3331 211.446 70.3331 208.911C70.3331 206.956 71.837 205.366 73.7706 205.065V204.958C72.0948 204.635 70.9347 203.217 70.9347 201.52C70.9347 199.092 73.255 197.331 76.4347 197.331C79.6143 197.331 81.9347 199.092 81.9561 201.52C81.9347 203.239 80.753 204.635 79.1202 204.958V205.065C81.0108 205.366 82.5362 206.956 82.5362 208.911C82.5362 211.446 79.9796 213.315 76.4347 213.315ZM76.4347 210.844C78.0675 210.844 79.1632 209.92 79.1632 208.588C79.1632 207.235 78.0245 206.247 76.4347 206.247C74.8448 206.247 73.6847 207.235 73.7061 208.588C73.6847 209.92 74.7804 210.844 76.4347 210.844ZM76.4347 203.969C77.8097 203.969 78.7979 203.088 78.7979 201.842C78.7979 200.639 77.8311 199.78 76.4347 199.78C75.0382 199.78 74.0929 200.618 74.0929 201.842C74.0929 203.088 75.0597 203.969 76.4347 203.969ZM84.9239 213.1L91.4766 200.295V200.188H83.8497V197.545H94.8282V200.231L88.2754 213.1H84.9239ZM102.05 213.315C98.8057 213.315 96.4424 211.403 96.3779 208.717H99.5146C99.5791 209.942 100.696 210.758 102.05 210.758C103.661 210.758 104.8 209.62 104.8 208.008C104.8 206.354 103.64 205.215 102.007 205.194C100.847 205.194 100.03 205.624 99.5576 206.504H96.6357L97.4736 197.545H107.056V200.188H100.138L99.708 204.12H99.8369C100.417 203.346 101.577 202.809 102.952 202.809C105.81 202.809 107.937 204.936 107.937 207.922C107.937 211.059 105.552 213.315 102.05 213.315ZM112.687 211.51L110.84 217.633H108.562L109.637 211.51H112.687ZM120.489 213.315C116.601 213.315 114.237 210.415 114.237 205.323C114.237 200.231 116.601 197.331 120.489 197.331C124.378 197.331 126.741 200.252 126.741 205.323C126.741 210.436 124.378 213.315 120.489 213.315ZM120.489 210.651C122.294 210.651 123.454 208.911 123.433 205.323C123.433 201.778 122.294 199.973 120.489 199.973C118.684 199.973 117.546 201.778 117.546 205.323C117.524 208.911 118.684 210.651 120.489 210.651ZM134.586 213.315C130.697 213.315 128.334 210.415 128.334 205.323C128.334 200.231 130.697 197.331 134.586 197.331C138.474 197.331 140.838 200.252 140.838 205.323C140.838 210.436 138.474 213.315 134.586 213.315ZM134.586 210.651C136.39 210.651 137.551 208.911 137.529 205.323C137.529 201.778 136.39 199.973 134.586 199.973C132.781 199.973 131.642 201.778 131.642 205.323C131.621 208.911 132.781 210.651 134.586 210.651ZM148.682 213.315C144.794 213.315 142.43 210.415 142.43 205.323C142.43 200.231 144.794 197.331 148.682 197.331C152.571 197.331 154.934 200.252 154.934 205.323C154.934 210.436 152.571 213.315 148.682 213.315ZM148.682 210.651C150.487 210.651 151.647 208.911 151.626 205.323C151.626 201.778 150.487 199.973 148.682 199.973C146.878 199.973 145.739 201.778 145.739 205.323C145.718 208.911 146.878 210.651 148.682 210.651Z" fill="#008660"/>
<path d="M169.897 196.862V208.797H168.228V207.286H165.063V206.108H168.228V196.862H169.897ZM170.284 210.907V212.26H158.911V207.637H160.563V210.907H170.284ZM156.731 204.051C159.649 204.034 163.569 203.999 166.927 203.577L167.032 204.772C165.688 204.992 164.272 205.141 162.884 205.229V208.305H161.214V205.317C159.685 205.387 158.217 205.396 156.942 205.387L156.731 204.051ZM161.882 197.459C164.185 197.459 165.784 198.567 165.784 200.237C165.784 201.907 164.185 202.979 161.882 202.979C159.544 202.979 157.962 201.907 157.962 200.237C157.962 198.567 159.544 197.459 161.882 197.459ZM161.882 198.708C160.476 198.69 159.526 199.288 159.544 200.237C159.526 201.168 160.476 201.749 161.882 201.749C163.235 201.749 164.185 201.168 164.202 200.237C164.185 199.288 163.235 198.69 161.882 198.708Z" fill="#008660"/>
<path d="M31 271.1C31 262.264 38.1634 255.1 47 255.1H310C318.837 255.1 326 262.264 326 271.1V351.1C326 359.937 318.837 367.1 310 367.1H47C38.1634 367.1 31 359.937 31 351.1V271.1Z" fill="#F7F7F8"/>
<path d="M63.0285 288.225V289.491C63.0285 290.811 63.0285 292.256 62.6535 294.256H64.6067V295.663H58.9973V301.506H57.2473V295.663H51.7317V294.256H60.8879C61.2785 292.334 61.2942 290.897 61.2942 289.631H53.2473V288.225H63.0285ZM77.8385 287.366V301.491H76.1666V294.256H74.6666V300.803H73.026V287.616H74.6666V292.819H76.1666V287.366H77.8385ZM71.6354 288.897V297.85H66.0885V288.897H71.6354ZM67.7135 290.272V296.475H70.0104V290.272H67.7135ZM94.9896 288.663V290.022C94.974 291.772 94.974 293.741 94.4271 296.694L92.6771 296.506C93.224 293.756 93.224 291.749 93.2396 290.053H84.8021V288.663H94.9896ZM96.3334 298.241V299.663H83.4584V298.241H88.2084V293.334H89.9271V298.241H96.3334ZM109.456 287.381V295.663H107.8V292.147H106.315V295.6H104.675V287.647H106.315V290.725H107.8V287.381H109.456ZM109.456 296.241V301.491H107.721V297.647H99.7215V296.241H109.456ZM103.534 288.366C103.55 291.866 101.768 294.303 98.1277 295.788L97.2996 294.491C100.05 293.444 101.487 291.842 101.768 289.772H97.9402V288.366H103.534Z" fill="#46474C"/>
<path d="M52.3716 330.35V327.793L58.9458 317.545H63.0064V327.75H64.9829V330.35H63.0064V333.1H59.9341V330.35H52.3716ZM55.6372 327.75H59.9771V321.09H59.8267L55.6372 327.622V327.75ZM72.5054 333.315C68.9604 333.315 66.4038 331.446 66.4038 328.911C66.4038 326.956 67.9077 325.366 69.8413 325.065V324.958C68.1655 324.635 67.0054 323.217 67.0054 321.52C67.0054 319.092 69.3257 317.331 72.5054 317.331C75.685 317.331 78.0054 319.092 78.0268 321.52C78.0054 323.239 76.8237 324.635 75.1909 324.958V325.065C77.0815 325.366 78.6069 326.956 78.6069 328.911C78.6069 331.446 76.0503 333.315 72.5054 333.315ZM72.5054 330.844C74.1382 330.844 75.2339 329.92 75.2339 328.588C75.2339 327.235 74.0952 326.247 72.5054 326.247C70.9155 326.247 69.7554 327.235 69.7768 328.588C69.7554 329.92 70.8511 330.844 72.5054 330.844ZM72.5054 323.969C73.8804 323.969 74.8686 323.088 74.8686 321.842C74.8686 320.639 73.9018 319.78 72.5054 319.78C71.1089 319.78 70.1636 320.618 70.1636 321.842C70.1636 323.088 71.1304 323.969 72.5054 323.969Z" fill="#008660"/>
<path d="M93.9326 316.844V326.143H92.2627V323.805H88.835V325.088H81.5225V318.022H88.835V319.323H92.2627V316.844H93.9326ZM83.1748 319.358V323.752H87.2002V319.358H83.1748ZM88.6592 326.583C91.9639 326.583 93.9854 327.672 93.9854 329.588C93.9854 331.487 91.9639 332.577 88.6592 332.559C85.3545 332.577 83.3154 331.487 83.333 329.588C83.3154 327.672 85.3545 326.583 88.6592 326.583ZM88.6592 327.866C86.3564 327.883 84.9854 328.481 84.9854 329.588C84.9854 330.643 86.3564 331.276 88.6592 331.276C90.9619 331.276 92.333 330.643 92.333 329.588C92.333 328.481 90.9619 327.883 88.6592 327.866ZM88.835 322.452H92.2627V320.659H88.835V322.452Z" fill="#008660"/>
<path d="M31 391.1C31 382.264 38.1634 375.1 47 375.1H310C318.837 375.1 326 382.264 326 391.1V471.1C326 479.937 318.837 487.1 310 487.1H47C38.1634 487.1 31 479.937 31 471.1V391.1Z" fill="#F7F7F8"/>
<path d="M63.3607 407.366V421.506H61.6419V407.366H63.3607ZM59.0169 408.6V413.897H54.1575V416.741C56.3841 416.725 58.306 416.616 60.5013 416.241L60.6575 417.663C58.2513 418.084 56.1419 418.163 53.6107 418.163H52.3763V412.522H57.2513V410.006H52.3607V408.6H59.0169ZM78.405 415.444V416.85H75.3737V421.491H73.6393V416.85H70.2956V421.491H68.5143V416.85H65.4987V415.444H78.405ZM68.78 407.913V409.6H75.0925V407.913H76.8425V414.006H67.0612V407.913H68.78ZM68.78 412.616H75.0925V410.959H68.78V412.616Z" fill="#46474C"/>
<path d="M52.5679 453.1L52.5464 450.758L58.1323 445.624C59.5933 444.227 60.3667 443.368 60.3667 442.143C60.3667 440.768 59.314 439.909 57.896 439.909C56.4351 439.909 55.4898 440.833 55.4898 442.315H52.4175C52.396 439.264 54.6519 437.331 57.939 437.331C61.2691 437.331 63.482 439.221 63.482 441.928C63.482 443.69 62.6226 445.151 59.4214 448.051L57.0581 450.35V450.436H63.6968V453.1H52.5679ZM72.272 437.545V453.1H69.0278V440.618H68.9419L65.3755 442.852V439.995L69.2212 437.545H72.272Z" fill="#008660"/>
<path d="M88.9326 436.862V448.463H87.2627V442.997H83.9932V441.608H87.2627V436.862H88.9326ZM84.0986 438.04C84.0811 442.153 81.251 445.247 76.7334 446.706L76.0303 445.37C79.5371 444.236 81.9189 442.091 82.2705 439.428H76.8389V438.04H84.0986ZM89.3369 450.907V452.26H78.79V447.268H80.4775V450.907H89.3369Z" fill="#008660"/>
</g>
</g>
<defs>
<filter id="filter0_ddd_5067_27753" x="0.280001" y="0.886804" width="356.44" height="495.44" filterUnits="userSpaceOnUse" color-interpolation-filters="sRGB">
<feFlood flood-opacity="0" result="BackgroundImageFix"/>
<feColorMatrix in="SourceAlpha" type="matrix" values="0 0 0 0 0 0 0 0 0 0 0 0 0 0 0 0 0 0 127 0" result="hardAlpha"/>
<feOffset/>
<feGaussianBlur stdDeviation="0.893333"/>
<feComposite in2="hardAlpha" operator="out"/>
<feColorMatrix type="matrix" values="0 0 0 0 0 0 0 0 0 0 0 0 0 0 0 0 0 0 0.05 0"/>
<feBlend mode="normal" in2="BackgroundImageFix" result="effect1_dropShadow_5067_27753"/>
<feColorMatrix in="SourceAlpha" type="matrix" values="0 0 0 0 0 0 0 0 0 0 0 0 0 0 0 0 0 0 127 0" result="hardAlpha"/>
<feOffset dy="0.893333"/>
<feGaussianBlur stdDeviation="2.23333"/>
<feComposite in2="hardAlpha" operator="out"/>
<feColorMatrix type="matrix" values="0 0 0 0 0 0 0 0 0 0 0 0 0 0 0 0 0 0 0.05 0"/>
<feBlend mode="normal" in2="effect1_dropShadow_5067_27753" result="effect2_dropShadow_5067_27753"/>
<feColorMatrix in="SourceAlpha" type="matrix" values="0 0 0 0 0 0 0 0 0 0 0 0 0 0 0 0 0 0 127 0" result="hardAlpha"/>
<feOffset dy="4.46667"/>
<feGaussianBlur stdDeviation="5.36"/>
<feComposite in2="hardAlpha" operator="out"/>
<feColorMatrix type="matrix" values="0 0 0 0 0 0 0 0 0 0 0 0 0 0 0 0 0 0 0.05 0"/>
<feBlend mode="normal" in2="effect2_dropShadow_5067_27753" result="effect3_dropShadow_5067_27753"/>
<feBlend mode="normal" in="SourceGraphic" in2="effect3_dropShadow_5067_27753" result="shape"/>
</filter>
<clipPath id="clip0_5067_27753">
<rect x="11" y="7.14014" width="335" height="474" rx="21.44" fill="white"/>
</clipPath>
</defs>
</svg>
