<svg width="357" height="607" viewBox="0 0 357 607" fill="none" xmlns="http://www.w3.org/2000/svg">
<g filter="url(#filter0_ddd_5010_32576)">
<g clip-path="url(#clip0_5010_32576)">
<rect x="11" y="6.75977" width="335" height="584.24" rx="21.44" fill="white"/>
<path d="M28.8667 38.9197C28.8667 32.9992 33.6662 28.1997 39.5867 28.1997H317.413C323.334 28.1997 328.133 32.9992 328.133 38.9197V149.8C328.133 155.72 323.334 160.52 317.413 160.52H39.5867C33.6662 160.52 28.8667 155.72 28.8667 149.8V38.9197Z" fill="#F7F7F8"/>
<path d="M57.6891 58.3115V59.5678H48.8674V54.8638H50.4168V58.3115H57.6891ZM58.9453 61.159V62.4292H53.9064V66.8819H52.343V62.4292H47.4157V61.159H58.9453ZM64.4845 56.4271C64.4845 57.9626 65.5035 59.5119 67.4576 60.168L66.676 61.3684C65.2662 60.9078 64.2682 59.9516 63.7168 58.7721C63.1654 60.0912 62.1116 61.152 60.6181 61.6476L59.8224 60.4192C61.8324 59.7632 62.9072 58.0882 62.9072 56.4411V56.2736H60.2831V55.0313H67.0947V56.2736H64.4845V56.4271ZM70.4168 62.3874V66.8819H68.8674V63.6296H61.8185V62.3874H70.4168ZM70.4168 54.2636V61.7871H68.8674V58.6605H66.7178V57.3903H68.8674V54.2636H70.4168ZM86.3247 54.2636V61.7592H84.7754V58.6744H82.6258V57.4042H84.7754V54.2636H86.3247ZM82.0535 62.0803C84.7335 62.0803 86.3666 62.9596 86.3666 64.4811C86.3666 66.0026 84.7335 66.8819 82.0535 66.8819C79.3875 66.8819 77.7543 66.0026 77.7683 64.4811C77.7543 62.9596 79.3875 62.0803 82.0535 62.0803ZM82.0535 63.2667C80.2947 63.2667 79.3037 63.6855 79.3037 64.4811C79.3037 65.2628 80.2947 65.6815 82.0535 65.6815C83.8122 65.6815 84.8172 65.2628 84.8172 64.4811C84.8172 63.6855 83.8122 63.2667 82.0535 63.2667ZM80.3925 56.4271C80.3925 57.9626 81.4114 59.5119 83.3656 60.168L82.5839 61.3963C81.1811 60.9217 80.1831 59.9586 79.6387 58.7721C79.0804 60.1191 78.0265 61.1939 76.526 61.7313L75.7164 60.503C77.7404 59.8051 78.8152 58.1021 78.8152 56.4411V56.3434H76.191V55.0871H83.0027V56.3434H80.3925V56.4271ZM92.7154 56.4969C92.7014 58.158 93.7483 59.7353 95.7304 60.3774L94.9208 61.6057C93.518 61.1311 92.5269 60.1819 91.9756 58.9676C91.4103 60.3076 90.3704 61.3544 88.9048 61.8709L88.0393 60.6426C90.1191 59.9726 91.1521 58.2696 91.1521 56.483V55.0453H92.7154V56.4969ZM98.1452 54.2636V57.9905H99.9039V59.3026H98.1452V63.5319H96.5958V54.2636H98.1452ZM98.6477 65.3744V66.6307H90.0633V62.6246H91.6546V65.3744H98.6477ZM114.221 54.8778V55.8549C114.221 56.8319 114.221 57.9486 113.914 59.4421H115.63V60.6984H104.101V59.4421H112.35C112.643 58.0812 112.671 57.0413 112.671 56.1201H105.525V54.8778H114.221ZM114.207 62.164V66.7284H105.483V62.164H114.207ZM107.004 63.3784V65.4721H112.671V63.3784H107.004ZM119.509 55.0453C121.184 55.0453 122.412 56.3015 122.412 58.0882C122.412 59.8888 121.184 61.1171 119.509 61.1171C117.834 61.1171 116.619 59.8888 116.619 58.0882C116.619 56.3015 117.834 55.0453 119.509 55.0453ZM119.509 56.3713C118.629 56.3713 118.001 57.0274 118.015 58.0882C118.001 59.1351 118.629 59.819 119.509 59.8051C120.374 59.819 121.002 59.1351 121.002 58.0882C121.002 57.0274 120.374 56.3713 119.509 56.3713ZM127.325 54.2776V61.8011H125.846V58.6465H124.603V61.7174H123.166V54.5149H124.603V57.4042H125.846V54.2776H127.325ZM127.325 62.4013V66.8819H125.776V63.6436H118.685V62.4013H127.325Z" fill="#171717"/>
<line x1="46.7334" y1="80.9132" x2="310.267" y2="80.9132" stroke="#E1E2E4" stroke-width="0.893333"/>
<path d="M56.9679 96.9903V97.9063C56.9679 98.8224 56.9679 99.8692 56.68 101.269H58.2896V102.447H47.4806V101.269H55.2144C55.4892 99.9936 55.5154 99.0187 55.5154 98.155H48.8154V96.9903H56.9679ZM56.9548 103.821V108.1H48.7761V103.821H56.9548ZM50.2025 104.96V106.923H55.5154V104.96H50.2025ZM61.9776 97.1474C63.5479 97.1474 64.6995 98.3251 64.6995 100C64.6995 101.688 63.5479 102.84 61.9776 102.84C60.4073 102.84 59.2688 101.688 59.2688 100C59.2688 98.3251 60.4073 97.1474 61.9776 97.1474ZM61.9776 98.3905C61.1532 98.3905 60.5643 99.0056 60.5774 100C60.5643 100.982 61.1532 101.623 61.9776 101.61C62.7889 101.623 63.3778 100.982 63.3778 100C63.3778 99.0056 62.7889 98.3905 61.9776 98.3905ZM69.3057 96.4276V103.481H67.9186V100.524H66.754V103.402H65.4061V96.6501H66.754V99.3589H67.9186V96.4276H69.3057ZM69.3057 104.044V108.244H67.8532V105.208H61.2055V104.044H69.3057Z" fill="#878A93"/>
<path d="M53.1229 132.272C50.2248 132.272 48.1136 130.563 48.056 128.164H50.8581C50.9157 129.258 51.9137 129.988 53.1229 129.988C54.5623 129.988 55.5796 128.97 55.5796 127.531C55.5796 126.053 54.5431 125.036 53.0845 125.017C52.0481 125.017 51.3188 125.401 50.8965 126.187H48.2863L49.0348 118.184H57.5948V120.545H51.4147L51.0309 124.057H51.146C51.6642 123.366 52.7006 122.886 53.929 122.886C56.4816 122.886 58.3817 124.786 58.3817 127.454C58.3817 130.256 56.2513 132.272 53.1229 132.272ZM62.6259 130.659L60.9753 136.129H58.9409L59.9005 130.659H62.6259ZM69.7681 132.272C66.87 132.272 64.7588 130.563 64.7012 128.164H67.5034C67.561 129.258 68.559 129.988 69.7681 129.988C71.2076 129.988 72.2248 128.97 72.2248 127.531C72.2248 126.053 71.1884 125.036 69.7297 125.017C68.6933 125.017 67.964 125.401 67.5418 126.187H64.9316L65.6801 118.184H74.24V120.545H68.06L67.6761 124.057H67.7913C68.3095 123.366 69.3459 122.886 70.5742 122.886C73.1268 122.886 75.0269 124.786 75.0269 127.454C75.0269 130.256 72.8965 132.272 69.7681 132.272ZM81.747 132.272C78.6953 132.272 76.5073 130.583 76.4498 128.164H79.3671C79.4246 129.201 80.4227 129.892 81.7661 129.892C83.148 129.892 84.146 129.105 84.1268 127.992C84.146 126.859 83.1288 126.053 81.4974 126.053H80.2115V123.923H81.4974C82.8601 123.923 83.8198 123.174 83.8198 122.08C83.8198 121.025 83.0137 120.295 81.7853 120.295C80.557 120.295 79.5398 120.986 79.5014 122.042H76.7377C76.776 119.643 78.9448 117.992 81.7853 117.992C84.6834 117.992 86.6219 119.7 86.6027 121.907C86.6219 123.462 85.5279 124.575 83.9733 124.844V124.959C86.0077 125.209 87.1401 126.456 87.1209 128.183C87.1401 130.563 84.8754 132.272 81.747 132.272ZM94.1672 132.272C90.6933 132.272 88.5821 129.681 88.5821 125.132C88.5821 120.583 90.6933 117.992 94.1672 117.992C97.6411 117.992 99.7523 120.602 99.7523 125.132C99.7523 129.7 97.6411 132.272 94.1672 132.272ZM94.1672 129.892C95.7794 129.892 96.8158 128.337 96.7966 125.132C96.7966 121.965 95.7794 120.353 94.1672 120.353C92.555 120.353 91.5378 121.965 91.5378 125.132C91.5186 128.337 92.555 129.892 94.1672 129.892ZM103.9 130.659L102.25 136.129H100.215L101.175 130.659H103.9ZM110.87 132.272C107.396 132.272 105.285 129.681 105.285 125.132C105.285 120.583 107.396 117.992 110.87 117.992C114.344 117.992 116.455 120.602 116.455 125.132C116.455 129.7 114.344 132.272 110.87 132.272ZM110.87 129.892C112.482 129.892 113.519 128.337 113.499 125.132C113.499 121.965 112.482 120.353 110.87 120.353C109.258 120.353 108.241 121.965 108.241 125.132C108.221 128.337 109.258 129.892 110.87 129.892ZM123.463 132.272C119.989 132.272 117.878 129.681 117.878 125.132C117.878 120.583 119.989 117.992 123.463 117.992C126.937 117.992 129.048 120.602 129.048 125.132C129.048 129.7 126.937 132.272 123.463 132.272ZM123.463 129.892C125.075 129.892 126.112 128.337 126.092 125.132C126.092 121.965 125.075 120.353 123.463 120.353C121.851 120.353 120.834 121.965 120.834 125.132C120.814 128.337 121.851 129.892 123.463 129.892ZM136.056 132.272C132.582 132.272 130.471 129.681 130.471 125.132C130.471 120.583 132.582 117.992 136.056 117.992C139.53 117.992 141.641 120.602 141.641 125.132C141.641 129.7 139.53 132.272 136.056 132.272ZM136.056 129.892C137.668 129.892 138.705 128.337 138.685 125.132C138.685 121.965 137.668 120.353 136.056 120.353C134.444 120.353 133.427 121.965 133.427 125.132C133.407 128.337 134.444 129.892 136.056 129.892Z" fill="#008660"/>
<path d="M156.788 120.36V131.022H155.297V129.672H152.47V128.62H155.297V120.36H156.788ZM157.134 132.907V134.116H146.974V129.986H148.45V132.907H157.134ZM145.027 126.783C147.633 126.767 151.135 126.736 154.135 126.359L154.229 127.426C153.028 127.623 151.763 127.756 150.523 127.835V130.583H149.031V127.913C147.665 127.976 146.354 127.984 145.215 127.976L145.027 126.783ZM149.628 120.894C151.685 120.894 153.114 121.883 153.114 123.375C153.114 124.867 151.685 125.825 149.628 125.825C147.539 125.825 146.126 124.867 146.126 123.375C146.126 121.883 147.539 120.894 149.628 120.894ZM149.628 122.009C148.372 121.993 147.524 122.527 147.539 123.375C147.524 124.207 148.372 124.726 149.628 124.726C150.837 124.726 151.685 124.207 151.701 123.375C151.685 122.527 150.837 121.993 149.628 122.009Z" fill="#008660"/>
<path d="M28.8667 181.96C28.8667 176.039 33.6662 171.24 39.5867 171.24H317.413C323.334 171.24 328.133 176.039 328.133 181.96V292.84C328.133 298.76 323.334 303.56 317.413 303.56H39.5867C33.6662 303.56 28.8667 298.76 28.8667 292.84V181.96Z" fill="#F7F7F8"/>
<path d="M57.9822 197.304V204.799H56.4328V201.714H54.2832V200.444H56.4328V197.304H57.9822ZM53.711 205.12C56.391 205.12 58.0241 206 58.0241 207.521C58.0241 209.043 56.391 209.922 53.711 209.922C51.0449 209.922 49.4118 209.043 49.4257 207.521C49.4118 206 51.0449 205.12 53.711 205.12ZM53.711 206.307C51.9522 206.307 50.9612 206.726 50.9612 207.521C50.9612 208.303 51.9522 208.722 53.711 208.722C55.4697 208.722 56.4747 208.303 56.4747 207.521C56.4747 206.726 55.4697 206.307 53.711 206.307ZM52.0499 199.467C52.0499 201.003 53.0689 202.552 55.023 203.208L54.2414 204.436C52.8386 203.962 51.8405 202.999 51.2962 201.812C50.7378 203.159 49.684 204.234 48.1835 204.771L47.3739 203.543C49.3978 202.845 50.4726 201.142 50.4726 199.481V199.383H47.8485V198.127H54.6601V199.383H52.0499V199.467ZM64.3728 199.537C64.3589 201.198 65.4058 202.775 67.3878 203.417L66.5783 204.646C65.1754 204.171 64.1844 203.222 63.6331 202.008C63.0677 203.348 62.0278 204.394 60.5622 204.911L59.6968 203.683C61.7766 203.013 62.8095 201.31 62.8095 199.523V198.085H64.3728V199.537ZM69.8026 197.304V201.031H71.5614V202.343H69.8026V206.572H68.2533V197.304H69.8026ZM70.3051 208.414V209.671H61.7208V205.665H63.312V208.414H70.3051ZM86.6458 197.304V209.922H85.1522V197.304H86.6458ZM84.0914 197.527V209.308H82.6258V205.33H80.9787C80.5111 206.572 79.6736 207.277 78.6058 207.27C76.9587 207.284 75.8839 205.539 75.8839 202.761C75.8839 199.984 76.9587 198.267 78.6058 198.267C79.6736 198.267 80.5041 198.965 80.9787 200.193H82.6258V197.527H84.0914ZM78.6058 199.732C77.7822 199.718 77.2937 200.793 77.3077 202.761C77.2937 204.729 77.7822 205.804 78.6058 205.79C79.4433 205.804 79.9597 204.729 79.9597 202.761C79.9597 200.793 79.4433 199.718 78.6058 199.732ZM81.2858 201.449C81.3486 201.854 81.3835 202.294 81.3835 202.761C81.3835 203.222 81.3486 203.655 81.2997 204.059H82.6258V201.449H81.2858ZM98.7593 197.304V204.799H97.21V201.714H95.0604V200.444H97.21V197.304H98.7593ZM94.4881 205.12C97.1681 205.12 98.8012 206 98.8012 207.521C98.8012 209.043 97.1681 209.922 94.4881 209.922C91.8221 209.922 90.1889 209.043 90.2029 207.521C90.1889 206 91.8221 205.12 94.4881 205.12ZM94.4881 206.307C92.7293 206.307 91.7383 206.726 91.7383 207.521C91.7383 208.303 92.7293 208.722 94.4881 208.722C96.2468 208.722 97.2518 208.303 97.2518 207.521C97.2518 206.726 96.2468 206.307 94.4881 206.307ZM92.8271 199.467C92.8271 201.003 93.846 202.552 95.8002 203.208L95.0185 204.436C93.6157 203.962 92.6177 202.999 92.0733 201.812C91.515 203.159 90.4611 204.234 88.9606 204.771L88.151 203.543C90.175 202.845 91.2498 201.142 91.2498 199.481V199.383H88.6256V198.127H95.4373V199.383H92.8271V199.467ZM114.221 197.918V198.895C114.221 199.872 114.221 200.989 113.914 202.482H115.63V203.738H104.101V202.482H112.35C112.643 201.121 112.671 200.081 112.671 199.16H105.525V197.918H114.221ZM114.207 205.204V209.768H105.483V205.204H114.207ZM107.004 206.418V208.512H112.671V206.418H107.004ZM119.509 198.085C121.184 198.085 122.412 199.342 122.412 201.128C122.412 202.929 121.184 204.157 119.509 204.157C117.834 204.157 116.619 202.929 116.619 201.128C116.619 199.342 117.834 198.085 119.509 198.085ZM119.509 199.411C118.629 199.411 118.001 200.067 118.015 201.128C118.001 202.175 118.629 202.859 119.509 202.845C120.374 202.859 121.002 202.175 121.002 201.128C121.002 200.067 120.374 199.411 119.509 199.411ZM127.325 197.318V204.841H125.846V201.687H124.603V204.757H123.166V197.555H124.603V200.444H125.846V197.318H127.325ZM127.325 205.441V209.922H125.776V206.684H118.685V205.441H127.325Z" fill="#171717"/>
<line x1="46.7334" y1="223.953" x2="310.267" y2="223.953" stroke="#E1E2E4" stroke-width="0.893333"/>
<path d="M56.9679 240.03V240.946C56.9679 241.862 56.9679 242.909 56.68 244.309H58.2896V245.487H47.4806V244.309H55.2144C55.4892 243.034 55.5154 242.059 55.5154 241.195H48.8154V240.03H56.9679ZM56.9548 246.861V251.14H48.7761V246.861H56.9548ZM50.2025 248V249.963H55.5154V248H50.2025ZM61.9776 240.187C63.5479 240.187 64.6995 241.365 64.6995 243.04C64.6995 244.728 63.5479 245.88 61.9776 245.88C60.4073 245.88 59.2688 244.728 59.2688 243.04C59.2688 241.365 60.4073 240.187 61.9776 240.187ZM61.9776 241.431C61.1532 241.431 60.5643 242.046 60.5774 243.04C60.5643 244.022 61.1532 244.663 61.9776 244.65C62.7889 244.663 63.3778 244.022 63.3778 243.04C63.3778 242.046 62.7889 241.431 61.9776 241.431ZM69.3057 239.468V246.521H67.9186V243.564H66.754V246.442H65.4061V239.69H66.754V242.399H67.9186V239.468H69.3057ZM69.3057 247.084V251.284H67.8532V248.248H61.2055V247.084H69.3057Z" fill="#878A93"/>
<path d="M53.4455 275.312C50.2787 275.312 47.9948 273.642 47.9948 271.377C47.9948 269.631 49.3383 268.21 51.0656 267.942V267.846C49.5686 267.558 48.5322 266.291 48.5322 264.775C48.5322 262.606 50.605 261.032 53.4455 261.032C56.286 261.032 58.3588 262.606 58.378 264.775C58.3588 266.31 57.3032 267.558 55.8446 267.846V267.942C57.5336 268.21 58.8962 269.631 58.8962 271.377C58.8962 273.642 56.6123 275.312 53.4455 275.312ZM53.4455 273.104C54.9042 273.104 55.883 272.279 55.883 271.089C55.883 269.88 54.8658 268.997 53.4455 268.997C52.0252 268.997 50.9888 269.88 51.008 271.089C50.9888 272.279 51.9677 273.104 53.4455 273.104ZM53.4455 266.963C54.6738 266.963 55.5567 266.176 55.5567 265.063C55.5567 263.988 54.693 263.22 53.4455 263.22C52.198 263.22 51.3535 263.969 51.3535 265.063C51.3535 266.176 52.2172 266.963 53.4455 266.963ZM65.885 275.312C62.4111 275.312 60.2999 272.721 60.2999 268.172C60.2999 263.623 62.4111 261.032 65.885 261.032C69.3588 261.032 71.47 263.642 71.47 268.172C71.47 272.74 69.3588 275.312 65.885 275.312ZM65.885 272.932C67.4971 272.932 68.5336 271.377 68.5144 268.172C68.5144 265.005 67.4971 263.393 65.885 263.393C64.2728 263.393 63.2556 265.005 63.2556 268.172C63.2364 271.377 64.2728 272.932 65.885 272.932ZM78.1901 275.312C75.292 275.312 73.1808 273.603 73.1232 271.204H75.9253C75.9829 272.298 76.9809 273.028 78.1901 273.028C79.6295 273.028 80.6467 272.01 80.6467 270.571C80.6467 269.093 79.6103 268.076 78.1517 268.057C77.1153 268.057 76.386 268.441 75.9637 269.227H73.3535L74.102 261.224H82.662V263.585H76.4819L76.0981 267.097H76.2132C76.7314 266.406 77.7678 265.926 78.9962 265.926C81.5488 265.926 83.4489 267.826 83.4489 270.494C83.4489 273.296 81.3185 275.312 78.1901 275.312ZM87.693 273.699L86.0425 279.169H84.008L84.9677 273.699H87.693ZM94.6626 275.312C91.1887 275.312 89.0775 272.721 89.0775 268.172C89.0775 263.623 91.1887 261.032 94.6626 261.032C98.1364 261.032 100.248 263.642 100.248 268.172C100.248 272.74 98.1364 275.312 94.6626 275.312ZM94.6626 272.932C96.2748 272.932 97.3112 271.377 97.292 268.172C97.292 265.005 96.2748 263.393 94.6626 263.393C93.0504 263.393 92.0332 265.005 92.0332 268.172C92.014 271.377 93.0504 272.932 94.6626 272.932ZM107.256 275.312C103.782 275.312 101.67 272.721 101.67 268.172C101.67 263.623 103.782 261.032 107.256 261.032C110.729 261.032 112.841 263.642 112.841 268.172C112.841 272.74 110.729 275.312 107.256 275.312ZM107.256 272.932C108.868 272.932 109.904 271.377 109.885 268.172C109.885 265.005 108.868 263.393 107.256 263.393C105.643 263.393 104.626 265.005 104.626 268.172C104.607 271.377 105.643 272.932 107.256 272.932ZM119.849 275.312C116.375 275.312 114.263 272.721 114.263 268.172C114.263 263.623 116.375 261.032 119.849 261.032C123.322 261.032 125.434 263.642 125.434 268.172C125.434 272.74 123.322 275.312 119.849 275.312ZM119.849 272.932C121.461 272.932 122.497 271.377 122.478 268.172C122.478 265.005 121.461 263.393 119.849 263.393C118.236 263.393 117.219 265.005 117.219 268.172C117.2 271.377 118.236 272.932 119.849 272.932Z" fill="#008660"/>
<path d="M140.788 263.4V274.063H139.297V272.712H136.47V271.66H139.297V263.4H140.788ZM141.134 275.947V277.156H130.974V273.026H132.45V275.947H141.134ZM129.027 269.823C131.633 269.807 135.135 269.776 138.135 269.399L138.229 270.467C137.028 270.663 135.763 270.796 134.523 270.875V273.623H133.031V270.953C131.665 271.016 130.354 271.024 129.215 271.016L129.027 269.823ZM133.628 263.934C135.685 263.934 137.114 264.923 137.114 266.415C137.114 267.907 135.685 268.865 133.628 268.865C131.539 268.865 130.126 267.907 130.126 266.415C130.126 264.923 131.539 263.934 133.628 263.934ZM133.628 265.049C132.372 265.033 131.524 265.567 131.539 266.415C131.524 267.247 132.372 267.766 133.628 267.766C134.837 267.766 135.685 267.247 135.701 266.415C135.685 265.567 134.837 265.033 133.628 265.049Z" fill="#008660"/>
<g clip-path="url(#clip1_5010_32576)">
<path d="M39.7497 358.388V365.926H37.977V362.925H35.9949V361.487H37.977V358.388H39.7497ZM35.4086 366.205C38.1165 366.219 39.7776 367.112 39.7915 368.662C39.7776 370.197 38.1165 371.104 35.4086 371.104C32.7007 371.104 31.0397 370.197 31.0397 368.662C31.0397 367.112 32.7007 366.219 35.4086 366.205ZM35.4086 367.573C33.7197 367.573 32.8124 367.922 32.8124 368.662C32.8124 369.387 33.7197 369.75 35.4086 369.75C37.0976 369.75 38.0188 369.387 38.0188 368.662C38.0188 367.922 37.0976 367.573 35.4086 367.573ZM36.3717 359.156V360.58H33.8453C33.8872 362.059 34.7805 363.553 36.7626 364.209L35.8832 365.605C34.4804 365.151 33.5173 364.23 32.9659 363.078C32.4006 364.376 31.3886 365.423 29.8811 365.94L28.9599 364.53C31.0466 363.832 31.9819 362.171 32.0307 360.58H29.4763V359.156H36.3717ZM46.1682 360.566C46.1543 362.185 47.0755 363.762 49.1413 364.432L48.2061 365.828C46.8173 365.36 45.8611 364.446 45.3168 363.288C44.7445 364.565 43.7325 365.563 42.2599 366.065L41.2688 364.656C43.4324 363.986 44.3676 362.283 44.3816 360.552V359.17H46.1682V360.566ZM51.5561 358.388V362.059H53.273V363.567H51.5561V367.698H49.7695V358.388H51.5561ZM52.0307 369.443V370.867H43.3068V366.777H45.1213V369.443H52.0307ZM68.2457 358.388V371.09H66.5289V364.739H65.3424V370.476H63.6674V358.598H65.3424V363.302H66.5289V358.388H68.2457ZM59.5916 359.798V366.428C60.6105 366.407 61.7272 366.317 62.9555 366.079L63.137 367.615C61.4341 367.908 59.9824 367.992 58.6703 367.992H57.8049V359.798H59.5916ZM80.4291 366.47V371.09H78.6564V367.866H71.7051V366.47H80.4291ZM80.4291 358.388V365.898H78.6564V364.293H75.8089C75.2017 364.949 74.3014 365.339 73.2685 365.339C71.3422 365.339 69.8766 364.013 69.8906 362.171C69.8766 360.37 71.3422 359.058 73.2685 359.072C74.3014 359.065 75.2017 359.449 75.8089 360.091H78.6564V358.388H80.4291ZM73.2685 360.566C72.2774 360.566 71.5656 361.18 71.5795 362.171C71.5656 363.218 72.2774 363.818 73.2685 363.818C74.2037 363.818 74.9295 363.218 74.9295 362.171C74.9295 361.18 74.2037 360.566 73.2685 360.566ZM76.5487 362.869H78.6564V361.529H76.5626C76.5975 361.731 76.6185 361.948 76.6185 362.171C76.6185 362.415 76.5906 362.646 76.5487 362.869Z" fill="#171717"/>
<path d="M95.1731 356.862C99.2844 356.862 102.617 360.195 102.617 364.306C102.617 368.418 99.2845 371.75 95.1731 371.75C91.0618 371.75 87.7288 368.418 87.7288 364.306C87.7289 360.195 91.0619 356.862 95.1731 356.862ZM95.1731 357.979C91.6786 357.979 88.8461 360.812 88.8459 364.306C88.8459 367.801 91.6785 370.634 95.1731 370.634C98.6678 370.634 101.501 367.801 101.501 364.306C101.501 360.812 98.6677 357.979 95.1731 357.979ZM95.7317 368.029H94.6155V363.562H95.7317V368.029ZM95.7317 361.701H94.6155V360.584H95.7317V361.701Z" fill="#C2C4C8"/>
<path d="M258.954 358.707V367.291H257.711V362.881H255.473V361.873H257.711V358.707H258.954ZM259.268 369.162V370.17H251.338V366.519H252.581V369.162H259.268ZM253.379 361.075C253.379 362.541 254.439 364.006 256.206 364.595L255.565 365.59C254.249 365.125 253.275 364.183 252.764 363.025C252.254 364.314 251.227 365.354 249.833 365.851L249.192 364.844C250.998 364.229 252.11 362.685 252.11 361.075V360.617H249.571V359.596H255.892V360.617H253.379V361.075ZM264.395 362.292C264.395 364.137 265.246 366.022 266.869 366.885L266.175 367.801C265.043 367.199 264.251 366.074 263.833 364.739C263.407 366.172 262.622 367.402 261.49 368.076L260.757 367.134C262.38 366.192 263.218 364.19 263.231 362.292V361.821H261.111V360.8H263.231V359.112H264.395V360.8H266.476V361.821H264.395V362.292ZM270.951 358.693V370.418H269.761V358.693H270.951ZM268.57 358.942V369.83H267.392V364.294H265.704V363.26H267.392V358.942H268.57ZM286.729 367.932V368.966H275.998V367.932H280.722V365.524H277.228V359.492H278.471V361.507H284.229V359.492H285.459V365.524H281.952V367.932H286.729ZM278.471 364.517H284.229V362.515H278.471V364.517ZM297.457 358.693V370.418H296.201V358.693H297.457ZM293.963 359.95C293.963 363.378 292.497 366.362 288.48 368.285L287.826 367.278C290.947 365.793 292.465 363.679 292.707 360.944H288.388V359.95H293.963Z" fill="#008660"/>
<path fill-rule="evenodd" clip-rule="evenodd" d="M308.815 360.163C308.631 360.352 308.636 360.653 308.825 360.837L312.294 364.207L308.815 367.786C308.632 367.975 308.636 368.276 308.824 368.46C309.013 368.643 309.315 368.639 309.498 368.45L313.31 364.53C313.398 364.439 313.446 364.317 313.445 364.191C313.443 364.064 313.391 363.944 313.3 363.856L309.489 360.153C309.3 359.97 308.998 359.974 308.815 360.163Z" fill="#008660"/>
<path d="M39.0476 397.107V408.832H37.7913V397.107H39.0476ZM35.5536 398.363C35.5536 401.791 34.088 404.775 30.0706 406.699L29.4163 405.691C32.5373 404.206 34.0553 402.092 34.2974 399.357H29.979V398.363H35.5536ZM50.2207 397.107V400.574H51.9219V401.608H50.2207V405.625H48.9645V397.107H50.2207ZM47.0408 397.996C47.0408 401.072 44.9471 403.309 41.5186 404.343L40.9951 403.349C43.7366 402.524 45.4444 400.967 45.693 399.03H41.4924V397.996H47.0408ZM50.7049 407.575V408.583H42.7748V404.749H44.0311V407.575H50.7049Z" fill="#878A93"/>
<path d="M199.874 397.107V404.081H198.631V401.111H196.445V400.09H198.631V397.107H199.874ZM195.948 404.408C198.408 404.408 199.913 405.22 199.913 406.62C199.913 408.02 198.408 408.818 195.948 408.832C193.488 408.818 191.97 408.02 191.983 406.62C191.97 405.22 193.488 404.408 195.948 404.408ZM195.948 405.377C194.234 405.377 193.213 405.822 193.213 406.62C193.213 407.405 194.234 407.863 195.948 407.85C197.662 407.863 198.683 407.405 198.683 406.62C198.683 405.822 197.662 405.377 195.948 405.377ZM194.299 399.174C194.299 400.666 195.359 402.105 197.126 402.707L196.485 403.689C195.169 403.231 194.201 402.295 193.697 401.137C193.18 402.452 192.153 403.506 190.753 404.016L190.099 403.021C191.918 402.393 193.03 400.81 193.03 399.187V398.925H190.491V397.918H196.812V398.925H194.299V399.174ZM205.878 399.253C205.878 400.823 206.977 402.302 208.757 402.904L208.116 403.885C206.801 403.421 205.826 402.485 205.302 401.307C204.792 402.622 203.784 403.65 202.41 404.16L201.717 403.178C203.575 402.537 204.648 400.967 204.648 399.213V397.826H205.878V399.253ZM211.021 397.093V400.627H212.722V401.687H211.021V405.743H209.778V397.093H211.021ZM211.531 407.575V408.583H203.601V404.906H204.87V407.575H211.531ZM217.625 404.108C217.638 401.647 218.331 399.593 219.561 397.839H220.844C219.941 399.135 219.077 401.778 219.077 404.108C219.077 406.45 219.941 409.08 220.844 410.389H219.561C218.331 408.635 217.638 406.581 217.625 404.108ZM231.925 397.107V408.832H230.735V397.107H231.925ZM229.57 397.329V408.256H228.392V404.474H226.691C226.272 405.639 225.494 406.313 224.493 406.306C222.962 406.319 221.967 404.709 221.967 402.171C221.967 399.632 222.962 398.036 224.493 398.049C225.494 398.042 226.266 398.71 226.691 399.868H228.392V397.329H229.57ZM224.493 399.213C223.629 399.213 223.106 400.3 223.106 402.171C223.106 404.042 223.629 405.128 224.493 405.128C225.356 405.128 225.906 404.042 225.906 402.171C225.906 400.3 225.356 399.213 224.493 399.213ZM226.953 400.875C227.012 401.274 227.044 401.706 227.044 402.171C227.044 402.629 227.012 403.061 226.953 403.453H228.392V400.875H226.953ZM243.321 397.107V404.081H242.078V401.111H239.893V400.09H242.078V397.107H243.321ZM239.395 404.408C241.855 404.408 243.36 405.22 243.36 406.62C243.36 408.02 241.855 408.818 239.395 408.832C236.935 408.818 235.417 408.02 235.43 406.62C235.417 405.22 236.935 404.408 239.395 404.408ZM239.395 405.377C237.681 405.377 236.66 405.822 236.66 406.62C236.66 407.405 237.681 407.863 239.395 407.85C241.11 407.863 242.13 407.405 242.13 406.62C242.13 405.822 241.11 405.377 239.395 405.377ZM237.746 399.174C237.746 400.666 238.806 402.105 240.573 402.707L239.932 403.689C238.617 403.231 237.648 402.295 237.145 401.137C236.628 402.452 235.6 403.506 234.2 404.016L233.546 403.021C235.365 402.393 236.477 400.81 236.477 399.187V398.925H233.938V397.918H240.259V398.925H237.746V399.174ZM248.475 404.108C248.462 406.581 247.768 408.635 246.538 410.389H245.256C246.159 409.08 247.022 406.45 247.022 404.108C247.022 401.778 246.159 399.135 245.256 397.839H246.538C247.768 399.593 248.462 401.647 248.475 404.108ZM262.943 397.695V398.585C262.943 399.508 262.943 400.555 262.642 401.975H264.304V402.995H253.574V401.975H261.386C261.7 400.607 261.713 399.606 261.713 398.716H254.922V397.695H262.943ZM262.956 404.487V408.688H254.882V404.487H262.956ZM256.099 405.468V407.68H261.726V405.468H256.099ZM268.071 397.826C269.628 397.826 270.766 398.991 270.766 400.64C270.766 402.289 269.628 403.414 268.071 403.414C266.5 403.414 265.375 402.289 265.388 400.64C265.375 398.991 266.5 397.826 268.071 397.826ZM268.071 398.899C267.155 398.899 266.5 399.593 266.5 400.64C266.5 401.66 267.155 402.38 268.071 402.367C268.974 402.38 269.628 401.66 269.641 400.64C269.628 399.593 268.974 398.899 268.071 398.899ZM275.281 397.12V404.108H274.103V401.085H272.742V404.029H271.578V397.329H272.742V400.077H274.103V397.12H275.281ZM275.281 404.709V408.832H274.051V405.704H267.312V404.709H275.281Z" fill="#878A93"/>
<path d="M287.387 396.764C290.676 396.764 293.342 399.431 293.342 402.72C293.342 406.009 290.676 408.675 287.387 408.675C284.098 408.675 281.431 406.009 281.431 402.72C281.431 399.431 284.098 396.764 287.387 396.764ZM287.387 397.657C284.591 397.657 282.324 399.924 282.324 402.72C282.325 405.515 284.591 407.781 287.387 407.781C290.182 407.781 292.448 405.515 292.448 402.72C292.448 399.924 290.183 397.657 287.387 397.657ZM287.833 405.697H286.94V402.124H287.833V405.697ZM287.833 400.635H286.94V399.741H287.833V400.635Z" fill="#C2C4C8"/>
<g clip-path="url(#clip2_5010_32576)">
<mask id="path-22-inside-1_5010_32576" fill="white">
<path d="M28.8667 423.266H328.133V630.466H28.8667V423.266Z"/>
</mask>
<path d="M29.6519 448.986V447.756L33.0019 444.524C33.9571 443.569 34.4544 443.006 34.4544 442.208C34.4544 441.331 33.7608 440.768 32.8317 440.768C31.8503 440.768 31.2222 441.383 31.2353 442.339H29.6126C29.5995 440.546 30.9474 439.381 32.8448 439.381C34.7815 439.381 36.0901 440.533 36.0901 442.129C36.0901 443.202 35.5667 444.066 33.7085 445.82L32.0204 447.495V447.56H36.2341V448.986H29.6519ZM41.2176 449.117C39.3201 449.117 37.933 447.992 37.8807 446.421H39.5426C39.5949 447.194 40.3147 447.743 41.2176 447.743C42.2776 447.743 43.0365 446.971 43.0365 445.924C43.0365 444.838 42.2514 444.066 41.1653 444.066C40.4324 444.053 39.8959 444.315 39.5949 444.877H38.0116L38.5873 439.512H44.1881V440.938H39.9875L39.6996 443.451H39.7912C40.1576 443.032 40.8512 442.731 41.6233 442.731C43.3899 442.731 44.6854 444.053 44.6854 445.872C44.6854 447.769 43.259 449.117 41.2176 449.117ZM46.9863 449.091C46.4236 449.091 45.9656 448.633 45.9656 448.07C45.9656 447.521 46.4236 447.063 46.9863 447.063C47.5228 447.063 47.9939 447.521 47.9939 448.07C47.9939 448.633 47.5228 449.091 46.9863 449.091ZM52.8335 449.117C50.5565 449.117 49.1956 447.351 49.1956 444.249C49.1956 441.161 50.5565 439.381 52.8335 439.381C55.0973 439.381 56.4714 441.161 56.4714 444.249C56.4714 447.351 55.1104 449.117 52.8335 449.117ZM52.8335 447.691C54.0243 447.691 54.7571 446.526 54.7571 444.249C54.7571 441.985 54.0112 440.795 52.8335 440.795C51.6557 440.795 50.9098 441.985 50.9098 444.249C50.9098 446.526 51.6427 447.691 52.8335 447.691ZM61.468 449.117C59.3611 449.117 57.8693 447.992 57.8693 446.448C57.8693 445.244 58.7592 444.262 59.8977 444.079V444.027C58.9031 443.817 58.2227 442.954 58.2227 441.92C58.2227 440.454 59.5967 439.381 61.468 439.381C63.3262 439.381 64.7002 440.454 64.7002 441.92C64.7002 442.954 64.0066 443.817 63.0252 444.027V444.079C64.1637 444.262 65.0666 445.244 65.0666 446.448C65.0666 447.992 63.5617 449.117 61.468 449.117ZM61.468 447.769C62.5803 447.769 63.3131 447.167 63.3131 446.291C63.3131 445.401 62.5279 444.746 61.468 444.746C60.3949 444.746 59.6098 445.401 59.6229 446.291C59.6098 447.167 60.3426 447.769 61.468 447.769ZM61.468 443.477C62.384 443.477 63.0383 442.901 63.0383 442.077C63.0383 441.279 62.3971 440.716 61.468 440.716C60.5258 440.716 59.8846 441.266 59.8846 442.077C59.8846 442.901 60.5389 443.477 61.468 443.477ZM67.3675 449.091C66.8048 449.091 66.3468 448.633 66.3468 448.07C66.3468 447.521 66.8048 447.063 67.3675 447.063C67.904 447.063 68.3751 447.521 68.3751 448.07C68.3751 448.633 67.904 449.091 67.3675 449.091ZM73.2147 449.117C70.9378 449.117 69.5768 447.351 69.5768 444.249C69.5768 441.161 70.9378 439.381 73.2147 439.381C75.4786 439.381 76.8526 441.161 76.8526 444.249C76.8526 447.351 75.4917 449.117 73.2147 449.117ZM73.2147 447.691C74.4055 447.691 75.1383 446.526 75.1383 444.249C75.1383 441.985 74.3924 440.795 73.2147 440.795C72.037 440.795 71.2911 441.985 71.2911 444.249C71.2911 446.526 72.0239 447.691 73.2147 447.691ZM82.2549 439.512V448.986H80.5406V441.174H80.4883L78.2767 442.587V441.03L80.6191 439.512H82.2549ZM88.4663 443.896C88.8981 443.425 89.4477 443.176 90.0497 443.176C91.0965 443.176 91.9995 443.909 93.0463 443.909C93.6483 443.909 94.1717 443.66 94.5905 443.163V444.589C94.1586 445.074 93.609 445.309 93.0071 445.309C91.9602 445.309 91.0442 444.576 90.0104 444.576C89.4084 444.576 88.885 444.825 88.4663 445.322V443.896ZM100.069 448.986V447.756L103.419 444.524C104.374 443.569 104.872 443.006 104.872 442.208C104.872 441.331 104.178 440.768 103.249 440.768C102.267 440.768 101.639 441.383 101.652 442.339H100.03C100.017 440.546 101.365 439.381 103.262 439.381C105.199 439.381 106.507 440.533 106.507 442.129C106.507 443.202 105.984 444.066 104.126 445.82L102.438 447.495V447.56H106.651V448.986H100.069ZM111.635 449.117C109.737 449.117 108.35 447.992 108.298 446.421H109.96C110.012 447.194 110.732 447.743 111.635 447.743C112.695 447.743 113.454 446.971 113.454 445.924C113.454 444.838 112.669 444.066 111.582 444.066C110.85 444.053 110.313 444.315 110.012 444.877H108.429L109.005 439.512H114.605V440.938H110.405L110.117 443.451H110.208C110.575 443.032 111.268 442.731 112.04 442.731C113.807 442.731 115.103 444.053 115.103 445.872C115.103 447.769 113.676 449.117 111.635 449.117ZM117.403 449.091C116.841 449.091 116.383 448.633 116.383 448.07C116.383 447.521 116.841 447.063 117.403 447.063C117.94 447.063 118.411 447.521 118.411 448.07C118.411 448.633 117.94 449.091 117.403 449.091ZM123.251 449.117C120.974 449.117 119.613 447.351 119.613 444.249C119.613 441.161 120.974 439.381 123.251 439.381C125.515 439.381 126.889 441.161 126.889 444.249C126.889 447.351 125.528 449.117 123.251 449.117ZM123.251 447.691C124.441 447.691 125.174 446.526 125.174 444.249C125.174 441.985 124.428 440.795 123.251 440.795C122.073 440.795 121.327 441.985 121.327 444.249C121.327 446.526 122.06 447.691 123.251 447.691ZM131.885 449.117C129.778 449.117 128.287 447.992 128.287 446.448C128.287 445.244 129.176 444.262 130.315 444.079V444.027C129.32 443.817 128.64 442.954 128.64 441.92C128.64 440.454 130.014 439.381 131.885 439.381C133.743 439.381 135.117 440.454 135.117 441.92C135.117 442.954 134.424 443.817 133.442 444.027V444.079C134.581 444.262 135.484 445.244 135.484 446.448C135.484 447.992 133.979 449.117 131.885 449.117ZM131.885 447.769C132.997 447.769 133.73 447.167 133.73 446.291C133.73 445.401 132.945 444.746 131.885 444.746C130.812 444.746 130.027 445.401 130.04 446.291C130.027 447.167 130.76 447.769 131.885 447.769ZM131.885 443.477C132.801 443.477 133.455 442.901 133.455 442.077C133.455 441.279 132.814 440.716 131.885 440.716C130.943 440.716 130.302 441.266 130.302 442.077C130.302 442.901 130.956 443.477 131.885 443.477ZM137.785 449.091C137.222 449.091 136.764 448.633 136.764 448.07C136.764 447.521 137.222 447.063 137.785 447.063C138.321 447.063 138.792 447.521 138.792 448.07C138.792 448.633 138.321 449.091 137.785 449.091ZM143.645 449.117C141.617 449.117 140.177 448.018 140.138 446.421H141.852C141.905 447.18 142.664 447.678 143.645 447.678C144.692 447.678 145.438 447.102 145.438 446.264C145.438 445.414 144.705 444.799 143.475 444.799H142.624V443.49H143.475C144.482 443.49 145.189 442.928 145.176 442.103C145.189 441.305 144.587 440.768 143.658 440.768C142.768 440.768 141.996 441.266 141.97 442.064H140.334C140.374 440.467 141.813 439.381 143.671 439.381C145.595 439.381 146.838 440.559 146.825 442.012C146.838 443.071 146.131 443.844 145.098 444.053V444.131C146.432 444.315 147.191 445.165 147.178 446.356C147.191 447.953 145.699 449.117 143.645 449.117ZM152.646 439.512V448.986H150.932V441.174H150.879L148.668 442.587V441.03L151.01 439.512H152.646Z" fill="#171717"/>
<line x1="28.8667" y1="464.259" x2="189.667" y2="464.259" stroke="#E1E2E4" stroke-width="0.893333"/>
<path d="M29.6519 490.426V489.196L33.0019 485.964C33.9571 485.009 34.4544 484.446 34.4544 483.648C34.4544 482.771 33.7608 482.208 32.8317 482.208C31.8503 482.208 31.2222 482.823 31.2353 483.779H29.6126C29.5995 481.986 30.9474 480.821 32.8448 480.821C34.7815 480.821 36.0901 481.973 36.0901 483.569C36.0901 484.642 35.5667 485.506 33.7085 487.259L32.0204 488.934V489H36.2341V490.426H29.6519ZM41.2176 490.557C39.3201 490.557 37.933 489.432 37.8807 487.861H39.5426C39.5949 488.633 40.3147 489.183 41.2176 489.183C42.2776 489.183 43.0365 488.411 43.0365 487.364C43.0365 486.278 42.2514 485.506 41.1653 485.506C40.4324 485.493 39.8959 485.755 39.5949 486.317H38.0116L38.5873 480.952H44.1881V482.378H39.9875L39.6996 484.891H39.7912C40.1576 484.472 40.8512 484.171 41.6233 484.171C43.3899 484.171 44.6854 485.493 44.6854 487.312C44.6854 489.209 43.259 490.557 41.2176 490.557ZM46.9863 490.531C46.4236 490.531 45.9656 490.073 45.9656 489.51C45.9656 488.961 46.4236 488.503 46.9863 488.503C47.5228 488.503 47.9939 488.961 47.9939 489.51C47.9939 490.073 47.5228 490.531 46.9863 490.531ZM52.8335 490.557C50.5565 490.557 49.1956 488.791 49.1956 485.689C49.1956 482.601 50.5565 480.821 52.8335 480.821C55.0973 480.821 56.4714 482.601 56.4714 485.689C56.4714 488.791 55.1104 490.557 52.8335 490.557ZM52.8335 489.131C54.0243 489.131 54.7571 487.966 54.7571 485.689C54.7571 483.425 54.0112 482.234 52.8335 482.234C51.6557 482.234 50.9098 483.425 50.9098 485.689C50.9098 487.966 51.6427 489.131 52.8335 489.131ZM58.118 490.426L62.227 482.444V482.378H57.4637V480.952H63.9936V482.405L59.8846 490.426H58.118ZM64.9074 490.531C64.3447 490.531 63.8867 490.073 63.8867 489.51C63.8867 488.961 64.3447 488.503 64.9074 488.503C65.4439 488.503 65.915 488.961 65.915 489.51C65.915 490.073 65.4439 490.531 64.9074 490.531ZM70.7546 490.557C68.4776 490.557 67.1167 488.791 67.1167 485.689C67.1167 482.601 68.4776 480.821 70.7546 480.821C73.0184 480.821 74.3924 482.601 74.3924 485.689C74.3924 488.791 73.0315 490.557 70.7546 490.557ZM70.7546 489.131C71.9454 489.131 72.6782 487.966 72.6782 485.689C72.6782 483.425 71.9323 482.234 70.7546 482.234C69.5768 482.234 68.8309 483.425 68.8309 485.689C68.8309 487.966 69.5637 489.131 70.7546 489.131ZM79.7947 480.952V490.426H78.0805V482.614H78.0281L75.8166 484.027V482.47L78.159 480.952H79.7947ZM86.0061 485.336C86.4379 484.865 86.9875 484.616 87.5895 484.616C88.6364 484.616 89.5393 485.349 90.5862 485.349C91.1881 485.349 91.7116 485.1 92.1303 484.603V486.029C91.6985 486.514 91.1489 486.749 90.5469 486.749C89.5 486.749 88.584 486.016 87.5502 486.016C86.9483 486.016 86.4248 486.265 86.0061 486.762V485.336ZM97.6089 490.426V489.196L100.959 485.964C101.914 485.009 102.411 484.446 102.411 483.648C102.411 482.771 101.718 482.208 100.789 482.208C99.8073 482.208 99.1792 482.823 99.1923 483.779H97.5696C97.5565 481.986 98.9044 480.821 100.802 480.821C102.739 480.821 104.047 481.973 104.047 483.569C104.047 484.642 103.524 485.506 101.666 487.259L99.9774 488.934V489H104.191V490.426H97.6089ZM109.175 490.557C107.277 490.557 105.89 489.432 105.838 487.861H107.5C107.552 488.633 108.272 489.183 109.175 489.183C110.235 489.183 110.994 488.411 110.994 487.364C110.994 486.278 110.208 485.506 109.122 485.506C108.389 485.493 107.853 485.755 107.552 486.317H105.969L106.544 480.952H112.145V482.378H107.945L107.657 484.891H107.748C108.115 484.472 108.808 484.171 109.58 484.171C111.347 484.171 112.642 485.493 112.642 487.312C112.642 489.209 111.216 490.557 109.175 490.557ZM114.943 490.531C114.381 490.531 113.923 490.073 113.923 489.51C113.923 488.961 114.381 488.503 114.943 488.503C115.48 488.503 115.951 488.961 115.951 489.51C115.951 490.073 115.48 490.531 114.943 490.531ZM120.791 490.557C118.514 490.557 117.153 488.791 117.153 485.689C117.153 482.601 118.514 480.821 120.791 480.821C123.054 480.821 124.428 482.601 124.428 485.689C124.428 488.791 123.067 490.557 120.791 490.557ZM120.791 489.131C121.981 489.131 122.714 487.966 122.714 485.689C122.714 483.425 121.968 482.234 120.791 482.234C119.613 482.234 118.867 483.425 118.867 485.689C118.867 487.966 119.6 489.131 120.791 489.131ZM126.075 490.426L130.184 482.444V482.378H125.421V480.952H131.951V482.405L127.842 490.426H126.075ZM132.864 490.531C132.302 490.531 131.844 490.073 131.844 489.51C131.844 488.961 132.302 488.503 132.864 488.503C133.401 488.503 133.872 488.961 133.872 489.51C133.872 490.073 133.401 490.531 132.864 490.531ZM138.725 490.557C136.696 490.557 135.257 489.458 135.218 487.861H136.932C136.984 488.62 137.743 489.118 138.725 489.118C139.772 489.118 140.517 488.542 140.517 487.704C140.517 486.854 139.785 486.239 138.555 486.239H137.704V484.93H138.555C139.562 484.93 140.269 484.367 140.256 483.543C140.269 482.745 139.667 482.208 138.738 482.208C137.848 482.208 137.076 482.706 137.05 483.504H135.414C135.453 481.907 136.893 480.821 138.751 480.821C140.674 480.821 141.918 481.999 141.905 483.451C141.918 484.511 141.211 485.283 140.177 485.493V485.571C141.512 485.755 142.271 486.605 142.258 487.796C142.271 489.392 140.779 490.557 138.725 490.557ZM147.726 480.952V490.426H146.011V482.614H145.959L143.747 484.027V482.47L146.09 480.952H147.726Z" fill="#171717"/>
<line x1="28.8667" y1="505.699" x2="189.667" y2="505.699" stroke="#E1E2E4" stroke-width="0.893333"/>
<path d="M29.6519 531.866V530.636L33.0019 527.404C33.9571 526.449 34.4544 525.886 34.4544 525.088C34.4544 524.211 33.7608 523.648 32.8317 523.648C31.8503 523.648 31.2222 524.263 31.2353 525.219H29.6126C29.5995 523.426 30.9474 522.261 32.8448 522.261C34.7815 522.261 36.0901 523.413 36.0901 525.009C36.0901 526.082 35.5667 526.946 33.7085 528.699L32.0204 530.374V530.44H36.2341V531.866H29.6519ZM41.2176 531.997C39.3201 531.997 37.933 530.872 37.8807 529.301H39.5426C39.5949 530.073 40.3147 530.623 41.2176 530.623C42.2776 530.623 43.0365 529.851 43.0365 528.804C43.0365 527.718 42.2514 526.946 41.1653 526.946C40.4324 526.933 39.8959 527.195 39.5949 527.757H38.0116L38.5873 522.392H44.1881V523.818H39.9875L39.6996 526.331H39.7912C40.1576 525.912 40.8512 525.611 41.6233 525.611C43.3899 525.611 44.6854 526.933 44.6854 528.752C44.6854 530.649 43.259 531.997 41.2176 531.997ZM46.9863 531.971C46.4236 531.971 45.9656 531.513 45.9656 530.95C45.9656 530.401 46.4236 529.943 46.9863 529.943C47.5228 529.943 47.9939 530.401 47.9939 530.95C47.9939 531.513 47.5228 531.971 46.9863 531.971ZM52.8335 531.997C50.5565 531.997 49.1956 530.23 49.1956 527.129C49.1956 524.041 50.5565 522.261 52.8335 522.261C55.0973 522.261 56.4714 524.041 56.4714 527.129C56.4714 530.23 55.1104 531.997 52.8335 531.997ZM52.8335 530.571C54.0243 530.571 54.7571 529.406 54.7571 527.129C54.7571 524.865 54.0112 523.674 52.8335 523.674C51.6557 523.674 50.9098 524.865 50.9098 527.129C50.9098 529.406 51.6427 530.571 52.8335 530.571ZM61.5727 531.997C59.7275 531.984 57.8693 530.885 57.8824 527.391C57.8824 524.146 59.3611 522.261 61.6774 522.261C63.5094 522.261 64.7656 523.413 64.975 524.944H63.2869C63.1168 524.224 62.541 523.74 61.6774 523.74C60.3033 523.74 59.5313 524.957 59.5313 526.946H59.6229C60.107 526.135 61.0231 525.65 62.0568 525.65C63.758 525.65 65.0666 526.933 65.0666 528.726C65.0666 530.61 63.6664 532.01 61.5727 531.997ZM61.5727 530.623C62.6326 530.623 63.4178 529.799 63.4178 528.765C63.4178 527.757 62.6457 526.946 61.5988 526.946C60.5389 526.946 59.7275 527.783 59.7145 528.778C59.7275 529.772 60.4996 530.623 61.5727 530.623ZM67.2759 531.971C66.7132 531.971 66.2552 531.513 66.2552 530.95C66.2552 530.401 66.7132 529.943 67.2759 529.943C67.8124 529.943 68.2835 530.401 68.2835 530.95C68.2835 531.513 67.8124 531.971 67.2759 531.971ZM73.1231 531.997C70.8462 531.997 69.4852 530.23 69.4852 527.129C69.4852 524.041 70.8462 522.261 73.1231 522.261C75.387 522.261 76.761 524.041 76.761 527.129C76.761 530.23 75.4001 531.997 73.1231 531.997ZM73.1231 530.571C74.3139 530.571 75.0467 529.406 75.0467 527.129C75.0467 524.865 74.3008 523.674 73.1231 523.674C71.9454 523.674 71.1995 524.865 71.1995 527.129C71.1995 529.406 71.9323 530.571 73.1231 530.571ZM82.1633 522.392V531.866H80.449V524.054H80.3967L78.1851 525.467V523.91L80.5275 522.392H82.1633ZM88.3747 526.776C88.8065 526.305 89.3561 526.056 89.9581 526.056C91.0049 526.056 91.9079 526.789 92.9547 526.789C93.5567 526.789 94.0801 526.54 94.4989 526.043V527.469C94.067 527.954 93.5174 528.189 92.9155 528.189C91.8686 528.189 90.9526 527.456 89.9188 527.456C89.3168 527.456 88.7934 527.705 88.3747 528.202V526.776ZM99.9774 531.866V530.636L103.327 527.404C104.283 526.449 104.78 525.886 104.78 525.088C104.78 524.211 104.086 523.648 103.157 523.648C102.176 523.648 101.548 524.263 101.561 525.219H99.9382C99.9251 523.426 101.273 522.261 103.17 522.261C105.107 522.261 106.416 523.413 106.416 525.009C106.416 526.082 105.892 526.946 104.034 528.699L102.346 530.374V530.44H106.56V531.866H99.9774ZM111.543 531.997C109.646 531.997 108.259 530.872 108.206 529.301H109.868C109.921 530.073 110.64 530.623 111.543 530.623C112.603 530.623 113.362 529.851 113.362 528.804C113.362 527.718 112.577 526.946 111.491 526.946C110.758 526.933 110.222 527.195 109.921 527.757H108.337L108.913 522.392H114.514V523.818H110.313L110.025 526.331H110.117C110.483 525.912 111.177 525.611 111.949 525.611C113.715 525.611 115.011 526.933 115.011 528.752C115.011 530.649 113.585 531.997 111.543 531.997ZM117.312 531.971C116.749 531.971 116.291 531.513 116.291 530.95C116.291 530.401 116.749 529.943 117.312 529.943C117.848 529.943 118.319 530.401 118.319 530.95C118.319 531.513 117.848 531.971 117.312 531.971ZM123.159 531.997C120.882 531.997 119.521 530.23 119.521 527.129C119.521 524.041 120.882 522.261 123.159 522.261C125.423 522.261 126.797 524.041 126.797 527.129C126.797 530.23 125.436 531.997 123.159 531.997ZM123.159 530.571C124.35 530.571 125.083 529.406 125.083 527.129C125.083 524.865 124.337 523.674 123.159 523.674C121.981 523.674 121.235 524.865 121.235 527.129C121.235 529.406 121.968 530.571 123.159 530.571ZM131.898 531.997C130.053 531.984 128.195 530.885 128.208 527.391C128.208 524.146 129.687 522.261 132.003 522.261C133.835 522.261 135.091 523.413 135.301 524.944H133.613C133.442 524.224 132.867 523.74 132.003 523.74C130.629 523.74 129.857 524.957 129.857 526.946H129.948C130.433 526.135 131.349 525.65 132.382 525.65C134.084 525.65 135.392 526.933 135.392 528.726C135.392 530.61 133.992 532.01 131.898 531.997ZM131.898 530.623C132.958 530.623 133.743 529.799 133.743 528.765C133.743 527.757 132.971 526.946 131.924 526.946C130.864 526.946 130.053 527.783 130.04 528.778C130.053 529.772 130.825 530.623 131.898 530.623ZM137.602 531.971C137.039 531.971 136.581 531.513 136.581 530.95C136.581 530.401 137.039 529.943 137.602 529.943C138.138 529.943 138.609 530.401 138.609 530.95C138.609 531.513 138.138 531.971 137.602 531.971ZM143.462 531.997C141.433 531.997 139.994 530.898 139.955 529.301H141.669C141.721 530.06 142.48 530.558 143.462 530.558C144.509 530.558 145.255 529.982 145.255 529.144C145.255 528.294 144.522 527.679 143.292 527.679H142.441V526.37H143.292C144.299 526.37 145.006 525.807 144.993 524.983C145.006 524.185 144.404 523.648 143.475 523.648C142.585 523.648 141.813 524.146 141.787 524.944H140.151C140.19 523.347 141.63 522.261 143.488 522.261C145.412 522.261 146.655 523.439 146.642 524.891C146.655 525.951 145.948 526.723 144.914 526.933V527.011C146.249 527.195 147.008 528.045 146.995 529.236C147.008 530.832 145.516 531.997 143.462 531.997ZM152.109 531.997C149.832 531.997 148.471 530.23 148.471 527.129C148.471 524.041 149.832 522.261 152.109 522.261C154.373 522.261 155.747 524.041 155.747 527.129C155.747 530.23 154.386 531.997 152.109 531.997ZM152.109 530.571C153.3 530.571 154.033 529.406 154.033 527.129C154.033 524.865 153.287 523.674 152.109 523.674C150.932 523.674 150.186 524.865 150.186 527.129C150.186 529.406 150.919 530.571 152.109 530.571Z" fill="#171717"/>
<line x1="28.8667" y1="547.139" x2="189.667" y2="547.139" stroke="#E1E2E4" stroke-width="0.893333"/>
<path d="M29.6519 573.306V572.076L33.0019 568.844C33.9571 567.889 34.4544 567.326 34.4544 566.528C34.4544 565.651 33.7608 565.088 32.8317 565.088C31.8503 565.088 31.2222 565.703 31.2353 566.658H29.6126C29.5995 564.866 30.9474 563.701 32.8448 563.701C34.7815 563.701 36.0901 564.853 36.0901 566.449C36.0901 567.522 35.5667 568.386 33.7085 570.139L32.0204 571.814V571.88H36.2341V573.306H29.6519ZM41.2176 573.437C39.3201 573.437 37.933 572.312 37.8807 570.741H39.5426C39.5949 571.513 40.3147 572.063 41.2176 572.063C42.2776 572.063 43.0365 571.291 43.0365 570.244C43.0365 569.158 42.2514 568.386 41.1653 568.386C40.4324 568.373 39.8959 568.634 39.5949 569.197H38.0116L38.5873 563.832H44.1881V565.258H39.9875L39.6996 567.771H39.7912C40.1576 567.352 40.8512 567.051 41.6233 567.051C43.3899 567.051 44.6854 568.373 44.6854 570.192C44.6854 572.089 43.259 573.437 41.2176 573.437ZM46.9863 573.411C46.4236 573.411 45.9656 572.953 45.9656 572.39C45.9656 571.841 46.4236 571.383 46.9863 571.383C47.5228 571.383 47.9939 571.841 47.9939 572.39C47.9939 572.953 47.5228 573.411 46.9863 573.411ZM52.8335 573.437C50.5565 573.437 49.1956 571.67 49.1956 568.569C49.1956 565.481 50.5565 563.701 52.8335 563.701C55.0973 563.701 56.4714 565.481 56.4714 568.569C56.4714 571.67 55.1104 573.437 52.8335 573.437ZM52.8335 572.011C54.0243 572.011 54.7571 570.846 54.7571 568.569C54.7571 566.305 54.0112 565.114 52.8335 565.114C51.6557 565.114 50.9098 566.305 50.9098 568.569C50.9098 570.846 51.6427 572.011 52.8335 572.011ZM61.3895 573.437C59.492 573.437 58.1049 572.312 58.0525 570.741H59.7145C59.7668 571.513 60.4865 572.063 61.3895 572.063C62.4494 572.063 63.2084 571.291 63.2084 570.244C63.2084 569.158 62.4232 568.386 61.3371 568.386C60.6043 568.373 60.0678 568.634 59.7668 569.197H58.1834L58.7592 563.832H64.36V565.258H60.1594L59.8715 567.771H59.9631C60.3295 567.352 61.0231 567.051 61.7951 567.051C63.5617 567.051 64.8572 568.373 64.8572 570.192C64.8572 572.089 63.4309 573.437 61.3895 573.437ZM67.1581 573.411C66.5954 573.411 66.1374 572.953 66.1374 572.39C66.1374 571.841 66.5954 571.383 67.1581 571.383C67.6947 571.383 68.1658 571.841 68.1658 572.39C68.1658 572.953 67.6947 573.411 67.1581 573.411ZM73.0053 573.437C70.7284 573.437 69.3674 571.67 69.3674 568.569C69.3674 565.481 70.7284 563.701 73.0053 563.701C75.2692 563.701 76.6432 565.481 76.6432 568.569C76.6432 571.67 75.2823 573.437 73.0053 573.437ZM73.0053 572.011C74.1962 572.011 74.929 570.846 74.929 568.569C74.929 566.305 74.1831 565.114 73.0053 565.114C71.8276 565.114 71.0817 566.305 71.0817 568.569C71.0817 570.846 71.8145 572.011 73.0053 572.011ZM82.0455 563.832V573.306H80.3312V565.494H80.2789L78.0674 566.907V565.35L80.4098 563.832H82.0455ZM88.2569 568.216C88.6887 567.745 89.2383 567.496 89.8403 567.496C90.8872 567.496 91.7901 568.229 92.837 568.229C93.4389 568.229 93.9623 567.98 94.3811 567.483V568.909C93.9493 569.393 93.3997 569.629 92.7977 569.629C91.7508 569.629 90.8348 568.896 89.801 568.896C89.1991 568.896 88.6756 569.145 88.2569 569.642V568.216ZM99.8597 573.306V572.076L103.21 568.844C104.165 567.889 104.662 567.326 104.662 566.528C104.662 565.651 103.969 565.088 103.04 565.088C102.058 565.088 101.43 565.703 101.443 566.658H99.8204C99.8073 564.866 101.155 563.701 103.053 563.701C104.989 563.701 106.298 564.853 106.298 566.449C106.298 567.522 105.775 568.386 103.916 570.139L102.228 571.814V571.88H106.442V573.306H99.8597ZM111.425 573.437C109.528 573.437 108.141 572.312 108.089 570.741H109.75C109.803 571.513 110.522 572.063 111.425 572.063C112.485 572.063 113.244 571.291 113.244 570.244C113.244 569.158 112.459 568.386 111.373 568.386C110.64 568.373 110.104 568.634 109.803 569.197H108.219L108.795 563.832H114.396V565.258H110.195L109.907 567.771H109.999C110.365 567.352 111.059 567.051 111.831 567.051C113.598 567.051 114.893 568.373 114.893 570.192C114.893 572.089 113.467 573.437 111.425 573.437ZM117.194 573.411C116.631 573.411 116.173 572.953 116.173 572.39C116.173 571.841 116.631 571.383 117.194 571.383C117.731 571.383 118.202 571.841 118.202 572.39C118.202 572.953 117.731 573.411 117.194 573.411ZM123.041 573.437C120.764 573.437 119.403 571.67 119.403 568.569C119.403 565.481 120.764 563.701 123.041 563.701C125.305 563.701 126.679 565.481 126.679 568.569C126.679 571.67 125.318 573.437 123.041 573.437ZM123.041 572.011C124.232 572.011 124.965 570.846 124.965 568.569C124.965 566.305 124.219 565.114 123.041 565.114C121.864 565.114 121.118 566.305 121.118 568.569C121.118 570.846 121.85 572.011 123.041 572.011ZM131.597 573.437C129.7 573.437 128.313 572.312 128.26 570.741H129.922C129.975 571.513 130.694 572.063 131.597 572.063C132.657 572.063 133.416 571.291 133.416 570.244C133.416 569.158 132.631 568.386 131.545 568.386C130.812 568.373 130.276 568.634 129.975 569.197H128.391L128.967 563.832H134.568V565.258H130.367L130.079 567.771H130.171C130.537 567.352 131.231 567.051 132.003 567.051C133.77 567.051 135.065 568.373 135.065 570.192C135.065 572.089 133.639 573.437 131.597 573.437ZM137.366 573.411C136.803 573.411 136.345 572.953 136.345 572.39C136.345 571.841 136.803 571.383 137.366 571.383C137.902 571.383 138.374 571.841 138.374 572.39C138.374 572.953 137.902 573.411 137.366 573.411ZM143.226 573.437C141.198 573.437 139.758 572.338 139.719 570.741H141.433C141.486 571.5 142.245 571.998 143.226 571.998C144.273 571.998 145.019 571.422 145.019 570.584C145.019 569.734 144.286 569.119 143.056 569.119H142.206V567.81H143.056C144.064 567.81 144.77 567.247 144.757 566.423C144.77 565.625 144.168 565.088 143.239 565.088C142.349 565.088 141.577 565.585 141.551 566.384H139.915C139.955 564.787 141.394 563.701 143.252 563.701C145.176 563.701 146.419 564.879 146.406 566.331C146.419 567.391 145.713 568.163 144.679 568.373V568.451C146.014 568.634 146.773 569.485 146.759 570.676C146.773 572.272 145.281 573.437 143.226 573.437ZM152.227 563.832V573.306H150.513V565.494H150.461L148.249 566.907V565.35L150.591 563.832H152.227Z" fill="#171717"/>
<line x1="28.8667" y1="588.579" x2="189.667" y2="588.579" stroke="#E1E2E4" stroke-width="0.893333"/>
<path d="M193.894 449.117C191.787 449.117 190.295 447.992 190.295 446.448C190.295 445.244 191.185 444.262 192.323 444.079V444.027C191.329 443.817 190.648 442.954 190.648 441.92C190.648 440.454 192.022 439.381 193.894 439.381C195.752 439.381 197.126 440.454 197.126 441.92C197.126 442.954 196.432 443.817 195.451 444.027V444.079C196.589 444.262 197.492 445.244 197.492 446.448C197.492 447.992 195.987 449.117 193.894 449.117ZM193.894 447.769C195.006 447.769 195.739 447.167 195.739 446.291C195.739 445.401 194.954 444.746 193.894 444.746C192.821 444.746 192.036 445.401 192.049 446.291C192.036 447.167 192.768 447.769 193.894 447.769ZM193.894 443.477C194.81 443.477 195.464 442.901 195.464 442.077C195.464 441.279 194.823 440.716 193.894 440.716C192.952 440.716 192.31 441.266 192.31 442.077C192.31 442.901 192.965 443.477 193.894 443.477ZM202.528 449.117C200.251 449.117 198.89 447.351 198.89 444.249C198.89 441.161 200.251 439.381 202.528 439.381C204.792 439.381 206.166 441.161 206.166 444.249C206.166 447.351 204.805 449.117 202.528 449.117ZM202.528 447.691C203.719 447.691 204.452 446.526 204.452 444.249C204.452 441.985 203.706 440.795 202.528 440.795C201.351 440.795 200.605 441.985 200.605 444.249C200.605 446.526 201.337 447.691 202.528 447.691ZM211.084 449.117C209.187 449.117 207.8 447.992 207.747 446.421H209.409C209.462 447.194 210.181 447.743 211.084 447.743C212.144 447.743 212.903 446.971 212.903 445.924C212.903 444.838 212.118 444.066 211.032 444.066C210.299 444.053 209.763 444.315 209.462 444.877H207.878L208.454 439.512H214.055V440.938H209.854L209.566 443.451H209.658C210.024 443.032 210.718 442.731 211.49 442.731C213.256 442.731 214.552 444.053 214.552 445.872C214.552 447.769 213.126 449.117 211.084 449.117ZM217.717 448.057L216.617 451.721H215.374L216.055 448.057H217.717ZM222.766 449.117C220.489 449.117 219.128 447.351 219.128 444.249C219.128 441.161 220.489 439.381 222.766 439.381C225.029 439.381 226.403 441.161 226.403 444.249C226.403 447.351 225.042 449.117 222.766 449.117ZM222.766 447.691C223.956 447.691 224.689 446.526 224.689 444.249C224.689 441.985 223.943 440.795 222.766 440.795C221.588 440.795 220.842 441.985 220.842 444.249C220.842 446.526 221.575 447.691 222.766 447.691ZM231.452 449.117C229.175 449.117 227.814 447.351 227.814 444.249C227.814 441.161 229.175 439.381 231.452 439.381C233.716 439.381 235.09 441.161 235.09 444.249C235.09 447.351 233.729 449.117 231.452 449.117ZM231.452 447.691C232.643 447.691 233.376 446.526 233.376 444.249C233.376 441.985 232.63 440.795 231.452 440.795C230.275 440.795 229.529 441.985 229.529 444.249C229.529 446.526 230.262 447.691 231.452 447.691ZM240.139 449.117C237.862 449.117 236.501 447.351 236.501 444.249C236.501 441.161 237.862 439.381 240.139 439.381C242.403 439.381 243.777 441.161 243.777 444.249C243.777 447.351 242.416 449.117 240.139 449.117ZM240.139 447.691C241.33 447.691 242.063 446.526 242.063 444.249C242.063 441.985 241.317 440.795 240.139 440.795C238.961 440.795 238.216 441.985 238.216 444.249C238.216 446.526 238.948 447.691 240.139 447.691Z" fill="#171717"/>
<path d="M254.848 438.387V447.272H253.605V446.147H251.249V445.27H253.605V438.387H254.848ZM255.136 448.842V449.85H246.669V446.408H247.899V448.842H255.136ZM245.046 443.739C247.219 443.726 250.137 443.7 252.636 443.386L252.715 444.275C251.714 444.439 250.66 444.55 249.627 444.616V446.906H248.383V444.681C247.245 444.733 246.152 444.74 245.204 444.733L245.046 443.739ZM248.881 438.832C250.595 438.832 251.786 439.656 251.786 440.899C251.786 442.142 250.595 442.941 248.881 442.941C247.14 442.941 245.962 442.142 245.962 440.899C245.962 439.656 247.14 438.832 248.881 438.832ZM248.881 439.761C247.834 439.748 247.127 440.193 247.14 440.899C247.127 441.593 247.834 442.025 248.881 442.025C249.888 442.025 250.595 441.593 250.608 440.899C250.595 440.193 249.888 439.748 248.881 439.761Z" fill="#171717"/>
<line x1="189.667" y1="464.26" x2="328.134" y2="464.26" stroke="#E1E2E4" stroke-width="0.893333"/>
<path d="M193.815 480.821C195.673 480.834 197.505 481.933 197.519 485.401C197.519 488.673 196.04 490.557 193.711 490.557C191.879 490.557 190.622 489.419 190.413 487.848H192.101C192.271 488.594 192.847 489.078 193.711 489.078C195.085 489.078 195.857 487.861 195.87 485.833H195.765C195.281 486.658 194.378 487.142 193.331 487.142C191.643 487.142 190.334 485.859 190.321 484.067C190.321 482.208 191.708 480.808 193.815 480.821ZM193.828 482.195C192.768 482.195 191.97 483.02 191.983 484.027C191.983 485.048 192.742 485.846 193.802 485.846C194.849 485.846 195.673 484.996 195.66 484.014C195.66 483.046 194.888 482.195 193.828 482.195ZM202.502 490.557C200.395 490.557 198.903 489.432 198.903 487.888C198.903 486.684 199.793 485.702 200.932 485.519V485.467C199.937 485.257 199.257 484.394 199.257 483.36C199.257 481.894 200.631 480.821 202.502 480.821C204.36 480.821 205.734 481.894 205.734 483.36C205.734 484.394 205.041 485.257 204.059 485.467V485.519C205.198 485.702 206.101 486.684 206.101 487.888C206.101 489.432 204.596 490.557 202.502 490.557ZM202.502 489.209C203.614 489.209 204.347 488.607 204.347 487.731C204.347 486.841 203.562 486.186 202.502 486.186C201.429 486.186 200.644 486.841 200.657 487.731C200.644 488.607 201.377 489.209 202.502 489.209ZM202.502 484.917C203.418 484.917 204.072 484.341 204.072 483.517C204.072 482.719 203.431 482.156 202.502 482.156C201.56 482.156 200.919 482.706 200.919 483.517C200.919 484.341 201.573 484.917 202.502 484.917ZM211.137 490.557C208.86 490.557 207.499 488.791 207.499 485.689C207.499 482.601 208.86 480.821 211.137 480.821C213.4 480.821 214.774 482.601 214.774 485.689C214.774 488.791 213.414 490.557 211.137 490.557ZM211.137 489.131C212.327 489.131 213.06 487.966 213.06 485.689C213.06 483.425 212.314 482.234 211.137 482.234C209.959 482.234 209.213 483.425 209.213 485.689C209.213 487.966 209.946 489.131 211.137 489.131ZM217.861 489.497L216.761 493.161H215.518L216.199 489.497H217.861ZM222.909 490.557C220.633 490.557 219.272 488.791 219.272 485.689C219.272 482.601 220.633 480.821 222.909 480.821C225.173 480.821 226.547 482.601 226.547 485.689C226.547 488.791 225.186 490.557 222.909 490.557ZM222.909 489.131C224.1 489.131 224.833 487.966 224.833 485.689C224.833 483.425 224.087 482.234 222.909 482.234C221.732 482.234 220.986 483.425 220.986 485.689C220.986 487.966 221.719 489.131 222.909 489.131ZM231.596 490.557C229.319 490.557 227.958 488.791 227.958 485.689C227.958 482.601 229.319 480.821 231.596 480.821C233.86 480.821 235.234 482.601 235.234 485.689C235.234 488.791 233.873 490.557 231.596 490.557ZM231.596 489.131C232.787 489.131 233.52 487.966 233.52 485.689C233.52 483.425 232.774 482.234 231.596 482.234C230.419 482.234 229.673 483.425 229.673 485.689C229.673 487.966 230.406 489.131 231.596 489.131ZM240.283 490.557C238.006 490.557 236.645 488.791 236.645 485.689C236.645 482.601 238.006 480.821 240.283 480.821C242.547 480.821 243.921 482.601 243.921 485.689C243.921 488.791 242.56 490.557 240.283 490.557ZM240.283 489.131C241.474 489.131 242.207 487.966 242.207 485.689C242.207 483.425 241.461 482.234 240.283 482.234C239.105 482.234 238.36 483.425 238.36 485.689C238.36 487.966 239.092 489.131 240.283 489.131Z" fill="#171717"/>
<path d="M254.848 479.827V488.712H253.605V487.587H251.249V486.71H253.605V479.827H254.848ZM255.136 490.282V491.29H246.669V487.848H247.899V490.282H255.136ZM245.046 485.179C247.219 485.166 250.137 485.14 252.636 484.825L252.715 485.715C251.714 485.879 250.66 485.99 249.627 486.056V488.346H248.383V486.121C247.245 486.173 246.152 486.18 245.204 486.173L245.046 485.179ZM248.881 480.272C250.595 480.272 251.786 481.096 251.786 482.339C251.786 483.582 250.595 484.381 248.881 484.381C247.14 484.381 245.962 483.582 245.962 482.339C245.962 481.096 247.14 480.272 248.881 480.272ZM248.881 481.201C247.834 481.188 247.127 481.633 247.14 482.339C247.127 483.033 247.834 483.465 248.881 483.465C249.888 483.465 250.595 483.033 250.608 482.339C250.595 481.633 249.888 481.188 248.881 481.201Z" fill="#171717"/>
<line x1="189.667" y1="505.7" x2="328.134" y2="505.7" stroke="#E1E2E4" stroke-width="0.893333"/>
<path d="M194.299 522.392V531.866H192.585V524.054H192.533L190.321 525.467V523.91L192.664 522.392H194.299ZM198.118 530.937L197.019 534.601H195.776L196.456 530.937H198.118ZM203.298 531.997C201.401 531.997 200.014 530.872 199.961 529.301H201.623C201.675 530.073 202.395 530.623 203.298 530.623C204.358 530.623 205.117 529.851 205.117 528.804C205.117 527.718 204.332 526.946 203.246 526.946C202.513 526.933 201.976 527.195 201.675 527.757H200.092L200.668 522.392H206.269V523.818H202.068L201.78 526.331H201.872C202.238 525.912 202.932 525.611 203.704 525.611C205.47 525.611 206.766 526.933 206.766 528.752C206.766 530.649 205.34 531.997 203.298 531.997ZM208.687 531.866L212.796 523.884V523.818H208.033V522.392H214.563V523.845L210.454 531.866H208.687ZM219.35 531.997C217.073 531.997 215.712 530.23 215.712 527.129C215.712 524.041 217.073 522.261 219.35 522.261C221.614 522.261 222.988 524.041 222.988 527.129C222.988 530.23 221.627 531.997 219.35 531.997ZM219.35 530.571C220.541 530.571 221.274 529.406 221.274 527.129C221.274 524.865 220.528 523.674 219.35 523.674C218.172 523.674 217.426 524.865 217.426 527.129C217.426 529.406 218.159 530.571 219.35 530.571ZM226.074 530.937L224.975 534.601H223.732L224.412 530.937H226.074ZM231.123 531.997C228.846 531.997 227.485 530.23 227.485 527.129C227.485 524.041 228.846 522.261 231.123 522.261C233.387 522.261 234.761 524.041 234.761 527.129C234.761 530.23 233.4 531.997 231.123 531.997ZM231.123 530.571C232.314 530.571 233.047 529.406 233.047 527.129C233.047 524.865 232.301 523.674 231.123 523.674C229.945 523.674 229.199 524.865 229.199 527.129C229.199 529.406 229.932 530.571 231.123 530.571ZM239.81 531.997C237.533 531.997 236.172 530.23 236.172 527.129C236.172 524.041 237.533 522.261 239.81 522.261C242.074 522.261 243.448 524.041 243.448 527.129C243.448 530.23 242.087 531.997 239.81 531.997ZM239.81 530.571C241.001 530.571 241.733 529.406 241.733 527.129C241.733 524.865 240.988 523.674 239.81 523.674C238.632 523.674 237.886 524.865 237.886 527.129C237.886 529.406 238.619 530.571 239.81 530.571ZM248.497 531.997C246.22 531.997 244.859 530.23 244.859 527.129C244.859 524.041 246.22 522.261 248.497 522.261C250.761 522.261 252.135 524.041 252.135 527.129C252.135 530.23 250.774 531.997 248.497 531.997ZM248.497 530.571C249.688 530.571 250.42 529.406 250.42 527.129C250.42 524.865 249.674 523.674 248.497 523.674C247.319 523.674 246.573 524.865 246.573 527.129C246.573 529.406 247.306 530.571 248.497 530.571Z" fill="#171717"/>
<path d="M263.848 521.267V530.152H262.605V529.027H260.249V528.15H262.605V521.267H263.848ZM264.136 531.722V532.73H255.669V529.288H256.899V531.722H264.136ZM254.046 526.619C256.219 526.606 259.137 526.579 261.636 526.265L261.715 527.155C260.714 527.319 259.66 527.43 258.627 527.496V529.786H257.383V527.561C256.245 527.613 255.152 527.62 254.204 527.613L254.046 526.619ZM257.881 521.712C259.595 521.712 260.786 522.536 260.786 523.779C260.786 525.022 259.595 525.821 257.881 525.821C256.14 525.821 254.962 525.022 254.962 523.779C254.962 522.536 256.14 521.712 257.881 521.712ZM257.881 522.641C256.834 522.628 256.127 523.072 256.14 523.779C256.127 524.473 256.834 524.904 257.881 524.904C258.888 524.904 259.595 524.473 259.608 523.779C259.595 523.072 258.888 522.628 257.881 522.641Z" fill="#171717"/>
<line x1="189.667" y1="547.14" x2="328.134" y2="547.14" stroke="#E1E2E4" stroke-width="0.893333"/>
<path d="M190.452 573.306V572.076L193.802 568.844C194.757 567.889 195.255 567.326 195.255 566.528C195.255 565.651 194.561 565.088 193.632 565.088C192.651 565.088 192.022 565.703 192.036 566.658H190.413C190.4 564.866 191.748 563.701 193.645 563.701C195.582 563.701 196.89 564.853 196.89 566.449C196.89 567.522 196.367 568.386 194.509 570.139L192.821 571.814V571.88H197.034V573.306H190.452ZM200.565 572.377L199.466 576.041H198.223L198.903 572.377H200.565ZM205.745 573.437C203.848 573.437 202.461 572.312 202.408 570.741H204.07C204.123 571.513 204.842 572.063 205.745 572.063C206.805 572.063 207.564 571.291 207.564 570.244C207.564 569.158 206.779 568.386 205.693 568.386C204.96 568.373 204.423 568.634 204.123 569.197H202.539L203.115 563.832H208.716V565.258H204.515L204.227 567.771H204.319C204.685 567.352 205.379 567.051 206.151 567.051C207.917 567.051 209.213 568.373 209.213 570.192C209.213 572.089 207.787 573.437 205.745 573.437ZM214.144 563.701C216.002 563.714 217.834 564.813 217.847 568.281C217.847 571.553 216.369 573.437 214.039 573.437C212.207 573.437 210.951 572.299 210.742 570.728H212.43C212.6 571.474 213.176 571.958 214.039 571.958C215.413 571.958 216.186 570.741 216.199 568.713H216.094C215.61 569.537 214.707 570.022 213.66 570.022C211.972 570.022 210.663 568.739 210.65 566.946C210.65 565.088 212.037 563.688 214.144 563.701ZM214.157 565.075C213.097 565.075 212.299 565.9 212.312 566.907C212.312 567.928 213.071 568.726 214.131 568.726C215.178 568.726 216.002 567.875 215.989 566.894C215.989 565.926 215.217 565.075 214.157 565.075ZM222.883 573.437C220.606 573.437 219.245 571.67 219.245 568.569C219.245 565.481 220.606 563.701 222.883 563.701C225.147 563.701 226.521 565.481 226.521 568.569C226.521 571.67 225.16 573.437 222.883 573.437ZM222.883 572.011C224.074 572.011 224.807 570.846 224.807 568.569C224.807 566.305 224.061 565.114 222.883 565.114C221.706 565.114 220.96 566.305 220.96 568.569C220.96 570.846 221.692 572.011 222.883 572.011ZM229.607 572.377L228.508 576.041H227.265L227.945 572.377H229.607ZM234.656 573.437C232.379 573.437 231.018 571.67 231.018 568.569C231.018 565.481 232.379 563.701 234.656 563.701C236.92 563.701 238.294 565.481 238.294 568.569C238.294 571.67 236.933 573.437 234.656 573.437ZM234.656 572.011C235.847 572.011 236.58 570.846 236.58 568.569C236.58 566.305 235.834 565.114 234.656 565.114C233.478 565.114 232.733 566.305 232.733 568.569C232.733 570.846 233.465 572.011 234.656 572.011ZM243.343 573.437C241.066 573.437 239.705 571.67 239.705 568.569C239.705 565.481 241.066 563.701 243.343 563.701C245.607 563.701 246.981 565.481 246.981 568.569C246.981 571.67 245.62 573.437 243.343 573.437ZM243.343 572.011C244.534 572.011 245.267 570.846 245.267 568.569C245.267 566.305 244.521 565.114 243.343 565.114C242.165 565.114 241.419 566.305 241.419 568.569C241.419 570.846 242.152 572.011 243.343 572.011ZM252.03 573.437C249.753 573.437 248.392 571.67 248.392 568.569C248.392 565.481 249.753 563.701 252.03 563.701C254.294 563.701 255.668 565.481 255.668 568.569C255.668 571.67 254.307 573.437 252.03 573.437ZM252.03 572.011C253.221 572.011 253.954 570.846 253.954 568.569C253.954 566.305 253.208 565.114 252.03 565.114C250.852 565.114 250.106 566.305 250.106 568.569C250.106 570.846 250.839 572.011 252.03 572.011Z" fill="#171717"/>
<path d="M266.848 562.707V571.592H265.605V570.467H263.249V569.59H265.605V562.707H266.848ZM267.136 573.162V574.17H258.669V570.728H259.899V573.162H267.136ZM257.046 568.059C259.219 568.046 262.137 568.019 264.636 567.705L264.715 568.595C263.714 568.759 262.66 568.87 261.627 568.935V571.225H260.383V569.001C259.245 569.053 258.152 569.06 257.204 569.053L257.046 568.059ZM260.881 563.151C262.595 563.151 263.786 563.976 263.786 565.219C263.786 566.462 262.595 567.26 260.881 567.26C259.14 567.26 257.962 566.462 257.962 565.219C257.962 563.976 259.14 563.151 260.881 563.151ZM260.881 564.081C259.834 564.067 259.127 564.512 259.14 565.219C259.127 565.913 259.834 566.344 260.881 566.344C261.888 566.344 262.595 565.913 262.608 565.219C262.595 564.512 261.888 564.067 260.881 564.081Z" fill="#171717"/>
<line x1="189.667" y1="588.58" x2="328.134" y2="588.58" stroke="#E1E2E4" stroke-width="0.893333"/>
</g>
<path d="M28.8667 423.266V424.159H328.133V423.266V422.373H28.8667V423.266Z" fill="#171717" mask="url(#path-22-inside-1_5010_32576)"/>
</g>
</g>
</g>
<defs>
<filter id="filter0_ddd_5010_32576" x="0.280001" y="0.506433" width="356.44" height="605.68" filterUnits="userSpaceOnUse" color-interpolation-filters="sRGB">
<feFlood flood-opacity="0" result="BackgroundImageFix"/>
<feColorMatrix in="SourceAlpha" type="matrix" values="0 0 0 0 0 0 0 0 0 0 0 0 0 0 0 0 0 0 127 0" result="hardAlpha"/>
<feOffset/>
<feGaussianBlur stdDeviation="0.893333"/>
<feComposite in2="hardAlpha" operator="out"/>
<feColorMatrix type="matrix" values="0 0 0 0 0 0 0 0 0 0 0 0 0 0 0 0 0 0 0.05 0"/>
<feBlend mode="normal" in2="BackgroundImageFix" result="effect1_dropShadow_5010_32576"/>
<feColorMatrix in="SourceAlpha" type="matrix" values="0 0 0 0 0 0 0 0 0 0 0 0 0 0 0 0 0 0 127 0" result="hardAlpha"/>
<feOffset dy="0.893333"/>
<feGaussianBlur stdDeviation="2.23333"/>
<feComposite in2="hardAlpha" operator="out"/>
<feColorMatrix type="matrix" values="0 0 0 0 0 0 0 0 0 0 0 0 0 0 0 0 0 0 0.05 0"/>
<feBlend mode="normal" in2="effect1_dropShadow_5010_32576" result="effect2_dropShadow_5010_32576"/>
<feColorMatrix in="SourceAlpha" type="matrix" values="0 0 0 0 0 0 0 0 0 0 0 0 0 0 0 0 0 0 127 0" result="hardAlpha"/>
<feOffset dy="4.46667"/>
<feGaussianBlur stdDeviation="5.36"/>
<feComposite in2="hardAlpha" operator="out"/>
<feColorMatrix type="matrix" values="0 0 0 0 0 0 0 0 0 0 0 0 0 0 0 0 0 0 0.05 0"/>
<feBlend mode="normal" in2="effect2_dropShadow_5010_32576" result="effect3_dropShadow_5010_32576"/>
<feBlend mode="normal" in="SourceGraphic" in2="effect3_dropShadow_5010_32576" result="shape"/>
</filter>
<clipPath id="clip0_5010_32576">
<rect x="11" y="6.75977" width="335" height="584.24" rx="21.44" fill="white"/>
</clipPath>
<clipPath id="clip1_5010_32576">
<rect width="299.267" height="305.467" fill="white" transform="translate(28.8667 346.439)"/>
</clipPath>
<clipPath id="clip2_5010_32576">
<path d="M28.8667 423.266H328.133V630.466H28.8667V423.266Z" fill="white"/>
</clipPath>
</defs>
</svg>
