<svg width="316" height="316" viewBox="0 0 316 316" fill="none" xmlns="http://www.w3.org/2000/svg">
<path fill-rule="evenodd" clip-rule="evenodd" d="M134.721 0.907939C142.44 -1.16034 150.374 3.42041 152.442 11.1393L174.899 94.9475L236.252 33.5941C241.903 27.9434 251.064 27.9434 256.715 33.5941L282.316 59.1949C287.966 64.8456 287.966 74.0071 282.316 79.6577L220.965 141.009L304.765 163.463C312.484 165.532 317.065 173.466 314.997 181.185L305.626 216.156C303.558 223.875 295.624 228.456 287.905 226.387L204.101 203.932L226.556 287.737C228.625 295.456 224.044 303.39 216.325 305.458L181.354 314.828C173.635 316.897 165.701 312.316 163.632 304.597L131.443 184.463L11.3078 152.273C3.58894 150.205 -0.991822 142.271 1.07646 134.552L10.447 99.5806C12.5153 91.8617 20.4494 87.281 28.1683 89.3493L111.974 111.805L89.5185 27.9998C87.4502 20.2809 92.0309 12.3468 99.7498 10.2785L134.721 0.907939Z" fill="#D1F6EC"/>
<path fill-rule="evenodd" clip-rule="evenodd" d="M28.2878 89.2615C20.5689 87.1932 12.6348 91.774 10.5665 99.4929L1.19596 134.464C-0.872315 142.183 3.70845 150.117 11.4274 152.186L131.73 184.421L163.948 304.658C166.016 312.377 173.95 316.958 181.669 314.89L216.64 305.519C224.359 303.451 228.94 295.517 226.872 287.798L187.221 139.818C186.598 137.494 185.433 135.439 183.897 133.769C182.044 131.505 179.481 129.773 176.447 128.961L28.2878 89.2615Z" fill="#00FCB4"/>
<path fill-rule="evenodd" clip-rule="evenodd" d="M79.6713 282.3L105.272 256.699C110.923 251.048 110.923 241.887 105.272 236.236L79.6713 210.635C74.0207 204.984 64.8592 204.984 59.2086 210.635L33.6077 236.236C27.9571 241.887 27.9571 251.048 33.6077 256.699L59.2086 282.3C64.8592 287.95 74.0207 287.95 79.6713 282.3Z" fill="#00FCB4"/>
</svg>
