<svg width="88" height="64" viewBox="0 0 88 64" fill="none" xmlns="http://www.w3.org/2000/svg">
<g clip-path="url(#clip0_2350_28999)">
<circle cx="44" cy="32" r="32" fill="#EAEBEC"/>
<path fillRule="evenodd" clip-rule="evenodd" d="M44.0008 17.1655C38.4637 17.1655 33.975 21.6542 33.975 27.1914C33.975 32.7285 38.4637 37.2172 44.0008 37.2172C49.5379 37.2172 54.0266 32.7285 54.0266 27.1914C54.0266 21.6542 49.5379 17.1655 44.0008 17.1655ZM41.7729 39.4452C30.6986 39.4452 21.7212 48.4226 21.7212 59.4968V59.7196C21.7212 60.9501 22.7187 64.8121 23.9492 64.8121H64.0525C65.2829 64.8121 66.2804 60.9501 66.2804 59.7196V59.4968C66.2804 48.4226 57.303 39.4452 46.2288 39.4452H41.7729Z" fill="#C2C4C8"/>
</g>
<path d="M71 37.25C77.4893 37.25 82.75 42.5107 82.75 49C82.75 55.4893 77.4893 60.75 71 60.75C64.5107 60.75 59.25 55.4893 59.25 49C59.25 42.5107 64.5107 37.25 71 37.25Z" fill="#008660"/>
<path d="M71 37.25C77.4893 37.25 82.75 42.5107 82.75 49C82.75 55.4893 77.4893 60.75 71 60.75C64.5107 60.75 59.25 55.4893 59.25 49C59.25 42.5107 64.5107 37.25 71 37.25Z" stroke="white" stroke-width="1.5"/>
<path fillRule="evenodd" clip-rule="evenodd" d="M71.6482 43.8147C71.6482 43.4567 71.3581 43.1665 71.0001 43.1665C70.6421 43.1665 70.3519 43.4567 70.3519 43.8147V48.3517H65.8149C65.4569 48.3517 65.1667 48.6419 65.1667 48.9998C65.1667 49.3578 65.4569 49.648 65.8149 49.648H70.3519V54.185C70.3519 54.543 70.6421 54.8332 71.0001 54.8332C71.3581 54.8332 71.6482 54.543 71.6482 54.185V49.648H76.1853C76.5432 49.648 76.8334 49.3578 76.8334 48.9998C76.8334 48.6419 76.5432 48.3517 76.1853 48.3517H71.6482V43.8147Z" fill="white"/>
<defs>
<clipPath id="clip0_2350_28999">
<rect x="12" width="64" height="64" rx="32" fill="white"/>
</clipPath>
</defs>
</svg>
