<svg width="26" height="26" viewBox="0 0 26 26" fill="none" xmlns="http://www.w3.org/2000/svg">
<path d="M13 1.25C19.4893 1.25 24.75 6.51065 24.75 13C24.75 19.4893 19.4893 24.75 13 24.75C6.51065 24.75 1.25 19.4893 1.25 13C1.25 6.51065 6.51065 1.25 13 1.25Z" fill="#008660"/>
<path d="M13 1.25C19.4893 1.25 24.75 6.51065 24.75 13C24.75 19.4893 19.4893 24.75 13 24.75C6.51065 24.75 1.25 19.4893 1.25 13C1.25 6.51065 6.51065 1.25 13 1.25Z" stroke="white" stroke-width="1.5"/>
<path fill-rule="evenodd" clip-rule="evenodd" d="M13.6482 7.81465C13.6482 7.45669 13.3581 7.1665 13.0001 7.1665C12.6421 7.1665 12.3519 7.45669 12.3519 7.81465V12.3517H7.8149C7.45692 12.3517 7.16675 12.6419 7.16675 12.9998C7.16675 13.3578 7.45692 13.648 7.8149 13.648H12.3519V18.185C12.3519 18.543 12.6421 18.8332 13.0001 18.8332C13.3581 18.8332 13.6482 18.543 13.6482 18.185V13.648H18.1853C18.5432 13.648 18.8334 13.3578 18.8334 12.9998C18.8334 12.6419 18.5432 12.3517 18.1853 12.3517H13.6482V7.81465Z" fill="white"/>
</svg>
