<svg width="94" height="32" viewBox="0 0 94 32" fill="none" xmlns="http://www.w3.org/2000/svg">
<rect x="0.75" width="93" height="26" rx="13" fill="#171717"/>
<path d="M21.5742 13.7471V15.7148C22.6152 15.6577 23.6689 15.5688 24.6592 15.4229L24.748 16.3115C22.1709 16.7812 19.416 16.8066 17.3848 16.8066L17.2324 15.8164C18.1465 15.8101 19.2256 15.8037 20.3682 15.7656V13.7471H21.5742ZM24.126 9.15137V10.1289H21.5742C21.6377 11.4619 22.7168 12.6172 24.418 13.0742L23.8594 14.0137C22.501 13.6265 21.4854 12.8013 20.9775 11.7158C20.4761 12.8584 19.4795 13.7217 18.1084 14.1152L17.5371 13.2012C19.2319 12.7188 20.2983 11.5254 20.3555 10.1289H17.8418V9.15137H20.3682V7.79297H21.5742V9.15137H24.126ZM26.5762 7.7041V19.1045H25.3701V7.7041H26.5762ZM37.7541 8.37695V9.27832C37.7541 10.2432 37.7541 11.373 37.4748 12.8711H39.0745V13.8613H28.6643V12.8711H36.2561C36.5544 11.3921 36.5608 10.313 36.5608 9.35449H29.9719V8.37695H37.7541ZM38.0969 17.8477V18.8379H30.0227V15.042H31.2161V17.8477H38.0969ZM54.0036 16.7051V17.7207H43.5935V16.7051H48.1765V14.7119H44.863V11.0938H51.5407V9.49414H44.8376V8.50391H52.7341V12.0586H46.0564V13.7217H53.0007V14.7119H49.3698V16.7051H54.0036ZM64.1025 8.85938V10.0781C64.1025 11.5508 64.1025 13.1504 63.6836 15.5752L62.4521 15.4609C62.9091 13.1885 62.9091 11.5127 62.9091 10.0781V9.84961H56.206V8.85938H64.1025ZM65.4609 16.4639V17.4668H55.0888V16.4639H65.4609ZM76.0168 7.7168V15.9814H74.8107V7.7168H76.0168ZM76.3596 17.8604V18.8379H68.5773V15.1436H69.7961V17.8604H76.3596ZM69.8469 8.47852C71.5607 8.47852 72.8684 9.64648 72.8684 11.2969C72.8684 12.9727 71.5607 14.1279 69.8469 14.1279C68.133 14.1279 66.8127 12.9727 66.8127 11.2969C66.8127 9.64648 68.133 8.47852 69.8469 8.47852ZM69.8469 9.53223C68.7805 9.53223 67.9934 10.2559 67.9934 11.2969C67.9934 12.3633 68.7805 13.0742 69.8469 13.0742C70.8879 13.0742 71.6877 12.3633 71.6877 11.2969C71.6877 10.2559 70.8879 9.53223 69.8469 9.53223Z" fill="white"/>
<path d="M48.116 31.5C47.7311 32.1667 46.7689 32.1667 46.384 31.5L42.9199 25.5C42.535 24.8333 43.0161 24 43.7859 24L50.7141 24C51.4839 24 51.965 24.8333 51.5801 25.5L48.116 31.5Z" fill="#171717"/>
</svg>
