<svg width="25" height="26" viewBox="0 0 25 26" fill="none" xmlns="http://www.w3.org/2000/svg">
<path  fillRule="evenodd" clip-rule="evenodd" d="M10.6462 0.685082C11.2461 0.524335 11.8628 0.880352 12.0235 1.48027L13.7688 7.99386L18.5372 3.22545C18.9764 2.78629 19.6884 2.78629 20.1276 3.22545L22.1173 5.21516C22.5564 5.65433 22.5564 6.36636 22.1173 6.80553L17.3491 11.5738L23.8621 13.3189C24.462 13.4797 24.818 14.0963 24.6573 14.6962L23.929 17.4142C23.7682 18.0141 23.1516 18.3701 22.5517 18.2094L16.0384 16.4642L17.7837 22.9775C17.9444 23.5774 17.5884 24.194 16.9885 24.3548L14.2705 25.0831C13.6706 25.2438 13.0539 24.8878 12.8932 24.2879L10.3914 14.9511L1.05449 12.4492C0.454572 12.2885 0.0985537 11.6718 0.259301 11.0719L0.987583 8.35394C1.14833 7.75403 1.76497 7.39801 2.36488 7.55876L8.87828 9.30402L7.13303 2.79067C6.97228 2.19075 7.3283 1.57411 7.92822 1.41336L10.6462 0.685082Z" fill="#D1F6EC"/>
<path fillRule="evenodd" clip-rule="evenodd" d="M2.37465 7.55227C1.77473 7.39152 1.1581 7.74754 0.997348 8.34745L0.269066 11.0654C0.108319 11.6654 0.464337 12.282 1.06425 12.4427L10.4142 14.9481L12.9182 24.293C13.0789 24.8929 13.6955 25.2489 14.2955 25.0882L17.0134 24.3599C17.6134 24.1991 17.9694 23.5825 17.8086 22.9826L14.7269 11.4816C14.6785 11.3009 14.588 11.1412 14.4686 11.0114C14.3246 10.8354 14.1254 10.7009 13.8896 10.6377L2.37465 7.55227Z" fill="#00FCB4"/>
<path fillRule="evenodd" clip-rule="evenodd" d="M6.36843 22.5554L8.35814 20.5657C8.79731 20.1265 8.79731 19.4145 8.35814 18.9753L6.36844 16.9856C5.92927 16.5465 5.21723 16.5465 4.77806 16.9856L2.78836 18.9753C2.34919 19.4145 2.34919 20.1265 2.78836 20.5657L4.77806 22.5554C5.21723 22.9946 5.92927 22.9946 6.36843 22.5554Z" fill="#00FCB4"/>
</svg>
