<svg width="128" height="40" viewBox="0 0 128 40" fill="none" xmlns="http://www.w3.org/2000/svg">
<path fill-rule="evenodd" clip-rule="evenodd" d="M16.2172 7.07798C16.8525 6.90776 17.5055 7.28477 17.6757 7.92007L19.524 14.8179L24.5737 9.7682C25.0387 9.30313 25.7928 9.30313 26.2578 9.7682L28.3649 11.8753C28.83 12.3403 28.83 13.0944 28.3649 13.5594L23.3154 18.6089L30.2126 20.457C30.8479 20.6273 31.2249 21.2803 31.0547 21.9156L30.2835 24.7939C30.1132 25.4292 29.4602 25.8062 28.8249 25.636L21.9275 23.7878L23.7757 30.6853C23.9459 31.3206 23.5689 31.9736 22.9336 32.1438L20.0553 32.9151C19.42 33.0853 18.767 32.7083 18.5967 32.073L15.9474 22.1854L6.05972 19.536C5.42442 19.3658 5.0474 18.7128 5.21763 18.0775L5.98887 15.1992C6.1591 14.5639 6.81211 14.1869 7.44741 14.3571L14.345 16.2053L12.4968 9.30777C12.3266 8.67246 12.7036 8.01945 13.3389 7.84922L16.2172 7.07798Z" fill="#D1F6EC"/>
<path d="M5.99879 15.1912C6.16911 14.5561 6.82161 14.1793 7.4568 14.3494L19.6511 17.617C19.9008 17.6839 20.1119 17.8262 20.2644 18.0125C20.3908 18.15 20.4866 18.3193 20.5379 18.5106L23.8015 30.6893C23.9718 31.3246 23.5941 31.978 22.9588 32.1483L20.0808 32.9198C19.4456 33.0899 18.793 32.7122 18.6228 32.077L15.9705 22.1815L6.06911 19.5282C5.43403 19.3579 5.05736 18.7053 5.22731 18.0702L5.99879 15.1912Z" fill="#00FCB4"/>
<path d="M10.0023 24.3388C10.4673 23.874 11.2209 23.8741 11.6859 24.3388L13.7934 26.4463C14.2583 26.9113 14.2583 27.6648 13.7934 28.1299L11.6859 30.2373C11.2209 30.7021 10.4673 30.7022 10.0023 30.2373L7.89492 28.1299C7.43022 27.6648 7.43019 26.9113 7.89492 26.4463L10.0023 24.3388Z" fill="#00FCB4"/>
<path d="M114.42 30.6027C112.86 30.6027 111.495 30.2538 110.325 29.5559C109.155 28.8376 108.242 27.8729 107.585 26.662C106.949 25.4511 106.631 24.117 106.631 22.6597C106.631 21.182 106.939 19.8479 107.554 18.6575C108.17 17.4465 109.053 16.4922 110.202 15.7943C111.351 15.076 112.706 14.7168 114.266 14.7168C115.846 14.7168 117.201 15.076 118.33 15.7943C119.479 16.4922 120.362 17.4465 120.977 18.6575C121.593 19.8479 121.901 21.182 121.901 22.6597V23.5833H109.001C109.125 24.4864 109.412 25.3176 109.863 26.077C110.336 26.8159 110.962 27.4111 111.741 27.8627C112.521 28.2937 113.424 28.5092 114.451 28.5092C115.538 28.5092 116.452 28.2732 117.191 27.8011C117.93 27.3085 118.504 26.6825 118.915 25.9231H121.439C120.906 27.2982 120.054 28.4271 118.884 29.3096C117.735 30.1717 116.247 30.6027 114.42 30.6027ZM109.032 21.4283H119.5C119.294 20.1147 118.74 19.0167 117.837 18.1341C116.934 17.2516 115.744 16.8103 114.266 16.8103C112.788 16.8103 111.598 17.2516 110.695 18.1341C109.812 19.0167 109.258 20.1147 109.032 21.4283Z" fill="#2E3837"/>
<path d="M102.503 30.3553V8.80469H104.812V30.3553H102.503Z" fill="#2E3837"/>
<path d="M93.2451 30.6016C91.9726 30.6016 90.8745 30.3553 89.9509 29.8627C89.0478 29.3701 88.309 28.7134 87.7343 27.8924V30.3553H85.4253V8.80469H87.7343V17.4557C88.309 16.6142 89.0478 15.9472 89.9509 15.4546C90.8745 14.962 91.9726 14.7157 93.2451 14.7157C94.7434 14.7157 96.0467 15.0749 97.155 15.7932C98.2838 16.4911 99.1561 17.4455 99.7718 18.6564C100.388 19.8468 100.695 21.1809 100.695 22.6587C100.695 24.1159 100.388 25.45 99.7718 26.6609C99.1561 27.8718 98.2838 28.8365 97.155 29.5548C96.0467 30.2527 94.7434 30.6016 93.2451 30.6016ZM92.9372 28.5081C94.0866 28.5081 95.0615 28.2413 95.8619 27.7077C96.6829 27.174 97.3089 26.4659 97.7399 25.5834C98.1709 24.6803 98.3864 23.7054 98.3864 22.6587C98.3864 21.5914 98.1709 20.6165 97.7399 19.7339C97.3089 18.8514 96.6829 18.1433 95.8619 17.6097C95.0615 17.076 94.0866 16.8092 92.9372 16.8092C91.8084 16.8092 90.8437 17.076 90.0433 17.6097C89.2428 18.1433 88.6374 18.8514 88.2269 19.7339C87.8164 20.6165 87.6111 21.5914 87.6111 22.6587C87.6111 23.7054 87.8164 24.6803 88.2269 25.5834C88.6374 26.4659 89.2428 27.174 90.0433 27.7077C90.8437 28.2413 91.8084 28.5081 92.9372 28.5081Z" fill="#2E3837"/>
<path d="M75.9598 30.6027C74.3999 30.6027 73.0453 30.2538 71.896 29.5559C70.7466 28.8376 69.864 27.8729 69.2483 26.662C68.6326 25.4511 68.3247 24.117 68.3247 22.6597C68.3247 21.182 68.6326 19.8479 69.2483 18.6575C69.864 17.4465 70.7466 16.4922 71.896 15.7943C73.0453 15.076 74.3999 14.7168 75.9598 14.7168C77.5402 14.7168 78.8948 15.076 80.0236 15.7943C81.173 16.4922 82.0555 17.4465 82.6713 18.6575C83.287 19.8479 83.5949 21.182 83.5949 22.6597C83.5949 24.117 83.287 25.4511 82.6713 26.662C82.0555 27.8729 81.173 28.8376 80.0236 29.5559C78.8948 30.2538 77.5402 30.6027 75.9598 30.6027ZM75.9598 28.5092C77.1091 28.5092 78.0738 28.2424 78.8537 27.7087C79.6542 27.1751 80.2596 26.467 80.6701 25.5845C81.0806 24.6814 81.2859 23.7065 81.2859 22.6597C81.2859 21.5925 81.0806 20.6176 80.6701 19.735C80.2596 18.8525 79.6542 18.1444 78.8537 17.6107C78.0738 17.0771 77.1091 16.8103 75.9598 16.8103C74.8309 16.8103 73.8663 17.0771 73.0658 17.6107C72.2654 18.1444 71.6599 18.8525 71.2494 19.735C70.8389 20.6176 70.6337 21.5925 70.6337 22.6597C70.6337 23.7065 70.8389 24.6814 71.2494 25.5845C71.6599 26.467 72.2654 27.1751 73.0658 27.7087C73.8663 28.2424 74.8309 28.5092 75.9598 28.5092Z" fill="#2E3837"/>
<path d="M60.2881 30.3564V14.9631H62.5971V18.7498C62.6792 18.483 62.8331 18.1341 63.0589 17.7031C63.3052 17.2516 63.6541 16.8 64.1056 16.3485C64.5572 15.8969 65.1216 15.5172 65.7989 15.2094C66.4967 14.881 67.3177 14.7168 68.2618 14.7168H68.4157V17.0258H68.1387C66.9893 17.0258 65.9939 17.3439 65.1524 17.9802C64.3314 18.5959 63.6951 19.4066 63.2436 20.4123C62.8126 21.3975 62.5971 22.4545 62.5971 23.5833V30.3564H60.2881Z" fill="#2E3837"/>
<path d="M48.446 30.6018C46.3731 30.6018 44.5875 30.14 43.0892 29.2164C41.6114 28.2723 40.4723 27.0101 39.6719 25.4297C38.8714 23.8493 38.4712 22.0945 38.4712 20.1652C38.4712 18.2359 38.8817 16.481 39.7027 14.9007C40.5236 13.3203 41.6833 12.0683 43.1815 11.1447C44.7003 10.2006 46.4757 9.72852 48.5076 9.72852C50.7037 9.72852 52.6022 10.2724 54.2031 11.3602C55.8246 12.4275 57.015 13.8129 57.7744 15.5164H55.2499C54.6342 14.4286 53.7721 13.5666 52.6638 12.9303C51.576 12.2941 50.2522 11.9759 48.6923 11.9759C47.0504 11.9759 45.6342 12.3454 44.4438 13.0843C43.2534 13.8026 42.34 14.7775 41.7038 16.009C41.0881 17.2404 40.7802 18.6258 40.7802 20.1652C40.7802 21.684 41.0881 23.0694 41.7038 24.3214C42.3195 25.5528 43.2123 26.538 44.3822 27.2769C45.5726 27.9952 46.9888 28.3544 48.6308 28.3544C49.8622 28.3544 51.0219 28.0876 52.1097 27.554C53.218 27.0203 54.1108 26.2507 54.7881 25.245C55.4859 24.2393 55.8348 23.0283 55.8348 21.6121H48.3845V19.5187H57.9591V30.3555H55.8348V26.7535C55.4038 27.4103 54.8497 28.0363 54.1724 28.6315C53.495 29.2062 52.6741 29.6782 51.7094 30.0477C50.7653 30.4171 49.6775 30.6018 48.446 30.6018Z" fill="#2E3837"/>
</svg>
